<?xml version='1.0' encoding='utf-8'?>
<svg xmlns:xlink="http://www.w3.org/1999/xlink" xmlns="http://www.w3.org/2000/svg" id="chart-ee3da8b6-857a-4afa-b4c9-6c0de7923564" class="pygal-chart" viewBox="0 0 800 600"><!--Generated with pygal 2.4.0 (lxml) ©Kozea 2012-2016 on 2021-03-08--><!--http://pygal.org--><!--http://github.com/Kozea/pygal--><defs><style type="text/css">#chart-ee3da8b6-857a-4afa-b4c9-6c0de7923564{-webkit-user-select:none;-webkit-font-smoothing:antialiased;font-family:Helvetica,Arial,sans-serif}#chart-ee3da8b6-857a-4afa-b4c9-6c0de7923564 .title{font-family:Helvetica,Arial,sans-serif;font-size:18px}#chart-ee3da8b6-857a-4afa-b4c9-6c0de7923564 .legends .legend text{font-family:Helvetica,Arial,sans-serif;font-size:15px}#chart-ee3da8b6-857a-4afa-b4c9-6c0de7923564 .axis text{font-family:Helvetica,Arial,sans-serif;font-size:15px}#chart-ee3da8b6-857a-4afa-b4c9-6c0de7923564 .axis text.major{font-family:Helvetica,Arial,sans-serif;font-size:15px}#chart-ee3da8b6-857a-4afa-b4c9-6c0de7923564 .text-overlay text.value{font-family:Helvetica,Arial,sans-serif;font-size:15px}#chart-ee3da8b6-857a-4afa-b4c9-6c0de7923564 .text-overlay text.label{font-family:Helvetica,Arial,sans-serif;font-size:15px}#chart-ee3da8b6-857a-4afa-b4c9-6c0de7923564 .tooltip{font-family:Helvetica,Arial,sans-serif;font-size:14px}#chart-ee3da8b6-857a-4afa-b4c9-6c0de7923564 text.no_data{font-family:Helvetica,Arial,sans-serif;font-size:64px}
#chart-ee3da8b6-857a-4afa-b4c9-6c0de7923564{background-color:transparent}#chart-ee3da8b6-857a-4afa-b4c9-6c0de7923564 path,#chart-ee3da8b6-857a-4afa-b4c9-6c0de7923564 line,#chart-ee3da8b6-857a-4afa-b4c9-6c0de7923564 rect,#chart-ee3da8b6-857a-4afa-b4c9-6c0de7923564 circle{-webkit-transition:150ms;-moz-transition:150ms;transition:150ms}#chart-ee3da8b6-857a-4afa-b4c9-6c0de7923564 .graph &gt; .background{fill:transparent}#chart-ee3da8b6-857a-4afa-b4c9-6c0de7923564 .plot &gt; .background{fill:white}#chart-ee3da8b6-857a-4afa-b4c9-6c0de7923564 .graph{fill:rgba(0,0,0,.87)}#chart-ee3da8b6-857a-4afa-b4c9-6c0de7923564 text.no_data{fill:rgba(0,0,0,1)}#chart-ee3da8b6-857a-4afa-b4c9-6c0de7923564 .title{fill:rgba(0,0,0,1)}#chart-ee3da8b6-857a-4afa-b4c9-6c0de7923564 .legends .legend text{fill:rgba(0,0,0,.87)}#chart-ee3da8b6-857a-4afa-b4c9-6c0de7923564 .legends .legend:hover text{fill:rgba(0,0,0,1)}#chart-ee3da8b6-857a-4afa-b4c9-6c0de7923564 .axis .line{stroke:rgba(0,0,0,1)}#chart-ee3da8b6-857a-4afa-b4c9-6c0de7923564 .axis .guide.line{stroke:rgba(0,0,0,.54)}#chart-ee3da8b6-857a-4afa-b4c9-6c0de7923564 .axis .major.line{stroke:rgba(0,0,0,.87)}#chart-ee3da8b6-857a-4afa-b4c9-6c0de7923564 .axis text.major{fill:rgba(0,0,0,1)}#chart-ee3da8b6-857a-4afa-b4c9-6c0de7923564 .axis.y .guides:hover .guide.line,#chart-ee3da8b6-857a-4afa-b4c9-6c0de7923564 .line-graph .axis.x .guides:hover .guide.line,#chart-ee3da8b6-857a-4afa-b4c9-6c0de7923564 .stackedline-graph .axis.x .guides:hover .guide.line,#chart-ee3da8b6-857a-4afa-b4c9-6c0de7923564 .xy-graph .axis.x .guides:hover .guide.line{stroke:rgba(0,0,0,1)}#chart-ee3da8b6-857a-4afa-b4c9-6c0de7923564 .axis .guides:hover text{fill:rgba(0,0,0,1)}#chart-ee3da8b6-857a-4afa-b4c9-6c0de7923564 .reactive{fill-opacity:.7;stroke-opacity:.8}#chart-ee3da8b6-857a-4afa-b4c9-6c0de7923564 .ci{stroke:rgba(0,0,0,.87)}#chart-ee3da8b6-857a-4afa-b4c9-6c0de7923564 .reactive.active,#chart-ee3da8b6-857a-4afa-b4c9-6c0de7923564 .active .reactive{fill-opacity:.8;stroke-opacity:.9;stroke-width:4}#chart-ee3da8b6-857a-4afa-b4c9-6c0de7923564 .ci .reactive.active{stroke-width:1.5}#chart-ee3da8b6-857a-4afa-b4c9-6c0de7923564 .series text{fill:rgba(0,0,0,1)}#chart-ee3da8b6-857a-4afa-b4c9-6c0de7923564 .tooltip rect{fill:white;stroke:rgba(0,0,0,1);-webkit-transition:opacity 150ms;-moz-transition:opacity 150ms;transition:opacity 150ms}#chart-ee3da8b6-857a-4afa-b4c9-6c0de7923564 .tooltip .label{fill:rgba(0,0,0,.87)}#chart-ee3da8b6-857a-4afa-b4c9-6c0de7923564 .tooltip .label{fill:rgba(0,0,0,.87)}#chart-ee3da8b6-857a-4afa-b4c9-6c0de7923564 .tooltip .legend{font-size:.8em;fill:rgba(0,0,0,.54)}#chart-ee3da8b6-857a-4afa-b4c9-6c0de7923564 .tooltip .x_label{font-size:.6em;fill:rgba(0,0,0,1)}#chart-ee3da8b6-857a-4afa-b4c9-6c0de7923564 .tooltip .xlink{font-size:.5em;text-decoration:underline}#chart-ee3da8b6-857a-4afa-b4c9-6c0de7923564 .tooltip .value{font-size:1.5em}#chart-ee3da8b6-857a-4afa-b4c9-6c0de7923564 .bound{font-size:.5em}#chart-ee3da8b6-857a-4afa-b4c9-6c0de7923564 .max-value{font-size:.75em;fill:rgba(0,0,0,.54)}#chart-ee3da8b6-857a-4afa-b4c9-6c0de7923564 .map-element{fill:white;stroke:rgba(0,0,0,.54) !important}#chart-ee3da8b6-857a-4afa-b4c9-6c0de7923564 .map-element .reactive{fill-opacity:inherit;stroke-opacity:inherit}#chart-ee3da8b6-857a-4afa-b4c9-6c0de7923564 .color-0,#chart-ee3da8b6-857a-4afa-b4c9-6c0de7923564 .color-0 a:visited{stroke:#F44336;fill:#F44336}#chart-ee3da8b6-857a-4afa-b4c9-6c0de7923564 .text-overlay .color-0 text{fill:black}
#chart-ee3da8b6-857a-4afa-b4c9-6c0de7923564 text.no_data{text-anchor:middle}#chart-ee3da8b6-857a-4afa-b4c9-6c0de7923564 .guide.line{fill:none}#chart-ee3da8b6-857a-4afa-b4c9-6c0de7923564 .centered{text-anchor:middle}#chart-ee3da8b6-857a-4afa-b4c9-6c0de7923564 .title{text-anchor:middle}#chart-ee3da8b6-857a-4afa-b4c9-6c0de7923564 .legends .legend text{fill-opacity:1}#chart-ee3da8b6-857a-4afa-b4c9-6c0de7923564 .axis.x text{text-anchor:middle}#chart-ee3da8b6-857a-4afa-b4c9-6c0de7923564 .axis.x:not(.web) text[transform]{text-anchor:start}#chart-ee3da8b6-857a-4afa-b4c9-6c0de7923564 .axis.x:not(.web) text[transform].backwards{text-anchor:end}#chart-ee3da8b6-857a-4afa-b4c9-6c0de7923564 .axis.y text{text-anchor:end}#chart-ee3da8b6-857a-4afa-b4c9-6c0de7923564 .axis.y text[transform].backwards{text-anchor:start}#chart-ee3da8b6-857a-4afa-b4c9-6c0de7923564 .axis.y2 text{text-anchor:start}#chart-ee3da8b6-857a-4afa-b4c9-6c0de7923564 .axis.y2 text[transform].backwards{text-anchor:end}#chart-ee3da8b6-857a-4afa-b4c9-6c0de7923564 .axis .guide.line{stroke-dasharray:1}#chart-ee3da8b6-857a-4afa-b4c9-6c0de7923564 .axis .major.guide.line{stroke-dasharray:1}#chart-ee3da8b6-857a-4afa-b4c9-6c0de7923564 .horizontal .axis.y .guide.line,#chart-ee3da8b6-857a-4afa-b4c9-6c0de7923564 .horizontal .axis.y2 .guide.line,#chart-ee3da8b6-857a-4afa-b4c9-6c0de7923564 .vertical .axis.x .guide.line{opacity:0}#chart-ee3da8b6-857a-4afa-b4c9-6c0de7923564 .horizontal .axis.always_show .guide.line,#chart-ee3da8b6-857a-4afa-b4c9-6c0de7923564 .vertical .axis.always_show .guide.line{opacity:1 !important}#chart-ee3da8b6-857a-4afa-b4c9-6c0de7923564 .axis.y .guides:hover .guide.line,#chart-ee3da8b6-857a-4afa-b4c9-6c0de7923564 .axis.y2 .guides:hover .guide.line,#chart-ee3da8b6-857a-4afa-b4c9-6c0de7923564 .axis.x .guides:hover .guide.line{opacity:1}#chart-ee3da8b6-857a-4afa-b4c9-6c0de7923564 .axis .guides:hover text{opacity:1}#chart-ee3da8b6-857a-4afa-b4c9-6c0de7923564 .nofill{fill:none}#chart-ee3da8b6-857a-4afa-b4c9-6c0de7923564 .subtle-fill{fill-opacity:.2}#chart-ee3da8b6-857a-4afa-b4c9-6c0de7923564 .dot{stroke-width:1px;fill-opacity:1}#chart-ee3da8b6-857a-4afa-b4c9-6c0de7923564 .dot.active{stroke-width:5px}#chart-ee3da8b6-857a-4afa-b4c9-6c0de7923564 .dot.negative{fill:transparent}#chart-ee3da8b6-857a-4afa-b4c9-6c0de7923564 text,#chart-ee3da8b6-857a-4afa-b4c9-6c0de7923564 tspan{stroke:none !important}#chart-ee3da8b6-857a-4afa-b4c9-6c0de7923564 .series text.active{opacity:1}#chart-ee3da8b6-857a-4afa-b4c9-6c0de7923564 .tooltip rect{fill-opacity:.95;stroke-width:.5}#chart-ee3da8b6-857a-4afa-b4c9-6c0de7923564 .tooltip text{fill-opacity:1}#chart-ee3da8b6-857a-4afa-b4c9-6c0de7923564 .showable{visibility:hidden}#chart-ee3da8b6-857a-4afa-b4c9-6c0de7923564 .showable.shown{visibility:visible}#chart-ee3da8b6-857a-4afa-b4c9-6c0de7923564 .gauge-background{fill:rgba(229,229,229,1);stroke:none}#chart-ee3da8b6-857a-4afa-b4c9-6c0de7923564 .bg-lines{stroke:transparent;stroke-width:2px}</style><script type="text/javascript">window.pygal = window.pygal || {};window.pygal.config = window.pygal.config || {};window.pygal.config['ee3da8b6-857a-4afa-b4c9-6c0de7923564'] = {"allow_interruptions": false, "box_mode": "extremes", "classes": ["pygal-chart"], "css": ["file://style.css", "file://graph.css"], "defs": [], "disable_xml_declaration": false, "dots_size": 2.5, "dynamic_print_values": false, "explicit_size": false, "fill": false, "force_uri_protocol": "https", "formatter": null, "half_pie": false, "height": 600, "include_x_axis": false, "inner_radius": 0, "interpolate": null, "interpolation_parameters": {}, "interpolation_precision": 250, "inverse_y_axis": false, "js": ["//kozea.github.io/pygal.js/2.0.x/pygal-tooltips.min.js"], "legend_at_bottom": true, "legend_at_bottom_columns": 2, "legend_box_size": 12, "logarithmic": false, "margin": 20, "margin_bottom": 50, "margin_left": null, "margin_right": null, "margin_top": null, "max_scale": 16, "min_scale": 4, "missing_value_fill_truncation": "x", "no_data_text": "No data", "no_prefix": false, "order_min": null, "pretty_print": false, "print_labels": false, "print_values": false, "print_values_position": "center", "print_zeroes": true, "range": [-2.0, 1.0], "rounded_bars": null, "secondary_range": null, "show_dots": true, "show_legend": true, "show_minor_x_labels": false, "show_minor_y_labels": true, "show_only_major_dots": true, "show_x_guides": true, "show_x_labels": true, "show_y_guides": true, "show_y_labels": true, "spacing": 10, "stack_from_top": false, "strict": false, "stroke": true, "stroke_style": null, "style": {"background": "transparent", "ci_colors": [], "colors": ["#F44336", "#3F51B5", "#009688", "#FFC107", "#FF5722", "#9C27B0", "#03A9F4", "#8BC34A", "#FF9800", "#E91E63", "#2196F3", "#4CAF50", "#FFEB3B", "#673AB7", "#00BCD4", "#CDDC39", "#9E9E9E", "#607D8B"], "font_family": "Helvetica, Arial, sans-serif", "foreground": "rgba(0, 0, 0, .87)", "foreground_strong": "rgba(0, 0, 0, 1)", "foreground_subtle": "rgba(0, 0, 0, .54)", "guide_stroke_dasharray": 1, "label_font_family": "Helvetica, Arial, sans-serif", "label_font_size": 15, "legend_font_family": "Helvetica, Arial, sans-serif", "legend_font_size": 15, "major_guide_stroke_dasharray": 1, "major_label_font_family": "Helvetica, Arial, sans-serif", "major_label_font_size": 15, "no_data_font_family": "Helvetica, Arial, sans-serif", "no_data_font_size": 64, "opacity": ".7", "opacity_hover": ".8", "plot_background": "white", "stroke_opacity": ".8", "stroke_opacity_hover": ".9", "title_font_family": "Helvetica, Arial, sans-serif", "title_font_size": 18, "tooltip_font_family": "Helvetica, Arial, sans-serif", "tooltip_font_size": 14, "transition": "150ms", "value_background": "rgba(229, 229, 229, 1)", "value_colors": [], "value_font_family": "Helvetica, Arial, sans-serif", "value_font_size": 15, "value_label_font_family": "Helvetica, Arial, sans-serif", "value_label_font_size": 15}, "title": "Mean OE1 for Tempo T \u00b110.0 BPM", "tooltip_border_radius": 0, "tooltip_fancy_mode": true, "truncate_label": null, "truncate_legend": -1, "width": 800, "x_label_rotation": 90, "x_labels": ["0.0", "1.0", "2.0", "3.0", "4.0", "5.0", "6.0", "7.0", "8.0", "9.0", "10.0", "11.0", "12.0", "13.0", "14.0", "15.0", "16.0", "17.0", "18.0", "19.0", "20.0", "21.0", "22.0", "23.0", "24.0", "25.0", "26.0", "27.0", "28.0", "29.0", "30.0", "31.0", "32.0", "33.0", "34.0", "35.0", "36.0", "37.0", "38.0", "39.0", "40.0", "41.0", "42.0", "43.0", "44.0", "45.0", "46.0", "47.0", "48.0", "49.0", "50.0", "51.0", "52.0", "53.0", "54.0", "55.0", "56.0", "57.0", "58.0", "59.0", "60.0", "61.0", "62.0", "63.0", "64.0", "65.0", "66.0", "67.0", "68.0", "69.0", "70.0", "71.0", "72.0", "73.0", "74.0", "75.0", "76.0", "77.0", "78.0", "79.0", "80.0", "81.0", "82.0", "83.0", "84.0", "85.0", "86.0", "87.0", "88.0", "89.0", "90.0", "91.0", "92.0", "93.0", "94.0", "95.0", "96.0", "97.0", "98.0", "99.0", "100.0", "101.0", "102.0", "103.0", "104.0", "105.0", "106.0", "107.0", "108.0", "109.0", "110.0", "111.0", "112.0", "113.0", "114.0", "115.0", "116.0", "117.0", "118.0", "119.0", "120.0", "121.0", "122.0", "123.0", "124.0", "125.0", "126.0", "127.0", "128.0", "129.0", "130.0", "131.0", "132.0", "133.0", "134.0", "135.0", "136.0", "137.0", "138.0", "139.0", "140.0", "141.0", "142.0", "143.0", "144.0", "145.0", "146.0", "147.0", "148.0", "149.0", "150.0", "151.0", "152.0", "153.0", "154.0", "155.0", "156.0", "157.0", "158.0", "159.0", "160.0", "161.0", "162.0", "163.0", "164.0", "165.0", "166.0", "167.0", "168.0", "169.0", "170.0", "171.0", "172.0", "173.0", "174.0", "175.0", "176.0", "177.0", "178.0", "179.0", "180.0", "181.0", "182.0", "183.0", "184.0", "185.0", "186.0", "187.0", "188.0", "189.0", "190.0", "191.0", "192.0", "193.0", "194.0", "195.0", "196.0", "197.0", "198.0", "199.0", "200.0", "201.0", "202.0", "203.0", "204.0", "205.0", "206.0", "207.0", "208.0", "209.0", "210.0", "211.0", "212.0", "213.0", "214.0", "215.0", "216.0", "217.0", "218.0", "219.0", "220.0", "221.0", "222.0", "223.0", "224.0", "225.0", "226.0", "227.0", "228.0", "229.0", "230.0", "231.0", "232.0", "233.0", "234.0", "235.0", "236.0", "237.0", "238.0", "239.0", "240.0", "241.0", "242.0", "243.0", "244.0", "245.0", "246.0", "247.0", "248.0", "249.0", "250.0", "251.0", "252.0", "253.0", "254.0", "255.0", "256.0", "257.0", "258.0", "259.0", "260.0", "261.0", "262.0", "263.0", "264.0", "265.0", "266.0", "267.0", "268.0", "269.0", "270.0", "271.0", "272.0", "273.0", "274.0", "275.0", "276.0", "277.0", "278.0", "279.0", "280.0", "281.0", "282.0", "283.0", "284.0", "285.0", "286.0", "287.0", "288.0", "289.0", "290.0", "291.0", "292.0", "293.0", "294.0", "295.0", "296.0", "297.0", "298.0", "299.0", "300.0"], "x_labels_major": null, "x_labels_major_count": 11, "x_labels_major_every": null, "x_title": "T (BPM)", "xrange": null, "y_label_rotation": 0, "y_labels": null, "y_labels_major": null, "y_labels_major_count": null, "y_labels_major_every": null, "y_title": "Mean OE1 (TO)", "zero": 0, "legends": ["beatport_key/1.0"]}</script><script type="text/javascript" xlink:href="https://kozea.github.io/pygal.js/2.0.x/pygal-tooltips.min.js"/></defs><title>Mean OE1 for Tempo T ±10.0 BPM</title><g class="graph line-graph vertical"><rect class="background" height="600" width="800" x="0" y="0"/><g class="plot" transform="translate(121, 48)"><rect class="background" height="416.5" width="659.0" x="0" y="0"/><g class="axis y always_show"><g class="guides"><path class="major guide line" d="M0.000000 408.490385 h659.000000"/><text class="major" x="-5" y="413.7403846153846">-2.0000</text><title>-2.0000</title></g><g class="guides"><path class="guide line" d="M0.000000 381.791667 h659.000000"/><text class="" x="-5" y="387.0416666666667">-1.8000</text><title>-1.8000</title></g><g class="guides"><path class="guide line" d="M0.000000 355.092949 h659.000000"/><text class="" x="-5" y="360.34294871794873">-1.6000</text><title>-1.6000</title></g><g class="guides"><path class="guide line" d="M0.000000 328.394231 h659.000000"/><text class="" x="-5" y="333.6442307692308">-1.4000</text><title>-1.4000</title></g><g class="guides"><path class="guide line" d="M0.000000 301.695513 h659.000000"/><text class="" x="-5" y="306.9455128205128">-1.2000</text><title>-1.2000</title></g><g class="guides"><path class="major guide line" d="M0.000000 274.996795 h659.000000"/><text class="major" x="-5" y="280.24679487179486">-1.0000</text><title>-1.0000</title></g><g class="guides"><path class="guide line" d="M0.000000 248.298077 h659.000000"/><text class="" x="-5" y="253.54807692307693">-0.8000</text><title>-0.8000</title></g><g class="guides"><path class="guide line" d="M0.000000 221.599359 h659.000000"/><text class="" x="-5" y="226.84935897435898">-0.6000</text><title>-0.6000</title></g><g class="guides"><path class="guide line" d="M0.000000 194.900641 h659.000000"/><text class="" x="-5" y="200.150641025641">-0.4000</text><title>-0.4000</title></g><g class="guides"><path class="guide line" d="M0.000000 168.201923 h659.000000"/><text class="" x="-5" y="173.45192307692307">-0.2000</text><title>-0.2000</title></g><g class="guides"><path class="major line" d="M0.000000 141.503205 h659.000000"/><text class="major" x="-5" y="146.75320512820514">0.0000</text><title>0.0000</title></g><g class="guides"><path class="guide line" d="M0.000000 114.804487 h659.000000"/><text class="" x="-5" y="120.05448717948718">0.2000</text><title>0.2000</title></g><g class="guides"><path class="guide line" d="M0.000000 88.105769 h659.000000"/><text class="" x="-5" y="93.35576923076928">0.4000</text><title>0.4000</title></g><g class="guides"><path class="guide line" d="M0.000000 61.407051 h659.000000"/><text class="" x="-5" y="66.65705128205127">0.6000</text><title>0.6000</title></g><g class="guides"><path class="guide line" d="M0.000000 34.708333 h659.000000"/><text class="" x="-5" y="39.958333333333314">0.8000</text><title>0.8000</title></g><g class="guides"><path class="major guide line" d="M0.000000 8.009615 h659.000000"/><text class="major" x="-5" y="13.259615384615415">1.0000</text><title>1.0000</title></g></g><g class="axis x always_show"><g class="guides"><path class="major line" d="M12.673077 0.000000 v416.500000"/><text class="major" x="12.673076923076922" y="434.0" transform="rotate(90 12.673077 434.000000)">0.0</text></g><g class="guides"><path class="major guide line" d="M76.038462 0.000000 v416.500000"/><text class="major" x="76.03846153846155" y="434.0" transform="rotate(90 76.038462 434.000000)">30.0</text></g><g class="guides"><path class="major guide line" d="M139.403846 0.000000 v416.500000"/><text class="major" x="139.40384615384613" y="434.0" transform="rotate(90 139.403846 434.000000)">60.0</text></g><g class="guides"><path class="major guide line" d="M202.769231 0.000000 v416.500000"/><text class="major" x="202.76923076923075" y="434.0" transform="rotate(90 202.769231 434.000000)">90.0</text></g><g class="guides"><path class="major guide line" d="M266.134615 0.000000 v416.500000"/><text class="major" x="266.1346153846154" y="434.0" transform="rotate(90 266.134615 434.000000)">120.0</text></g><g class="guides"><path class="major guide line" d="M329.500000 0.000000 v416.500000"/><text class="major" x="329.5" y="434.0" transform="rotate(90 329.500000 434.000000)">150.0</text></g><g class="guides"><path class="major guide line" d="M392.865385 0.000000 v416.500000"/><text class="major" x="392.8653846153846" y="434.0" transform="rotate(90 392.865385 434.000000)">180.0</text></g><g class="guides"><path class="major guide line" d="M456.230769 0.000000 v416.500000"/><text class="major" x="456.23076923076917" y="434.0" transform="rotate(90 456.230769 434.000000)">210.0</text></g><g class="guides"><path class="major guide line" d="M519.596154 0.000000 v416.500000"/><text class="major" x="519.5961538461538" y="434.0" transform="rotate(90 519.596154 434.000000)">240.0</text></g><g class="guides"><path class="major guide line" d="M582.961538 0.000000 v416.500000"/><text class="major" x="582.9615384615385" y="434.0" transform="rotate(90 582.961538 434.000000)">270.0</text></g><g class="guides"><path class="major guide line" d="M646.326923 0.000000 v416.500000"/><text class="major" x="646.3269230769231" y="434.0" transform="rotate(90 646.326923 434.000000)">300.0</text></g></g><g class="series serie-0 color-0"><path class="line reactive nofill" d="M12.673077 141.503205 L14.785256 141.503205 16.897436 141.503205 19.009615 141.503205 21.121795 141.503205 23.233974 141.503205 25.346154 141.503205 27.458333 141.503205 29.570513 141.503205 31.682692 141.503205 33.794872 141.503205 35.907051 141.503205 38.019231 141.503205 40.131410 141.503205 42.243590 141.503205 44.355769 141.503205 46.467949 141.503205 48.580128 141.503205 50.692308 141.503205 52.804487 141.503205 54.916667 141.503205 57.028846 141.503205 59.141026 141.503205 61.253205 141.503205 63.365385 141.503205 65.477564 141.503205 67.589744 141.503205 69.701923 141.503205 71.814103 141.503205 73.926282 141.503205 76.038462 141.503205 78.150641 141.503205 80.262821 141.503205 82.375000 141.503205 84.487179 141.503205 86.599359 141.503205 88.711538 141.503205 90.823718 141.503205 92.935897 141.503205 95.048077 141.503205 97.160256 141.503205 99.272436 141.503205 101.384615 141.503205 103.496795 141.503205 105.608974 141.503205 107.721154 141.503205 109.833333 141.503205 111.945513 141.503205 114.057692 141.503205 116.169872 141.503205 118.282051 141.503205 120.394231 141.503205 122.506410 141.503205 124.618590 141.503205 126.730769 141.503205 128.842949 141.503205 130.955128 8.009615 133.067308 8.009615 135.179487 8.483395 137.291667 8.483395 139.403846 8.364950 141.516026 8.364950 143.628205 8.364950 145.740385 8.364950 147.852564 52.744368 149.964744 52.744368 152.076923 52.744368 154.189103 65.424202 156.301282 65.424202 158.413462 74.934078 160.525641 61.552195 162.637821 61.552195 164.750000 68.820468 166.862179 68.820468 168.974359 55.789571 171.086538 70.710150 173.198718 80.633698 175.310897 85.153922 177.423077 88.157636 179.535256 95.686833 181.647436 103.118022 183.759615 105.059010 185.871795 107.193540 187.983974 106.232753 190.096154 107.389162 192.208333 109.426757 194.320513 109.912764 196.432692 109.912764 198.544872 110.871238 200.657051 111.315180 202.769231 112.171687 204.881410 115.779215 206.993590 115.161096 209.105769 114.818991 211.217949 115.819649 213.330128 120.333375 215.442308 120.200103 217.554487 120.723043 219.666667 124.995104 221.778846 126.038364 223.891026 127.187618 226.003205 127.105904 228.115385 127.354133 230.227564 128.577631 232.339744 130.912165 234.451923 131.841204 236.564103 133.212551 238.676282 132.580918 240.788462 132.937433 242.900641 133.439843 245.012821 136.111486 247.125000 136.789818 249.237179 137.234477 251.349359 139.123117 253.461538 139.522504 255.573718 139.713989 257.685897 140.480769 259.798077 140.415821 261.910256 140.966824 264.022436 141.016624 266.134615 141.496899 268.246795 141.507432 270.358974 142.003563 272.471154 141.986659 274.583333 141.981146 276.695513 142.035432 278.807692 142.179703 280.919872 142.056979 283.032051 142.199210 285.144231 142.211907 287.256410 144.093185 289.368590 144.260421 291.480769 144.160646 293.592949 144.439957 295.705128 144.488526 297.817308 144.551705 299.929487 144.921998 302.041667 145.228633 304.153846 145.722451 306.266026 147.391333 308.378205 147.837101 310.490385 148.205830 312.602564 148.372714 314.714744 148.024350 316.826923 148.875011 318.939103 149.351668 321.051282 149.913533 323.163462 150.342060 325.275641 151.208996 327.387821 152.192691 329.500000 153.234413 331.612179 148.814877 333.724359 149.000742 335.836538 151.780843 337.948718 152.512709 340.060897 153.892421 342.173077 158.888955 344.285256 159.371892 346.397436 160.384326 348.509615 162.332073 350.621795 161.315956 352.733974 171.687156 354.846154 173.462682 356.958333 175.380698 359.070513 188.945463 361.182692 185.739166 363.294872 185.739166 365.407051 188.196501 367.519231 188.196501 369.631410 191.909978 371.743590 191.909978 373.855769 185.975205 375.967949 185.975205 378.080128 185.975205 380.192308 185.975205 382.304487 182.649486 384.416667 190.171968 386.528846 190.171968 388.641026 197.883316 390.753205 197.883316 392.865385 203.407030 394.977564 228.960438 397.089744 228.960438 399.201923 228.960438 401.314103 228.960438 403.426282 221.448502 405.538462 275.491887 407.650641 275.491887 409.762821 275.491887 411.875000 275.491887 413.987179 275.491887 416.099359 275.491887 418.211538 275.491887 420.323718 275.491887 422.435897 275.491887 424.548077 275.491887 426.660256 275.491887 428.772436 275.491887 430.884615 275.491887 432.996795 275.986980 435.108974 275.986980 437.221154 275.986980 439.333333 275.986980 441.445513 275.986980 443.557692 275.986980 445.669872 275.986980 447.782051 141.503205 449.894231 141.503205 452.006410 141.503205 454.118590 141.503205 456.230769 141.503205 458.342949 141.503205 460.455128 141.503205 462.567308 141.503205 464.679487 141.503205 466.791667 141.503205 468.903846 141.503205 471.016026 141.503205 473.128205 141.503205 475.240385 141.503205 477.352564 141.503205 479.464744 141.503205 481.576923 141.503205 483.689103 141.503205 485.801282 141.503205 487.913462 141.503205 490.025641 141.503205 492.137821 141.503205 494.250000 141.503205 496.362179 141.503205 498.474359 141.503205 500.586538 141.503205 502.698718 141.503205 504.810897 141.503205 506.923077 141.503205 509.035256 141.503205 511.147436 141.503205 513.259615 141.503205 515.371795 141.503205 517.483974 141.503205 519.596154 141.503205 521.708333 141.503205 523.820513 141.503205 525.932692 141.503205 528.044872 141.503205 530.157051 141.503205 532.269231 141.503205 534.381410 141.503205 536.493590 141.503205 538.605769 141.503205 540.717949 141.503205 542.830128 141.503205 544.942308 141.503205 547.054487 141.503205 549.166667 141.503205 551.278846 141.503205 553.391026 141.503205 555.503205 141.503205 557.615385 141.503205 559.727564 141.503205 561.839744 141.503205 563.951923 141.503205 566.064103 141.503205 568.176282 141.503205 570.288462 141.503205 572.400641 141.503205 574.512821 141.503205 576.625000 141.503205 578.737179 141.503205 580.849359 141.503205 582.961538 141.503205 585.073718 141.503205 587.185897 141.503205 589.298077 141.503205 591.410256 141.503205 593.522436 141.503205 595.634615 141.503205 597.746795 141.503205 599.858974 141.503205 601.971154 141.503205 604.083333 141.503205 606.195513 141.503205 608.307692 141.503205 610.419872 141.503205 612.532051 141.503205 614.644231 141.503205 616.756410 141.503205 618.868590 141.503205 620.980769 141.503205 623.092949 141.503205 625.205128 141.503205 627.317308 141.503205 629.429487 141.503205 631.541667 141.503205 633.653846 141.503205 635.766026 141.503205 637.878205 141.503205 639.990385 141.503205 642.102564 141.503205 644.214744 141.503205 646.326923 141.503205"/></g></g><g class="titles"><text class="title plot_title" x="400.0" y="28">Mean OE1 for Tempo T ±10.0 BPM</text><text class="title" x="450.5" y="547.5">T (BPM)</text><text class="title" x="0" y="284.25" transform="rotate(-90 0.000000 256.250000)">Mean OE1 (TO)</text></g><g class="plot overlay" transform="translate(121, 48)"><g class="series serie-0 color-0"><g class="dots"><circle class="dot reactive tooltip-trigger" cx="12.673076923076922" cy="141.50320512820514" r="2.5"/><desc class="value">0.0000</desc><desc class="x ">12.673076923076922</desc><desc class="y ">141.50320512820514</desc><desc class="x_label">0.0</desc></g><g class="dots"><circle class="dot reactive tooltip-trigger" cx="76.03846153846155" cy="141.50320512820514" r="2.5"/><desc class="value">0.0000</desc><desc class="x ">76.03846153846155</desc><desc class="y ">141.50320512820514</desc><desc class="x_label">30.0</desc></g><g class="dots"><circle class="dot reactive tooltip-trigger" cx="139.40384615384613" cy="8.364950096882694" r="2.5"/><desc class="value">0.9973</desc><desc class="x ">139.40384615384613</desc><desc class="y ">8.364950096882694</desc><desc class="x_label">60.0</desc></g><g class="dots"><circle class="dot reactive tooltip-trigger" cx="202.76923076923075" cy="112.17168672485258" r="2.5"/><desc class="value">0.2197</desc><desc class="x ">202.76923076923075</desc><desc class="y ">112.17168672485258</desc><desc class="x_label">90.0</desc></g><g class="dots"><circle class="dot reactive tooltip-trigger" cx="266.1346153846154" cy="141.49689915390013" r="2.5"/><desc class="value">0.0000</desc><desc class="x ">266.1346153846154</desc><desc class="y ">141.49689915390013</desc><desc class="x_label">120.0</desc></g><g class="dots"><circle class="dot reactive tooltip-trigger" cx="329.5" cy="153.23441322886737" r="2.5"/><desc class="value">-0.0879</desc><desc class="x ">329.5</desc><desc class="y ">153.23441322886737</desc><desc class="x_label">150.0</desc></g><g class="dots"><circle class="dot reactive tooltip-trigger" cx="392.8653846153846" cy="203.40702962674442" r="2.5"/><desc class="value">-0.4637</desc><desc class="x left">392.8653846153846</desc><desc class="y left">203.40702962674442</desc><desc class="x_label">180.0</desc></g><g class="dots"><circle class="dot reactive tooltip-trigger" cx="456.23076923076917" cy="141.50320512820514" r="2.5"/><desc class="value">0.0000</desc><desc class="x left">456.23076923076917</desc><desc class="y left">141.50320512820514</desc><desc class="x_label">210.0</desc></g><g class="dots"><circle class="dot reactive tooltip-trigger" cx="519.5961538461538" cy="141.50320512820514" r="2.5"/><desc class="value">0.0000</desc><desc class="x left">519.5961538461538</desc><desc class="y left">141.50320512820514</desc><desc class="x_label">240.0</desc></g><g class="dots"><circle class="dot reactive tooltip-trigger" cx="582.9615384615385" cy="141.50320512820514" r="2.5"/><desc class="value">0.0000</desc><desc class="x left">582.9615384615385</desc><desc class="y left">141.50320512820514</desc><desc class="x_label">270.0</desc></g><g class="dots"><circle class="dot reactive tooltip-trigger" cx="646.3269230769231" cy="141.50320512820514" r="2.5"/><desc class="value">0.0000</desc><desc class="x left">646.3269230769231</desc><desc class="y left">141.50320512820514</desc><desc class="x_label">300.0</desc></g></g></g><g class="plot text-overlay" transform="translate(121, 48)"><g class="series serie-0 color-0"/></g><g class="plot tooltip-overlay" transform="translate(121, 48)"><g class="tooltip" style="opacity: 0" transform="translate(0 0)"><rect class="tooltip-box" height="0" rx="0" ry="0" width="0"/><g class="text"/></g></g><g class="legends" transform="translate(131, 567)"><g class="legend reactive activate-serie" id="activate-serie-0"><rect class="color-0 reactive" height="12" width="12" x="0.0" y="1.5"/><text x="17.0" y="12.0">beatport_key/1.0</text></g></g></g></svg>