<?xml version='1.0' encoding='utf-8'?>
<svg xmlns:xlink="http://www.w3.org/1999/xlink" xmlns="http://www.w3.org/2000/svg" id="chart-2b6126b6-6d72-4669-9eb0-a043cf5cd4cf" class="pygal-chart" viewBox="0 0 800 600"><!--Generated with pygal 2.4.0 (lxml) ©Kozea 2012-2016 on 2021-03-08--><!--http://pygal.org--><!--http://github.com/Kozea/pygal--><defs><style type="text/css">#chart-2b6126b6-6d72-4669-9eb0-a043cf5cd4cf{-webkit-user-select:none;-webkit-font-smoothing:antialiased;font-family:Helvetica,Arial,sans-serif}#chart-2b6126b6-6d72-4669-9eb0-a043cf5cd4cf .title{font-family:Helvetica,Arial,sans-serif;font-size:18px}#chart-2b6126b6-6d72-4669-9eb0-a043cf5cd4cf .legends .legend text{font-family:Helvetica,Arial,sans-serif;font-size:15px}#chart-2b6126b6-6d72-4669-9eb0-a043cf5cd4cf .axis text{font-family:Helvetica,Arial,sans-serif;font-size:15px}#chart-2b6126b6-6d72-4669-9eb0-a043cf5cd4cf .axis text.major{font-family:Helvetica,Arial,sans-serif;font-size:15px}#chart-2b6126b6-6d72-4669-9eb0-a043cf5cd4cf .text-overlay text.value{font-family:Helvetica,Arial,sans-serif;font-size:15px}#chart-2b6126b6-6d72-4669-9eb0-a043cf5cd4cf .text-overlay text.label{font-family:Helvetica,Arial,sans-serif;font-size:15px}#chart-2b6126b6-6d72-4669-9eb0-a043cf5cd4cf .tooltip{font-family:Helvetica,Arial,sans-serif;font-size:14px}#chart-2b6126b6-6d72-4669-9eb0-a043cf5cd4cf text.no_data{font-family:Helvetica,Arial,sans-serif;font-size:64px}
#chart-2b6126b6-6d72-4669-9eb0-a043cf5cd4cf{background-color:transparent}#chart-2b6126b6-6d72-4669-9eb0-a043cf5cd4cf path,#chart-2b6126b6-6d72-4669-9eb0-a043cf5cd4cf line,#chart-2b6126b6-6d72-4669-9eb0-a043cf5cd4cf rect,#chart-2b6126b6-6d72-4669-9eb0-a043cf5cd4cf circle{-webkit-transition:150ms;-moz-transition:150ms;transition:150ms}#chart-2b6126b6-6d72-4669-9eb0-a043cf5cd4cf .graph &gt; .background{fill:transparent}#chart-2b6126b6-6d72-4669-9eb0-a043cf5cd4cf .plot &gt; .background{fill:white}#chart-2b6126b6-6d72-4669-9eb0-a043cf5cd4cf .graph{fill:rgba(0,0,0,.87)}#chart-2b6126b6-6d72-4669-9eb0-a043cf5cd4cf text.no_data{fill:rgba(0,0,0,1)}#chart-2b6126b6-6d72-4669-9eb0-a043cf5cd4cf .title{fill:rgba(0,0,0,1)}#chart-2b6126b6-6d72-4669-9eb0-a043cf5cd4cf .legends .legend text{fill:rgba(0,0,0,.87)}#chart-2b6126b6-6d72-4669-9eb0-a043cf5cd4cf .legends .legend:hover text{fill:rgba(0,0,0,1)}#chart-2b6126b6-6d72-4669-9eb0-a043cf5cd4cf .axis .line{stroke:rgba(0,0,0,1)}#chart-2b6126b6-6d72-4669-9eb0-a043cf5cd4cf .axis .guide.line{stroke:rgba(0,0,0,.54)}#chart-2b6126b6-6d72-4669-9eb0-a043cf5cd4cf .axis .major.line{stroke:rgba(0,0,0,.87)}#chart-2b6126b6-6d72-4669-9eb0-a043cf5cd4cf .axis text.major{fill:rgba(0,0,0,1)}#chart-2b6126b6-6d72-4669-9eb0-a043cf5cd4cf .axis.y .guides:hover .guide.line,#chart-2b6126b6-6d72-4669-9eb0-a043cf5cd4cf .line-graph .axis.x .guides:hover .guide.line,#chart-2b6126b6-6d72-4669-9eb0-a043cf5cd4cf .stackedline-graph .axis.x .guides:hover .guide.line,#chart-2b6126b6-6d72-4669-9eb0-a043cf5cd4cf .xy-graph .axis.x .guides:hover .guide.line{stroke:rgba(0,0,0,1)}#chart-2b6126b6-6d72-4669-9eb0-a043cf5cd4cf .axis .guides:hover text{fill:rgba(0,0,0,1)}#chart-2b6126b6-6d72-4669-9eb0-a043cf5cd4cf .reactive{fill-opacity:.7;stroke-opacity:.8}#chart-2b6126b6-6d72-4669-9eb0-a043cf5cd4cf .ci{stroke:rgba(0,0,0,.87)}#chart-2b6126b6-6d72-4669-9eb0-a043cf5cd4cf .reactive.active,#chart-2b6126b6-6d72-4669-9eb0-a043cf5cd4cf .active .reactive{fill-opacity:.8;stroke-opacity:.9;stroke-width:4}#chart-2b6126b6-6d72-4669-9eb0-a043cf5cd4cf .ci .reactive.active{stroke-width:1.5}#chart-2b6126b6-6d72-4669-9eb0-a043cf5cd4cf .series text{fill:rgba(0,0,0,1)}#chart-2b6126b6-6d72-4669-9eb0-a043cf5cd4cf .tooltip rect{fill:white;stroke:rgba(0,0,0,1);-webkit-transition:opacity 150ms;-moz-transition:opacity 150ms;transition:opacity 150ms}#chart-2b6126b6-6d72-4669-9eb0-a043cf5cd4cf .tooltip .label{fill:rgba(0,0,0,.87)}#chart-2b6126b6-6d72-4669-9eb0-a043cf5cd4cf .tooltip .label{fill:rgba(0,0,0,.87)}#chart-2b6126b6-6d72-4669-9eb0-a043cf5cd4cf .tooltip .legend{font-size:.8em;fill:rgba(0,0,0,.54)}#chart-2b6126b6-6d72-4669-9eb0-a043cf5cd4cf .tooltip .x_label{font-size:.6em;fill:rgba(0,0,0,1)}#chart-2b6126b6-6d72-4669-9eb0-a043cf5cd4cf .tooltip .xlink{font-size:.5em;text-decoration:underline}#chart-2b6126b6-6d72-4669-9eb0-a043cf5cd4cf .tooltip .value{font-size:1.5em}#chart-2b6126b6-6d72-4669-9eb0-a043cf5cd4cf .bound{font-size:.5em}#chart-2b6126b6-6d72-4669-9eb0-a043cf5cd4cf .max-value{font-size:.75em;fill:rgba(0,0,0,.54)}#chart-2b6126b6-6d72-4669-9eb0-a043cf5cd4cf .map-element{fill:white;stroke:rgba(0,0,0,.54) !important}#chart-2b6126b6-6d72-4669-9eb0-a043cf5cd4cf .map-element .reactive{fill-opacity:inherit;stroke-opacity:inherit}#chart-2b6126b6-6d72-4669-9eb0-a043cf5cd4cf .color-0,#chart-2b6126b6-6d72-4669-9eb0-a043cf5cd4cf .color-0 a:visited{stroke:#F44336;fill:#F44336}#chart-2b6126b6-6d72-4669-9eb0-a043cf5cd4cf .text-overlay .color-0 text{fill:black}
#chart-2b6126b6-6d72-4669-9eb0-a043cf5cd4cf text.no_data{text-anchor:middle}#chart-2b6126b6-6d72-4669-9eb0-a043cf5cd4cf .guide.line{fill:none}#chart-2b6126b6-6d72-4669-9eb0-a043cf5cd4cf .centered{text-anchor:middle}#chart-2b6126b6-6d72-4669-9eb0-a043cf5cd4cf .title{text-anchor:middle}#chart-2b6126b6-6d72-4669-9eb0-a043cf5cd4cf .legends .legend text{fill-opacity:1}#chart-2b6126b6-6d72-4669-9eb0-a043cf5cd4cf .axis.x text{text-anchor:middle}#chart-2b6126b6-6d72-4669-9eb0-a043cf5cd4cf .axis.x:not(.web) text[transform]{text-anchor:start}#chart-2b6126b6-6d72-4669-9eb0-a043cf5cd4cf .axis.x:not(.web) text[transform].backwards{text-anchor:end}#chart-2b6126b6-6d72-4669-9eb0-a043cf5cd4cf .axis.y text{text-anchor:end}#chart-2b6126b6-6d72-4669-9eb0-a043cf5cd4cf .axis.y text[transform].backwards{text-anchor:start}#chart-2b6126b6-6d72-4669-9eb0-a043cf5cd4cf .axis.y2 text{text-anchor:start}#chart-2b6126b6-6d72-4669-9eb0-a043cf5cd4cf .axis.y2 text[transform].backwards{text-anchor:end}#chart-2b6126b6-6d72-4669-9eb0-a043cf5cd4cf .axis .guide.line{stroke-dasharray:1}#chart-2b6126b6-6d72-4669-9eb0-a043cf5cd4cf .axis .major.guide.line{stroke-dasharray:1}#chart-2b6126b6-6d72-4669-9eb0-a043cf5cd4cf .horizontal .axis.y .guide.line,#chart-2b6126b6-6d72-4669-9eb0-a043cf5cd4cf .horizontal .axis.y2 .guide.line,#chart-2b6126b6-6d72-4669-9eb0-a043cf5cd4cf .vertical .axis.x .guide.line{opacity:0}#chart-2b6126b6-6d72-4669-9eb0-a043cf5cd4cf .horizontal .axis.always_show .guide.line,#chart-2b6126b6-6d72-4669-9eb0-a043cf5cd4cf .vertical .axis.always_show .guide.line{opacity:1 !important}#chart-2b6126b6-6d72-4669-9eb0-a043cf5cd4cf .axis.y .guides:hover .guide.line,#chart-2b6126b6-6d72-4669-9eb0-a043cf5cd4cf .axis.y2 .guides:hover .guide.line,#chart-2b6126b6-6d72-4669-9eb0-a043cf5cd4cf .axis.x .guides:hover .guide.line{opacity:1}#chart-2b6126b6-6d72-4669-9eb0-a043cf5cd4cf .axis .guides:hover text{opacity:1}#chart-2b6126b6-6d72-4669-9eb0-a043cf5cd4cf .nofill{fill:none}#chart-2b6126b6-6d72-4669-9eb0-a043cf5cd4cf .subtle-fill{fill-opacity:.2}#chart-2b6126b6-6d72-4669-9eb0-a043cf5cd4cf .dot{stroke-width:1px;fill-opacity:1}#chart-2b6126b6-6d72-4669-9eb0-a043cf5cd4cf .dot.active{stroke-width:5px}#chart-2b6126b6-6d72-4669-9eb0-a043cf5cd4cf .dot.negative{fill:transparent}#chart-2b6126b6-6d72-4669-9eb0-a043cf5cd4cf text,#chart-2b6126b6-6d72-4669-9eb0-a043cf5cd4cf tspan{stroke:none !important}#chart-2b6126b6-6d72-4669-9eb0-a043cf5cd4cf .series text.active{opacity:1}#chart-2b6126b6-6d72-4669-9eb0-a043cf5cd4cf .tooltip rect{fill-opacity:.95;stroke-width:.5}#chart-2b6126b6-6d72-4669-9eb0-a043cf5cd4cf .tooltip text{fill-opacity:1}#chart-2b6126b6-6d72-4669-9eb0-a043cf5cd4cf .showable{visibility:hidden}#chart-2b6126b6-6d72-4669-9eb0-a043cf5cd4cf .showable.shown{visibility:visible}#chart-2b6126b6-6d72-4669-9eb0-a043cf5cd4cf .gauge-background{fill:rgba(229,229,229,1);stroke:none}#chart-2b6126b6-6d72-4669-9eb0-a043cf5cd4cf .bg-lines{stroke:transparent;stroke-width:2px}</style><script type="text/javascript">window.pygal = window.pygal || {};window.pygal.config = window.pygal.config || {};window.pygal.config['2b6126b6-6d72-4669-9eb0-a043cf5cd4cf'] = {"allow_interruptions": false, "box_mode": "extremes", "classes": ["pygal-chart"], "css": ["file://style.css", "file://graph.css"], "defs": [], "disable_xml_declaration": false, "dots_size": 2.5, "dynamic_print_values": false, "explicit_size": false, "fill": false, "force_uri_protocol": "https", "formatter": null, "half_pie": false, "height": 600, "include_x_axis": false, "inner_radius": 0, "interpolate": null, "interpolation_parameters": {}, "interpolation_precision": 250, "inverse_y_axis": false, "js": ["//kozea.github.io/pygal.js/2.0.x/pygal-tooltips.min.js"], "legend_at_bottom": true, "legend_at_bottom_columns": 2, "legend_box_size": 12, "logarithmic": false, "margin": 20, "margin_bottom": 50, "margin_left": null, "margin_right": null, "margin_top": null, "max_scale": 16, "min_scale": 4, "missing_value_fill_truncation": "x", "no_data_text": "No data", "no_prefix": false, "order_min": null, "pretty_print": false, "print_labels": false, "print_values": false, "print_values_position": "center", "print_zeroes": true, "range": [-0.1, 0.1], "rounded_bars": null, "secondary_range": null, "show_dots": true, "show_legend": true, "show_minor_x_labels": false, "show_minor_y_labels": true, "show_only_major_dots": true, "show_x_guides": true, "show_x_labels": true, "show_y_guides": true, "show_y_labels": true, "spacing": 10, "stack_from_top": false, "strict": false, "stroke": true, "stroke_style": null, "style": {"background": "transparent", "ci_colors": [], "colors": ["#F44336", "#3F51B5", "#009688", "#FFC107", "#FF5722", "#9C27B0", "#03A9F4", "#8BC34A", "#FF9800", "#E91E63", "#2196F3", "#4CAF50", "#FFEB3B", "#673AB7", "#00BCD4", "#CDDC39", "#9E9E9E", "#607D8B"], "font_family": "Helvetica, Arial, sans-serif", "foreground": "rgba(0, 0, 0, .87)", "foreground_strong": "rgba(0, 0, 0, 1)", "foreground_subtle": "rgba(0, 0, 0, .54)", "guide_stroke_dasharray": 1, "label_font_family": "Helvetica, Arial, sans-serif", "label_font_size": 15, "legend_font_family": "Helvetica, Arial, sans-serif", "legend_font_size": 15, "major_guide_stroke_dasharray": 1, "major_label_font_family": "Helvetica, Arial, sans-serif", "major_label_font_size": 15, "no_data_font_family": "Helvetica, Arial, sans-serif", "no_data_font_size": 64, "opacity": ".7", "opacity_hover": ".8", "plot_background": "white", "stroke_opacity": ".8", "stroke_opacity_hover": ".9", "title_font_family": "Helvetica, Arial, sans-serif", "title_font_size": 18, "tooltip_font_family": "Helvetica, Arial, sans-serif", "tooltip_font_size": 14, "transition": "150ms", "value_background": "rgba(229, 229, 229, 1)", "value_colors": [], "value_font_family": "Helvetica, Arial, sans-serif", "value_font_size": 15, "value_label_font_family": "Helvetica, Arial, sans-serif", "value_label_font_size": 15}, "title": "Mean OE2 for Tempo T \u00b110.0 BPM", "tooltip_border_radius": 0, "tooltip_fancy_mode": true, "truncate_label": null, "truncate_legend": -1, "width": 800, "x_label_rotation": 90, "x_labels": ["0.0", "1.0", "2.0", "3.0", "4.0", "5.0", "6.0", "7.0", "8.0", "9.0", "10.0", "11.0", "12.0", "13.0", "14.0", "15.0", "16.0", "17.0", "18.0", "19.0", "20.0", "21.0", "22.0", "23.0", "24.0", "25.0", "26.0", "27.0", "28.0", "29.0", "30.0", "31.0", "32.0", "33.0", "34.0", "35.0", "36.0", "37.0", "38.0", "39.0", "40.0", "41.0", "42.0", "43.0", "44.0", "45.0", "46.0", "47.0", "48.0", "49.0", "50.0", "51.0", "52.0", "53.0", "54.0", "55.0", "56.0", "57.0", "58.0", "59.0", "60.0", "61.0", "62.0", "63.0", "64.0", "65.0", "66.0", "67.0", "68.0", "69.0", "70.0", "71.0", "72.0", "73.0", "74.0", "75.0", "76.0", "77.0", "78.0", "79.0", "80.0", "81.0", "82.0", "83.0", "84.0", "85.0", "86.0", "87.0", "88.0", "89.0", "90.0", "91.0", "92.0", "93.0", "94.0", "95.0", "96.0", "97.0", "98.0", "99.0", "100.0", "101.0", "102.0", "103.0", "104.0", "105.0", "106.0", "107.0", "108.0", "109.0", "110.0", "111.0", "112.0", "113.0", "114.0", "115.0", "116.0", "117.0", "118.0", "119.0", "120.0", "121.0", "122.0", "123.0", "124.0", "125.0", "126.0", "127.0", "128.0", "129.0", "130.0", "131.0", "132.0", "133.0", "134.0", "135.0", "136.0", "137.0", "138.0", "139.0", "140.0", "141.0", "142.0", "143.0", "144.0", "145.0", "146.0", "147.0", "148.0", "149.0", "150.0", "151.0", "152.0", "153.0", "154.0", "155.0", "156.0", "157.0", "158.0", "159.0", "160.0", "161.0", "162.0", "163.0", "164.0", "165.0", "166.0", "167.0", "168.0", "169.0", "170.0", "171.0", "172.0", "173.0", "174.0", "175.0", "176.0", "177.0", "178.0", "179.0", "180.0", "181.0", "182.0", "183.0", "184.0", "185.0", "186.0", "187.0", "188.0", "189.0", "190.0", "191.0", "192.0", "193.0", "194.0", "195.0", "196.0", "197.0", "198.0", "199.0", "200.0", "201.0", "202.0", "203.0", "204.0", "205.0", "206.0", "207.0", "208.0", "209.0", "210.0", "211.0", "212.0", "213.0", "214.0", "215.0", "216.0", "217.0", "218.0", "219.0", "220.0", "221.0", "222.0", "223.0", "224.0", "225.0", "226.0", "227.0", "228.0", "229.0", "230.0", "231.0", "232.0", "233.0", "234.0", "235.0", "236.0", "237.0", "238.0", "239.0", "240.0", "241.0", "242.0", "243.0", "244.0", "245.0", "246.0", "247.0", "248.0", "249.0", "250.0", "251.0", "252.0", "253.0", "254.0", "255.0", "256.0", "257.0", "258.0", "259.0", "260.0", "261.0", "262.0", "263.0", "264.0", "265.0", "266.0", "267.0", "268.0", "269.0", "270.0", "271.0", "272.0", "273.0", "274.0", "275.0", "276.0", "277.0", "278.0", "279.0", "280.0", "281.0", "282.0", "283.0", "284.0", "285.0", "286.0", "287.0", "288.0", "289.0", "290.0", "291.0", "292.0", "293.0", "294.0", "295.0", "296.0", "297.0", "298.0", "299.0", "300.0"], "x_labels_major": null, "x_labels_major_count": 11, "x_labels_major_every": null, "x_title": "T (BPM)", "xrange": null, "y_label_rotation": 0, "y_labels": null, "y_labels_major": null, "y_labels_major_count": null, "y_labels_major_every": null, "y_title": "Mean OE2 (TO)", "zero": 0, "legends": ["beatport_key/1.0"]}</script><script type="text/javascript" xlink:href="https://kozea.github.io/pygal.js/2.0.x/pygal-tooltips.min.js"/></defs><title>Mean OE2 for Tempo T ±10.0 BPM</title><g class="graph line-graph vertical"><rect class="background" height="600" width="800" x="0" y="0"/><g class="plot" transform="translate(121, 48)"><rect class="background" height="416.5" width="659.0" x="0" y="0"/><g class="axis y always_show"><g class="guides"><path class="guide line" d="M0.000000 408.490385 h659.000000"/><text class="" x="-5" y="413.7403846153846">-0.1000</text><title>-0.1000</title></g><g class="guides"><path class="guide line" d="M0.000000 368.442308 h659.000000"/><text class="" x="-5" y="373.6923076923077">-0.0800</text><title>-0.0800</title></g><g class="guides"><path class="guide line" d="M0.000000 328.394231 h659.000000"/><text class="" x="-5" y="333.6442307692308">-0.0600</text><title>-0.0600</title></g><g class="guides"><path class="guide line" d="M0.000000 288.346154 h659.000000"/><text class="" x="-5" y="293.59615384615387">-0.0400</text><title>-0.0400</title></g><g class="guides"><path class="guide line" d="M0.000000 248.298077 h659.000000"/><text class="" x="-5" y="253.5480769230769">-0.0200</text><title>-0.0200</title></g><g class="guides"><path class="major line" d="M0.000000 208.250000 h659.000000"/><text class="major" x="-5" y="213.5">0.0000</text><title>0.0000</title></g><g class="guides"><path class="guide line" d="M0.000000 168.201923 h659.000000"/><text class="" x="-5" y="173.45192307692307">0.0200</text><title>0.0200</title></g><g class="guides"><path class="guide line" d="M0.000000 128.153846 h659.000000"/><text class="" x="-5" y="133.40384615384613">0.0400</text><title>0.0400</title></g><g class="guides"><path class="guide line" d="M0.000000 88.105769 h659.000000"/><text class="" x="-5" y="93.35576923076928">0.0600</text><title>0.0600</title></g><g class="guides"><path class="guide line" d="M0.000000 48.057692 h659.000000"/><text class="" x="-5" y="53.30769230769238">0.0800</text><title>0.0800</title></g><g class="guides"><path class="guide line" d="M0.000000 8.009615 h659.000000"/><text class="" x="-5" y="13.259615384615358">0.1000</text><title>0.1000</title></g></g><g class="axis x always_show"><g class="guides"><path class="major line" d="M12.673077 0.000000 v416.500000"/><text class="major" x="12.673076923076922" y="434.0" transform="rotate(90 12.673077 434.000000)">0.0</text></g><g class="guides"><path class="major guide line" d="M76.038462 0.000000 v416.500000"/><text class="major" x="76.03846153846155" y="434.0" transform="rotate(90 76.038462 434.000000)">30.0</text></g><g class="guides"><path class="major guide line" d="M139.403846 0.000000 v416.500000"/><text class="major" x="139.40384615384613" y="434.0" transform="rotate(90 139.403846 434.000000)">60.0</text></g><g class="guides"><path class="major guide line" d="M202.769231 0.000000 v416.500000"/><text class="major" x="202.76923076923075" y="434.0" transform="rotate(90 202.769231 434.000000)">90.0</text></g><g class="guides"><path class="major guide line" d="M266.134615 0.000000 v416.500000"/><text class="major" x="266.1346153846154" y="434.0" transform="rotate(90 266.134615 434.000000)">120.0</text></g><g class="guides"><path class="major guide line" d="M329.500000 0.000000 v416.500000"/><text class="major" x="329.5" y="434.0" transform="rotate(90 329.500000 434.000000)">150.0</text></g><g class="guides"><path class="major guide line" d="M392.865385 0.000000 v416.500000"/><text class="major" x="392.8653846153846" y="434.0" transform="rotate(90 392.865385 434.000000)">180.0</text></g><g class="guides"><path class="major guide line" d="M456.230769 0.000000 v416.500000"/><text class="major" x="456.23076923076917" y="434.0" transform="rotate(90 456.230769 434.000000)">210.0</text></g><g class="guides"><path class="major guide line" d="M519.596154 0.000000 v416.500000"/><text class="major" x="519.5961538461538" y="434.0" transform="rotate(90 519.596154 434.000000)">240.0</text></g><g class="guides"><path class="major guide line" d="M582.961538 0.000000 v416.500000"/><text class="major" x="582.9615384615385" y="434.0" transform="rotate(90 582.961538 434.000000)">270.0</text></g><g class="guides"><path class="major guide line" d="M646.326923 0.000000 v416.500000"/><text class="major" x="646.3269230769231" y="434.0" transform="rotate(90 646.326923 434.000000)">300.0</text></g></g><g class="series serie-0 color-0"><path class="line reactive nofill" d="M12.673077 208.250000 L14.785256 208.250000 16.897436 208.250000 19.009615 208.250000 21.121795 208.250000 23.233974 208.250000 25.346154 208.250000 27.458333 208.250000 29.570513 208.250000 31.682692 208.250000 33.794872 208.250000 35.907051 208.250000 38.019231 208.250000 40.131410 208.250000 42.243590 208.250000 44.355769 208.250000 46.467949 208.250000 48.580128 208.250000 50.692308 208.250000 52.804487 208.250000 54.916667 208.250000 57.028846 208.250000 59.141026 208.250000 61.253205 208.250000 63.365385 208.250000 65.477564 208.250000 67.589744 208.250000 69.701923 208.250000 71.814103 208.250000 73.926282 208.250000 76.038462 208.250000 78.150641 208.250000 80.262821 208.250000 82.375000 208.250000 84.487179 208.250000 86.599359 208.250000 88.711538 208.250000 90.823718 208.250000 92.935897 208.250000 95.048077 208.250000 97.160256 208.250000 99.272436 208.250000 101.384615 208.250000 103.496795 208.250000 105.608974 208.250000 107.721154 208.250000 109.833333 208.250000 111.945513 208.250000 114.057692 208.250000 116.169872 208.250000 118.282051 208.250000 120.394231 208.250000 122.506410 208.250000 124.618590 208.250000 126.730769 208.250000 128.842949 208.250000 130.955128 208.250000 133.067308 208.250000 135.179487 215.356694 137.291667 215.356694 139.403846 213.580021 141.516026 213.580021 143.628205 213.580021 145.740385 213.580021 147.852564 211.803347 149.964744 211.803347 152.076923 211.803347 154.189103 211.295726 156.301282 211.295726 158.413462 210.915010 160.525641 210.427150 162.637821 210.427150 164.750000 210.229227 166.862179 210.229227 168.974359 209.805107 171.086538 258.800757 173.198718 212.975818 175.310897 267.322173 177.423077 242.401403 179.535256 239.816059 181.647436 233.193405 183.759615 233.702454 185.871795 229.963198 187.983974 256.157044 190.096154 254.586322 192.208333 250.808906 194.320513 250.164074 196.432692 250.164074 198.544872 249.371460 200.657051 248.775497 202.769231 255.348430 204.881410 255.342330 206.993590 275.211557 209.105769 276.081187 211.217949 273.537518 213.330128 281.415496 215.442308 273.781135 217.554487 297.028338 219.666667 279.852284 221.778846 284.339517 223.891026 288.952832 226.003205 308.459513 228.115385 306.731763 230.227564 316.616032 232.339744 280.431001 234.451923 274.099335 236.564103 287.524478 238.676282 296.905009 240.788462 292.139579 242.900641 299.675734 245.012821 268.958327 247.125000 262.699427 249.237179 257.562688 251.349359 238.201266 253.461538 233.778203 255.573718 224.942280 257.685897 219.851626 259.798077 214.867520 261.910256 211.116560 264.022436 211.407697 266.134615 212.934417 268.246795 213.024947 270.358974 211.065893 272.471154 210.877324 274.583333 210.909198 276.695513 211.851771 278.807692 214.109670 280.919872 212.241079 283.032051 210.241116 285.144231 210.431559 287.256410 209.247072 289.368590 209.318429 291.480769 209.380403 293.592949 209.196695 295.705128 208.888642 297.817308 209.208300 299.929487 210.692779 302.041667 210.277043 304.153846 212.644453 306.266026 214.075887 308.378205 212.240085 310.490385 212.182173 312.602564 212.074423 314.714744 212.496900 316.826923 212.930730 318.939103 213.020835 321.051282 212.711863 323.163462 206.525248 325.275641 206.420628 327.387821 206.235218 329.500000 205.921889 331.612179 204.152125 333.724359 204.294221 335.836538 203.493628 337.948718 203.697316 340.060897 205.182222 342.173077 198.441132 344.285256 198.168663 346.397436 196.995665 348.509615 197.714663 350.621795 202.046736 352.733974 216.030625 354.846154 216.488309 356.958333 215.811426 359.070513 213.153098 361.182692 170.948060 363.294872 170.948060 365.407051 170.921708 367.519231 170.921708 369.631410 163.390051 371.743590 163.390051 373.855769 160.185769 375.967949 160.185769 378.080128 160.185769 380.192308 160.185769 382.304487 157.976264 384.416667 137.319905 386.528846 137.319905 388.641026 143.768096 390.753205 143.768096 392.865385 135.605444 394.977564 89.820034 397.089744 89.820034 399.201923 89.820034 401.314103 89.820034 403.426282 72.493553 405.538462 215.676387 407.650641 215.676387 409.762821 215.676387 411.875000 215.676387 413.987179 215.676387 416.099359 215.676387 418.211538 215.676387 420.323718 215.676387 422.435897 215.676387 424.548077 215.676387 426.660256 215.676387 428.772436 215.676387 430.884615 215.676387 432.996795 223.102774 435.108974 223.102774 437.221154 223.102774 439.333333 223.102774 441.445513 223.102774 443.557692 223.102774 445.669872 223.102774 447.782051 208.250000 449.894231 208.250000 452.006410 208.250000 454.118590 208.250000 456.230769 208.250000 458.342949 208.250000 460.455128 208.250000 462.567308 208.250000 464.679487 208.250000 466.791667 208.250000 468.903846 208.250000 471.016026 208.250000 473.128205 208.250000 475.240385 208.250000 477.352564 208.250000 479.464744 208.250000 481.576923 208.250000 483.689103 208.250000 485.801282 208.250000 487.913462 208.250000 490.025641 208.250000 492.137821 208.250000 494.250000 208.250000 496.362179 208.250000 498.474359 208.250000 500.586538 208.250000 502.698718 208.250000 504.810897 208.250000 506.923077 208.250000 509.035256 208.250000 511.147436 208.250000 513.259615 208.250000 515.371795 208.250000 517.483974 208.250000 519.596154 208.250000 521.708333 208.250000 523.820513 208.250000 525.932692 208.250000 528.044872 208.250000 530.157051 208.250000 532.269231 208.250000 534.381410 208.250000 536.493590 208.250000 538.605769 208.250000 540.717949 208.250000 542.830128 208.250000 544.942308 208.250000 547.054487 208.250000 549.166667 208.250000 551.278846 208.250000 553.391026 208.250000 555.503205 208.250000 557.615385 208.250000 559.727564 208.250000 561.839744 208.250000 563.951923 208.250000 566.064103 208.250000 568.176282 208.250000 570.288462 208.250000 572.400641 208.250000 574.512821 208.250000 576.625000 208.250000 578.737179 208.250000 580.849359 208.250000 582.961538 208.250000 585.073718 208.250000 587.185897 208.250000 589.298077 208.250000 591.410256 208.250000 593.522436 208.250000 595.634615 208.250000 597.746795 208.250000 599.858974 208.250000 601.971154 208.250000 604.083333 208.250000 606.195513 208.250000 608.307692 208.250000 610.419872 208.250000 612.532051 208.250000 614.644231 208.250000 616.756410 208.250000 618.868590 208.250000 620.980769 208.250000 623.092949 208.250000 625.205128 208.250000 627.317308 208.250000 629.429487 208.250000 631.541667 208.250000 633.653846 208.250000 635.766026 208.250000 637.878205 208.250000 639.990385 208.250000 642.102564 208.250000 644.214744 208.250000 646.326923 208.250000"/></g></g><g class="titles"><text class="title plot_title" x="400.0" y="28">Mean OE2 for Tempo T ±10.0 BPM</text><text class="title" x="450.5" y="547.5">T (BPM)</text><text class="title" x="0" y="284.25" transform="rotate(-90 0.000000 256.250000)">Mean OE2 (TO)</text></g><g class="plot overlay" transform="translate(121, 48)"><g class="series serie-0 color-0"><g class="dots"><circle class="dot reactive tooltip-trigger" cx="12.673076923076922" cy="208.25" r="2.5"/><desc class="value">0.0000</desc><desc class="x ">12.673076923076922</desc><desc class="y ">208.25</desc><desc class="x_label">0.0</desc></g><g class="dots"><circle class="dot reactive tooltip-trigger" cx="76.03846153846155" cy="208.25" r="2.5"/><desc class="value">0.0000</desc><desc class="x ">76.03846153846155</desc><desc class="y ">208.25</desc><desc class="x_label">30.0</desc></g><g class="dots"><circle class="dot reactive tooltip-trigger" cx="139.40384615384613" cy="213.58002068400873" r="2.5"/><desc class="value">-0.0027</desc><desc class="x top">139.40384615384613</desc><desc class="y top">213.58002068400873</desc><desc class="x_label">60.0</desc></g><g class="dots"><circle class="dot reactive tooltip-trigger" cx="202.76923076923075" cy="255.34842977091716" r="2.5"/><desc class="value">-0.0235</desc><desc class="x top">202.76923076923075</desc><desc class="y top">255.34842977091716</desc><desc class="x_label">90.0</desc></g><g class="dots"><circle class="dot reactive tooltip-trigger" cx="266.1346153846154" cy="212.9344171781547" r="2.5"/><desc class="value">-0.0023</desc><desc class="x top">266.1346153846154</desc><desc class="y top">212.9344171781547</desc><desc class="x_label">120.0</desc></g><g class="dots"><circle class="dot reactive tooltip-trigger" cx="329.5" cy="205.92188863322087" r="2.5"/><desc class="value">0.0012</desc><desc class="x ">329.5</desc><desc class="y ">205.92188863322087</desc><desc class="x_label">150.0</desc></g><g class="dots"><circle class="dot reactive tooltip-trigger" cx="392.8653846153846" cy="135.6054444011669" r="2.5"/><desc class="value">0.0363</desc><desc class="x left">392.8653846153846</desc><desc class="y left">135.6054444011669</desc><desc class="x_label">180.0</desc></g><g class="dots"><circle class="dot reactive tooltip-trigger" cx="456.23076923076917" cy="208.25" r="2.5"/><desc class="value">0.0000</desc><desc class="x left">456.23076923076917</desc><desc class="y left">208.25</desc><desc class="x_label">210.0</desc></g><g class="dots"><circle class="dot reactive tooltip-trigger" cx="519.5961538461538" cy="208.25" r="2.5"/><desc class="value">0.0000</desc><desc class="x left">519.5961538461538</desc><desc class="y left">208.25</desc><desc class="x_label">240.0</desc></g><g class="dots"><circle class="dot reactive tooltip-trigger" cx="582.9615384615385" cy="208.25" r="2.5"/><desc class="value">0.0000</desc><desc class="x left">582.9615384615385</desc><desc class="y left">208.25</desc><desc class="x_label">270.0</desc></g><g class="dots"><circle class="dot reactive tooltip-trigger" cx="646.3269230769231" cy="208.25" r="2.5"/><desc class="value">0.0000</desc><desc class="x left">646.3269230769231</desc><desc class="y left">208.25</desc><desc class="x_label">300.0</desc></g></g></g><g class="plot text-overlay" transform="translate(121, 48)"><g class="series serie-0 color-0"/></g><g class="plot tooltip-overlay" transform="translate(121, 48)"><g class="tooltip" style="opacity: 0" transform="translate(0 0)"><rect class="tooltip-box" height="0" rx="0" ry="0" width="0"/><g class="text"/></g></g><g class="legends" transform="translate(131, 567)"><g class="legend reactive activate-serie" id="activate-serie-0"><rect class="color-0 reactive" height="12" width="12" x="0.0" y="1.5"/><text x="17.0" y="12.0">beatport_key/1.0</text></g></g></g></svg>