<?xml version="1.0" encoding="utf-8" standalone="no"?>
<!DOCTYPE svg PUBLIC "-//W3C//DTD SVG 1.1//EN"
  "http://www.w3.org/Graphics/SVG/1.1/DTD/svg11.dtd">
<!-- Created with matplotlib (https://matplotlib.org/) -->
<svg height="209.007975pt" version="1.1" viewBox="0 0 578.148125 209.007975" width="578.148125pt" xmlns="http://www.w3.org/2000/svg" xmlns:xlink="http://www.w3.org/1999/xlink">
 <defs>
  <style type="text/css">
*{stroke-linecap:butt;stroke-linejoin:round;}
  </style>
 </defs>
 <g id="figure_1">
  <g id="patch_1">
   <path d="M -0 209.007975 
L 578.148125 209.007975 
L 578.148125 0 
L -0 0 
z
" style="fill:#ffffff;"/>
  </g>
  <g id="axes_1">
   <g id="patch_2">
    <path d="M 140.028125 171.451725 
L 530.628125 171.451725 
L 530.628125 22.318125 
L 140.028125 22.318125 
z
" style="fill:#ffffff;"/>
   </g>
   <g id="PolyCollection_1">
    <defs>
     <path d="M 157.78267 -130.082927 
L 157.78267 -46.594168 
L 161.369447 -47.193364 
L 164.956224 -47.752896 
L 168.543001 -48.26416 
L 172.129778 -48.718381 
L 175.716555 -49.106596 
L 179.303332 -49.419626 
L 182.890108 -49.648117 
L 186.476885 -49.782949 
L 190.063662 -49.815689 
L 193.650439 -49.738971 
L 197.237216 -49.546941 
L 200.823993 -49.235757 
L 204.41077 -48.805538 
L 207.997546 -48.261427 
L 211.584323 -47.612131 
L 215.1711 -46.87043 
L 218.757877 -46.053443 
L 222.344654 -45.182595 
L 225.931431 -44.288746 
L 229.518208 -43.41051 
L 233.104985 -42.588193 
L 236.691761 -41.863412 
L 240.278538 -41.27867 
L 243.865315 -40.875585 
L 247.452092 -40.68399 
L 251.038869 -40.72609 
L 254.625646 -41.023259 
L 258.212423 -41.596517 
L 261.799199 -42.466667 
L 265.385976 -43.648351 
L 268.972753 -45.122443 
L 272.55953 -46.857614 
L 276.146307 -48.822689 
L 279.733084 -50.98707 
L 283.319861 -53.320775 
L 286.906637 -55.790439 
L 290.493414 -58.350324 
L 294.080191 -60.952331 
L 297.666968 -63.549185 
L 301.253745 -66.094657 
L 304.840522 -68.543186 
L 308.427299 -70.851147 
L 312.014075 -72.97923 
L 315.600852 -74.890531 
L 319.187629 -76.552468 
L 322.774406 -77.938269 
L 326.361183 -79.027066 
L 329.94796 -79.820789 
L 333.534737 -80.347896 
L 337.121513 -80.642314 
L 340.70829 -80.744057 
L 344.295067 -80.698882 
L 347.881844 -80.554605 
L 351.468621 -80.34247 
L 355.055398 -80.080959 
L 358.642175 -79.790334 
L 362.228951 -79.493221 
L 365.815728 -79.213656 
L 369.402505 -78.973302 
L 372.989282 -78.775091 
L 376.576059 -78.613691 
L 380.162836 -78.485467 
L 383.749613 -78.388798 
L 387.336389 -78.323631 
L 390.923166 -78.289698 
L 394.509943 -78.282428 
L 398.09672 -78.296127 
L 401.683497 -78.325678 
L 405.270274 -78.366675 
L 408.857051 -78.415301 
L 412.443827 -78.466932 
L 416.030604 -78.514119 
L 419.617381 -78.549579 
L 423.204158 -78.566909 
L 426.790935 -78.56055 
L 430.377712 -78.525596 
L 433.964489 -78.454398 
L 437.551265 -78.33435 
L 441.138042 -78.153153 
L 444.724819 -77.899371 
L 448.311596 -77.562333 
L 451.898373 -77.132045 
L 455.48515 -76.60064 
L 459.071927 -75.962655 
L 462.658704 -75.213519 
L 466.24548 -74.3495 
L 469.832257 -73.367684 
L 473.419034 -72.266274 
L 477.005811 -71.048551 
L 480.592588 -69.721541 
L 484.179365 -68.293102 
L 487.766142 -66.771799 
L 491.352918 -65.166828 
L 494.939695 -63.487648 
L 498.526472 -61.742219 
L 502.113249 -59.937899 
L 505.700026 -58.082182 
L 509.286803 -56.182678 
L 512.87358 -54.247092 
L 512.87358 -182.682731 
L 512.87358 -182.682731 
L 509.286803 -179.695106 
L 505.700026 -176.731447 
L 502.113249 -173.793358 
L 498.526472 -170.882344 
L 494.939695 -167.999796 
L 491.352918 -165.146965 
L 487.766142 -162.324734 
L 484.179365 -159.533179 
L 480.592588 -156.771775 
L 477.005811 -154.039365 
L 473.419034 -151.334085 
L 469.832257 -148.653364 
L 466.24548 -145.997405 
L 462.658704 -143.370917 
L 459.071927 -140.778262 
L 455.48515 -138.222981 
L 451.898373 -135.707779 
L 448.311596 -133.234753 
L 444.724819 -130.809321 
L 441.138042 -128.440077 
L 437.551265 -126.135141 
L 433.964489 -123.901863 
L 430.377712 -121.746735 
L 426.790935 -119.675132 
L 423.204158 -117.689207 
L 419.617381 -115.789113 
L 416.030604 -113.974291 
L 412.443827 -112.243335 
L 408.857051 -110.593962 
L 405.270274 -109.023518 
L 401.683497 -107.531002 
L 398.09672 -106.115809 
L 394.509943 -104.776741 
L 390.923166 -103.511892 
L 387.336389 -102.318778 
L 383.749613 -101.196377 
L 380.162836 -100.14911 
L 376.576059 -99.18185 
L 372.989282 -98.297905 
L 369.402505 -97.498564 
L 365.815728 -96.783343 
L 362.228951 -96.148596 
L 358.642175 -95.58631 
L 355.055398 -95.088055 
L 351.468621 -94.643994 
L 347.881844 -94.241922 
L 344.295067 -93.86737 
L 340.70829 -93.500941 
L 337.121513 -93.11753 
L 333.534737 -92.688551 
L 329.94796 -92.179675 
L 326.361183 -91.550489 
L 322.774406 -90.759079 
L 319.187629 -89.799306 
L 315.600852 -88.691695 
L 312.014075 -87.452226 
L 308.427299 -86.091077 
L 304.840522 -84.614096 
L 301.253745 -83.027475 
L 297.666968 -81.35584 
L 294.080191 -79.63313 
L 290.493414 -77.892698 
L 286.906637 -76.166848 
L 283.319861 -74.487063 
L 279.733084 -72.884534 
L 276.146307 -71.390163 
L 272.55953 -70.034462 
L 268.972753 -68.847328 
L 265.385976 -67.858079 
L 261.799199 -67.095857 
L 258.212423 -66.582092 
L 254.625646 -66.315781 
L 251.038869 -66.292236 
L 247.452092 -66.506989 
L 243.865315 -66.955922 
L 240.278538 -67.635641 
L 236.691761 -68.541419 
L 233.104985 -69.664888 
L 229.518208 -70.997038 
L 225.931431 -72.527975 
L 222.344654 -74.246492 
L 218.757877 -76.140294 
L 215.1711 -78.205371 
L 211.584323 -80.445593 
L 207.997546 -82.861386 
L 204.41077 -85.448836 
L 200.823993 -88.199955 
L 197.237216 -91.10372 
L 193.650439 -94.150708 
L 190.063662 -97.332029 
L 186.476885 -100.636867 
L 182.890108 -104.052898 
L 179.303332 -107.566726 
L 175.716555 -111.164752 
L 172.129778 -114.836427 
L 168.543001 -118.572761 
L 164.956224 -122.364983 
L 161.369447 -126.204509 
L 157.78267 -130.082927 
z
" id="mf6db008b2c" style="stroke:#d3d3d3;"/>
    </defs>
    <g clip-path="url(#pf63c8727ce)">
     <use style="fill:#d3d3d3;stroke:#d3d3d3;" x="0" xlink:href="#mf6db008b2c" y="209.007975"/>
    </g>
   </g>
   <g id="matplotlib.axis_1">
    <g id="xtick_1">
     <g id="line2d_1">
      <path clip-path="url(#pf63c8727ce)" d="M 141.266814 171.451725 
L 141.266814 22.318125 
" style="fill:none;stroke:#b0b0b0;stroke-linecap:square;stroke-width:0.8;"/>
     </g>
     <g id="line2d_2">
      <defs>
       <path d="M 0 0 
L 0 3.5 
" id="m3d7f648b6a" style="stroke:#000000;stroke-width:0.8;"/>
      </defs>
      <g>
       <use style="stroke:#000000;stroke-width:0.8;" x="141.266814" xlink:href="#m3d7f648b6a" y="171.451725"/>
      </g>
     </g>
     <g id="text_1">
      <!-- 60 -->
      <defs>
       <path d="M 33.015625 40.375 
Q 26.375 40.375 22.484375 35.828125 
Q 18.609375 31.296875 18.609375 23.390625 
Q 18.609375 15.53125 22.484375 10.953125 
Q 26.375 6.390625 33.015625 6.390625 
Q 39.65625 6.390625 43.53125 10.953125 
Q 47.40625 15.53125 47.40625 23.390625 
Q 47.40625 31.296875 43.53125 35.828125 
Q 39.65625 40.375 33.015625 40.375 
z
M 52.59375 71.296875 
L 52.59375 62.3125 
Q 48.875 64.0625 45.09375 64.984375 
Q 41.3125 65.921875 37.59375 65.921875 
Q 27.828125 65.921875 22.671875 59.328125 
Q 17.53125 52.734375 16.796875 39.40625 
Q 19.671875 43.65625 24.015625 45.921875 
Q 28.375 48.1875 33.59375 48.1875 
Q 44.578125 48.1875 50.953125 41.515625 
Q 57.328125 34.859375 57.328125 23.390625 
Q 57.328125 12.15625 50.6875 5.359375 
Q 44.046875 -1.421875 33.015625 -1.421875 
Q 20.359375 -1.421875 13.671875 8.265625 
Q 6.984375 17.96875 6.984375 36.375 
Q 6.984375 53.65625 15.1875 63.9375 
Q 23.390625 74.21875 37.203125 74.21875 
Q 40.921875 74.21875 44.703125 73.484375 
Q 48.484375 72.75 52.59375 71.296875 
z
" id="DejaVuSans-54"/>
       <path d="M 31.78125 66.40625 
Q 24.171875 66.40625 20.328125 58.90625 
Q 16.5 51.421875 16.5 36.375 
Q 16.5 21.390625 20.328125 13.890625 
Q 24.171875 6.390625 31.78125 6.390625 
Q 39.453125 6.390625 43.28125 13.890625 
Q 47.125 21.390625 47.125 36.375 
Q 47.125 51.421875 43.28125 58.90625 
Q 39.453125 66.40625 31.78125 66.40625 
z
M 31.78125 74.21875 
Q 44.046875 74.21875 50.515625 64.515625 
Q 56.984375 54.828125 56.984375 36.375 
Q 56.984375 17.96875 50.515625 8.265625 
Q 44.046875 -1.421875 31.78125 -1.421875 
Q 19.53125 -1.421875 13.0625 8.265625 
Q 6.59375 17.96875 6.59375 36.375 
Q 6.59375 54.828125 13.0625 64.515625 
Q 19.53125 74.21875 31.78125 74.21875 
z
" id="DejaVuSans-48"/>
      </defs>
      <g transform="translate(134.904314 186.050162)scale(0.1 -0.1)">
       <use xlink:href="#DejaVuSans-54"/>
       <use x="63.623047" xlink:href="#DejaVuSans-48"/>
      </g>
     </g>
    </g>
    <g id="xtick_2">
     <g id="line2d_3">
      <path clip-path="url(#pf63c8727ce)" d="M 196.319668 171.451725 
L 196.319668 22.318125 
" style="fill:none;stroke:#b0b0b0;stroke-linecap:square;stroke-width:0.8;"/>
     </g>
     <g id="line2d_4">
      <g>
       <use style="stroke:#000000;stroke-width:0.8;" x="196.319668" xlink:href="#m3d7f648b6a" y="171.451725"/>
      </g>
     </g>
     <g id="text_2">
      <!-- 80 -->
      <defs>
       <path d="M 31.78125 34.625 
Q 24.75 34.625 20.71875 30.859375 
Q 16.703125 27.09375 16.703125 20.515625 
Q 16.703125 13.921875 20.71875 10.15625 
Q 24.75 6.390625 31.78125 6.390625 
Q 38.8125 6.390625 42.859375 10.171875 
Q 46.921875 13.96875 46.921875 20.515625 
Q 46.921875 27.09375 42.890625 30.859375 
Q 38.875 34.625 31.78125 34.625 
z
M 21.921875 38.8125 
Q 15.578125 40.375 12.03125 44.71875 
Q 8.5 49.078125 8.5 55.328125 
Q 8.5 64.0625 14.71875 69.140625 
Q 20.953125 74.21875 31.78125 74.21875 
Q 42.671875 74.21875 48.875 69.140625 
Q 55.078125 64.0625 55.078125 55.328125 
Q 55.078125 49.078125 51.53125 44.71875 
Q 48 40.375 41.703125 38.8125 
Q 48.828125 37.15625 52.796875 32.3125 
Q 56.78125 27.484375 56.78125 20.515625 
Q 56.78125 9.90625 50.3125 4.234375 
Q 43.84375 -1.421875 31.78125 -1.421875 
Q 19.734375 -1.421875 13.25 4.234375 
Q 6.78125 9.90625 6.78125 20.515625 
Q 6.78125 27.484375 10.78125 32.3125 
Q 14.796875 37.15625 21.921875 38.8125 
z
M 18.3125 54.390625 
Q 18.3125 48.734375 21.84375 45.5625 
Q 25.390625 42.390625 31.78125 42.390625 
Q 38.140625 42.390625 41.71875 45.5625 
Q 45.3125 48.734375 45.3125 54.390625 
Q 45.3125 60.0625 41.71875 63.234375 
Q 38.140625 66.40625 31.78125 66.40625 
Q 25.390625 66.40625 21.84375 63.234375 
Q 18.3125 60.0625 18.3125 54.390625 
z
" id="DejaVuSans-56"/>
      </defs>
      <g transform="translate(189.957168 186.050162)scale(0.1 -0.1)">
       <use xlink:href="#DejaVuSans-56"/>
       <use x="63.623047" xlink:href="#DejaVuSans-48"/>
      </g>
     </g>
    </g>
    <g id="xtick_3">
     <g id="line2d_5">
      <path clip-path="url(#pf63c8727ce)" d="M 251.372522 171.451725 
L 251.372522 22.318125 
" style="fill:none;stroke:#b0b0b0;stroke-linecap:square;stroke-width:0.8;"/>
     </g>
     <g id="line2d_6">
      <g>
       <use style="stroke:#000000;stroke-width:0.8;" x="251.372522" xlink:href="#m3d7f648b6a" y="171.451725"/>
      </g>
     </g>
     <g id="text_3">
      <!-- 100 -->
      <defs>
       <path d="M 12.40625 8.296875 
L 28.515625 8.296875 
L 28.515625 63.921875 
L 10.984375 60.40625 
L 10.984375 69.390625 
L 28.421875 72.90625 
L 38.28125 72.90625 
L 38.28125 8.296875 
L 54.390625 8.296875 
L 54.390625 0 
L 12.40625 0 
z
" id="DejaVuSans-49"/>
      </defs>
      <g transform="translate(241.828772 186.050162)scale(0.1 -0.1)">
       <use xlink:href="#DejaVuSans-49"/>
       <use x="63.623047" xlink:href="#DejaVuSans-48"/>
       <use x="127.246094" xlink:href="#DejaVuSans-48"/>
      </g>
     </g>
    </g>
    <g id="xtick_4">
     <g id="line2d_7">
      <path clip-path="url(#pf63c8727ce)" d="M 306.425377 171.451725 
L 306.425377 22.318125 
" style="fill:none;stroke:#b0b0b0;stroke-linecap:square;stroke-width:0.8;"/>
     </g>
     <g id="line2d_8">
      <g>
       <use style="stroke:#000000;stroke-width:0.8;" x="306.425377" xlink:href="#m3d7f648b6a" y="171.451725"/>
      </g>
     </g>
     <g id="text_4">
      <!-- 120 -->
      <defs>
       <path d="M 19.1875 8.296875 
L 53.609375 8.296875 
L 53.609375 0 
L 7.328125 0 
L 7.328125 8.296875 
Q 12.9375 14.109375 22.625 23.890625 
Q 32.328125 33.6875 34.8125 36.53125 
Q 39.546875 41.84375 41.421875 45.53125 
Q 43.3125 49.21875 43.3125 52.78125 
Q 43.3125 58.59375 39.234375 62.25 
Q 35.15625 65.921875 28.609375 65.921875 
Q 23.96875 65.921875 18.8125 64.3125 
Q 13.671875 62.703125 7.8125 59.421875 
L 7.8125 69.390625 
Q 13.765625 71.78125 18.9375 73 
Q 24.125 74.21875 28.421875 74.21875 
Q 39.75 74.21875 46.484375 68.546875 
Q 53.21875 62.890625 53.21875 53.421875 
Q 53.21875 48.921875 51.53125 44.890625 
Q 49.859375 40.875 45.40625 35.40625 
Q 44.1875 33.984375 37.640625 27.21875 
Q 31.109375 20.453125 19.1875 8.296875 
z
" id="DejaVuSans-50"/>
      </defs>
      <g transform="translate(296.881627 186.050162)scale(0.1 -0.1)">
       <use xlink:href="#DejaVuSans-49"/>
       <use x="63.623047" xlink:href="#DejaVuSans-50"/>
       <use x="127.246094" xlink:href="#DejaVuSans-48"/>
      </g>
     </g>
    </g>
    <g id="xtick_5">
     <g id="line2d_9">
      <path clip-path="url(#pf63c8727ce)" d="M 361.478231 171.451725 
L 361.478231 22.318125 
" style="fill:none;stroke:#b0b0b0;stroke-linecap:square;stroke-width:0.8;"/>
     </g>
     <g id="line2d_10">
      <g>
       <use style="stroke:#000000;stroke-width:0.8;" x="361.478231" xlink:href="#m3d7f648b6a" y="171.451725"/>
      </g>
     </g>
     <g id="text_5">
      <!-- 140 -->
      <defs>
       <path d="M 37.796875 64.3125 
L 12.890625 25.390625 
L 37.796875 25.390625 
z
M 35.203125 72.90625 
L 47.609375 72.90625 
L 47.609375 25.390625 
L 58.015625 25.390625 
L 58.015625 17.1875 
L 47.609375 17.1875 
L 47.609375 0 
L 37.796875 0 
L 37.796875 17.1875 
L 4.890625 17.1875 
L 4.890625 26.703125 
z
" id="DejaVuSans-52"/>
      </defs>
      <g transform="translate(351.934481 186.050162)scale(0.1 -0.1)">
       <use xlink:href="#DejaVuSans-49"/>
       <use x="63.623047" xlink:href="#DejaVuSans-52"/>
       <use x="127.246094" xlink:href="#DejaVuSans-48"/>
      </g>
     </g>
    </g>
    <g id="xtick_6">
     <g id="line2d_11">
      <path clip-path="url(#pf63c8727ce)" d="M 416.531085 171.451725 
L 416.531085 22.318125 
" style="fill:none;stroke:#b0b0b0;stroke-linecap:square;stroke-width:0.8;"/>
     </g>
     <g id="line2d_12">
      <g>
       <use style="stroke:#000000;stroke-width:0.8;" x="416.531085" xlink:href="#m3d7f648b6a" y="171.451725"/>
      </g>
     </g>
     <g id="text_6">
      <!-- 160 -->
      <g transform="translate(406.987335 186.050162)scale(0.1 -0.1)">
       <use xlink:href="#DejaVuSans-49"/>
       <use x="63.623047" xlink:href="#DejaVuSans-54"/>
       <use x="127.246094" xlink:href="#DejaVuSans-48"/>
      </g>
     </g>
    </g>
    <g id="xtick_7">
     <g id="line2d_13">
      <path clip-path="url(#pf63c8727ce)" d="M 471.583939 171.451725 
L 471.583939 22.318125 
" style="fill:none;stroke:#b0b0b0;stroke-linecap:square;stroke-width:0.8;"/>
     </g>
     <g id="line2d_14">
      <g>
       <use style="stroke:#000000;stroke-width:0.8;" x="471.583939" xlink:href="#m3d7f648b6a" y="171.451725"/>
      </g>
     </g>
     <g id="text_7">
      <!-- 180 -->
      <g transform="translate(462.040189 186.050162)scale(0.1 -0.1)">
       <use xlink:href="#DejaVuSans-49"/>
       <use x="63.623047" xlink:href="#DejaVuSans-56"/>
       <use x="127.246094" xlink:href="#DejaVuSans-48"/>
      </g>
     </g>
    </g>
    <g id="xtick_8">
     <g id="line2d_15">
      <path clip-path="url(#pf63c8727ce)" d="M 526.636793 171.451725 
L 526.636793 22.318125 
" style="fill:none;stroke:#b0b0b0;stroke-linecap:square;stroke-width:0.8;"/>
     </g>
     <g id="line2d_16">
      <g>
       <use style="stroke:#000000;stroke-width:0.8;" x="526.636793" xlink:href="#m3d7f648b6a" y="171.451725"/>
      </g>
     </g>
     <g id="text_8">
      <!-- 200 -->
      <g transform="translate(517.093043 186.050162)scale(0.1 -0.1)">
       <use xlink:href="#DejaVuSans-50"/>
       <use x="63.623047" xlink:href="#DejaVuSans-48"/>
       <use x="127.246094" xlink:href="#DejaVuSans-48"/>
      </g>
     </g>
    </g>
    <g id="text_9">
     <!-- Tempo (BPM) -->
     <defs>
      <path d="M -0.296875 72.90625 
L 61.375 72.90625 
L 61.375 64.59375 
L 35.5 64.59375 
L 35.5 0 
L 25.59375 0 
L 25.59375 64.59375 
L -0.296875 64.59375 
z
" id="DejaVuSans-84"/>
      <path d="M 56.203125 29.59375 
L 56.203125 25.203125 
L 14.890625 25.203125 
Q 15.484375 15.921875 20.484375 11.0625 
Q 25.484375 6.203125 34.421875 6.203125 
Q 39.59375 6.203125 44.453125 7.46875 
Q 49.3125 8.734375 54.109375 11.28125 
L 54.109375 2.78125 
Q 49.265625 0.734375 44.1875 -0.34375 
Q 39.109375 -1.421875 33.890625 -1.421875 
Q 20.796875 -1.421875 13.15625 6.1875 
Q 5.515625 13.8125 5.515625 26.8125 
Q 5.515625 40.234375 12.765625 48.109375 
Q 20.015625 56 32.328125 56 
Q 43.359375 56 49.78125 48.890625 
Q 56.203125 41.796875 56.203125 29.59375 
z
M 47.21875 32.234375 
Q 47.125 39.59375 43.09375 43.984375 
Q 39.0625 48.390625 32.421875 48.390625 
Q 24.90625 48.390625 20.390625 44.140625 
Q 15.875 39.890625 15.1875 32.171875 
z
" id="DejaVuSans-101"/>
      <path d="M 52 44.1875 
Q 55.375 50.25 60.0625 53.125 
Q 64.75 56 71.09375 56 
Q 79.640625 56 84.28125 50.015625 
Q 88.921875 44.046875 88.921875 33.015625 
L 88.921875 0 
L 79.890625 0 
L 79.890625 32.71875 
Q 79.890625 40.578125 77.09375 44.375 
Q 74.3125 48.1875 68.609375 48.1875 
Q 61.625 48.1875 57.5625 43.546875 
Q 53.515625 38.921875 53.515625 30.90625 
L 53.515625 0 
L 44.484375 0 
L 44.484375 32.71875 
Q 44.484375 40.625 41.703125 44.40625 
Q 38.921875 48.1875 33.109375 48.1875 
Q 26.21875 48.1875 22.15625 43.53125 
Q 18.109375 38.875 18.109375 30.90625 
L 18.109375 0 
L 9.078125 0 
L 9.078125 54.6875 
L 18.109375 54.6875 
L 18.109375 46.1875 
Q 21.1875 51.21875 25.484375 53.609375 
Q 29.78125 56 35.6875 56 
Q 41.65625 56 45.828125 52.96875 
Q 50 49.953125 52 44.1875 
z
" id="DejaVuSans-109"/>
      <path d="M 18.109375 8.203125 
L 18.109375 -20.796875 
L 9.078125 -20.796875 
L 9.078125 54.6875 
L 18.109375 54.6875 
L 18.109375 46.390625 
Q 20.953125 51.265625 25.265625 53.625 
Q 29.59375 56 35.59375 56 
Q 45.5625 56 51.78125 48.09375 
Q 58.015625 40.1875 58.015625 27.296875 
Q 58.015625 14.40625 51.78125 6.484375 
Q 45.5625 -1.421875 35.59375 -1.421875 
Q 29.59375 -1.421875 25.265625 0.953125 
Q 20.953125 3.328125 18.109375 8.203125 
z
M 48.6875 27.296875 
Q 48.6875 37.203125 44.609375 42.84375 
Q 40.53125 48.484375 33.40625 48.484375 
Q 26.265625 48.484375 22.1875 42.84375 
Q 18.109375 37.203125 18.109375 27.296875 
Q 18.109375 17.390625 22.1875 11.75 
Q 26.265625 6.109375 33.40625 6.109375 
Q 40.53125 6.109375 44.609375 11.75 
Q 48.6875 17.390625 48.6875 27.296875 
z
" id="DejaVuSans-112"/>
      <path d="M 30.609375 48.390625 
Q 23.390625 48.390625 19.1875 42.75 
Q 14.984375 37.109375 14.984375 27.296875 
Q 14.984375 17.484375 19.15625 11.84375 
Q 23.34375 6.203125 30.609375 6.203125 
Q 37.796875 6.203125 41.984375 11.859375 
Q 46.1875 17.53125 46.1875 27.296875 
Q 46.1875 37.015625 41.984375 42.703125 
Q 37.796875 48.390625 30.609375 48.390625 
z
M 30.609375 56 
Q 42.328125 56 49.015625 48.375 
Q 55.71875 40.765625 55.71875 27.296875 
Q 55.71875 13.875 49.015625 6.21875 
Q 42.328125 -1.421875 30.609375 -1.421875 
Q 18.84375 -1.421875 12.171875 6.21875 
Q 5.515625 13.875 5.515625 27.296875 
Q 5.515625 40.765625 12.171875 48.375 
Q 18.84375 56 30.609375 56 
z
" id="DejaVuSans-111"/>
      <path id="DejaVuSans-32"/>
      <path d="M 31 75.875 
Q 24.46875 64.65625 21.28125 53.65625 
Q 18.109375 42.671875 18.109375 31.390625 
Q 18.109375 20.125 21.3125 9.0625 
Q 24.515625 -2 31 -13.1875 
L 23.1875 -13.1875 
Q 15.875 -1.703125 12.234375 9.375 
Q 8.59375 20.453125 8.59375 31.390625 
Q 8.59375 42.28125 12.203125 53.3125 
Q 15.828125 64.359375 23.1875 75.875 
z
" id="DejaVuSans-40"/>
      <path d="M 19.671875 34.8125 
L 19.671875 8.109375 
L 35.5 8.109375 
Q 43.453125 8.109375 47.28125 11.40625 
Q 51.125 14.703125 51.125 21.484375 
Q 51.125 28.328125 47.28125 31.5625 
Q 43.453125 34.8125 35.5 34.8125 
z
M 19.671875 64.796875 
L 19.671875 42.828125 
L 34.28125 42.828125 
Q 41.5 42.828125 45.03125 45.53125 
Q 48.578125 48.25 48.578125 53.8125 
Q 48.578125 59.328125 45.03125 62.0625 
Q 41.5 64.796875 34.28125 64.796875 
z
M 9.8125 72.90625 
L 35.015625 72.90625 
Q 46.296875 72.90625 52.390625 68.21875 
Q 58.5 63.53125 58.5 54.890625 
Q 58.5 48.1875 55.375 44.234375 
Q 52.25 40.28125 46.1875 39.3125 
Q 53.46875 37.75 57.5 32.78125 
Q 61.53125 27.828125 61.53125 20.40625 
Q 61.53125 10.640625 54.890625 5.3125 
Q 48.25 0 35.984375 0 
L 9.8125 0 
z
" id="DejaVuSans-66"/>
      <path d="M 19.671875 64.796875 
L 19.671875 37.40625 
L 32.078125 37.40625 
Q 38.96875 37.40625 42.71875 40.96875 
Q 46.484375 44.53125 46.484375 51.125 
Q 46.484375 57.671875 42.71875 61.234375 
Q 38.96875 64.796875 32.078125 64.796875 
z
M 9.8125 72.90625 
L 32.078125 72.90625 
Q 44.34375 72.90625 50.609375 67.359375 
Q 56.890625 61.8125 56.890625 51.125 
Q 56.890625 40.328125 50.609375 34.8125 
Q 44.34375 29.296875 32.078125 29.296875 
L 19.671875 29.296875 
L 19.671875 0 
L 9.8125 0 
z
" id="DejaVuSans-80"/>
      <path d="M 9.8125 72.90625 
L 24.515625 72.90625 
L 43.109375 23.296875 
L 61.8125 72.90625 
L 76.515625 72.90625 
L 76.515625 0 
L 66.890625 0 
L 66.890625 64.015625 
L 48.09375 14.015625 
L 38.1875 14.015625 
L 19.390625 64.015625 
L 19.390625 0 
L 9.8125 0 
z
" id="DejaVuSans-77"/>
      <path d="M 8.015625 75.875 
L 15.828125 75.875 
Q 23.140625 64.359375 26.78125 53.3125 
Q 30.421875 42.28125 30.421875 31.390625 
Q 30.421875 20.453125 26.78125 9.375 
Q 23.140625 -1.703125 15.828125 -13.1875 
L 8.015625 -13.1875 
Q 14.5 -2 17.703125 9.0625 
Q 20.90625 20.125 20.90625 31.390625 
Q 20.90625 42.671875 17.703125 53.65625 
Q 14.5 64.65625 8.015625 75.875 
z
" id="DejaVuSans-41"/>
     </defs>
     <g transform="translate(302.69375 199.728288)scale(0.1 -0.1)">
      <use xlink:href="#DejaVuSans-84"/>
      <use x="44.083984" xlink:href="#DejaVuSans-101"/>
      <use x="105.607422" xlink:href="#DejaVuSans-109"/>
      <use x="203.019531" xlink:href="#DejaVuSans-112"/>
      <use x="266.496094" xlink:href="#DejaVuSans-111"/>
      <use x="327.677734" xlink:href="#DejaVuSans-32"/>
      <use x="359.464844" xlink:href="#DejaVuSans-40"/>
      <use x="398.478516" xlink:href="#DejaVuSans-66"/>
      <use x="467.082031" xlink:href="#DejaVuSans-80"/>
      <use x="527.384766" xlink:href="#DejaVuSans-77"/>
      <use x="613.664062" xlink:href="#DejaVuSans-41"/>
     </g>
    </g>
   </g>
   <g id="matplotlib.axis_2">
    <g id="ytick_1">
     <g id="line2d_17">
      <path clip-path="url(#pf63c8727ce)" d="M 140.028125 171.451725 
L 530.628125 171.451725 
" style="fill:none;stroke:#b0b0b0;stroke-linecap:square;stroke-width:0.8;"/>
     </g>
     <g id="line2d_18">
      <defs>
       <path d="M 0 0 
L -3.5 0 
" id="m45ccf6db95" style="stroke:#000000;stroke-width:0.8;"/>
      </defs>
      <g>
       <use style="stroke:#000000;stroke-width:0.8;" x="140.028125" xlink:href="#m45ccf6db95" y="171.451725"/>
      </g>
     </g>
     <g id="text_10">
      <!-- −0.050 -->
      <defs>
       <path d="M 10.59375 35.5 
L 73.1875 35.5 
L 73.1875 27.203125 
L 10.59375 27.203125 
z
" id="DejaVuSans-8722"/>
       <path d="M 10.6875 12.40625 
L 21 12.40625 
L 21 0 
L 10.6875 0 
z
" id="DejaVuSans-46"/>
       <path d="M 10.796875 72.90625 
L 49.515625 72.90625 
L 49.515625 64.59375 
L 19.828125 64.59375 
L 19.828125 46.734375 
Q 21.96875 47.46875 24.109375 47.828125 
Q 26.265625 48.1875 28.421875 48.1875 
Q 40.625 48.1875 47.75 41.5 
Q 54.890625 34.8125 54.890625 23.390625 
Q 54.890625 11.625 47.5625 5.09375 
Q 40.234375 -1.421875 26.90625 -1.421875 
Q 22.3125 -1.421875 17.546875 -0.640625 
Q 12.796875 0.140625 7.71875 1.703125 
L 7.71875 11.625 
Q 12.109375 9.234375 16.796875 8.0625 
Q 21.484375 6.890625 26.703125 6.890625 
Q 35.15625 6.890625 40.078125 11.328125 
Q 45.015625 15.765625 45.015625 23.390625 
Q 45.015625 31 40.078125 35.4375 
Q 35.15625 39.890625 26.703125 39.890625 
Q 22.75 39.890625 18.8125 39.015625 
Q 14.890625 38.140625 10.796875 36.28125 
z
" id="DejaVuSans-53"/>
      </defs>
      <g transform="translate(96.020313 175.250944)scale(0.1 -0.1)">
       <use xlink:href="#DejaVuSans-8722"/>
       <use x="83.789062" xlink:href="#DejaVuSans-48"/>
       <use x="147.412109" xlink:href="#DejaVuSans-46"/>
       <use x="179.199219" xlink:href="#DejaVuSans-48"/>
       <use x="242.822266" xlink:href="#DejaVuSans-53"/>
       <use x="306.445312" xlink:href="#DejaVuSans-48"/>
      </g>
     </g>
    </g>
    <g id="ytick_2">
     <g id="line2d_19">
      <path clip-path="url(#pf63c8727ce)" d="M 140.028125 146.596125 
L 530.628125 146.596125 
" style="fill:none;stroke:#b0b0b0;stroke-linecap:square;stroke-width:0.8;"/>
     </g>
     <g id="line2d_20">
      <g>
       <use style="stroke:#000000;stroke-width:0.8;" x="140.028125" xlink:href="#m45ccf6db95" y="146.596125"/>
      </g>
     </g>
     <g id="text_11">
      <!-- −0.025 -->
      <g transform="translate(96.020313 150.395344)scale(0.1 -0.1)">
       <use xlink:href="#DejaVuSans-8722"/>
       <use x="83.789062" xlink:href="#DejaVuSans-48"/>
       <use x="147.412109" xlink:href="#DejaVuSans-46"/>
       <use x="179.199219" xlink:href="#DejaVuSans-48"/>
       <use x="242.822266" xlink:href="#DejaVuSans-50"/>
       <use x="306.445312" xlink:href="#DejaVuSans-53"/>
      </g>
     </g>
    </g>
    <g id="ytick_3">
     <g id="line2d_21">
      <path clip-path="url(#pf63c8727ce)" d="M 140.028125 121.740525 
L 530.628125 121.740525 
" style="fill:none;stroke:#b0b0b0;stroke-linecap:square;stroke-width:0.8;"/>
     </g>
     <g id="line2d_22">
      <g>
       <use style="stroke:#000000;stroke-width:0.8;" x="140.028125" xlink:href="#m45ccf6db95" y="121.740525"/>
      </g>
     </g>
     <g id="text_12">
      <!-- 0.000 -->
      <g transform="translate(104.4 125.539744)scale(0.1 -0.1)">
       <use xlink:href="#DejaVuSans-48"/>
       <use x="63.623047" xlink:href="#DejaVuSans-46"/>
       <use x="95.410156" xlink:href="#DejaVuSans-48"/>
       <use x="159.033203" xlink:href="#DejaVuSans-48"/>
       <use x="222.65625" xlink:href="#DejaVuSans-48"/>
      </g>
     </g>
    </g>
    <g id="ytick_4">
     <g id="line2d_23">
      <path clip-path="url(#pf63c8727ce)" d="M 140.028125 96.884925 
L 530.628125 96.884925 
" style="fill:none;stroke:#b0b0b0;stroke-linecap:square;stroke-width:0.8;"/>
     </g>
     <g id="line2d_24">
      <g>
       <use style="stroke:#000000;stroke-width:0.8;" x="140.028125" xlink:href="#m45ccf6db95" y="96.884925"/>
      </g>
     </g>
     <g id="text_13">
      <!-- 0.025 -->
      <g transform="translate(104.4 100.684144)scale(0.1 -0.1)">
       <use xlink:href="#DejaVuSans-48"/>
       <use x="63.623047" xlink:href="#DejaVuSans-46"/>
       <use x="95.410156" xlink:href="#DejaVuSans-48"/>
       <use x="159.033203" xlink:href="#DejaVuSans-50"/>
       <use x="222.65625" xlink:href="#DejaVuSans-53"/>
      </g>
     </g>
    </g>
    <g id="ytick_5">
     <g id="line2d_25">
      <path clip-path="url(#pf63c8727ce)" d="M 140.028125 72.029325 
L 530.628125 72.029325 
" style="fill:none;stroke:#b0b0b0;stroke-linecap:square;stroke-width:0.8;"/>
     </g>
     <g id="line2d_26">
      <g>
       <use style="stroke:#000000;stroke-width:0.8;" x="140.028125" xlink:href="#m45ccf6db95" y="72.029325"/>
      </g>
     </g>
     <g id="text_14">
      <!-- 0.050 -->
      <g transform="translate(104.4 75.828544)scale(0.1 -0.1)">
       <use xlink:href="#DejaVuSans-48"/>
       <use x="63.623047" xlink:href="#DejaVuSans-46"/>
       <use x="95.410156" xlink:href="#DejaVuSans-48"/>
       <use x="159.033203" xlink:href="#DejaVuSans-53"/>
       <use x="222.65625" xlink:href="#DejaVuSans-48"/>
      </g>
     </g>
    </g>
    <g id="ytick_6">
     <g id="line2d_27">
      <path clip-path="url(#pf63c8727ce)" d="M 140.028125 47.173725 
L 530.628125 47.173725 
" style="fill:none;stroke:#b0b0b0;stroke-linecap:square;stroke-width:0.8;"/>
     </g>
     <g id="line2d_28">
      <g>
       <use style="stroke:#000000;stroke-width:0.8;" x="140.028125" xlink:href="#m45ccf6db95" y="47.173725"/>
      </g>
     </g>
     <g id="text_15">
      <!-- 0.075 -->
      <defs>
       <path d="M 8.203125 72.90625 
L 55.078125 72.90625 
L 55.078125 68.703125 
L 28.609375 0 
L 18.3125 0 
L 43.21875 64.59375 
L 8.203125 64.59375 
z
" id="DejaVuSans-55"/>
      </defs>
      <g transform="translate(104.4 50.972944)scale(0.1 -0.1)">
       <use xlink:href="#DejaVuSans-48"/>
       <use x="63.623047" xlink:href="#DejaVuSans-46"/>
       <use x="95.410156" xlink:href="#DejaVuSans-48"/>
       <use x="159.033203" xlink:href="#DejaVuSans-55"/>
       <use x="222.65625" xlink:href="#DejaVuSans-53"/>
      </g>
     </g>
    </g>
    <g id="ytick_7">
     <g id="line2d_29">
      <path clip-path="url(#pf63c8727ce)" d="M 140.028125 22.318125 
L 530.628125 22.318125 
" style="fill:none;stroke:#b0b0b0;stroke-linecap:square;stroke-width:0.8;"/>
     </g>
     <g id="line2d_30">
      <g>
       <use style="stroke:#000000;stroke-width:0.8;" x="140.028125" xlink:href="#m45ccf6db95" y="22.318125"/>
      </g>
     </g>
     <g id="text_16">
      <!-- 0.100 -->
      <g transform="translate(104.4 26.117344)scale(0.1 -0.1)">
       <use xlink:href="#DejaVuSans-48"/>
       <use x="63.623047" xlink:href="#DejaVuSans-46"/>
       <use x="95.410156" xlink:href="#DejaVuSans-49"/>
       <use x="159.033203" xlink:href="#DejaVuSans-48"/>
       <use x="222.65625" xlink:href="#DejaVuSans-48"/>
      </g>
     </g>
    </g>
    <g id="text_17">
     <!-- beatport_key/1.0 -->
     <defs>
      <path d="M 48.6875 27.296875 
Q 48.6875 37.203125 44.609375 42.84375 
Q 40.53125 48.484375 33.40625 48.484375 
Q 26.265625 48.484375 22.1875 42.84375 
Q 18.109375 37.203125 18.109375 27.296875 
Q 18.109375 17.390625 22.1875 11.75 
Q 26.265625 6.109375 33.40625 6.109375 
Q 40.53125 6.109375 44.609375 11.75 
Q 48.6875 17.390625 48.6875 27.296875 
z
M 18.109375 46.390625 
Q 20.953125 51.265625 25.265625 53.625 
Q 29.59375 56 35.59375 56 
Q 45.5625 56 51.78125 48.09375 
Q 58.015625 40.1875 58.015625 27.296875 
Q 58.015625 14.40625 51.78125 6.484375 
Q 45.5625 -1.421875 35.59375 -1.421875 
Q 29.59375 -1.421875 25.265625 0.953125 
Q 20.953125 3.328125 18.109375 8.203125 
L 18.109375 0 
L 9.078125 0 
L 9.078125 75.984375 
L 18.109375 75.984375 
z
" id="DejaVuSans-98"/>
      <path d="M 34.28125 27.484375 
Q 23.390625 27.484375 19.1875 25 
Q 14.984375 22.515625 14.984375 16.5 
Q 14.984375 11.71875 18.140625 8.90625 
Q 21.296875 6.109375 26.703125 6.109375 
Q 34.1875 6.109375 38.703125 11.40625 
Q 43.21875 16.703125 43.21875 25.484375 
L 43.21875 27.484375 
z
M 52.203125 31.203125 
L 52.203125 0 
L 43.21875 0 
L 43.21875 8.296875 
Q 40.140625 3.328125 35.546875 0.953125 
Q 30.953125 -1.421875 24.3125 -1.421875 
Q 15.921875 -1.421875 10.953125 3.296875 
Q 6 8.015625 6 15.921875 
Q 6 25.140625 12.171875 29.828125 
Q 18.359375 34.515625 30.609375 34.515625 
L 43.21875 34.515625 
L 43.21875 35.40625 
Q 43.21875 41.609375 39.140625 45 
Q 35.0625 48.390625 27.6875 48.390625 
Q 23 48.390625 18.546875 47.265625 
Q 14.109375 46.140625 10.015625 43.890625 
L 10.015625 52.203125 
Q 14.9375 54.109375 19.578125 55.046875 
Q 24.21875 56 28.609375 56 
Q 40.484375 56 46.34375 49.84375 
Q 52.203125 43.703125 52.203125 31.203125 
z
" id="DejaVuSans-97"/>
      <path d="M 18.3125 70.21875 
L 18.3125 54.6875 
L 36.8125 54.6875 
L 36.8125 47.703125 
L 18.3125 47.703125 
L 18.3125 18.015625 
Q 18.3125 11.328125 20.140625 9.421875 
Q 21.96875 7.515625 27.59375 7.515625 
L 36.8125 7.515625 
L 36.8125 0 
L 27.59375 0 
Q 17.1875 0 13.234375 3.875 
Q 9.28125 7.765625 9.28125 18.015625 
L 9.28125 47.703125 
L 2.6875 47.703125 
L 2.6875 54.6875 
L 9.28125 54.6875 
L 9.28125 70.21875 
z
" id="DejaVuSans-116"/>
      <path d="M 41.109375 46.296875 
Q 39.59375 47.171875 37.8125 47.578125 
Q 36.03125 48 33.890625 48 
Q 26.265625 48 22.1875 43.046875 
Q 18.109375 38.09375 18.109375 28.8125 
L 18.109375 0 
L 9.078125 0 
L 9.078125 54.6875 
L 18.109375 54.6875 
L 18.109375 46.1875 
Q 20.953125 51.171875 25.484375 53.578125 
Q 30.03125 56 36.53125 56 
Q 37.453125 56 38.578125 55.875 
Q 39.703125 55.765625 41.0625 55.515625 
z
" id="DejaVuSans-114"/>
      <path d="M 50.984375 -16.609375 
L 50.984375 -23.578125 
L -0.984375 -23.578125 
L -0.984375 -16.609375 
z
" id="DejaVuSans-95"/>
      <path d="M 9.078125 75.984375 
L 18.109375 75.984375 
L 18.109375 31.109375 
L 44.921875 54.6875 
L 56.390625 54.6875 
L 27.390625 29.109375 
L 57.625 0 
L 45.90625 0 
L 18.109375 26.703125 
L 18.109375 0 
L 9.078125 0 
z
" id="DejaVuSans-107"/>
      <path d="M 32.171875 -5.078125 
Q 28.375 -14.84375 24.75 -17.8125 
Q 21.140625 -20.796875 15.09375 -20.796875 
L 7.90625 -20.796875 
L 7.90625 -13.28125 
L 13.1875 -13.28125 
Q 16.890625 -13.28125 18.9375 -11.515625 
Q 21 -9.765625 23.484375 -3.21875 
L 25.09375 0.875 
L 2.984375 54.6875 
L 12.5 54.6875 
L 29.59375 11.921875 
L 46.6875 54.6875 
L 56.203125 54.6875 
z
" id="DejaVuSans-121"/>
      <path d="M 25.390625 72.90625 
L 33.6875 72.90625 
L 8.296875 -9.28125 
L 0 -9.28125 
z
" id="DejaVuSans-47"/>
     </defs>
     <g transform="translate(7.2 94.527113)scale(0.1 -0.1)">
      <use xlink:href="#DejaVuSans-98"/>
      <use x="63.476562" xlink:href="#DejaVuSans-101"/>
      <use x="125" xlink:href="#DejaVuSans-97"/>
      <use x="186.279297" xlink:href="#DejaVuSans-116"/>
      <use x="225.488281" xlink:href="#DejaVuSans-112"/>
      <use x="288.964844" xlink:href="#DejaVuSans-111"/>
      <use x="350.146484" xlink:href="#DejaVuSans-114"/>
      <use x="391.259766" xlink:href="#DejaVuSans-116"/>
      <use x="430.46875" xlink:href="#DejaVuSans-95"/>
      <use x="480.46875" xlink:href="#DejaVuSans-107"/>
      <use x="534.753906" xlink:href="#DejaVuSans-101"/>
      <use x="596.277344" xlink:href="#DejaVuSans-121"/>
      <use x="655.457031" xlink:href="#DejaVuSans-47"/>
      <use x="689.148438" xlink:href="#DejaVuSans-49"/>
      <use x="752.771484" xlink:href="#DejaVuSans-46"/>
      <use x="784.558594" xlink:href="#DejaVuSans-48"/>
     </g>
    </g>
   </g>
   <g id="line2d_31">
    <path clip-path="url(#pf63c8727ce)" d="M 157.78267 120.669428 
L 161.369447 122.309038 
L 164.956224 123.949035 
L 168.543001 125.589514 
L 172.129778 127.230571 
L 175.716555 128.872301 
L 179.303332 130.514799 
L 182.890108 132.157467 
L 186.476885 133.798067 
L 190.063662 135.434116 
L 193.650439 137.063135 
L 197.237216 138.682644 
L 200.823993 140.290119 
L 204.41077 141.880788 
L 207.997546 143.446568 
L 211.584323 144.979113 
L 215.1711 146.470074 
L 218.757877 147.911107 
L 222.344654 149.293432 
L 225.931431 150.599614 
L 229.518208 151.804201 
L 233.104985 152.881434 
L 236.691761 153.805559 
L 240.278538 154.55082 
L 243.865315 155.092221 
L 247.452092 155.412485 
L 251.038869 155.498812 
L 254.625646 155.338455 
L 258.212423 154.918671 
L 261.799199 154.226713 
L 265.385976 153.25476 
L 268.972753 152.023089 
L 272.55953 150.561937 
L 276.146307 148.901549 
L 279.733084 147.072173 
L 283.319861 145.104056 
L 286.906637 143.029332 
L 290.493414 140.886464 
L 294.080191 138.715244 
L 297.666968 136.555463 
L 301.253745 134.446909 
L 304.840522 132.429334 
L 308.427299 130.536863 
L 312.014075 128.792247 
L 315.600852 127.216862 
L 319.187629 125.832088 
L 322.774406 124.659301 
L 326.361183 123.719197 
L 329.94796 123.007743 
L 333.534737 122.489752 
L 337.121513 122.128053 
L 340.70829 121.885476 
L 344.295067 121.724849 
L 347.881844 121.609712 
L 351.468621 121.514743 
L 355.055398 121.423468 
L 358.642175 121.319653 
L 362.228951 121.187066 
L 365.815728 121.009476 
L 369.402505 120.772042 
L 372.989282 120.471477 
L 376.576059 120.110204 
L 380.162836 119.690687 
L 383.749613 119.215387 
L 387.336389 118.686771 
L 390.923166 118.10718 
L 394.509943 117.478391 
L 398.09672 116.802007 
L 401.683497 116.079635 
L 405.270274 115.312879 
L 408.857051 114.503343 
L 412.443827 113.652842 
L 416.030604 112.76377 
L 419.617381 111.838629 
L 423.204158 110.879917 
L 426.790935 109.890134 
L 430.377712 108.871809 
L 433.964489 107.829844 
L 437.551265 106.77323 
L 441.138042 105.71136 
L 444.724819 104.653629 
L 448.311596 103.609432 
L 451.898373 102.588063 
L 455.48515 101.596165 
L 459.071927 100.637517 
L 462.658704 99.715757 
L 466.24548 98.834522 
L 469.832257 97.997451 
L 473.419034 97.207796 
L 477.005811 96.464017 
L 480.592588 95.761317 
L 484.179365 95.094834 
L 487.766142 94.459708 
L 491.352918 93.851079 
L 494.939695 93.264253 
L 498.526472 92.695693 
L 502.113249 92.142346 
L 505.700026 91.60116 
L 509.286803 91.069083 
L 512.87358 90.543063 
" style="fill:none;stroke:#ff0000;stroke-linecap:square;stroke-width:1.5;"/>
   </g>
   <g id="patch_3">
    <path d="M 140.028125 171.451725 
L 140.028125 22.318125 
" style="fill:none;stroke:#000000;stroke-linecap:square;stroke-linejoin:miter;stroke-width:0.8;"/>
   </g>
   <g id="patch_4">
    <path d="M 530.628125 171.451725 
L 530.628125 22.318125 
" style="fill:none;stroke:#000000;stroke-linecap:square;stroke-linejoin:miter;stroke-width:0.8;"/>
   </g>
   <g id="patch_5">
    <path d="M 140.028125 171.451725 
L 530.628125 171.451725 
" style="fill:none;stroke:#000000;stroke-linecap:square;stroke-linejoin:miter;stroke-width:0.8;"/>
   </g>
   <g id="patch_6">
    <path d="M 140.028125 22.318125 
L 530.628125 22.318125 
" style="fill:none;stroke:#000000;stroke-linecap:square;stroke-linejoin:miter;stroke-width:0.8;"/>
   </g>
  </g>
  <g id="axes_2">
   <g id="matplotlib.axis_3"/>
   <g id="matplotlib.axis_4"/>
   <g id="text_18">
    <!-- OE2 for Tempo in BPM -->
    <defs>
     <path d="M 39.40625 66.21875 
Q 28.65625 66.21875 22.328125 58.203125 
Q 16.015625 50.203125 16.015625 36.375 
Q 16.015625 22.609375 22.328125 14.59375 
Q 28.65625 6.59375 39.40625 6.59375 
Q 50.140625 6.59375 56.421875 14.59375 
Q 62.703125 22.609375 62.703125 36.375 
Q 62.703125 50.203125 56.421875 58.203125 
Q 50.140625 66.21875 39.40625 66.21875 
z
M 39.40625 74.21875 
Q 54.734375 74.21875 63.90625 63.9375 
Q 73.09375 53.65625 73.09375 36.375 
Q 73.09375 19.140625 63.90625 8.859375 
Q 54.734375 -1.421875 39.40625 -1.421875 
Q 24.03125 -1.421875 14.8125 8.828125 
Q 5.609375 19.09375 5.609375 36.375 
Q 5.609375 53.65625 14.8125 63.9375 
Q 24.03125 74.21875 39.40625 74.21875 
z
" id="DejaVuSans-79"/>
     <path d="M 9.8125 72.90625 
L 55.90625 72.90625 
L 55.90625 64.59375 
L 19.671875 64.59375 
L 19.671875 43.015625 
L 54.390625 43.015625 
L 54.390625 34.71875 
L 19.671875 34.71875 
L 19.671875 8.296875 
L 56.78125 8.296875 
L 56.78125 0 
L 9.8125 0 
z
" id="DejaVuSans-69"/>
     <path d="M 37.109375 75.984375 
L 37.109375 68.5 
L 28.515625 68.5 
Q 23.6875 68.5 21.796875 66.546875 
Q 19.921875 64.59375 19.921875 59.515625 
L 19.921875 54.6875 
L 34.71875 54.6875 
L 34.71875 47.703125 
L 19.921875 47.703125 
L 19.921875 0 
L 10.890625 0 
L 10.890625 47.703125 
L 2.296875 47.703125 
L 2.296875 54.6875 
L 10.890625 54.6875 
L 10.890625 58.5 
Q 10.890625 67.625 15.140625 71.796875 
Q 19.390625 75.984375 28.609375 75.984375 
z
" id="DejaVuSans-102"/>
     <path d="M 9.421875 54.6875 
L 18.40625 54.6875 
L 18.40625 0 
L 9.421875 0 
z
M 9.421875 75.984375 
L 18.40625 75.984375 
L 18.40625 64.59375 
L 9.421875 64.59375 
z
" id="DejaVuSans-105"/>
     <path d="M 54.890625 33.015625 
L 54.890625 0 
L 45.90625 0 
L 45.90625 32.71875 
Q 45.90625 40.484375 42.875 44.328125 
Q 39.84375 48.1875 33.796875 48.1875 
Q 26.515625 48.1875 22.3125 43.546875 
Q 18.109375 38.921875 18.109375 30.90625 
L 18.109375 0 
L 9.078125 0 
L 9.078125 54.6875 
L 18.109375 54.6875 
L 18.109375 46.1875 
Q 21.34375 51.125 25.703125 53.5625 
Q 30.078125 56 35.796875 56 
Q 45.21875 56 50.046875 50.171875 
Q 54.890625 44.34375 54.890625 33.015625 
z
" id="DejaVuSans-110"/>
    </defs>
    <g transform="translate(269.076875 16.318125)scale(0.12 -0.12)">
     <use xlink:href="#DejaVuSans-79"/>
     <use x="78.710938" xlink:href="#DejaVuSans-69"/>
     <use x="141.894531" xlink:href="#DejaVuSans-50"/>
     <use x="205.517578" xlink:href="#DejaVuSans-32"/>
     <use x="237.304688" xlink:href="#DejaVuSans-102"/>
     <use x="272.509766" xlink:href="#DejaVuSans-111"/>
     <use x="333.691406" xlink:href="#DejaVuSans-114"/>
     <use x="374.804688" xlink:href="#DejaVuSans-32"/>
     <use x="406.591797" xlink:href="#DejaVuSans-84"/>
     <use x="450.675781" xlink:href="#DejaVuSans-101"/>
     <use x="512.199219" xlink:href="#DejaVuSans-109"/>
     <use x="609.611328" xlink:href="#DejaVuSans-112"/>
     <use x="673.087891" xlink:href="#DejaVuSans-111"/>
     <use x="734.269531" xlink:href="#DejaVuSans-32"/>
     <use x="766.056641" xlink:href="#DejaVuSans-105"/>
     <use x="793.839844" xlink:href="#DejaVuSans-110"/>
     <use x="857.21875" xlink:href="#DejaVuSans-32"/>
     <use x="889.005859" xlink:href="#DejaVuSans-66"/>
     <use x="957.609375" xlink:href="#DejaVuSans-80"/>
     <use x="1017.912109" xlink:href="#DejaVuSans-77"/>
    </g>
   </g>
  </g>
  <g id="text_19">
   <!-- OE2 (TO) -->
   <g transform="translate(568.868438 118.673556)rotate(-90)scale(0.1 -0.1)">
    <use xlink:href="#DejaVuSans-79"/>
    <use x="78.710938" xlink:href="#DejaVuSans-69"/>
    <use x="141.894531" xlink:href="#DejaVuSans-50"/>
    <use x="205.517578" xlink:href="#DejaVuSans-32"/>
    <use x="237.304688" xlink:href="#DejaVuSans-40"/>
    <use x="276.318359" xlink:href="#DejaVuSans-84"/>
    <use x="337.402344" xlink:href="#DejaVuSans-79"/>
    <use x="416.113281" xlink:href="#DejaVuSans-41"/>
   </g>
  </g>
 </g>
 <defs>
  <clipPath id="pf63c8727ce">
   <rect height="149.1336" width="390.6" x="140.028125" y="22.318125"/>
  </clipPath>
 </defs>
</svg>
