<?xml version='1.0' encoding='utf-8'?>
<svg xmlns:xlink="http://www.w3.org/1999/xlink" xmlns="http://www.w3.org/2000/svg" id="chart-1b480b7a-a087-4008-988e-a255109c82d7" class="pygal-chart" viewBox="0 0 800 600"><!--Generated with pygal 2.4.0 (lxml) ©Kozea 2012-2016 on 2021-03-08--><!--http://pygal.org--><!--http://github.com/Kozea/pygal--><defs><style type="text/css">#chart-1b480b7a-a087-4008-988e-a255109c82d7{-webkit-user-select:none;-webkit-font-smoothing:antialiased;font-family:Helvetica,Arial,sans-serif}#chart-1b480b7a-a087-4008-988e-a255109c82d7 .title{font-family:Helvetica,Arial,sans-serif;font-size:18px}#chart-1b480b7a-a087-4008-988e-a255109c82d7 .legends .legend text{font-family:Helvetica,Arial,sans-serif;font-size:15px}#chart-1b480b7a-a087-4008-988e-a255109c82d7 .axis text{font-family:Helvetica,Arial,sans-serif;font-size:15px}#chart-1b480b7a-a087-4008-988e-a255109c82d7 .axis text.major{font-family:Helvetica,Arial,sans-serif;font-size:15px}#chart-1b480b7a-a087-4008-988e-a255109c82d7 .text-overlay text.value{font-family:Helvetica,Arial,sans-serif;font-size:15px}#chart-1b480b7a-a087-4008-988e-a255109c82d7 .text-overlay text.label{font-family:Helvetica,Arial,sans-serif;font-size:15px}#chart-1b480b7a-a087-4008-988e-a255109c82d7 .tooltip{font-family:Helvetica,Arial,sans-serif;font-size:14px}#chart-1b480b7a-a087-4008-988e-a255109c82d7 text.no_data{font-family:Helvetica,Arial,sans-serif;font-size:64px}
#chart-1b480b7a-a087-4008-988e-a255109c82d7{background-color:transparent}#chart-1b480b7a-a087-4008-988e-a255109c82d7 path,#chart-1b480b7a-a087-4008-988e-a255109c82d7 line,#chart-1b480b7a-a087-4008-988e-a255109c82d7 rect,#chart-1b480b7a-a087-4008-988e-a255109c82d7 circle{-webkit-transition:150ms;-moz-transition:150ms;transition:150ms}#chart-1b480b7a-a087-4008-988e-a255109c82d7 .graph &gt; .background{fill:transparent}#chart-1b480b7a-a087-4008-988e-a255109c82d7 .plot &gt; .background{fill:white}#chart-1b480b7a-a087-4008-988e-a255109c82d7 .graph{fill:rgba(0,0,0,.87)}#chart-1b480b7a-a087-4008-988e-a255109c82d7 text.no_data{fill:rgba(0,0,0,1)}#chart-1b480b7a-a087-4008-988e-a255109c82d7 .title{fill:rgba(0,0,0,1)}#chart-1b480b7a-a087-4008-988e-a255109c82d7 .legends .legend text{fill:rgba(0,0,0,.87)}#chart-1b480b7a-a087-4008-988e-a255109c82d7 .legends .legend:hover text{fill:rgba(0,0,0,1)}#chart-1b480b7a-a087-4008-988e-a255109c82d7 .axis .line{stroke:rgba(0,0,0,1)}#chart-1b480b7a-a087-4008-988e-a255109c82d7 .axis .guide.line{stroke:rgba(0,0,0,.54)}#chart-1b480b7a-a087-4008-988e-a255109c82d7 .axis .major.line{stroke:rgba(0,0,0,.87)}#chart-1b480b7a-a087-4008-988e-a255109c82d7 .axis text.major{fill:rgba(0,0,0,1)}#chart-1b480b7a-a087-4008-988e-a255109c82d7 .axis.y .guides:hover .guide.line,#chart-1b480b7a-a087-4008-988e-a255109c82d7 .line-graph .axis.x .guides:hover .guide.line,#chart-1b480b7a-a087-4008-988e-a255109c82d7 .stackedline-graph .axis.x .guides:hover .guide.line,#chart-1b480b7a-a087-4008-988e-a255109c82d7 .xy-graph .axis.x .guides:hover .guide.line{stroke:rgba(0,0,0,1)}#chart-1b480b7a-a087-4008-988e-a255109c82d7 .axis .guides:hover text{fill:rgba(0,0,0,1)}#chart-1b480b7a-a087-4008-988e-a255109c82d7 .reactive{fill-opacity:.7;stroke-opacity:.8}#chart-1b480b7a-a087-4008-988e-a255109c82d7 .ci{stroke:rgba(0,0,0,.87)}#chart-1b480b7a-a087-4008-988e-a255109c82d7 .reactive.active,#chart-1b480b7a-a087-4008-988e-a255109c82d7 .active .reactive{fill-opacity:.8;stroke-opacity:.9;stroke-width:4}#chart-1b480b7a-a087-4008-988e-a255109c82d7 .ci .reactive.active{stroke-width:1.5}#chart-1b480b7a-a087-4008-988e-a255109c82d7 .series text{fill:rgba(0,0,0,1)}#chart-1b480b7a-a087-4008-988e-a255109c82d7 .tooltip rect{fill:white;stroke:rgba(0,0,0,1);-webkit-transition:opacity 150ms;-moz-transition:opacity 150ms;transition:opacity 150ms}#chart-1b480b7a-a087-4008-988e-a255109c82d7 .tooltip .label{fill:rgba(0,0,0,.87)}#chart-1b480b7a-a087-4008-988e-a255109c82d7 .tooltip .label{fill:rgba(0,0,0,.87)}#chart-1b480b7a-a087-4008-988e-a255109c82d7 .tooltip .legend{font-size:.8em;fill:rgba(0,0,0,.54)}#chart-1b480b7a-a087-4008-988e-a255109c82d7 .tooltip .x_label{font-size:.6em;fill:rgba(0,0,0,1)}#chart-1b480b7a-a087-4008-988e-a255109c82d7 .tooltip .xlink{font-size:.5em;text-decoration:underline}#chart-1b480b7a-a087-4008-988e-a255109c82d7 .tooltip .value{font-size:1.5em}#chart-1b480b7a-a087-4008-988e-a255109c82d7 .bound{font-size:.5em}#chart-1b480b7a-a087-4008-988e-a255109c82d7 .max-value{font-size:.75em;fill:rgba(0,0,0,.54)}#chart-1b480b7a-a087-4008-988e-a255109c82d7 .map-element{fill:white;stroke:rgba(0,0,0,.54) !important}#chart-1b480b7a-a087-4008-988e-a255109c82d7 .map-element .reactive{fill-opacity:inherit;stroke-opacity:inherit}#chart-1b480b7a-a087-4008-988e-a255109c82d7 .color-0,#chart-1b480b7a-a087-4008-988e-a255109c82d7 .color-0 a:visited{stroke:#F44336;fill:#F44336}#chart-1b480b7a-a087-4008-988e-a255109c82d7 .text-overlay .color-0 text{fill:black}
#chart-1b480b7a-a087-4008-988e-a255109c82d7 text.no_data{text-anchor:middle}#chart-1b480b7a-a087-4008-988e-a255109c82d7 .guide.line{fill:none}#chart-1b480b7a-a087-4008-988e-a255109c82d7 .centered{text-anchor:middle}#chart-1b480b7a-a087-4008-988e-a255109c82d7 .title{text-anchor:middle}#chart-1b480b7a-a087-4008-988e-a255109c82d7 .legends .legend text{fill-opacity:1}#chart-1b480b7a-a087-4008-988e-a255109c82d7 .axis.x text{text-anchor:middle}#chart-1b480b7a-a087-4008-988e-a255109c82d7 .axis.x:not(.web) text[transform]{text-anchor:start}#chart-1b480b7a-a087-4008-988e-a255109c82d7 .axis.x:not(.web) text[transform].backwards{text-anchor:end}#chart-1b480b7a-a087-4008-988e-a255109c82d7 .axis.y text{text-anchor:end}#chart-1b480b7a-a087-4008-988e-a255109c82d7 .axis.y text[transform].backwards{text-anchor:start}#chart-1b480b7a-a087-4008-988e-a255109c82d7 .axis.y2 text{text-anchor:start}#chart-1b480b7a-a087-4008-988e-a255109c82d7 .axis.y2 text[transform].backwards{text-anchor:end}#chart-1b480b7a-a087-4008-988e-a255109c82d7 .axis .guide.line{stroke-dasharray:1}#chart-1b480b7a-a087-4008-988e-a255109c82d7 .axis .major.guide.line{stroke-dasharray:1}#chart-1b480b7a-a087-4008-988e-a255109c82d7 .horizontal .axis.y .guide.line,#chart-1b480b7a-a087-4008-988e-a255109c82d7 .horizontal .axis.y2 .guide.line,#chart-1b480b7a-a087-4008-988e-a255109c82d7 .vertical .axis.x .guide.line{opacity:0}#chart-1b480b7a-a087-4008-988e-a255109c82d7 .horizontal .axis.always_show .guide.line,#chart-1b480b7a-a087-4008-988e-a255109c82d7 .vertical .axis.always_show .guide.line{opacity:1 !important}#chart-1b480b7a-a087-4008-988e-a255109c82d7 .axis.y .guides:hover .guide.line,#chart-1b480b7a-a087-4008-988e-a255109c82d7 .axis.y2 .guides:hover .guide.line,#chart-1b480b7a-a087-4008-988e-a255109c82d7 .axis.x .guides:hover .guide.line{opacity:1}#chart-1b480b7a-a087-4008-988e-a255109c82d7 .axis .guides:hover text{opacity:1}#chart-1b480b7a-a087-4008-988e-a255109c82d7 .nofill{fill:none}#chart-1b480b7a-a087-4008-988e-a255109c82d7 .subtle-fill{fill-opacity:.2}#chart-1b480b7a-a087-4008-988e-a255109c82d7 .dot{stroke-width:1px;fill-opacity:1}#chart-1b480b7a-a087-4008-988e-a255109c82d7 .dot.active{stroke-width:5px}#chart-1b480b7a-a087-4008-988e-a255109c82d7 .dot.negative{fill:transparent}#chart-1b480b7a-a087-4008-988e-a255109c82d7 text,#chart-1b480b7a-a087-4008-988e-a255109c82d7 tspan{stroke:none !important}#chart-1b480b7a-a087-4008-988e-a255109c82d7 .series text.active{opacity:1}#chart-1b480b7a-a087-4008-988e-a255109c82d7 .tooltip rect{fill-opacity:.95;stroke-width:.5}#chart-1b480b7a-a087-4008-988e-a255109c82d7 .tooltip text{fill-opacity:1}#chart-1b480b7a-a087-4008-988e-a255109c82d7 .showable{visibility:hidden}#chart-1b480b7a-a087-4008-988e-a255109c82d7 .showable.shown{visibility:visible}#chart-1b480b7a-a087-4008-988e-a255109c82d7 .gauge-background{fill:rgba(229,229,229,1);stroke:none}#chart-1b480b7a-a087-4008-988e-a255109c82d7 .bg-lines{stroke:transparent;stroke-width:2px}</style><script type="text/javascript">window.pygal = window.pygal || {};window.pygal.config = window.pygal.config || {};window.pygal.config['1b480b7a-a087-4008-988e-a255109c82d7'] = {"allow_interruptions": false, "box_mode": "extremes", "classes": ["pygal-chart"], "css": ["file://style.css", "file://graph.css"], "defs": [], "disable_xml_declaration": false, "dots_size": 2.5, "dynamic_print_values": false, "explicit_size": false, "fill": false, "force_uri_protocol": "https", "formatter": null, "half_pie": false, "height": 600, "include_x_axis": false, "inner_radius": 0, "interpolate": null, "interpolation_parameters": {}, "interpolation_precision": 250, "inverse_y_axis": false, "js": ["//kozea.github.io/pygal.js/2.0.x/pygal-tooltips.min.js"], "legend_at_bottom": true, "legend_at_bottom_columns": 2, "legend_box_size": 12, "logarithmic": false, "margin": 20, "margin_bottom": 50, "margin_left": null, "margin_right": null, "margin_top": null, "max_scale": 16, "min_scale": 4, "missing_value_fill_truncation": "x", "no_data_text": "No data", "no_prefix": false, "order_min": null, "pretty_print": false, "print_labels": false, "print_values": false, "print_values_position": "center", "print_zeroes": true, "range": [-2.0, 0.3], "rounded_bars": null, "secondary_range": null, "show_dots": true, "show_legend": true, "show_minor_x_labels": false, "show_minor_y_labels": true, "show_only_major_dots": true, "show_x_guides": true, "show_x_labels": true, "show_y_guides": true, "show_y_labels": true, "spacing": 10, "stack_from_top": false, "strict": false, "stroke": true, "stroke_style": null, "style": {"background": "transparent", "ci_colors": [], "colors": ["#F44336", "#3F51B5", "#009688", "#FFC107", "#FF5722", "#9C27B0", "#03A9F4", "#8BC34A", "#FF9800", "#E91E63", "#2196F3", "#4CAF50", "#FFEB3B", "#673AB7", "#00BCD4", "#CDDC39", "#9E9E9E", "#607D8B"], "font_family": "Helvetica, Arial, sans-serif", "foreground": "rgba(0, 0, 0, .87)", "foreground_strong": "rgba(0, 0, 0, 1)", "foreground_subtle": "rgba(0, 0, 0, .54)", "guide_stroke_dasharray": 1, "label_font_family": "Helvetica, Arial, sans-serif", "label_font_size": 15, "legend_font_family": "Helvetica, Arial, sans-serif", "legend_font_size": 15, "major_guide_stroke_dasharray": 1, "major_label_font_family": "Helvetica, Arial, sans-serif", "major_label_font_size": 15, "no_data_font_family": "Helvetica, Arial, sans-serif", "no_data_font_size": 64, "opacity": ".7", "opacity_hover": ".8", "plot_background": "white", "stroke_opacity": ".8", "stroke_opacity_hover": ".9", "title_font_family": "Helvetica, Arial, sans-serif", "title_font_size": 18, "tooltip_font_family": "Helvetica, Arial, sans-serif", "tooltip_font_size": 14, "transition": "150ms", "value_background": "rgba(229, 229, 229, 1)", "value_colors": [], "value_font_family": "Helvetica, Arial, sans-serif", "value_font_size": 15, "value_label_font_family": "Helvetica, Arial, sans-serif", "value_label_font_size": 15}, "title": "Mean OE1 for Tempo T \u00b110.0 BPM", "tooltip_border_radius": 0, "tooltip_fancy_mode": true, "truncate_label": null, "truncate_legend": -1, "width": 800, "x_label_rotation": 90, "x_labels": ["0.0", "1.0", "2.0", "3.0", "4.0", "5.0", "6.0", "7.0", "8.0", "9.0", "10.0", "11.0", "12.0", "13.0", "14.0", "15.0", "16.0", "17.0", "18.0", "19.0", "20.0", "21.0", "22.0", "23.0", "24.0", "25.0", "26.0", "27.0", "28.0", "29.0", "30.0", "31.0", "32.0", "33.0", "34.0", "35.0", "36.0", "37.0", "38.0", "39.0", "40.0", "41.0", "42.0", "43.0", "44.0", "45.0", "46.0", "47.0", "48.0", "49.0", "50.0", "51.0", "52.0", "53.0", "54.0", "55.0", "56.0", "57.0", "58.0", "59.0", "60.0", "61.0", "62.0", "63.0", "64.0", "65.0", "66.0", "67.0", "68.0", "69.0", "70.0", "71.0", "72.0", "73.0", "74.0", "75.0", "76.0", "77.0", "78.0", "79.0", "80.0", "81.0", "82.0", "83.0", "84.0", "85.0", "86.0", "87.0", "88.0", "89.0", "90.0", "91.0", "92.0", "93.0", "94.0", "95.0", "96.0", "97.0", "98.0", "99.0", "100.0", "101.0", "102.0", "103.0", "104.0", "105.0", "106.0", "107.0", "108.0", "109.0", "110.0", "111.0", "112.0", "113.0", "114.0", "115.0", "116.0", "117.0", "118.0", "119.0", "120.0", "121.0", "122.0", "123.0", "124.0", "125.0", "126.0", "127.0", "128.0", "129.0", "130.0", "131.0", "132.0", "133.0", "134.0", "135.0", "136.0", "137.0", "138.0", "139.0", "140.0", "141.0", "142.0", "143.0", "144.0", "145.0", "146.0", "147.0", "148.0", "149.0", "150.0", "151.0", "152.0", "153.0", "154.0", "155.0", "156.0", "157.0", "158.0", "159.0", "160.0", "161.0", "162.0", "163.0", "164.0", "165.0", "166.0", "167.0", "168.0", "169.0", "170.0", "171.0", "172.0", "173.0", "174.0", "175.0", "176.0", "177.0", "178.0", "179.0", "180.0", "181.0", "182.0", "183.0", "184.0", "185.0", "186.0", "187.0", "188.0", "189.0", "190.0", "191.0", "192.0", "193.0", "194.0", "195.0", "196.0", "197.0", "198.0", "199.0", "200.0", "201.0", "202.0", "203.0", "204.0", "205.0", "206.0", "207.0", "208.0", "209.0", "210.0", "211.0", "212.0", "213.0", "214.0", "215.0", "216.0", "217.0", "218.0", "219.0", "220.0", "221.0", "222.0", "223.0", "224.0", "225.0", "226.0", "227.0", "228.0", "229.0", "230.0", "231.0", "232.0", "233.0", "234.0", "235.0", "236.0", "237.0", "238.0", "239.0", "240.0", "241.0", "242.0", "243.0", "244.0", "245.0", "246.0", "247.0", "248.0", "249.0", "250.0", "251.0", "252.0", "253.0", "254.0", "255.0", "256.0", "257.0", "258.0", "259.0", "260.0", "261.0", "262.0", "263.0", "264.0", "265.0", "266.0", "267.0", "268.0", "269.0", "270.0", "271.0", "272.0", "273.0", "274.0", "275.0", "276.0", "277.0", "278.0", "279.0", "280.0", "281.0", "282.0", "283.0", "284.0", "285.0", "286.0", "287.0", "288.0", "289.0", "290.0", "291.0", "292.0", "293.0", "294.0", "295.0", "296.0", "297.0", "298.0", "299.0", "300.0"], "x_labels_major": null, "x_labels_major_count": 11, "x_labels_major_every": null, "x_title": "T (BPM)", "xrange": null, "y_label_rotation": 0, "y_labels": null, "y_labels_major": null, "y_labels_major_count": null, "y_labels_major_every": null, "y_title": "Mean OE1 (TO)", "zero": 0, "legends": ["beatport_key/1.0"]}</script><script type="text/javascript" xlink:href="https://kozea.github.io/pygal.js/2.0.x/pygal-tooltips.min.js"/></defs><title>Mean OE1 for Tempo T ±10.0 BPM</title><g class="graph line-graph vertical"><rect class="background" height="600" width="800" x="0" y="0"/><g class="plot" transform="translate(121, 48)"><rect class="background" height="416.5" width="659.0" x="0" y="0"/><g class="axis y always_show"><g class="guides"><path class="major guide line" d="M0.000000 408.490385 h659.000000"/><text class="major" x="-5" y="413.74038461538464">-2.0000</text><title>-2.0000</title></g><g class="guides"><path class="guide line" d="M0.000000 373.665970 h659.000000"/><text class="" x="-5" y="378.9159698996656">-1.8000</text><title>-1.8000</title></g><g class="guides"><path class="guide line" d="M0.000000 338.841555 h659.000000"/><text class="" x="-5" y="344.0915551839465">-1.6000</text><title>-1.6000</title></g><g class="guides"><path class="guide line" d="M0.000000 304.017140 h659.000000"/><text class="" x="-5" y="309.26714046822747">-1.4000</text><title>-1.4000</title></g><g class="guides"><path class="guide line" d="M0.000000 269.192726 h659.000000"/><text class="" x="-5" y="274.4427257525084">-1.2000</text><title>-1.2000</title></g><g class="guides"><path class="major guide line" d="M0.000000 234.368311 h659.000000"/><text class="major" x="-5" y="239.61831103678932">-1.0000</text><title>-1.0000</title></g><g class="guides"><path class="guide line" d="M0.000000 199.543896 h659.000000"/><text class="" x="-5" y="204.79389632107024">-0.8000</text><title>-0.8000</title></g><g class="guides"><path class="guide line" d="M0.000000 164.719482 h659.000000"/><text class="" x="-5" y="169.9694816053512">-0.6000</text><title>-0.6000</title></g><g class="guides"><path class="guide line" d="M0.000000 129.895067 h659.000000"/><text class="" x="-5" y="135.14506688963212">-0.4000</text><title>-0.4000</title></g><g class="guides"><path class="guide line" d="M0.000000 95.070652 h659.000000"/><text class="" x="-5" y="100.32065217391306">-0.2000</text><title>-0.2000</title></g><g class="guides"><path class="major line" d="M0.000000 60.246237 h659.000000"/><text class="major" x="-5" y="65.496237458194">0.0000</text><title>0.0000</title></g><g class="guides"><path class="guide line" d="M0.000000 25.421823 h659.000000"/><text class="" x="-5" y="30.671822742474944">0.2000</text><title>0.2000</title></g></g><g class="axis x always_show"><g class="guides"><path class="major line" d="M12.673077 0.000000 v416.500000"/><text class="major" x="12.673076923076922" y="434.0" transform="rotate(90 12.673077 434.000000)">0.0</text></g><g class="guides"><path class="major guide line" d="M76.038462 0.000000 v416.500000"/><text class="major" x="76.03846153846155" y="434.0" transform="rotate(90 76.038462 434.000000)">30.0</text></g><g class="guides"><path class="major guide line" d="M139.403846 0.000000 v416.500000"/><text class="major" x="139.40384615384613" y="434.0" transform="rotate(90 139.403846 434.000000)">60.0</text></g><g class="guides"><path class="major guide line" d="M202.769231 0.000000 v416.500000"/><text class="major" x="202.76923076923075" y="434.0" transform="rotate(90 202.769231 434.000000)">90.0</text></g><g class="guides"><path class="major guide line" d="M266.134615 0.000000 v416.500000"/><text class="major" x="266.1346153846154" y="434.0" transform="rotate(90 266.134615 434.000000)">120.0</text></g><g class="guides"><path class="major guide line" d="M329.500000 0.000000 v416.500000"/><text class="major" x="329.5" y="434.0" transform="rotate(90 329.500000 434.000000)">150.0</text></g><g class="guides"><path class="major guide line" d="M392.865385 0.000000 v416.500000"/><text class="major" x="392.8653846153846" y="434.0" transform="rotate(90 392.865385 434.000000)">180.0</text></g><g class="guides"><path class="major guide line" d="M456.230769 0.000000 v416.500000"/><text class="major" x="456.23076923076917" y="434.0" transform="rotate(90 456.230769 434.000000)">210.0</text></g><g class="guides"><path class="major guide line" d="M519.596154 0.000000 v416.500000"/><text class="major" x="519.5961538461538" y="434.0" transform="rotate(90 519.596154 434.000000)">240.0</text></g><g class="guides"><path class="major guide line" d="M582.961538 0.000000 v416.500000"/><text class="major" x="582.9615384615385" y="434.0" transform="rotate(90 582.961538 434.000000)">270.0</text></g><g class="guides"><path class="major guide line" d="M646.326923 0.000000 v416.500000"/><text class="major" x="646.3269230769231" y="434.0" transform="rotate(90 646.326923 434.000000)">300.0</text></g></g><g class="series serie-0 color-0"><path class="line reactive nofill" d="M12.673077 60.246237 L14.785256 60.246237 16.897436 60.246237 19.009615 60.246237 21.121795 60.246237 23.233974 60.246237 25.346154 60.246237 27.458333 60.246237 29.570513 60.246237 31.682692 60.246237 33.794872 60.246237 35.907051 60.246237 38.019231 60.246237 40.131410 60.246237 42.243590 60.246237 44.355769 60.246237 46.467949 60.246237 48.580128 60.246237 50.692308 60.246237 52.804487 60.246237 54.916667 60.246237 57.028846 60.246237 59.141026 60.246237 61.253205 60.246237 63.365385 60.246237 65.477564 60.246237 67.589744 60.246237 69.701923 60.246237 71.814103 60.246237 73.926282 60.246237 76.038462 60.246237 78.150641 60.246237 80.262821 60.246237 82.375000 60.246237 84.487179 60.246237 86.599359 60.246237 88.711538 60.246237 90.823718 60.246237 92.935897 60.246237 95.048077 60.246237 97.160256 60.246237 99.272436 60.246237 101.384615 60.246237 103.496795 60.246237 105.608974 60.246237 107.721154 60.246237 109.833333 60.246237 111.945513 60.246237 114.057692 60.246237 116.169872 60.246237 118.282051 60.246237 120.394231 60.246237 122.506410 60.246237 124.618590 60.246237 126.730769 60.246237 128.842949 60.246237 130.955128 64.081504 133.067308 64.081504 135.179487 64.005742 137.291667 64.005742 139.403846 63.065866 141.516026 63.065866 143.628205 63.065866 145.740385 63.065866 147.852564 63.265259 149.964744 63.265259 152.076923 63.265259 154.189103 38.193177 156.301282 38.193177 158.413462 41.349823 160.525641 45.445092 162.637821 45.445092 164.750000 46.790650 166.862179 46.790650 168.974359 13.115210 171.086538 24.249411 173.198718 33.371039 175.310897 31.836282 177.423077 36.180852 179.535256 38.059529 181.647436 43.389691 183.759615 43.045680 185.871795 45.391853 187.983974 42.740537 190.096154 43.358539 192.208333 44.374412 194.320513 44.614894 196.432692 44.614894 198.544872 47.686970 200.657051 47.905950 202.769231 47.890512 204.881410 47.881590 206.993590 45.946248 209.105769 45.760534 211.217949 46.334086 213.330128 53.003098 215.442308 52.479199 217.554487 50.760860 219.666667 53.296459 221.778846 51.821176 223.891026 51.129114 226.003205 50.294799 228.115385 50.466375 230.227564 49.420806 232.339744 53.120395 234.451923 53.813805 236.564103 54.911023 238.676282 55.283993 240.788462 55.541943 242.900641 57.750262 245.012821 58.853766 247.125000 59.496869 249.237179 59.563488 251.349359 61.497482 253.461538 61.607625 255.573718 61.580113 257.685897 61.511967 259.798077 61.505464 261.910256 62.103479 264.022436 62.071830 266.134615 62.321697 268.246795 62.319573 270.358974 62.305610 272.471154 62.290209 274.583333 62.271893 276.695513 62.238035 278.807692 62.236868 280.919872 62.134451 283.032051 62.128610 285.144231 62.131752 287.256410 61.769600 289.368590 61.815663 291.480769 61.667392 293.592949 61.693832 295.705128 61.703887 297.817308 62.037046 299.929487 62.091793 302.041667 62.182029 304.153846 62.253968 306.266026 62.132114 308.378205 62.125174 310.490385 61.917430 312.602564 61.910572 314.714744 61.935854 316.826923 61.965116 318.939103 61.983211 321.051282 62.054256 323.163462 62.083411 325.275641 62.150549 327.387821 62.220111 329.500000 62.930728 331.612179 63.983840 333.724359 64.029180 335.836538 66.029234 337.948718 68.067182 340.060897 68.778991 342.173077 67.105037 344.285256 67.247601 346.397436 67.558580 348.509615 68.191612 350.621795 67.707994 352.733974 73.364766 354.846154 74.038259 356.958333 74.900260 359.070513 74.283025 361.182692 90.086217 363.294872 90.086217 365.407051 91.571717 367.519231 91.571717 369.631410 99.071816 371.743590 99.071816 373.855769 94.457226 375.967949 94.457226 378.080128 94.457226 380.192308 94.457226 382.304487 91.479195 384.416667 97.420369 386.528846 97.420369 388.641026 94.532036 390.753205 94.532036 392.865385 97.510684 394.977564 113.249303 397.089744 113.249303 399.201923 113.249303 401.314103 113.249303 403.426282 150.350705 405.538462 150.654281 407.650641 150.654281 409.762821 150.654281 411.875000 150.654281 413.987179 150.654281 416.099359 150.654281 418.211538 150.654281 420.323718 150.654281 422.435897 150.654281 424.548077 150.654281 426.660256 150.654281 428.772436 150.654281 430.884615 150.654281 432.996795 235.659857 435.108974 235.659857 437.221154 235.659857 439.333333 235.659857 441.445513 235.659857 443.557692 235.659857 445.669872 235.659857 447.782051 60.246237 449.894231 60.246237 452.006410 60.246237 454.118590 60.246237 456.230769 60.246237 458.342949 60.246237 460.455128 60.246237 462.567308 60.246237 464.679487 60.246237 466.791667 60.246237 468.903846 60.246237 471.016026 60.246237 473.128205 60.246237 475.240385 60.246237 477.352564 60.246237 479.464744 60.246237 481.576923 60.246237 483.689103 60.246237 485.801282 60.246237 487.913462 60.246237 490.025641 60.246237 492.137821 60.246237 494.250000 60.246237 496.362179 60.246237 498.474359 60.246237 500.586538 60.246237 502.698718 60.246237 504.810897 60.246237 506.923077 60.246237 509.035256 60.246237 511.147436 60.246237 513.259615 60.246237 515.371795 60.246237 517.483974 60.246237 519.596154 60.246237 521.708333 60.246237 523.820513 60.246237 525.932692 60.246237 528.044872 60.246237 530.157051 60.246237 532.269231 60.246237 534.381410 60.246237 536.493590 60.246237 538.605769 60.246237 540.717949 60.246237 542.830128 60.246237 544.942308 60.246237 547.054487 60.246237 549.166667 60.246237 551.278846 60.246237 553.391026 60.246237 555.503205 60.246237 557.615385 60.246237 559.727564 60.246237 561.839744 60.246237 563.951923 60.246237 566.064103 60.246237 568.176282 60.246237 570.288462 60.246237 572.400641 60.246237 574.512821 60.246237 576.625000 60.246237 578.737179 60.246237 580.849359 60.246237 582.961538 60.246237 585.073718 60.246237 587.185897 60.246237 589.298077 60.246237 591.410256 60.246237 593.522436 60.246237 595.634615 60.246237 597.746795 60.246237 599.858974 60.246237 601.971154 60.246237 604.083333 60.246237 606.195513 60.246237 608.307692 60.246237 610.419872 60.246237 612.532051 60.246237 614.644231 60.246237 616.756410 60.246237 618.868590 60.246237 620.980769 60.246237 623.092949 60.246237 625.205128 60.246237 627.317308 60.246237 629.429487 60.246237 631.541667 60.246237 633.653846 60.246237 635.766026 60.246237 637.878205 60.246237 639.990385 60.246237 642.102564 60.246237 644.214744 60.246237 646.326923 60.246237"/></g></g><g class="titles"><text class="title plot_title" x="400.0" y="28">Mean OE1 for Tempo T ±10.0 BPM</text><text class="title" x="450.5" y="547.5">T (BPM)</text><text class="title" x="0" y="284.25" transform="rotate(-90 0.000000 256.250000)">Mean OE1 (TO)</text></g><g class="plot overlay" transform="translate(121, 48)"><g class="series serie-0 color-0"><g class="dots"><circle class="dot reactive tooltip-trigger" cx="12.673076923076922" cy="60.246237458194" r="2.5"/><desc class="value">0.0000</desc><desc class="x ">12.673076923076922</desc><desc class="y ">60.246237458194</desc><desc class="x_label">0.0</desc></g><g class="dots"><circle class="dot reactive tooltip-trigger" cx="76.03846153846155" cy="60.246237458194" r="2.5"/><desc class="value">0.0000</desc><desc class="x ">76.03846153846155</desc><desc class="y ">60.246237458194</desc><desc class="x_label">30.0</desc></g><g class="dots"><circle class="dot reactive tooltip-trigger" cx="139.40384615384613" cy="63.06586618903145" r="2.5"/><desc class="value">-0.0162</desc><desc class="x ">139.40384615384613</desc><desc class="y ">63.06586618903145</desc><desc class="x_label">60.0</desc></g><g class="dots"><circle class="dot reactive tooltip-trigger" cx="202.76923076923075" cy="47.890512350179506" r="2.5"/><desc class="value">0.0710</desc><desc class="x ">202.76923076923075</desc><desc class="y ">47.890512350179506</desc><desc class="x_label">90.0</desc></g><g class="dots"><circle class="dot reactive tooltip-trigger" cx="266.1346153846154" cy="62.32169740269171" r="2.5"/><desc class="value">-0.0119</desc><desc class="x ">266.1346153846154</desc><desc class="y ">62.32169740269171</desc><desc class="x_label">120.0</desc></g><g class="dots"><circle class="dot reactive tooltip-trigger" cx="329.5" cy="62.93072794311024" r="2.5"/><desc class="value">-0.0154</desc><desc class="x ">329.5</desc><desc class="y ">62.93072794311024</desc><desc class="x_label">150.0</desc></g><g class="dots"><circle class="dot reactive tooltip-trigger" cx="392.8653846153846" cy="97.51068414752439" r="2.5"/><desc class="value">-0.2140</desc><desc class="x left">392.8653846153846</desc><desc class="y left">97.51068414752439</desc><desc class="x_label">180.0</desc></g><g class="dots"><circle class="dot reactive tooltip-trigger" cx="456.23076923076917" cy="60.246237458194" r="2.5"/><desc class="value">0.0000</desc><desc class="x left">456.23076923076917</desc><desc class="y left">60.246237458194</desc><desc class="x_label">210.0</desc></g><g class="dots"><circle class="dot reactive tooltip-trigger" cx="519.5961538461538" cy="60.246237458194" r="2.5"/><desc class="value">0.0000</desc><desc class="x left">519.5961538461538</desc><desc class="y left">60.246237458194</desc><desc class="x_label">240.0</desc></g><g class="dots"><circle class="dot reactive tooltip-trigger" cx="582.9615384615385" cy="60.246237458194" r="2.5"/><desc class="value">0.0000</desc><desc class="x left">582.9615384615385</desc><desc class="y left">60.246237458194</desc><desc class="x_label">270.0</desc></g><g class="dots"><circle class="dot reactive tooltip-trigger" cx="646.3269230769231" cy="60.246237458194" r="2.5"/><desc class="value">0.0000</desc><desc class="x left">646.3269230769231</desc><desc class="y left">60.246237458194</desc><desc class="x_label">300.0</desc></g></g></g><g class="plot text-overlay" transform="translate(121, 48)"><g class="series serie-0 color-0"/></g><g class="plot tooltip-overlay" transform="translate(121, 48)"><g class="tooltip" style="opacity: 0" transform="translate(0 0)"><rect class="tooltip-box" height="0" rx="0" ry="0" width="0"/><g class="text"/></g></g><g class="legends" transform="translate(131, 567)"><g class="legend reactive activate-serie" id="activate-serie-0"><rect class="color-0 reactive" height="12" width="12" x="0.0" y="1.5"/><text x="17.0" y="12.0">beatport_key/1.0</text></g></g></g></svg>