<?xml version='1.0' encoding='utf-8'?>
<svg xmlns:xlink="http://www.w3.org/1999/xlink" xmlns="http://www.w3.org/2000/svg" id="chart-7594cc40-9138-4dba-b686-1490703943a0" class="pygal-chart" viewBox="0 0 800 600"><!--Generated with pygal 2.4.0 (lxml) ©Kozea 2012-2016 on 2021-03-08--><!--http://pygal.org--><!--http://github.com/Kozea/pygal--><defs><style type="text/css">#chart-7594cc40-9138-4dba-b686-1490703943a0{-webkit-user-select:none;-webkit-font-smoothing:antialiased;font-family:Helvetica,Arial,sans-serif}#chart-7594cc40-9138-4dba-b686-1490703943a0 .title{font-family:Helvetica,Arial,sans-serif;font-size:18px}#chart-7594cc40-9138-4dba-b686-1490703943a0 .legends .legend text{font-family:Helvetica,Arial,sans-serif;font-size:15px}#chart-7594cc40-9138-4dba-b686-1490703943a0 .axis text{font-family:Helvetica,Arial,sans-serif;font-size:15px}#chart-7594cc40-9138-4dba-b686-1490703943a0 .axis text.major{font-family:Helvetica,Arial,sans-serif;font-size:15px}#chart-7594cc40-9138-4dba-b686-1490703943a0 .text-overlay text.value{font-family:Helvetica,Arial,sans-serif;font-size:15px}#chart-7594cc40-9138-4dba-b686-1490703943a0 .text-overlay text.label{font-family:Helvetica,Arial,sans-serif;font-size:15px}#chart-7594cc40-9138-4dba-b686-1490703943a0 .tooltip{font-family:Helvetica,Arial,sans-serif;font-size:14px}#chart-7594cc40-9138-4dba-b686-1490703943a0 text.no_data{font-family:Helvetica,Arial,sans-serif;font-size:64px}
#chart-7594cc40-9138-4dba-b686-1490703943a0{background-color:transparent}#chart-7594cc40-9138-4dba-b686-1490703943a0 path,#chart-7594cc40-9138-4dba-b686-1490703943a0 line,#chart-7594cc40-9138-4dba-b686-1490703943a0 rect,#chart-7594cc40-9138-4dba-b686-1490703943a0 circle{-webkit-transition:150ms;-moz-transition:150ms;transition:150ms}#chart-7594cc40-9138-4dba-b686-1490703943a0 .graph &gt; .background{fill:transparent}#chart-7594cc40-9138-4dba-b686-1490703943a0 .plot &gt; .background{fill:white}#chart-7594cc40-9138-4dba-b686-1490703943a0 .graph{fill:rgba(0,0,0,.87)}#chart-7594cc40-9138-4dba-b686-1490703943a0 text.no_data{fill:rgba(0,0,0,1)}#chart-7594cc40-9138-4dba-b686-1490703943a0 .title{fill:rgba(0,0,0,1)}#chart-7594cc40-9138-4dba-b686-1490703943a0 .legends .legend text{fill:rgba(0,0,0,.87)}#chart-7594cc40-9138-4dba-b686-1490703943a0 .legends .legend:hover text{fill:rgba(0,0,0,1)}#chart-7594cc40-9138-4dba-b686-1490703943a0 .axis .line{stroke:rgba(0,0,0,1)}#chart-7594cc40-9138-4dba-b686-1490703943a0 .axis .guide.line{stroke:rgba(0,0,0,.54)}#chart-7594cc40-9138-4dba-b686-1490703943a0 .axis .major.line{stroke:rgba(0,0,0,.87)}#chart-7594cc40-9138-4dba-b686-1490703943a0 .axis text.major{fill:rgba(0,0,0,1)}#chart-7594cc40-9138-4dba-b686-1490703943a0 .axis.y .guides:hover .guide.line,#chart-7594cc40-9138-4dba-b686-1490703943a0 .line-graph .axis.x .guides:hover .guide.line,#chart-7594cc40-9138-4dba-b686-1490703943a0 .stackedline-graph .axis.x .guides:hover .guide.line,#chart-7594cc40-9138-4dba-b686-1490703943a0 .xy-graph .axis.x .guides:hover .guide.line{stroke:rgba(0,0,0,1)}#chart-7594cc40-9138-4dba-b686-1490703943a0 .axis .guides:hover text{fill:rgba(0,0,0,1)}#chart-7594cc40-9138-4dba-b686-1490703943a0 .reactive{fill-opacity:.7;stroke-opacity:.8}#chart-7594cc40-9138-4dba-b686-1490703943a0 .ci{stroke:rgba(0,0,0,.87)}#chart-7594cc40-9138-4dba-b686-1490703943a0 .reactive.active,#chart-7594cc40-9138-4dba-b686-1490703943a0 .active .reactive{fill-opacity:.8;stroke-opacity:.9;stroke-width:4}#chart-7594cc40-9138-4dba-b686-1490703943a0 .ci .reactive.active{stroke-width:1.5}#chart-7594cc40-9138-4dba-b686-1490703943a0 .series text{fill:rgba(0,0,0,1)}#chart-7594cc40-9138-4dba-b686-1490703943a0 .tooltip rect{fill:white;stroke:rgba(0,0,0,1);-webkit-transition:opacity 150ms;-moz-transition:opacity 150ms;transition:opacity 150ms}#chart-7594cc40-9138-4dba-b686-1490703943a0 .tooltip .label{fill:rgba(0,0,0,.87)}#chart-7594cc40-9138-4dba-b686-1490703943a0 .tooltip .label{fill:rgba(0,0,0,.87)}#chart-7594cc40-9138-4dba-b686-1490703943a0 .tooltip .legend{font-size:.8em;fill:rgba(0,0,0,.54)}#chart-7594cc40-9138-4dba-b686-1490703943a0 .tooltip .x_label{font-size:.6em;fill:rgba(0,0,0,1)}#chart-7594cc40-9138-4dba-b686-1490703943a0 .tooltip .xlink{font-size:.5em;text-decoration:underline}#chart-7594cc40-9138-4dba-b686-1490703943a0 .tooltip .value{font-size:1.5em}#chart-7594cc40-9138-4dba-b686-1490703943a0 .bound{font-size:.5em}#chart-7594cc40-9138-4dba-b686-1490703943a0 .max-value{font-size:.75em;fill:rgba(0,0,0,.54)}#chart-7594cc40-9138-4dba-b686-1490703943a0 .map-element{fill:white;stroke:rgba(0,0,0,.54) !important}#chart-7594cc40-9138-4dba-b686-1490703943a0 .map-element .reactive{fill-opacity:inherit;stroke-opacity:inherit}#chart-7594cc40-9138-4dba-b686-1490703943a0 .color-0,#chart-7594cc40-9138-4dba-b686-1490703943a0 .color-0 a:visited{stroke:#F44336;fill:#F44336}#chart-7594cc40-9138-4dba-b686-1490703943a0 .text-overlay .color-0 text{fill:black}
#chart-7594cc40-9138-4dba-b686-1490703943a0 text.no_data{text-anchor:middle}#chart-7594cc40-9138-4dba-b686-1490703943a0 .guide.line{fill:none}#chart-7594cc40-9138-4dba-b686-1490703943a0 .centered{text-anchor:middle}#chart-7594cc40-9138-4dba-b686-1490703943a0 .title{text-anchor:middle}#chart-7594cc40-9138-4dba-b686-1490703943a0 .legends .legend text{fill-opacity:1}#chart-7594cc40-9138-4dba-b686-1490703943a0 .axis.x text{text-anchor:middle}#chart-7594cc40-9138-4dba-b686-1490703943a0 .axis.x:not(.web) text[transform]{text-anchor:start}#chart-7594cc40-9138-4dba-b686-1490703943a0 .axis.x:not(.web) text[transform].backwards{text-anchor:end}#chart-7594cc40-9138-4dba-b686-1490703943a0 .axis.y text{text-anchor:end}#chart-7594cc40-9138-4dba-b686-1490703943a0 .axis.y text[transform].backwards{text-anchor:start}#chart-7594cc40-9138-4dba-b686-1490703943a0 .axis.y2 text{text-anchor:start}#chart-7594cc40-9138-4dba-b686-1490703943a0 .axis.y2 text[transform].backwards{text-anchor:end}#chart-7594cc40-9138-4dba-b686-1490703943a0 .axis .guide.line{stroke-dasharray:1}#chart-7594cc40-9138-4dba-b686-1490703943a0 .axis .major.guide.line{stroke-dasharray:1}#chart-7594cc40-9138-4dba-b686-1490703943a0 .horizontal .axis.y .guide.line,#chart-7594cc40-9138-4dba-b686-1490703943a0 .horizontal .axis.y2 .guide.line,#chart-7594cc40-9138-4dba-b686-1490703943a0 .vertical .axis.x .guide.line{opacity:0}#chart-7594cc40-9138-4dba-b686-1490703943a0 .horizontal .axis.always_show .guide.line,#chart-7594cc40-9138-4dba-b686-1490703943a0 .vertical .axis.always_show .guide.line{opacity:1 !important}#chart-7594cc40-9138-4dba-b686-1490703943a0 .axis.y .guides:hover .guide.line,#chart-7594cc40-9138-4dba-b686-1490703943a0 .axis.y2 .guides:hover .guide.line,#chart-7594cc40-9138-4dba-b686-1490703943a0 .axis.x .guides:hover .guide.line{opacity:1}#chart-7594cc40-9138-4dba-b686-1490703943a0 .axis .guides:hover text{opacity:1}#chart-7594cc40-9138-4dba-b686-1490703943a0 .nofill{fill:none}#chart-7594cc40-9138-4dba-b686-1490703943a0 .subtle-fill{fill-opacity:.2}#chart-7594cc40-9138-4dba-b686-1490703943a0 .dot{stroke-width:1px;fill-opacity:1}#chart-7594cc40-9138-4dba-b686-1490703943a0 .dot.active{stroke-width:5px}#chart-7594cc40-9138-4dba-b686-1490703943a0 .dot.negative{fill:transparent}#chart-7594cc40-9138-4dba-b686-1490703943a0 text,#chart-7594cc40-9138-4dba-b686-1490703943a0 tspan{stroke:none !important}#chart-7594cc40-9138-4dba-b686-1490703943a0 .series text.active{opacity:1}#chart-7594cc40-9138-4dba-b686-1490703943a0 .tooltip rect{fill-opacity:.95;stroke-width:.5}#chart-7594cc40-9138-4dba-b686-1490703943a0 .tooltip text{fill-opacity:1}#chart-7594cc40-9138-4dba-b686-1490703943a0 .showable{visibility:hidden}#chart-7594cc40-9138-4dba-b686-1490703943a0 .showable.shown{visibility:visible}#chart-7594cc40-9138-4dba-b686-1490703943a0 .gauge-background{fill:rgba(229,229,229,1);stroke:none}#chart-7594cc40-9138-4dba-b686-1490703943a0 .bg-lines{stroke:transparent;stroke-width:2px}</style><script type="text/javascript">window.pygal = window.pygal || {};window.pygal.config = window.pygal.config || {};window.pygal.config['7594cc40-9138-4dba-b686-1490703943a0'] = {"allow_interruptions": false, "box_mode": "extremes", "classes": ["pygal-chart"], "css": ["file://style.css", "file://graph.css"], "defs": [], "disable_xml_declaration": false, "dots_size": 2.5, "dynamic_print_values": false, "explicit_size": false, "fill": false, "force_uri_protocol": "https", "formatter": null, "half_pie": false, "height": 600, "include_x_axis": false, "inner_radius": 0, "interpolate": null, "interpolation_parameters": {}, "interpolation_precision": 250, "inverse_y_axis": false, "js": ["//kozea.github.io/pygal.js/2.0.x/pygal-tooltips.min.js"], "legend_at_bottom": true, "legend_at_bottom_columns": 2, "legend_box_size": 12, "logarithmic": false, "margin": 20, "margin_bottom": 50, "margin_left": null, "margin_right": null, "margin_top": null, "max_scale": 16, "min_scale": 4, "missing_value_fill_truncation": "x", "no_data_text": "No data", "no_prefix": false, "order_min": null, "pretty_print": false, "print_labels": false, "print_values": false, "print_values_position": "center", "print_zeroes": true, "range": [-0.05, 0.05], "rounded_bars": null, "secondary_range": null, "show_dots": true, "show_legend": true, "show_minor_x_labels": false, "show_minor_y_labels": true, "show_only_major_dots": true, "show_x_guides": true, "show_x_labels": true, "show_y_guides": true, "show_y_labels": true, "spacing": 10, "stack_from_top": false, "strict": false, "stroke": true, "stroke_style": null, "style": {"background": "transparent", "ci_colors": [], "colors": ["#F44336", "#3F51B5", "#009688", "#FFC107", "#FF5722", "#9C27B0", "#03A9F4", "#8BC34A", "#FF9800", "#E91E63", "#2196F3", "#4CAF50", "#FFEB3B", "#673AB7", "#00BCD4", "#CDDC39", "#9E9E9E", "#607D8B"], "font_family": "Helvetica, Arial, sans-serif", "foreground": "rgba(0, 0, 0, .87)", "foreground_strong": "rgba(0, 0, 0, 1)", "foreground_subtle": "rgba(0, 0, 0, .54)", "guide_stroke_dasharray": 1, "label_font_family": "Helvetica, Arial, sans-serif", "label_font_size": 15, "legend_font_family": "Helvetica, Arial, sans-serif", "legend_font_size": 15, "major_guide_stroke_dasharray": 1, "major_label_font_family": "Helvetica, Arial, sans-serif", "major_label_font_size": 15, "no_data_font_family": "Helvetica, Arial, sans-serif", "no_data_font_size": 64, "opacity": ".7", "opacity_hover": ".8", "plot_background": "white", "stroke_opacity": ".8", "stroke_opacity_hover": ".9", "title_font_family": "Helvetica, Arial, sans-serif", "title_font_size": 18, "tooltip_font_family": "Helvetica, Arial, sans-serif", "tooltip_font_size": 14, "transition": "150ms", "value_background": "rgba(229, 229, 229, 1)", "value_colors": [], "value_font_family": "Helvetica, Arial, sans-serif", "value_font_size": 15, "value_label_font_family": "Helvetica, Arial, sans-serif", "value_label_font_size": 15}, "title": "Mean OE2 for Tempo T \u00b110.0 BPM", "tooltip_border_radius": 0, "tooltip_fancy_mode": true, "truncate_label": null, "truncate_legend": -1, "width": 800, "x_label_rotation": 90, "x_labels": ["0.0", "1.0", "2.0", "3.0", "4.0", "5.0", "6.0", "7.0", "8.0", "9.0", "10.0", "11.0", "12.0", "13.0", "14.0", "15.0", "16.0", "17.0", "18.0", "19.0", "20.0", "21.0", "22.0", "23.0", "24.0", "25.0", "26.0", "27.0", "28.0", "29.0", "30.0", "31.0", "32.0", "33.0", "34.0", "35.0", "36.0", "37.0", "38.0", "39.0", "40.0", "41.0", "42.0", "43.0", "44.0", "45.0", "46.0", "47.0", "48.0", "49.0", "50.0", "51.0", "52.0", "53.0", "54.0", "55.0", "56.0", "57.0", "58.0", "59.0", "60.0", "61.0", "62.0", "63.0", "64.0", "65.0", "66.0", "67.0", "68.0", "69.0", "70.0", "71.0", "72.0", "73.0", "74.0", "75.0", "76.0", "77.0", "78.0", "79.0", "80.0", "81.0", "82.0", "83.0", "84.0", "85.0", "86.0", "87.0", "88.0", "89.0", "90.0", "91.0", "92.0", "93.0", "94.0", "95.0", "96.0", "97.0", "98.0", "99.0", "100.0", "101.0", "102.0", "103.0", "104.0", "105.0", "106.0", "107.0", "108.0", "109.0", "110.0", "111.0", "112.0", "113.0", "114.0", "115.0", "116.0", "117.0", "118.0", "119.0", "120.0", "121.0", "122.0", "123.0", "124.0", "125.0", "126.0", "127.0", "128.0", "129.0", "130.0", "131.0", "132.0", "133.0", "134.0", "135.0", "136.0", "137.0", "138.0", "139.0", "140.0", "141.0", "142.0", "143.0", "144.0", "145.0", "146.0", "147.0", "148.0", "149.0", "150.0", "151.0", "152.0", "153.0", "154.0", "155.0", "156.0", "157.0", "158.0", "159.0", "160.0", "161.0", "162.0", "163.0", "164.0", "165.0", "166.0", "167.0", "168.0", "169.0", "170.0", "171.0", "172.0", "173.0", "174.0", "175.0", "176.0", "177.0", "178.0", "179.0", "180.0", "181.0", "182.0", "183.0", "184.0", "185.0", "186.0", "187.0", "188.0", "189.0", "190.0", "191.0", "192.0", "193.0", "194.0", "195.0", "196.0", "197.0", "198.0", "199.0", "200.0", "201.0", "202.0", "203.0", "204.0", "205.0", "206.0", "207.0", "208.0", "209.0", "210.0", "211.0", "212.0", "213.0", "214.0", "215.0", "216.0", "217.0", "218.0", "219.0", "220.0", "221.0", "222.0", "223.0", "224.0", "225.0", "226.0", "227.0", "228.0", "229.0", "230.0", "231.0", "232.0", "233.0", "234.0", "235.0", "236.0", "237.0", "238.0", "239.0", "240.0", "241.0", "242.0", "243.0", "244.0", "245.0", "246.0", "247.0", "248.0", "249.0", "250.0", "251.0", "252.0", "253.0", "254.0", "255.0", "256.0", "257.0", "258.0", "259.0", "260.0", "261.0", "262.0", "263.0", "264.0", "265.0", "266.0", "267.0", "268.0", "269.0", "270.0", "271.0", "272.0", "273.0", "274.0", "275.0", "276.0", "277.0", "278.0", "279.0", "280.0", "281.0", "282.0", "283.0", "284.0", "285.0", "286.0", "287.0", "288.0", "289.0", "290.0", "291.0", "292.0", "293.0", "294.0", "295.0", "296.0", "297.0", "298.0", "299.0", "300.0"], "x_labels_major": null, "x_labels_major_count": 11, "x_labels_major_every": null, "x_title": "T (BPM)", "xrange": null, "y_label_rotation": 0, "y_labels": null, "y_labels_major": null, "y_labels_major_count": null, "y_labels_major_every": null, "y_title": "Mean OE2 (TO)", "zero": 0, "legends": ["beatport_key/1.0"]}</script><script type="text/javascript" xlink:href="https://kozea.github.io/pygal.js/2.0.x/pygal-tooltips.min.js"/></defs><title>Mean OE2 for Tempo T ±10.0 BPM</title><g class="graph line-graph vertical"><rect class="background" height="600" width="800" x="0" y="0"/><g class="plot" transform="translate(121, 48)"><rect class="background" height="416.5" width="659.0" x="0" y="0"/><g class="axis y always_show"><g class="guides"><path class="major guide line" d="M0.000000 408.490385 h659.000000"/><text class="major" x="-5" y="413.7403846153846">-0.0500</text><title>-0.0500</title></g><g class="guides"><path class="guide line" d="M0.000000 368.442308 h659.000000"/><text class="" x="-5" y="373.6923076923077">-0.0400</text><title>-0.0400</title></g><g class="guides"><path class="guide line" d="M0.000000 328.394231 h659.000000"/><text class="" x="-5" y="333.6442307692308">-0.0300</text><title>-0.0300</title></g><g class="guides"><path class="guide line" d="M0.000000 288.346154 h659.000000"/><text class="" x="-5" y="293.59615384615387">-0.0200</text><title>-0.0200</title></g><g class="guides"><path class="guide line" d="M0.000000 248.298077 h659.000000"/><text class="" x="-5" y="253.5480769230769">-0.0100</text><title>-0.0100</title></g><g class="guides"><path class="major line" d="M0.000000 208.250000 h659.000000"/><text class="major" x="-5" y="213.5">0.0000</text><title>0.0000</title></g><g class="guides"><path class="guide line" d="M0.000000 168.201923 h659.000000"/><text class="" x="-5" y="173.45192307692307">0.0100</text><title>0.0100</title></g><g class="guides"><path class="guide line" d="M0.000000 128.153846 h659.000000"/><text class="" x="-5" y="133.40384615384613">0.0200</text><title>0.0200</title></g><g class="guides"><path class="guide line" d="M0.000000 88.105769 h659.000000"/><text class="" x="-5" y="93.35576923076928">0.0300</text><title>0.0300</title></g><g class="guides"><path class="guide line" d="M0.000000 48.057692 h659.000000"/><text class="" x="-5" y="53.30769230769238">0.0400</text><title>0.0400</title></g><g class="guides"><path class="major guide line" d="M0.000000 8.009615 h659.000000"/><text class="major" x="-5" y="13.259615384615358">0.0500</text><title>0.0500</title></g></g><g class="axis x always_show"><g class="guides"><path class="major line" d="M12.673077 0.000000 v416.500000"/><text class="major" x="12.673076923076922" y="434.0" transform="rotate(90 12.673077 434.000000)">0.0</text></g><g class="guides"><path class="major guide line" d="M76.038462 0.000000 v416.500000"/><text class="major" x="76.03846153846155" y="434.0" transform="rotate(90 76.038462 434.000000)">30.0</text></g><g class="guides"><path class="major guide line" d="M139.403846 0.000000 v416.500000"/><text class="major" x="139.40384615384613" y="434.0" transform="rotate(90 139.403846 434.000000)">60.0</text></g><g class="guides"><path class="major guide line" d="M202.769231 0.000000 v416.500000"/><text class="major" x="202.76923076923075" y="434.0" transform="rotate(90 202.769231 434.000000)">90.0</text></g><g class="guides"><path class="major guide line" d="M266.134615 0.000000 v416.500000"/><text class="major" x="266.1346153846154" y="434.0" transform="rotate(90 266.134615 434.000000)">120.0</text></g><g class="guides"><path class="major guide line" d="M329.500000 0.000000 v416.500000"/><text class="major" x="329.5" y="434.0" transform="rotate(90 329.500000 434.000000)">150.0</text></g><g class="guides"><path class="major guide line" d="M392.865385 0.000000 v416.500000"/><text class="major" x="392.8653846153846" y="434.0" transform="rotate(90 392.865385 434.000000)">180.0</text></g><g class="guides"><path class="major guide line" d="M456.230769 0.000000 v416.500000"/><text class="major" x="456.23076923076917" y="434.0" transform="rotate(90 456.230769 434.000000)">210.0</text></g><g class="guides"><path class="major guide line" d="M519.596154 0.000000 v416.500000"/><text class="major" x="519.5961538461538" y="434.0" transform="rotate(90 519.596154 434.000000)">240.0</text></g><g class="guides"><path class="major guide line" d="M582.961538 0.000000 v416.500000"/><text class="major" x="582.9615384615385" y="434.0" transform="rotate(90 582.961538 434.000000)">270.0</text></g><g class="guides"><path class="major guide line" d="M646.326923 0.000000 v416.500000"/><text class="major" x="646.3269230769231" y="434.0" transform="rotate(90 646.326923 434.000000)">300.0</text></g></g><g class="series serie-0 color-0"><path class="line reactive nofill" d="M12.673077 208.250000 L14.785256 208.250000 16.897436 208.250000 19.009615 208.250000 21.121795 208.250000 23.233974 208.250000 25.346154 208.250000 27.458333 208.250000 29.570513 208.250000 31.682692 208.250000 33.794872 208.250000 35.907051 208.250000 38.019231 208.250000 40.131410 208.250000 42.243590 208.250000 44.355769 208.250000 46.467949 208.250000 48.580128 208.250000 50.692308 208.250000 52.804487 208.250000 54.916667 208.250000 57.028846 208.250000 59.141026 208.250000 61.253205 208.250000 63.365385 208.250000 65.477564 208.250000 67.589744 208.250000 69.701923 208.250000 71.814103 208.250000 73.926282 208.250000 76.038462 208.250000 78.150641 208.250000 80.262821 208.250000 82.375000 208.250000 84.487179 208.250000 86.599359 208.250000 88.711538 208.250000 90.823718 208.250000 92.935897 208.250000 95.048077 208.250000 97.160256 208.250000 99.272436 208.250000 101.384615 208.250000 103.496795 208.250000 105.608974 208.250000 107.721154 208.250000 109.833333 208.250000 111.945513 208.250000 114.057692 208.250000 116.169872 208.250000 118.282051 208.250000 120.394231 208.250000 122.506410 208.250000 124.618590 208.250000 126.730769 208.250000 128.842949 208.250000 130.955128 296.461121 133.067308 296.461121 135.179487 294.718614 137.291667 294.718614 139.403846 273.101461 141.516026 273.101461 143.628205 273.101461 145.740385 273.101461 147.852564 277.687506 149.964744 277.687506 152.076923 277.687506 154.189103 273.145002 156.301282 273.145002 158.413462 274.233436 160.525641 268.304412 162.637821 268.304412 164.750000 262.844920 166.862179 262.844920 168.974359 268.467143 171.086538 270.280253 173.198718 257.588373 175.310897 200.757749 177.423077 210.969417 179.535256 211.392594 181.647436 221.030209 183.759615 221.291029 185.871795 224.171263 187.983974 280.765561 190.096154 279.401023 192.208333 274.484986 194.320513 273.481426 196.432692 273.481426 198.544872 272.752241 200.657051 272.667535 202.769231 248.782460 204.881410 248.577237 206.993590 290.099742 209.105769 291.162726 211.217949 288.751296 213.330128 285.853372 215.442308 286.326564 217.554487 310.470931 219.666667 338.608542 221.778846 322.535719 223.891026 326.819096 226.003205 330.665833 228.115385 328.555215 230.227564 337.077129 232.339744 275.402227 234.451923 271.083397 236.564103 357.052449 238.676282 348.391888 240.788462 342.766838 242.900641 393.558187 245.012821 338.033576 247.125000 357.881511 249.237179 343.671588 251.349359 302.681209 253.461538 294.800634 255.573718 282.459664 257.685897 273.279334 259.798077 267.783262 261.910256 250.966550 264.022436 250.238619 266.134615 255.985579 268.246795 255.936708 270.358974 255.615574 272.471154 255.261355 274.583333 254.840070 276.695513 254.061348 278.807692 254.034510 280.919872 243.047862 283.032051 243.095597 285.144231 243.167877 287.256410 235.716803 289.368590 236.288819 291.480769 233.190322 293.592949 233.707485 295.705128 233.750265 297.817308 233.158900 299.929487 232.938090 302.041667 233.189788 304.153846 233.011724 306.266026 236.625874 308.378205 236.295812 310.490385 229.122487 312.602564 228.490017 314.714744 228.397123 316.826923 228.530325 318.939103 227.662912 321.051282 227.708416 323.163462 226.085433 325.275641 227.479800 327.387821 226.589582 329.500000 215.132902 331.612179 203.196491 333.724359 202.122626 335.836538 214.122172 337.948718 184.497441 340.060897 177.816114 342.173077 149.526300 344.285256 146.792043 346.397436 140.856958 348.509615 132.618916 350.621795 137.154794 352.733974 64.997514 354.846154 54.312645 356.958333 44.691561 359.070513 59.942263 361.182692 93.607982 363.294872 93.607982 365.407051 85.618620 367.519231 85.618620 369.631410 33.289592 371.743590 33.289592 373.855769 136.929658 375.967949 136.929658 378.080128 136.929658 380.192308 136.929658 382.304487 259.140072 384.416667 262.293485 386.528846 262.293485 388.641026 268.676509 390.753205 268.676509 392.865385 264.370735 394.977564 283.089743 397.089744 283.089743 399.201923 283.089743 401.314103 283.089743 403.426282 278.248908 405.538462 285.231149 407.650641 285.231149 409.762821 285.231149 411.875000 285.231149 413.987179 285.231149 416.099359 285.231149 418.211538 285.231149 420.323718 285.231149 422.435897 285.231149 424.548077 285.231149 426.660256 285.231149 428.772436 285.231149 430.884615 285.231149 432.996795 237.955547 435.108974 237.955547 437.221154 237.955547 439.333333 237.955547 441.445513 237.955547 443.557692 237.955547 445.669872 237.955547 447.782051 208.250000 449.894231 208.250000 452.006410 208.250000 454.118590 208.250000 456.230769 208.250000 458.342949 208.250000 460.455128 208.250000 462.567308 208.250000 464.679487 208.250000 466.791667 208.250000 468.903846 208.250000 471.016026 208.250000 473.128205 208.250000 475.240385 208.250000 477.352564 208.250000 479.464744 208.250000 481.576923 208.250000 483.689103 208.250000 485.801282 208.250000 487.913462 208.250000 490.025641 208.250000 492.137821 208.250000 494.250000 208.250000 496.362179 208.250000 498.474359 208.250000 500.586538 208.250000 502.698718 208.250000 504.810897 208.250000 506.923077 208.250000 509.035256 208.250000 511.147436 208.250000 513.259615 208.250000 515.371795 208.250000 517.483974 208.250000 519.596154 208.250000 521.708333 208.250000 523.820513 208.250000 525.932692 208.250000 528.044872 208.250000 530.157051 208.250000 532.269231 208.250000 534.381410 208.250000 536.493590 208.250000 538.605769 208.250000 540.717949 208.250000 542.830128 208.250000 544.942308 208.250000 547.054487 208.250000 549.166667 208.250000 551.278846 208.250000 553.391026 208.250000 555.503205 208.250000 557.615385 208.250000 559.727564 208.250000 561.839744 208.250000 563.951923 208.250000 566.064103 208.250000 568.176282 208.250000 570.288462 208.250000 572.400641 208.250000 574.512821 208.250000 576.625000 208.250000 578.737179 208.250000 580.849359 208.250000 582.961538 208.250000 585.073718 208.250000 587.185897 208.250000 589.298077 208.250000 591.410256 208.250000 593.522436 208.250000 595.634615 208.250000 597.746795 208.250000 599.858974 208.250000 601.971154 208.250000 604.083333 208.250000 606.195513 208.250000 608.307692 208.250000 610.419872 208.250000 612.532051 208.250000 614.644231 208.250000 616.756410 208.250000 618.868590 208.250000 620.980769 208.250000 623.092949 208.250000 625.205128 208.250000 627.317308 208.250000 629.429487 208.250000 631.541667 208.250000 633.653846 208.250000 635.766026 208.250000 637.878205 208.250000 639.990385 208.250000 642.102564 208.250000 644.214744 208.250000 646.326923 208.250000"/></g></g><g class="titles"><text class="title plot_title" x="400.0" y="28">Mean OE2 for Tempo T ±10.0 BPM</text><text class="title" x="450.5" y="547.5">T (BPM)</text><text class="title" x="0" y="284.25" transform="rotate(-90 0.000000 256.250000)">Mean OE2 (TO)</text></g><g class="plot overlay" transform="translate(121, 48)"><g class="series serie-0 color-0"><g class="dots"><circle class="dot reactive tooltip-trigger" cx="12.673076923076922" cy="208.25" r="2.5"/><desc class="value">0.0000</desc><desc class="x ">12.673076923076922</desc><desc class="y ">208.25</desc><desc class="x_label">0.0</desc></g><g class="dots"><circle class="dot reactive tooltip-trigger" cx="76.03846153846155" cy="208.25" r="2.5"/><desc class="value">0.0000</desc><desc class="x ">76.03846153846155</desc><desc class="y ">208.25</desc><desc class="x_label">30.0</desc></g><g class="dots"><circle class="dot reactive tooltip-trigger" cx="139.40384615384613" cy="273.1014608092614" r="2.5"/><desc class="value">-0.0162</desc><desc class="x top">139.40384615384613</desc><desc class="y top">273.1014608092614</desc><desc class="x_label">60.0</desc></g><g class="dots"><circle class="dot reactive tooltip-trigger" cx="202.76923076923075" cy="248.78245972980403" r="2.5"/><desc class="value">-0.0101</desc><desc class="x top">202.76923076923075</desc><desc class="y top">248.78245972980403</desc><desc class="x_label">90.0</desc></g><g class="dots"><circle class="dot reactive tooltip-trigger" cx="266.1346153846154" cy="255.98557872344756" r="2.5"/><desc class="value">-0.0119</desc><desc class="x top">266.1346153846154</desc><desc class="y top">255.98557872344756</desc><desc class="x_label">120.0</desc></g><g class="dots"><circle class="dot reactive tooltip-trigger" cx="329.5" cy="215.13290180639393" r="2.5"/><desc class="value">-0.0017</desc><desc class="x top">329.5</desc><desc class="y top">215.13290180639393</desc><desc class="x_label">150.0</desc></g><g class="dots"><circle class="dot reactive tooltip-trigger" cx="392.8653846153846" cy="264.3707353930607" r="2.5"/><desc class="value">-0.0140</desc><desc class="x left top">392.8653846153846</desc><desc class="y left top">264.3707353930607</desc><desc class="x_label">180.0</desc></g><g class="dots"><circle class="dot reactive tooltip-trigger" cx="456.23076923076917" cy="208.25" r="2.5"/><desc class="value">0.0000</desc><desc class="x left">456.23076923076917</desc><desc class="y left">208.25</desc><desc class="x_label">210.0</desc></g><g class="dots"><circle class="dot reactive tooltip-trigger" cx="519.5961538461538" cy="208.25" r="2.5"/><desc class="value">0.0000</desc><desc class="x left">519.5961538461538</desc><desc class="y left">208.25</desc><desc class="x_label">240.0</desc></g><g class="dots"><circle class="dot reactive tooltip-trigger" cx="582.9615384615385" cy="208.25" r="2.5"/><desc class="value">0.0000</desc><desc class="x left">582.9615384615385</desc><desc class="y left">208.25</desc><desc class="x_label">270.0</desc></g><g class="dots"><circle class="dot reactive tooltip-trigger" cx="646.3269230769231" cy="208.25" r="2.5"/><desc class="value">0.0000</desc><desc class="x left">646.3269230769231</desc><desc class="y left">208.25</desc><desc class="x_label">300.0</desc></g></g></g><g class="plot text-overlay" transform="translate(121, 48)"><g class="series serie-0 color-0"/></g><g class="plot tooltip-overlay" transform="translate(121, 48)"><g class="tooltip" style="opacity: 0" transform="translate(0 0)"><rect class="tooltip-box" height="0" rx="0" ry="0" width="0"/><g class="text"/></g></g><g class="legends" transform="translate(131, 567)"><g class="legend reactive activate-serie" id="activate-serie-0"><rect class="color-0 reactive" height="12" width="12" x="0.0" y="1.5"/><text x="17.0" y="12.0">beatport_key/1.0</text></g></g></g></svg>