<?xml version='1.0' encoding='utf-8'?>
<svg xmlns:xlink="http://www.w3.org/1999/xlink" xmlns="http://www.w3.org/2000/svg" id="chart-f9dc1caf-f154-40a3-b821-4081013092ef" class="pygal-chart" viewBox="0 0 800 600"><!--Generated with pygal 2.4.0 (lxml) ©Kozea 2012-2016 on 2021-03-08--><!--http://pygal.org--><!--http://github.com/Kozea/pygal--><defs><style type="text/css">#chart-f9dc1caf-f154-40a3-b821-4081013092ef{-webkit-user-select:none;-webkit-font-smoothing:antialiased;font-family:Helvetica,Arial,sans-serif}#chart-f9dc1caf-f154-40a3-b821-4081013092ef .title{font-family:Helvetica,Arial,sans-serif;font-size:18px}#chart-f9dc1caf-f154-40a3-b821-4081013092ef .legends .legend text{font-family:Helvetica,Arial,sans-serif;font-size:15px}#chart-f9dc1caf-f154-40a3-b821-4081013092ef .axis text{font-family:Helvetica,Arial,sans-serif;font-size:15px}#chart-f9dc1caf-f154-40a3-b821-4081013092ef .axis text.major{font-family:Helvetica,Arial,sans-serif;font-size:15px}#chart-f9dc1caf-f154-40a3-b821-4081013092ef .text-overlay text.value{font-family:Helvetica,Arial,sans-serif;font-size:15px}#chart-f9dc1caf-f154-40a3-b821-4081013092ef .text-overlay text.label{font-family:Helvetica,Arial,sans-serif;font-size:15px}#chart-f9dc1caf-f154-40a3-b821-4081013092ef .tooltip{font-family:Helvetica,Arial,sans-serif;font-size:14px}#chart-f9dc1caf-f154-40a3-b821-4081013092ef text.no_data{font-family:Helvetica,Arial,sans-serif;font-size:64px}
#chart-f9dc1caf-f154-40a3-b821-4081013092ef{background-color:transparent}#chart-f9dc1caf-f154-40a3-b821-4081013092ef path,#chart-f9dc1caf-f154-40a3-b821-4081013092ef line,#chart-f9dc1caf-f154-40a3-b821-4081013092ef rect,#chart-f9dc1caf-f154-40a3-b821-4081013092ef circle{-webkit-transition:150ms;-moz-transition:150ms;transition:150ms}#chart-f9dc1caf-f154-40a3-b821-4081013092ef .graph &gt; .background{fill:transparent}#chart-f9dc1caf-f154-40a3-b821-4081013092ef .plot &gt; .background{fill:white}#chart-f9dc1caf-f154-40a3-b821-4081013092ef .graph{fill:rgba(0,0,0,.87)}#chart-f9dc1caf-f154-40a3-b821-4081013092ef text.no_data{fill:rgba(0,0,0,1)}#chart-f9dc1caf-f154-40a3-b821-4081013092ef .title{fill:rgba(0,0,0,1)}#chart-f9dc1caf-f154-40a3-b821-4081013092ef .legends .legend text{fill:rgba(0,0,0,.87)}#chart-f9dc1caf-f154-40a3-b821-4081013092ef .legends .legend:hover text{fill:rgba(0,0,0,1)}#chart-f9dc1caf-f154-40a3-b821-4081013092ef .axis .line{stroke:rgba(0,0,0,1)}#chart-f9dc1caf-f154-40a3-b821-4081013092ef .axis .guide.line{stroke:rgba(0,0,0,.54)}#chart-f9dc1caf-f154-40a3-b821-4081013092ef .axis .major.line{stroke:rgba(0,0,0,.87)}#chart-f9dc1caf-f154-40a3-b821-4081013092ef .axis text.major{fill:rgba(0,0,0,1)}#chart-f9dc1caf-f154-40a3-b821-4081013092ef .axis.y .guides:hover .guide.line,#chart-f9dc1caf-f154-40a3-b821-4081013092ef .line-graph .axis.x .guides:hover .guide.line,#chart-f9dc1caf-f154-40a3-b821-4081013092ef .stackedline-graph .axis.x .guides:hover .guide.line,#chart-f9dc1caf-f154-40a3-b821-4081013092ef .xy-graph .axis.x .guides:hover .guide.line{stroke:rgba(0,0,0,1)}#chart-f9dc1caf-f154-40a3-b821-4081013092ef .axis .guides:hover text{fill:rgba(0,0,0,1)}#chart-f9dc1caf-f154-40a3-b821-4081013092ef .reactive{fill-opacity:.7;stroke-opacity:.8}#chart-f9dc1caf-f154-40a3-b821-4081013092ef .ci{stroke:rgba(0,0,0,.87)}#chart-f9dc1caf-f154-40a3-b821-4081013092ef .reactive.active,#chart-f9dc1caf-f154-40a3-b821-4081013092ef .active .reactive{fill-opacity:.8;stroke-opacity:.9;stroke-width:4}#chart-f9dc1caf-f154-40a3-b821-4081013092ef .ci .reactive.active{stroke-width:1.5}#chart-f9dc1caf-f154-40a3-b821-4081013092ef .series text{fill:rgba(0,0,0,1)}#chart-f9dc1caf-f154-40a3-b821-4081013092ef .tooltip rect{fill:white;stroke:rgba(0,0,0,1);-webkit-transition:opacity 150ms;-moz-transition:opacity 150ms;transition:opacity 150ms}#chart-f9dc1caf-f154-40a3-b821-4081013092ef .tooltip .label{fill:rgba(0,0,0,.87)}#chart-f9dc1caf-f154-40a3-b821-4081013092ef .tooltip .label{fill:rgba(0,0,0,.87)}#chart-f9dc1caf-f154-40a3-b821-4081013092ef .tooltip .legend{font-size:.8em;fill:rgba(0,0,0,.54)}#chart-f9dc1caf-f154-40a3-b821-4081013092ef .tooltip .x_label{font-size:.6em;fill:rgba(0,0,0,1)}#chart-f9dc1caf-f154-40a3-b821-4081013092ef .tooltip .xlink{font-size:.5em;text-decoration:underline}#chart-f9dc1caf-f154-40a3-b821-4081013092ef .tooltip .value{font-size:1.5em}#chart-f9dc1caf-f154-40a3-b821-4081013092ef .bound{font-size:.5em}#chart-f9dc1caf-f154-40a3-b821-4081013092ef .max-value{font-size:.75em;fill:rgba(0,0,0,.54)}#chart-f9dc1caf-f154-40a3-b821-4081013092ef .map-element{fill:white;stroke:rgba(0,0,0,.54) !important}#chart-f9dc1caf-f154-40a3-b821-4081013092ef .map-element .reactive{fill-opacity:inherit;stroke-opacity:inherit}#chart-f9dc1caf-f154-40a3-b821-4081013092ef .color-0,#chart-f9dc1caf-f154-40a3-b821-4081013092ef .color-0 a:visited{stroke:#F44336;fill:#F44336}#chart-f9dc1caf-f154-40a3-b821-4081013092ef .text-overlay .color-0 text{fill:black}
#chart-f9dc1caf-f154-40a3-b821-4081013092ef text.no_data{text-anchor:middle}#chart-f9dc1caf-f154-40a3-b821-4081013092ef .guide.line{fill:none}#chart-f9dc1caf-f154-40a3-b821-4081013092ef .centered{text-anchor:middle}#chart-f9dc1caf-f154-40a3-b821-4081013092ef .title{text-anchor:middle}#chart-f9dc1caf-f154-40a3-b821-4081013092ef .legends .legend text{fill-opacity:1}#chart-f9dc1caf-f154-40a3-b821-4081013092ef .axis.x text{text-anchor:middle}#chart-f9dc1caf-f154-40a3-b821-4081013092ef .axis.x:not(.web) text[transform]{text-anchor:start}#chart-f9dc1caf-f154-40a3-b821-4081013092ef .axis.x:not(.web) text[transform].backwards{text-anchor:end}#chart-f9dc1caf-f154-40a3-b821-4081013092ef .axis.y text{text-anchor:end}#chart-f9dc1caf-f154-40a3-b821-4081013092ef .axis.y text[transform].backwards{text-anchor:start}#chart-f9dc1caf-f154-40a3-b821-4081013092ef .axis.y2 text{text-anchor:start}#chart-f9dc1caf-f154-40a3-b821-4081013092ef .axis.y2 text[transform].backwards{text-anchor:end}#chart-f9dc1caf-f154-40a3-b821-4081013092ef .axis .guide.line{stroke-dasharray:1}#chart-f9dc1caf-f154-40a3-b821-4081013092ef .axis .major.guide.line{stroke-dasharray:1}#chart-f9dc1caf-f154-40a3-b821-4081013092ef .horizontal .axis.y .guide.line,#chart-f9dc1caf-f154-40a3-b821-4081013092ef .horizontal .axis.y2 .guide.line,#chart-f9dc1caf-f154-40a3-b821-4081013092ef .vertical .axis.x .guide.line{opacity:0}#chart-f9dc1caf-f154-40a3-b821-4081013092ef .horizontal .axis.always_show .guide.line,#chart-f9dc1caf-f154-40a3-b821-4081013092ef .vertical .axis.always_show .guide.line{opacity:1 !important}#chart-f9dc1caf-f154-40a3-b821-4081013092ef .axis.y .guides:hover .guide.line,#chart-f9dc1caf-f154-40a3-b821-4081013092ef .axis.y2 .guides:hover .guide.line,#chart-f9dc1caf-f154-40a3-b821-4081013092ef .axis.x .guides:hover .guide.line{opacity:1}#chart-f9dc1caf-f154-40a3-b821-4081013092ef .axis .guides:hover text{opacity:1}#chart-f9dc1caf-f154-40a3-b821-4081013092ef .nofill{fill:none}#chart-f9dc1caf-f154-40a3-b821-4081013092ef .subtle-fill{fill-opacity:.2}#chart-f9dc1caf-f154-40a3-b821-4081013092ef .dot{stroke-width:1px;fill-opacity:1}#chart-f9dc1caf-f154-40a3-b821-4081013092ef .dot.active{stroke-width:5px}#chart-f9dc1caf-f154-40a3-b821-4081013092ef .dot.negative{fill:transparent}#chart-f9dc1caf-f154-40a3-b821-4081013092ef text,#chart-f9dc1caf-f154-40a3-b821-4081013092ef tspan{stroke:none !important}#chart-f9dc1caf-f154-40a3-b821-4081013092ef .series text.active{opacity:1}#chart-f9dc1caf-f154-40a3-b821-4081013092ef .tooltip rect{fill-opacity:.95;stroke-width:.5}#chart-f9dc1caf-f154-40a3-b821-4081013092ef .tooltip text{fill-opacity:1}#chart-f9dc1caf-f154-40a3-b821-4081013092ef .showable{visibility:hidden}#chart-f9dc1caf-f154-40a3-b821-4081013092ef .showable.shown{visibility:visible}#chart-f9dc1caf-f154-40a3-b821-4081013092ef .gauge-background{fill:rgba(229,229,229,1);stroke:none}#chart-f9dc1caf-f154-40a3-b821-4081013092ef .bg-lines{stroke:transparent;stroke-width:2px}</style><script type="text/javascript">window.pygal = window.pygal || {};window.pygal.config = window.pygal.config || {};window.pygal.config['f9dc1caf-f154-40a3-b821-4081013092ef'] = {"allow_interruptions": false, "box_mode": "extremes", "classes": ["pygal-chart"], "css": ["file://style.css", "file://graph.css"], "defs": [], "disable_xml_declaration": false, "dots_size": 2.5, "dynamic_print_values": false, "explicit_size": false, "fill": false, "force_uri_protocol": "https", "formatter": null, "half_pie": false, "height": 600, "include_x_axis": false, "inner_radius": 0, "interpolate": null, "interpolation_parameters": {}, "interpolation_precision": 250, "inverse_y_axis": false, "js": ["//kozea.github.io/pygal.js/2.0.x/pygal-tooltips.min.js"], "legend_at_bottom": true, "legend_at_bottom_columns": 2, "legend_box_size": 12, "logarithmic": false, "margin": 20, "margin_bottom": 50, "margin_left": null, "margin_right": null, "margin_top": null, "max_scale": 16, "min_scale": 4, "missing_value_fill_truncation": "x", "no_data_text": "No data", "no_prefix": false, "order_min": null, "pretty_print": false, "print_labels": false, "print_values": false, "print_values_position": "center", "print_zeroes": true, "range": [0.0, 50.0], "rounded_bars": null, "secondary_range": null, "show_dots": true, "show_legend": true, "show_minor_x_labels": false, "show_minor_y_labels": true, "show_only_major_dots": true, "show_x_guides": true, "show_x_labels": true, "show_y_guides": true, "show_y_labels": true, "spacing": 10, "stack_from_top": false, "strict": false, "stroke": true, "stroke_style": null, "style": {"background": "transparent", "ci_colors": [], "colors": ["#F44336", "#3F51B5", "#009688", "#FFC107", "#FF5722", "#9C27B0", "#03A9F4", "#8BC34A", "#FF9800", "#E91E63", "#2196F3", "#4CAF50", "#FFEB3B", "#673AB7", "#00BCD4", "#CDDC39", "#9E9E9E", "#607D8B"], "font_family": "Helvetica, Arial, sans-serif", "foreground": "rgba(0, 0, 0, .87)", "foreground_strong": "rgba(0, 0, 0, 1)", "foreground_subtle": "rgba(0, 0, 0, .54)", "guide_stroke_dasharray": 1, "label_font_family": "Helvetica, Arial, sans-serif", "label_font_size": 15, "legend_font_family": "Helvetica, Arial, sans-serif", "legend_font_size": 15, "major_guide_stroke_dasharray": 1, "major_label_font_family": "Helvetica, Arial, sans-serif", "major_label_font_size": 15, "no_data_font_family": "Helvetica, Arial, sans-serif", "no_data_font_size": 64, "opacity": ".7", "opacity_hover": ".8", "plot_background": "white", "stroke_opacity": ".8", "stroke_opacity_hover": ".9", "title_font_family": "Helvetica, Arial, sans-serif", "title_font_size": 18, "tooltip_font_family": "Helvetica, Arial, sans-serif", "tooltip_font_size": 14, "transition": "150ms", "value_background": "rgba(229, 229, 229, 1)", "value_colors": [], "value_font_family": "Helvetica, Arial, sans-serif", "value_font_size": 15, "value_label_font_family": "Helvetica, Arial, sans-serif", "value_label_font_size": 15}, "title": "Percentage of Annotations for T \u00b15.0 BPM", "tooltip_border_radius": 0, "tooltip_fancy_mode": true, "truncate_label": null, "truncate_legend": -1, "width": 800, "x_label_rotation": 90, "x_labels": ["0.0", "1.0", "2.0", "3.0", "4.0", "5.0", "6.0", "7.0", "8.0", "9.0", "10.0", "11.0", "12.0", "13.0", "14.0", "15.0", "16.0", "17.0", "18.0", "19.0", "20.0", "21.0", "22.0", "23.0", "24.0", "25.0", "26.0", "27.0", "28.0", "29.0", "30.0", "31.0", "32.0", "33.0", "34.0", "35.0", "36.0", "37.0", "38.0", "39.0", "40.0", "41.0", "42.0", "43.0", "44.0", "45.0", "46.0", "47.0", "48.0", "49.0", "50.0", "51.0", "52.0", "53.0", "54.0", "55.0", "56.0", "57.0", "58.0", "59.0", "60.0", "61.0", "62.0", "63.0", "64.0", "65.0", "66.0", "67.0", "68.0", "69.0", "70.0", "71.0", "72.0", "73.0", "74.0", "75.0", "76.0", "77.0", "78.0", "79.0", "80.0", "81.0", "82.0", "83.0", "84.0", "85.0", "86.0", "87.0", "88.0", "89.0", "90.0", "91.0", "92.0", "93.0", "94.0", "95.0", "96.0", "97.0", "98.0", "99.0", "100.0", "101.0", "102.0", "103.0", "104.0", "105.0", "106.0", "107.0", "108.0", "109.0", "110.0", "111.0", "112.0", "113.0", "114.0", "115.0", "116.0", "117.0", "118.0", "119.0", "120.0", "121.0", "122.0", "123.0", "124.0", "125.0", "126.0", "127.0", "128.0", "129.0", "130.0", "131.0", "132.0", "133.0", "134.0", "135.0", "136.0", "137.0", "138.0", "139.0", "140.0", "141.0", "142.0", "143.0", "144.0", "145.0", "146.0", "147.0", "148.0", "149.0", "150.0", "151.0", "152.0", "153.0", "154.0", "155.0", "156.0", "157.0", "158.0", "159.0", "160.0", "161.0", "162.0", "163.0", "164.0", "165.0", "166.0", "167.0", "168.0", "169.0", "170.0", "171.0", "172.0", "173.0", "174.0", "175.0", "176.0", "177.0", "178.0", "179.0", "180.0", "181.0", "182.0", "183.0", "184.0", "185.0", "186.0", "187.0", "188.0", "189.0", "190.0", "191.0", "192.0", "193.0", "194.0", "195.0", "196.0", "197.0", "198.0", "199.0", "200.0", "201.0", "202.0", "203.0", "204.0", "205.0", "206.0", "207.0", "208.0", "209.0", "210.0", "211.0", "212.0", "213.0", "214.0", "215.0", "216.0", "217.0", "218.0", "219.0", "220.0", "221.0", "222.0", "223.0", "224.0", "225.0", "226.0", "227.0", "228.0", "229.0", "230.0", "231.0", "232.0", "233.0", "234.0", "235.0", "236.0", "237.0", "238.0", "239.0", "240.0", "241.0", "242.0", "243.0", "244.0", "245.0", "246.0", "247.0", "248.0", "249.0", "250.0", "251.0", "252.0", "253.0", "254.0", "255.0", "256.0", "257.0", "258.0", "259.0", "260.0", "261.0", "262.0", "263.0", "264.0", "265.0", "266.0", "267.0", "268.0", "269.0", "270.0", "271.0", "272.0", "273.0", "274.0", "275.0", "276.0", "277.0", "278.0", "279.0", "280.0", "281.0", "282.0", "283.0", "284.0", "285.0", "286.0", "287.0", "288.0", "289.0", "290.0", "291.0", "292.0", "293.0", "294.0", "295.0", "296.0", "297.0", "298.0", "299.0", "300.0"], "x_labels_major": null, "x_labels_major_count": 11, "x_labels_major_every": null, "x_title": "T (BPM)", "xrange": null, "y_label_rotation": 0, "y_labels": null, "y_labels_major": null, "y_labels_major_count": null, "y_labels_major_every": null, "y_title": "Values (%)", "zero": 0, "legends": ["beatport_key/1.0"]}</script><script type="text/javascript" xlink:href="https://kozea.github.io/pygal.js/2.0.x/pygal-tooltips.min.js"/></defs><title>Percentage of Annotations for T ±5.0 BPM</title><g class="graph line-graph vertical"><rect class="background" height="600" width="800" x="0" y="0"/><g class="plot" transform="translate(94, 48)"><rect class="background" height="416.5" width="686.0" x="0" y="0"/><g class="axis y always_show"><g class="guides"><path class="major line" d="M0.000000 408.490385 h686.000000"/><text class="major" x="-5" y="413.74038461538464">0.0</text><title>0.0</title></g><g class="guides"><path class="guide line" d="M0.000000 328.394231 h686.000000"/><text class="" x="-5" y="333.6442307692308">10.0</text><title>10.0</title></g><g class="guides"><path class="guide line" d="M0.000000 248.298077 h686.000000"/><text class="" x="-5" y="253.54807692307693">20.0</text><title>20.0</title></g><g class="guides"><path class="guide line" d="M0.000000 168.201923 h686.000000"/><text class="" x="-5" y="173.45192307692307">30.0</text><title>30.0</title></g><g class="guides"><path class="guide line" d="M0.000000 88.105769 h686.000000"/><text class="" x="-5" y="93.35576923076923">40.0</text><title>40.0</title></g><g class="guides"><path class="major guide line" d="M0.000000 8.009615 h686.000000"/><text class="major" x="-5" y="13.259615384615358">50.0</text><title>50.0</title></g></g><g class="axis x always_show"><g class="guides"><path class="major line" d="M13.192308 0.000000 v416.500000"/><text class="major" x="13.192307692307692" y="434.0" transform="rotate(90 13.192308 434.000000)">0.0</text></g><g class="guides"><path class="major guide line" d="M79.153846 0.000000 v416.500000"/><text class="major" x="79.15384615384616" y="434.0" transform="rotate(90 79.153846 434.000000)">30.0</text></g><g class="guides"><path class="major guide line" d="M145.115385 0.000000 v416.500000"/><text class="major" x="145.11538461538458" y="434.0" transform="rotate(90 145.115385 434.000000)">60.0</text></g><g class="guides"><path class="major guide line" d="M211.076923 0.000000 v416.500000"/><text class="major" x="211.07692307692307" y="434.0" transform="rotate(90 211.076923 434.000000)">90.0</text></g><g class="guides"><path class="major guide line" d="M277.038462 0.000000 v416.500000"/><text class="major" x="277.03846153846155" y="434.0" transform="rotate(90 277.038462 434.000000)">120.0</text></g><g class="guides"><path class="major guide line" d="M343.000000 0.000000 v416.500000"/><text class="major" x="343.0" y="434.0" transform="rotate(90 343.000000 434.000000)">150.0</text></g><g class="guides"><path class="major guide line" d="M408.961538 0.000000 v416.500000"/><text class="major" x="408.96153846153845" y="434.0" transform="rotate(90 408.961538 434.000000)">180.0</text></g><g class="guides"><path class="major guide line" d="M474.923077 0.000000 v416.500000"/><text class="major" x="474.92307692307685" y="434.0" transform="rotate(90 474.923077 434.000000)">210.0</text></g><g class="guides"><path class="major guide line" d="M540.884615 0.000000 v416.500000"/><text class="major" x="540.8846153846155" y="434.0" transform="rotate(90 540.884615 434.000000)">240.0</text></g><g class="guides"><path class="major guide line" d="M606.846154 0.000000 v416.500000"/><text class="major" x="606.8461538461538" y="434.0" transform="rotate(90 606.846154 434.000000)">270.0</text></g><g class="guides"><path class="major guide line" d="M672.807692 0.000000 v416.500000"/><text class="major" x="672.8076923076923" y="434.0" transform="rotate(90 672.807692 434.000000)">300.0</text></g></g><g class="series serie-0 color-0"><path class="line reactive nofill" d="M13.192308 408.490385 L15.391026 408.490385 17.589744 408.490385 19.788462 408.490385 21.987179 408.490385 24.185897 408.490385 26.384615 408.490385 28.583333 408.490385 30.782051 408.490385 32.980769 408.490385 35.179487 408.490385 37.378205 408.490385 39.576923 408.490385 41.775641 408.490385 43.974359 408.490385 46.173077 408.490385 48.371795 408.490385 50.570513 408.490385 52.769231 408.490385 54.967949 408.490385 57.166667 408.490385 59.365385 408.490385 61.564103 408.490385 63.762821 408.490385 65.961538 408.490385 68.160256 408.490385 70.358974 408.490385 72.557692 408.490385 74.756410 408.490385 76.955128 408.490385 79.153846 408.490385 81.352564 408.490385 83.551282 408.490385 85.750000 408.490385 87.948718 408.490385 90.147436 408.490385 92.346154 408.490385 94.544872 408.490385 96.743590 408.490385 98.942308 408.490385 101.141026 408.490385 103.339744 408.490385 105.538462 408.490385 107.737179 408.490385 109.935897 408.490385 112.134615 408.490385 114.333333 408.490385 116.532051 408.490385 118.730769 408.490385 120.929487 408.490385 123.128205 408.490385 125.326923 408.490385 127.525641 408.490385 129.724359 408.490385 131.923077 408.490385 134.121795 408.490385 136.320513 408.490385 138.519231 408.490385 140.717949 408.490385 142.916667 408.490385 145.115385 408.490385 147.314103 407.455551 149.512821 407.455551 151.711538 405.385883 153.910256 405.385883 156.108974 404.351048 158.307692 404.351048 160.506410 404.351048 162.705128 404.351048 164.903846 402.281380 167.102564 402.281380 169.301282 402.281380 171.500000 402.281380 173.698718 402.281380 175.897436 403.316214 178.096154 401.246546 180.294872 402.281380 182.493590 401.246546 184.692308 401.246546 186.891026 398.142044 189.089744 396.072376 191.288462 389.863372 193.487179 381.584700 195.685897 377.445364 197.884615 372.271194 200.083333 361.922853 202.282051 363.992521 204.480769 356.748683 206.679487 354.679015 208.878205 352.609347 211.076923 349.504845 213.275641 352.609347 215.474359 358.818351 217.673077 363.992521 219.871795 368.131857 222.070513 367.097023 224.269231 376.410530 226.467949 372.271194 228.666667 379.515032 230.865385 379.515032 233.064103 376.410530 235.262821 382.619534 237.461538 380.549866 239.660256 378.480198 241.858974 380.549866 244.057692 380.549866 246.256410 379.515032 248.455128 380.549866 250.653846 382.619534 252.852564 380.549866 255.051282 376.410530 257.250000 373.306028 259.448718 368.131857 261.647436 368.131857 263.846154 367.097023 266.044872 332.947500 268.243590 330.877832 270.442308 325.703662 272.641026 306.041816 274.839744 284.310301 277.038462 242.916940 279.237179 204.628081 281.435897 172.548226 283.634615 65.960321 285.833333 50.437811 288.032051 15.253454 290.230769 43.193972 292.429487 36.984968 294.628205 42.159138 296.826923 49.402977 299.025641 57.681649 301.224359 83.552500 303.423077 123.911027 305.621795 148.747043 307.820513 257.404616 310.019231 216.011255 312.217949 252.230446 314.416667 235.673102 316.615385 238.777604 318.814103 237.742770 321.012821 234.638268 323.211538 249.125944 325.410256 264.648455 327.608974 265.683289 329.807692 280.170965 332.006410 267.752957 334.205128 326.738496 336.403846 327.773330 338.602564 350.539679 340.801282 355.713849 343.000000 363.992521 345.198718 379.515032 347.397436 380.549866 349.596154 378.480198 351.794872 382.619534 353.993590 382.619534 356.192308 398.142044 358.391026 399.176878 360.589744 400.211712 362.788462 399.176878 364.987179 398.142044 367.185897 398.142044 369.384615 399.176878 371.583333 399.176878 373.782051 402.281380 375.980769 399.176878 378.179487 400.211712 380.378205 400.211712 382.576923 400.211712 384.775641 398.142044 386.974359 396.072376 389.173077 398.142044 391.371795 398.142044 393.570513 398.142044 395.769231 398.142044 397.967949 399.176878 400.166667 402.281380 402.365385 402.281380 404.564103 402.281380 406.762821 402.281380 408.961538 404.351048 411.160256 408.490385 413.358974 408.490385 415.557692 407.455551 417.756410 407.455551 419.955128 407.455551 422.153846 407.455551 424.352564 407.455551 426.551282 407.455551 428.750000 407.455551 430.948718 406.420717 433.147436 406.420717 435.346154 406.420717 437.544872 406.420717 439.743590 407.455551 441.942308 407.455551 444.141026 407.455551 446.339744 407.455551 448.538462 407.455551 450.737179 407.455551 452.935897 407.455551 455.134615 408.490385 457.333333 408.490385 459.532051 408.490385 461.730769 408.490385 463.929487 408.490385 466.128205 408.490385 468.326923 408.490385 470.525641 408.490385 472.724359 408.490385 474.923077 408.490385 477.121795 408.490385 479.320513 408.490385 481.519231 408.490385 483.717949 408.490385 485.916667 408.490385 488.115385 408.490385 490.314103 408.490385 492.512821 408.490385 494.711538 408.490385 496.910256 408.490385 499.108974 408.490385 501.307692 408.490385 503.506410 408.490385 505.705128 408.490385 507.903846 408.490385 510.102564 408.490385 512.301282 408.490385 514.500000 408.490385 516.698718 408.490385 518.897436 408.490385 521.096154 408.490385 523.294872 408.490385 525.493590 408.490385 527.692308 408.490385 529.891026 408.490385 532.089744 408.490385 534.288462 408.490385 536.487179 408.490385 538.685897 408.490385 540.884615 408.490385 543.083333 408.490385 545.282051 408.490385 547.480769 408.490385 549.679487 408.490385 551.878205 408.490385 554.076923 408.490385 556.275641 408.490385 558.474359 408.490385 560.673077 408.490385 562.871795 408.490385 565.070513 408.490385 567.269231 408.490385 569.467949 408.490385 571.666667 408.490385 573.865385 408.490385 576.064103 408.490385 578.262821 408.490385 580.461538 408.490385 582.660256 408.490385 584.858974 408.490385 587.057692 408.490385 589.256410 408.490385 591.455128 408.490385 593.653846 408.490385 595.852564 408.490385 598.051282 408.490385 600.250000 408.490385 602.448718 408.490385 604.647436 408.490385 606.846154 408.490385 609.044872 408.490385 611.243590 408.490385 613.442308 408.490385 615.641026 408.490385 617.839744 408.490385 620.038462 408.490385 622.237179 408.490385 624.435897 408.490385 626.634615 408.490385 628.833333 408.490385 631.032051 408.490385 633.230769 408.490385 635.429487 408.490385 637.628205 408.490385 639.826923 408.490385 642.025641 408.490385 644.224359 408.490385 646.423077 408.490385 648.621795 408.490385 650.820513 408.490385 653.019231 408.490385 655.217949 408.490385 657.416667 408.490385 659.615385 408.490385 661.814103 408.490385 664.012821 408.490385 666.211538 408.490385 668.410256 408.490385 670.608974 408.490385 672.807692 408.490385"/></g></g><g class="titles"><text class="title plot_title" x="400.0" y="28">Percentage of Annotations for T ±5.0 BPM</text><text class="title" x="437.0" y="547.5">T (BPM)</text><text class="title" x="0" y="284.25" transform="rotate(-90 0.000000 256.250000)">Values (%)</text></g><g class="plot overlay" transform="translate(94, 48)"><g class="series serie-0 color-0"><g class="dots"><circle class="dot reactive tooltip-trigger" cx="13.192307692307692" cy="408.49038461538464" r="2.5"/><desc class="value">0.0</desc><desc class="x top">13.192307692307692</desc><desc class="y top">408.49038461538464</desc><desc class="x_label">0.0</desc></g><g class="dots"><circle class="dot reactive tooltip-trigger" cx="79.15384615384616" cy="408.49038461538464" r="2.5"/><desc class="value">0.0</desc><desc class="x top">79.15384615384616</desc><desc class="y top">408.49038461538464</desc><desc class="x_label">30.0</desc></g><g class="dots"><circle class="dot reactive tooltip-trigger" cx="145.11538461538458" cy="408.49038461538464" r="2.5"/><desc class="value">0.0</desc><desc class="x top">145.11538461538458</desc><desc class="y top">408.49038461538464</desc><desc class="x_label">60.0</desc></g><g class="dots"><circle class="dot reactive tooltip-trigger" cx="211.07692307692307" cy="349.50484496124034" r="2.5"/><desc class="value">7.4</desc><desc class="x top">211.07692307692307</desc><desc class="y top">349.50484496124034</desc><desc class="x_label">90.0</desc></g><g class="dots"><circle class="dot reactive tooltip-trigger" cx="277.03846153846155" cy="242.91693997217254" r="2.5"/><desc class="value">20.7</desc><desc class="x top">277.03846153846155</desc><desc class="y top">242.91693997217254</desc><desc class="x_label">120.0</desc></g><g class="dots"><circle class="dot reactive tooltip-trigger" cx="343.0" cy="363.99252136752136" r="2.5"/><desc class="value">5.6</desc><desc class="x top">343.0</desc><desc class="y top">363.99252136752136</desc><desc class="x_label">150.0</desc></g><g class="dots"><circle class="dot reactive tooltip-trigger" cx="408.96153846153845" cy="404.3510484993043" r="2.5"/><desc class="value">0.5</desc><desc class="x left top">408.96153846153845</desc><desc class="y left top">404.3510484993043</desc><desc class="x_label">180.0</desc></g><g class="dots"><circle class="dot reactive tooltip-trigger" cx="474.92307692307685" cy="408.49038461538464" r="2.5"/><desc class="value">0.0</desc><desc class="x left top">474.92307692307685</desc><desc class="y left top">408.49038461538464</desc><desc class="x_label">210.0</desc></g><g class="dots"><circle class="dot reactive tooltip-trigger" cx="540.8846153846155" cy="408.49038461538464" r="2.5"/><desc class="value">0.0</desc><desc class="x left top">540.8846153846155</desc><desc class="y left top">408.49038461538464</desc><desc class="x_label">240.0</desc></g><g class="dots"><circle class="dot reactive tooltip-trigger" cx="606.8461538461538" cy="408.49038461538464" r="2.5"/><desc class="value">0.0</desc><desc class="x left top">606.8461538461538</desc><desc class="y left top">408.49038461538464</desc><desc class="x_label">270.0</desc></g><g class="dots"><circle class="dot reactive tooltip-trigger" cx="672.8076923076923" cy="408.49038461538464" r="2.5"/><desc class="value">0.0</desc><desc class="x left top">672.8076923076923</desc><desc class="y left top">408.49038461538464</desc><desc class="x_label">300.0</desc></g></g></g><g class="plot text-overlay" transform="translate(94, 48)"><g class="series serie-0 color-0"/></g><g class="plot tooltip-overlay" transform="translate(94, 48)"><g class="tooltip" style="opacity: 0" transform="translate(0 0)"><rect class="tooltip-box" height="0" rx="0" ry="0" width="0"/><g class="text"/></g></g><g class="legends" transform="translate(104, 567)"><g class="legend reactive activate-serie" id="activate-serie-0"><rect class="color-0 reactive" height="12" width="12" x="0.0" y="1.5"/><text x="17.0" y="12.0">beatport_key/1.0</text></g></g></g></svg>