<?xml version="1.0" encoding="utf-8" standalone="no"?>
<!DOCTYPE svg PUBLIC "-//W3C//DTD SVG 1.1//EN"
  "http://www.w3.org/Graphics/SVG/1.1/DTD/svg11.dtd">
<!-- Created with matplotlib (https://matplotlib.org/) -->
<svg height="209.007975pt" version="1.1" viewBox="0 0 555.8825 209.007975" width="555.8825pt" xmlns="http://www.w3.org/2000/svg" xmlns:xlink="http://www.w3.org/1999/xlink">
 <defs>
  <style type="text/css">
*{stroke-linecap:butt;stroke-linejoin:round;}
  </style>
 </defs>
 <g id="figure_1">
  <g id="patch_1">
   <path d="M -0 209.007975 
L 555.8825 209.007975 
L 555.8825 0 
L -0 0 
z
" style="fill:#ffffff;"/>
  </g>
  <g id="axes_1">
   <g id="patch_2">
    <path d="M 117.7625 171.451725 
L 508.3625 171.451725 
L 508.3625 22.318125 
L 117.7625 22.318125 
z
" style="fill:#ffffff;"/>
   </g>
   <g id="PolyCollection_1">
    <defs>
     <path d="M 135.517045 -163.590868 
L 135.517045 -136.938687 
L 139.103822 -146.000142 
L 142.690599 -141.088263 
L 146.277376 -130.370721 
L 149.864153 -118.001438 
L 153.45093 -106.750259 
L 157.037707 -100.141388 
L 160.624483 -100.926982 
L 164.21126 -107.548443 
L 167.798037 -117.425913 
L 171.384814 -127.881009 
L 174.971591 -136.595766 
L 178.558368 -141.913957 
L 182.145145 -143.404652 
L 185.731921 -141.870194 
L 189.318698 -137.983867 
L 192.905475 -132.30451 
L 196.492252 -125.77639 
L 200.079029 -119.922878 
L 203.665806 -115.420784 
L 207.252583 -111.9492 
L 210.83936 -109.21316 
L 214.426136 -107.296605 
L 218.012913 -106.48356 
L 221.59969 -106.96941 
L 225.186467 -108.453908 
L 228.773244 -110.314032 
L 232.360021 -111.983768 
L 235.946798 -113.247559 
L 239.533574 -114.167262 
L 243.120351 -114.790499 
L 246.707128 -115.084892 
L 250.293905 -114.939735 
L 253.880682 -114.292372 
L 257.467459 -113.328808 
L 261.054236 -112.463781 
L 264.641012 -112.042742 
L 268.227789 -112.003028 
L 271.814566 -112.127627 
L 275.401343 -112.164885 
L 278.98812 -111.963973 
L 282.574897 -111.627496 
L 286.161674 -111.347181 
L 289.74845 -111.167216 
L 293.335227 -111.032705 
L 296.922004 -110.864592 
L 300.508781 -110.683931 
L 304.095558 -110.659548 
L 307.682335 -110.808474 
L 311.269112 -110.906531 
L 314.855888 -110.826064 
L 318.442665 -110.592976 
L 322.029442 -110.251211 
L 325.616219 -109.811605 
L 329.202996 -109.284417 
L 332.789773 -108.677208 
L 336.37655 -108.031024 
L 339.963326 -107.560618 
L 343.550103 -107.598411 
L 347.13688 -108.338154 
L 350.723657 -109.334914 
L 354.310434 -109.991863 
L 357.897211 -109.939399 
L 361.483988 -108.873181 
L 365.070764 -106.405837 
L 368.657541 -102.110846 
L 372.244318 -96.272829 
L 375.831095 -89.82377 
L 379.417872 -84.069628 
L 383.004649 -80.3375 
L 386.591426 -79.840256 
L 390.178202 -82.935418 
L 393.764979 -87.991096 
L 397.351756 -93.297267 
L 400.938533 -97.763994 
L 404.52531 -100.63203 
L 408.112087 -101.046507 
L 411.698864 -98.570986 
L 415.28564 -93.827257 
L 418.872417 -88.041359 
L 422.459194 -83.441136 
L 426.045971 -82.560624 
L 429.632748 -87.43394 
L 433.219525 -96.480033 
L 436.806302 -105.016742 
L 440.393079 -111.951544 
L 443.979855 -117.031884 
L 447.566632 -119.247893 
L 451.153409 -117.374926 
L 454.740186 -111.432789 
L 458.326963 -102.316061 
L 461.91374 -90.957085 
L 465.500517 -78.618698 
L 469.087293 -67.262307 
L 472.67407 -59.203671 
L 476.260847 -55.039648 
L 479.847624 -54.18994 
L 483.434401 -55.564416 
L 487.021178 -57.703525 
L 490.607955 -59.601493 
L 490.607955 -90.025701 
L 490.607955 -90.025701 
L 487.021178 -82.72762 
L 483.434401 -79.376763 
L 479.847624 -79.716995 
L 476.260847 -83.038404 
L 472.67407 -89.0005 
L 469.087293 -97.768598 
L 465.500517 -109.508032 
L 461.91374 -123.296681 
L 458.326963 -137.448788 
L 454.740186 -149.580026 
L 451.153409 -156.975574 
L 447.566632 -156.941166 
L 443.979855 -148.959563 
L 440.393079 -135.758613 
L 436.806302 -120.640307 
L 433.219525 -107.663955 
L 429.632748 -100.048895 
L 426.045971 -97.236225 
L 422.459194 -97.9754 
L 418.872417 -101.118475 
L 415.28564 -105.884964 
L 411.698864 -111.188187 
L 408.112087 -114.939662 
L 404.52531 -114.794759 
L 400.938533 -110.871355 
L 397.351756 -104.913205 
L 393.764979 -98.784868 
L 390.178202 -94.020211 
L 386.591426 -91.533018 
L 383.004649 -91.791056 
L 379.417872 -94.259136 
L 375.831095 -98.197165 
L 372.244318 -102.978035 
L 368.657541 -107.953498 
L 365.070764 -112.101433 
L 361.483988 -114.330292 
L 357.897211 -114.776362 
L 354.310434 -114.021264 
L 350.723657 -112.729648 
L 347.13688 -111.500904 
L 343.550103 -110.704297 
L 339.963326 -110.452938 
L 336.37655 -110.673377 
L 332.789773 -111.331282 
L 329.202996 -112.274652 
L 325.616219 -113.177777 
L 322.029442 -113.68795 
L 318.442665 -113.690481 
L 314.855888 -113.367652 
L 311.269112 -112.953751 
L 307.682335 -112.665021 
L 304.095558 -112.564153 
L 300.508781 -112.60755 
L 296.922004 -112.839767 
L 293.335227 -113.335631 
L 289.74845 -114.018847 
L 286.161674 -114.71301 
L 282.574897 -115.265875 
L 278.98812 -115.638418 
L 275.401343 -116.056309 
L 271.814566 -116.714036 
L 268.227789 -117.553055 
L 264.641012 -118.414006 
L 261.054236 -119.172166 
L 257.467459 -119.801693 
L 253.880682 -120.420069 
L 250.293905 -121.135139 
L 246.707128 -121.826004 
L 243.120351 -122.123099 
L 239.533574 -121.609046 
L 235.946798 -120.142988 
L 232.360021 -118.223441 
L 228.773244 -116.461138 
L 225.186467 -115.189396 
L 221.59969 -114.391075 
L 218.012913 -113.990142 
L 214.426136 -114.080202 
L 210.83936 -114.986765 
L 207.252583 -117.097901 
L 203.665806 -120.601598 
L 200.079029 -125.306937 
L 196.492252 -130.959672 
L 192.905475 -137.311992 
L 189.318698 -143.892278 
L 185.731921 -149.596586 
L 182.145145 -152.935542 
L 178.558368 -152.534216 
L 174.971591 -147.433821 
L 171.384814 -139.028784 
L 167.798037 -129.926166 
L 164.21126 -122.117886 
L 160.624483 -117.235442 
L 157.037707 -117.008856 
L 153.45093 -123.136756 
L 149.864153 -134.410691 
L 146.277376 -147.36672 
L 142.690599 -157.77619 
L 139.103822 -162.794516 
L 135.517045 -163.590868 
z
" id="m9b5b656dc6" style="stroke:#d3d3d3;"/>
    </defs>
    <g clip-path="url(#p56a8f8f5d6)">
     <use style="fill:#d3d3d3;stroke:#d3d3d3;" x="0" xlink:href="#m9b5b656dc6" y="209.007975"/>
    </g>
   </g>
   <g id="matplotlib.axis_1">
    <g id="xtick_1">
     <g id="line2d_1">
      <path clip-path="url(#p56a8f8f5d6)" d="M 119.001189 171.451725 
L 119.001189 22.318125 
" style="fill:none;stroke:#b0b0b0;stroke-linecap:square;stroke-width:0.8;"/>
     </g>
     <g id="line2d_2">
      <defs>
       <path d="M 0 0 
L 0 3.5 
" id="mf60c249e28" style="stroke:#000000;stroke-width:0.8;"/>
      </defs>
      <g>
       <use style="stroke:#000000;stroke-width:0.8;" x="119.001189" xlink:href="#mf60c249e28" y="171.451725"/>
      </g>
     </g>
     <g id="text_1">
      <!-- 60 -->
      <defs>
       <path d="M 33.015625 40.375 
Q 26.375 40.375 22.484375 35.828125 
Q 18.609375 31.296875 18.609375 23.390625 
Q 18.609375 15.53125 22.484375 10.953125 
Q 26.375 6.390625 33.015625 6.390625 
Q 39.65625 6.390625 43.53125 10.953125 
Q 47.40625 15.53125 47.40625 23.390625 
Q 47.40625 31.296875 43.53125 35.828125 
Q 39.65625 40.375 33.015625 40.375 
z
M 52.59375 71.296875 
L 52.59375 62.3125 
Q 48.875 64.0625 45.09375 64.984375 
Q 41.3125 65.921875 37.59375 65.921875 
Q 27.828125 65.921875 22.671875 59.328125 
Q 17.53125 52.734375 16.796875 39.40625 
Q 19.671875 43.65625 24.015625 45.921875 
Q 28.375 48.1875 33.59375 48.1875 
Q 44.578125 48.1875 50.953125 41.515625 
Q 57.328125 34.859375 57.328125 23.390625 
Q 57.328125 12.15625 50.6875 5.359375 
Q 44.046875 -1.421875 33.015625 -1.421875 
Q 20.359375 -1.421875 13.671875 8.265625 
Q 6.984375 17.96875 6.984375 36.375 
Q 6.984375 53.65625 15.1875 63.9375 
Q 23.390625 74.21875 37.203125 74.21875 
Q 40.921875 74.21875 44.703125 73.484375 
Q 48.484375 72.75 52.59375 71.296875 
z
" id="DejaVuSans-54"/>
       <path d="M 31.78125 66.40625 
Q 24.171875 66.40625 20.328125 58.90625 
Q 16.5 51.421875 16.5 36.375 
Q 16.5 21.390625 20.328125 13.890625 
Q 24.171875 6.390625 31.78125 6.390625 
Q 39.453125 6.390625 43.28125 13.890625 
Q 47.125 21.390625 47.125 36.375 
Q 47.125 51.421875 43.28125 58.90625 
Q 39.453125 66.40625 31.78125 66.40625 
z
M 31.78125 74.21875 
Q 44.046875 74.21875 50.515625 64.515625 
Q 56.984375 54.828125 56.984375 36.375 
Q 56.984375 17.96875 50.515625 8.265625 
Q 44.046875 -1.421875 31.78125 -1.421875 
Q 19.53125 -1.421875 13.0625 8.265625 
Q 6.59375 17.96875 6.59375 36.375 
Q 6.59375 54.828125 13.0625 64.515625 
Q 19.53125 74.21875 31.78125 74.21875 
z
" id="DejaVuSans-48"/>
      </defs>
      <g transform="translate(112.638689 186.050162)scale(0.1 -0.1)">
       <use xlink:href="#DejaVuSans-54"/>
       <use x="63.623047" xlink:href="#DejaVuSans-48"/>
      </g>
     </g>
    </g>
    <g id="xtick_2">
     <g id="line2d_3">
      <path clip-path="url(#p56a8f8f5d6)" d="M 174.054043 171.451725 
L 174.054043 22.318125 
" style="fill:none;stroke:#b0b0b0;stroke-linecap:square;stroke-width:0.8;"/>
     </g>
     <g id="line2d_4">
      <g>
       <use style="stroke:#000000;stroke-width:0.8;" x="174.054043" xlink:href="#mf60c249e28" y="171.451725"/>
      </g>
     </g>
     <g id="text_2">
      <!-- 80 -->
      <defs>
       <path d="M 31.78125 34.625 
Q 24.75 34.625 20.71875 30.859375 
Q 16.703125 27.09375 16.703125 20.515625 
Q 16.703125 13.921875 20.71875 10.15625 
Q 24.75 6.390625 31.78125 6.390625 
Q 38.8125 6.390625 42.859375 10.171875 
Q 46.921875 13.96875 46.921875 20.515625 
Q 46.921875 27.09375 42.890625 30.859375 
Q 38.875 34.625 31.78125 34.625 
z
M 21.921875 38.8125 
Q 15.578125 40.375 12.03125 44.71875 
Q 8.5 49.078125 8.5 55.328125 
Q 8.5 64.0625 14.71875 69.140625 
Q 20.953125 74.21875 31.78125 74.21875 
Q 42.671875 74.21875 48.875 69.140625 
Q 55.078125 64.0625 55.078125 55.328125 
Q 55.078125 49.078125 51.53125 44.71875 
Q 48 40.375 41.703125 38.8125 
Q 48.828125 37.15625 52.796875 32.3125 
Q 56.78125 27.484375 56.78125 20.515625 
Q 56.78125 9.90625 50.3125 4.234375 
Q 43.84375 -1.421875 31.78125 -1.421875 
Q 19.734375 -1.421875 13.25 4.234375 
Q 6.78125 9.90625 6.78125 20.515625 
Q 6.78125 27.484375 10.78125 32.3125 
Q 14.796875 37.15625 21.921875 38.8125 
z
M 18.3125 54.390625 
Q 18.3125 48.734375 21.84375 45.5625 
Q 25.390625 42.390625 31.78125 42.390625 
Q 38.140625 42.390625 41.71875 45.5625 
Q 45.3125 48.734375 45.3125 54.390625 
Q 45.3125 60.0625 41.71875 63.234375 
Q 38.140625 66.40625 31.78125 66.40625 
Q 25.390625 66.40625 21.84375 63.234375 
Q 18.3125 60.0625 18.3125 54.390625 
z
" id="DejaVuSans-56"/>
      </defs>
      <g transform="translate(167.691543 186.050162)scale(0.1 -0.1)">
       <use xlink:href="#DejaVuSans-56"/>
       <use x="63.623047" xlink:href="#DejaVuSans-48"/>
      </g>
     </g>
    </g>
    <g id="xtick_3">
     <g id="line2d_5">
      <path clip-path="url(#p56a8f8f5d6)" d="M 229.106897 171.451725 
L 229.106897 22.318125 
" style="fill:none;stroke:#b0b0b0;stroke-linecap:square;stroke-width:0.8;"/>
     </g>
     <g id="line2d_6">
      <g>
       <use style="stroke:#000000;stroke-width:0.8;" x="229.106897" xlink:href="#mf60c249e28" y="171.451725"/>
      </g>
     </g>
     <g id="text_3">
      <!-- 100 -->
      <defs>
       <path d="M 12.40625 8.296875 
L 28.515625 8.296875 
L 28.515625 63.921875 
L 10.984375 60.40625 
L 10.984375 69.390625 
L 28.421875 72.90625 
L 38.28125 72.90625 
L 38.28125 8.296875 
L 54.390625 8.296875 
L 54.390625 0 
L 12.40625 0 
z
" id="DejaVuSans-49"/>
      </defs>
      <g transform="translate(219.563147 186.050162)scale(0.1 -0.1)">
       <use xlink:href="#DejaVuSans-49"/>
       <use x="63.623047" xlink:href="#DejaVuSans-48"/>
       <use x="127.246094" xlink:href="#DejaVuSans-48"/>
      </g>
     </g>
    </g>
    <g id="xtick_4">
     <g id="line2d_7">
      <path clip-path="url(#p56a8f8f5d6)" d="M 284.159752 171.451725 
L 284.159752 22.318125 
" style="fill:none;stroke:#b0b0b0;stroke-linecap:square;stroke-width:0.8;"/>
     </g>
     <g id="line2d_8">
      <g>
       <use style="stroke:#000000;stroke-width:0.8;" x="284.159752" xlink:href="#mf60c249e28" y="171.451725"/>
      </g>
     </g>
     <g id="text_4">
      <!-- 120 -->
      <defs>
       <path d="M 19.1875 8.296875 
L 53.609375 8.296875 
L 53.609375 0 
L 7.328125 0 
L 7.328125 8.296875 
Q 12.9375 14.109375 22.625 23.890625 
Q 32.328125 33.6875 34.8125 36.53125 
Q 39.546875 41.84375 41.421875 45.53125 
Q 43.3125 49.21875 43.3125 52.78125 
Q 43.3125 58.59375 39.234375 62.25 
Q 35.15625 65.921875 28.609375 65.921875 
Q 23.96875 65.921875 18.8125 64.3125 
Q 13.671875 62.703125 7.8125 59.421875 
L 7.8125 69.390625 
Q 13.765625 71.78125 18.9375 73 
Q 24.125 74.21875 28.421875 74.21875 
Q 39.75 74.21875 46.484375 68.546875 
Q 53.21875 62.890625 53.21875 53.421875 
Q 53.21875 48.921875 51.53125 44.890625 
Q 49.859375 40.875 45.40625 35.40625 
Q 44.1875 33.984375 37.640625 27.21875 
Q 31.109375 20.453125 19.1875 8.296875 
z
" id="DejaVuSans-50"/>
      </defs>
      <g transform="translate(274.616002 186.050162)scale(0.1 -0.1)">
       <use xlink:href="#DejaVuSans-49"/>
       <use x="63.623047" xlink:href="#DejaVuSans-50"/>
       <use x="127.246094" xlink:href="#DejaVuSans-48"/>
      </g>
     </g>
    </g>
    <g id="xtick_5">
     <g id="line2d_9">
      <path clip-path="url(#p56a8f8f5d6)" d="M 339.212606 171.451725 
L 339.212606 22.318125 
" style="fill:none;stroke:#b0b0b0;stroke-linecap:square;stroke-width:0.8;"/>
     </g>
     <g id="line2d_10">
      <g>
       <use style="stroke:#000000;stroke-width:0.8;" x="339.212606" xlink:href="#mf60c249e28" y="171.451725"/>
      </g>
     </g>
     <g id="text_5">
      <!-- 140 -->
      <defs>
       <path d="M 37.796875 64.3125 
L 12.890625 25.390625 
L 37.796875 25.390625 
z
M 35.203125 72.90625 
L 47.609375 72.90625 
L 47.609375 25.390625 
L 58.015625 25.390625 
L 58.015625 17.1875 
L 47.609375 17.1875 
L 47.609375 0 
L 37.796875 0 
L 37.796875 17.1875 
L 4.890625 17.1875 
L 4.890625 26.703125 
z
" id="DejaVuSans-52"/>
      </defs>
      <g transform="translate(329.668856 186.050162)scale(0.1 -0.1)">
       <use xlink:href="#DejaVuSans-49"/>
       <use x="63.623047" xlink:href="#DejaVuSans-52"/>
       <use x="127.246094" xlink:href="#DejaVuSans-48"/>
      </g>
     </g>
    </g>
    <g id="xtick_6">
     <g id="line2d_11">
      <path clip-path="url(#p56a8f8f5d6)" d="M 394.26546 171.451725 
L 394.26546 22.318125 
" style="fill:none;stroke:#b0b0b0;stroke-linecap:square;stroke-width:0.8;"/>
     </g>
     <g id="line2d_12">
      <g>
       <use style="stroke:#000000;stroke-width:0.8;" x="394.26546" xlink:href="#mf60c249e28" y="171.451725"/>
      </g>
     </g>
     <g id="text_6">
      <!-- 160 -->
      <g transform="translate(384.72171 186.050162)scale(0.1 -0.1)">
       <use xlink:href="#DejaVuSans-49"/>
       <use x="63.623047" xlink:href="#DejaVuSans-54"/>
       <use x="127.246094" xlink:href="#DejaVuSans-48"/>
      </g>
     </g>
    </g>
    <g id="xtick_7">
     <g id="line2d_13">
      <path clip-path="url(#p56a8f8f5d6)" d="M 449.318314 171.451725 
L 449.318314 22.318125 
" style="fill:none;stroke:#b0b0b0;stroke-linecap:square;stroke-width:0.8;"/>
     </g>
     <g id="line2d_14">
      <g>
       <use style="stroke:#000000;stroke-width:0.8;" x="449.318314" xlink:href="#mf60c249e28" y="171.451725"/>
      </g>
     </g>
     <g id="text_7">
      <!-- 180 -->
      <g transform="translate(439.774564 186.050162)scale(0.1 -0.1)">
       <use xlink:href="#DejaVuSans-49"/>
       <use x="63.623047" xlink:href="#DejaVuSans-56"/>
       <use x="127.246094" xlink:href="#DejaVuSans-48"/>
      </g>
     </g>
    </g>
    <g id="xtick_8">
     <g id="line2d_15">
      <path clip-path="url(#p56a8f8f5d6)" d="M 504.371168 171.451725 
L 504.371168 22.318125 
" style="fill:none;stroke:#b0b0b0;stroke-linecap:square;stroke-width:0.8;"/>
     </g>
     <g id="line2d_16">
      <g>
       <use style="stroke:#000000;stroke-width:0.8;" x="504.371168" xlink:href="#mf60c249e28" y="171.451725"/>
      </g>
     </g>
     <g id="text_8">
      <!-- 200 -->
      <g transform="translate(494.827418 186.050162)scale(0.1 -0.1)">
       <use xlink:href="#DejaVuSans-50"/>
       <use x="63.623047" xlink:href="#DejaVuSans-48"/>
       <use x="127.246094" xlink:href="#DejaVuSans-48"/>
      </g>
     </g>
    </g>
    <g id="text_9">
     <!-- Tempo (BPM) -->
     <defs>
      <path d="M -0.296875 72.90625 
L 61.375 72.90625 
L 61.375 64.59375 
L 35.5 64.59375 
L 35.5 0 
L 25.59375 0 
L 25.59375 64.59375 
L -0.296875 64.59375 
z
" id="DejaVuSans-84"/>
      <path d="M 56.203125 29.59375 
L 56.203125 25.203125 
L 14.890625 25.203125 
Q 15.484375 15.921875 20.484375 11.0625 
Q 25.484375 6.203125 34.421875 6.203125 
Q 39.59375 6.203125 44.453125 7.46875 
Q 49.3125 8.734375 54.109375 11.28125 
L 54.109375 2.78125 
Q 49.265625 0.734375 44.1875 -0.34375 
Q 39.109375 -1.421875 33.890625 -1.421875 
Q 20.796875 -1.421875 13.15625 6.1875 
Q 5.515625 13.8125 5.515625 26.8125 
Q 5.515625 40.234375 12.765625 48.109375 
Q 20.015625 56 32.328125 56 
Q 43.359375 56 49.78125 48.890625 
Q 56.203125 41.796875 56.203125 29.59375 
z
M 47.21875 32.234375 
Q 47.125 39.59375 43.09375 43.984375 
Q 39.0625 48.390625 32.421875 48.390625 
Q 24.90625 48.390625 20.390625 44.140625 
Q 15.875 39.890625 15.1875 32.171875 
z
" id="DejaVuSans-101"/>
      <path d="M 52 44.1875 
Q 55.375 50.25 60.0625 53.125 
Q 64.75 56 71.09375 56 
Q 79.640625 56 84.28125 50.015625 
Q 88.921875 44.046875 88.921875 33.015625 
L 88.921875 0 
L 79.890625 0 
L 79.890625 32.71875 
Q 79.890625 40.578125 77.09375 44.375 
Q 74.3125 48.1875 68.609375 48.1875 
Q 61.625 48.1875 57.5625 43.546875 
Q 53.515625 38.921875 53.515625 30.90625 
L 53.515625 0 
L 44.484375 0 
L 44.484375 32.71875 
Q 44.484375 40.625 41.703125 44.40625 
Q 38.921875 48.1875 33.109375 48.1875 
Q 26.21875 48.1875 22.15625 43.53125 
Q 18.109375 38.875 18.109375 30.90625 
L 18.109375 0 
L 9.078125 0 
L 9.078125 54.6875 
L 18.109375 54.6875 
L 18.109375 46.1875 
Q 21.1875 51.21875 25.484375 53.609375 
Q 29.78125 56 35.6875 56 
Q 41.65625 56 45.828125 52.96875 
Q 50 49.953125 52 44.1875 
z
" id="DejaVuSans-109"/>
      <path d="M 18.109375 8.203125 
L 18.109375 -20.796875 
L 9.078125 -20.796875 
L 9.078125 54.6875 
L 18.109375 54.6875 
L 18.109375 46.390625 
Q 20.953125 51.265625 25.265625 53.625 
Q 29.59375 56 35.59375 56 
Q 45.5625 56 51.78125 48.09375 
Q 58.015625 40.1875 58.015625 27.296875 
Q 58.015625 14.40625 51.78125 6.484375 
Q 45.5625 -1.421875 35.59375 -1.421875 
Q 29.59375 -1.421875 25.265625 0.953125 
Q 20.953125 3.328125 18.109375 8.203125 
z
M 48.6875 27.296875 
Q 48.6875 37.203125 44.609375 42.84375 
Q 40.53125 48.484375 33.40625 48.484375 
Q 26.265625 48.484375 22.1875 42.84375 
Q 18.109375 37.203125 18.109375 27.296875 
Q 18.109375 17.390625 22.1875 11.75 
Q 26.265625 6.109375 33.40625 6.109375 
Q 40.53125 6.109375 44.609375 11.75 
Q 48.6875 17.390625 48.6875 27.296875 
z
" id="DejaVuSans-112"/>
      <path d="M 30.609375 48.390625 
Q 23.390625 48.390625 19.1875 42.75 
Q 14.984375 37.109375 14.984375 27.296875 
Q 14.984375 17.484375 19.15625 11.84375 
Q 23.34375 6.203125 30.609375 6.203125 
Q 37.796875 6.203125 41.984375 11.859375 
Q 46.1875 17.53125 46.1875 27.296875 
Q 46.1875 37.015625 41.984375 42.703125 
Q 37.796875 48.390625 30.609375 48.390625 
z
M 30.609375 56 
Q 42.328125 56 49.015625 48.375 
Q 55.71875 40.765625 55.71875 27.296875 
Q 55.71875 13.875 49.015625 6.21875 
Q 42.328125 -1.421875 30.609375 -1.421875 
Q 18.84375 -1.421875 12.171875 6.21875 
Q 5.515625 13.875 5.515625 27.296875 
Q 5.515625 40.765625 12.171875 48.375 
Q 18.84375 56 30.609375 56 
z
" id="DejaVuSans-111"/>
      <path id="DejaVuSans-32"/>
      <path d="M 31 75.875 
Q 24.46875 64.65625 21.28125 53.65625 
Q 18.109375 42.671875 18.109375 31.390625 
Q 18.109375 20.125 21.3125 9.0625 
Q 24.515625 -2 31 -13.1875 
L 23.1875 -13.1875 
Q 15.875 -1.703125 12.234375 9.375 
Q 8.59375 20.453125 8.59375 31.390625 
Q 8.59375 42.28125 12.203125 53.3125 
Q 15.828125 64.359375 23.1875 75.875 
z
" id="DejaVuSans-40"/>
      <path d="M 19.671875 34.8125 
L 19.671875 8.109375 
L 35.5 8.109375 
Q 43.453125 8.109375 47.28125 11.40625 
Q 51.125 14.703125 51.125 21.484375 
Q 51.125 28.328125 47.28125 31.5625 
Q 43.453125 34.8125 35.5 34.8125 
z
M 19.671875 64.796875 
L 19.671875 42.828125 
L 34.28125 42.828125 
Q 41.5 42.828125 45.03125 45.53125 
Q 48.578125 48.25 48.578125 53.8125 
Q 48.578125 59.328125 45.03125 62.0625 
Q 41.5 64.796875 34.28125 64.796875 
z
M 9.8125 72.90625 
L 35.015625 72.90625 
Q 46.296875 72.90625 52.390625 68.21875 
Q 58.5 63.53125 58.5 54.890625 
Q 58.5 48.1875 55.375 44.234375 
Q 52.25 40.28125 46.1875 39.3125 
Q 53.46875 37.75 57.5 32.78125 
Q 61.53125 27.828125 61.53125 20.40625 
Q 61.53125 10.640625 54.890625 5.3125 
Q 48.25 0 35.984375 0 
L 9.8125 0 
z
" id="DejaVuSans-66"/>
      <path d="M 19.671875 64.796875 
L 19.671875 37.40625 
L 32.078125 37.40625 
Q 38.96875 37.40625 42.71875 40.96875 
Q 46.484375 44.53125 46.484375 51.125 
Q 46.484375 57.671875 42.71875 61.234375 
Q 38.96875 64.796875 32.078125 64.796875 
z
M 9.8125 72.90625 
L 32.078125 72.90625 
Q 44.34375 72.90625 50.609375 67.359375 
Q 56.890625 61.8125 56.890625 51.125 
Q 56.890625 40.328125 50.609375 34.8125 
Q 44.34375 29.296875 32.078125 29.296875 
L 19.671875 29.296875 
L 19.671875 0 
L 9.8125 0 
z
" id="DejaVuSans-80"/>
      <path d="M 9.8125 72.90625 
L 24.515625 72.90625 
L 43.109375 23.296875 
L 61.8125 72.90625 
L 76.515625 72.90625 
L 76.515625 0 
L 66.890625 0 
L 66.890625 64.015625 
L 48.09375 14.015625 
L 38.1875 14.015625 
L 19.390625 64.015625 
L 19.390625 0 
L 9.8125 0 
z
" id="DejaVuSans-77"/>
      <path d="M 8.015625 75.875 
L 15.828125 75.875 
Q 23.140625 64.359375 26.78125 53.3125 
Q 30.421875 42.28125 30.421875 31.390625 
Q 30.421875 20.453125 26.78125 9.375 
Q 23.140625 -1.703125 15.828125 -13.1875 
L 8.015625 -13.1875 
Q 14.5 -2 17.703125 9.0625 
Q 20.90625 20.125 20.90625 31.390625 
Q 20.90625 42.671875 17.703125 53.65625 
Q 14.5 64.65625 8.015625 75.875 
z
" id="DejaVuSans-41"/>
     </defs>
     <g transform="translate(280.428125 199.728288)scale(0.1 -0.1)">
      <use xlink:href="#DejaVuSans-84"/>
      <use x="44.083984" xlink:href="#DejaVuSans-101"/>
      <use x="105.607422" xlink:href="#DejaVuSans-109"/>
      <use x="203.019531" xlink:href="#DejaVuSans-112"/>
      <use x="266.496094" xlink:href="#DejaVuSans-111"/>
      <use x="327.677734" xlink:href="#DejaVuSans-32"/>
      <use x="359.464844" xlink:href="#DejaVuSans-40"/>
      <use x="398.478516" xlink:href="#DejaVuSans-66"/>
      <use x="467.082031" xlink:href="#DejaVuSans-80"/>
      <use x="527.384766" xlink:href="#DejaVuSans-77"/>
      <use x="613.664062" xlink:href="#DejaVuSans-41"/>
     </g>
    </g>
   </g>
   <g id="matplotlib.axis_2">
    <g id="ytick_1">
     <g id="line2d_17">
      <path clip-path="url(#p56a8f8f5d6)" d="M 117.7625 171.451725 
L 508.3625 171.451725 
" style="fill:none;stroke:#b0b0b0;stroke-linecap:square;stroke-width:0.8;"/>
     </g>
     <g id="line2d_18">
      <defs>
       <path d="M 0 0 
L -3.5 0 
" id="md99d6ce20c" style="stroke:#000000;stroke-width:0.8;"/>
      </defs>
      <g>
       <use style="stroke:#000000;stroke-width:0.8;" x="117.7625" xlink:href="#md99d6ce20c" y="171.451725"/>
      </g>
     </g>
     <g id="text_10">
      <!-- −2 -->
      <defs>
       <path d="M 10.59375 35.5 
L 73.1875 35.5 
L 73.1875 27.203125 
L 10.59375 27.203125 
z
" id="DejaVuSans-8722"/>
      </defs>
      <g transform="translate(96.020313 175.250944)scale(0.1 -0.1)">
       <use xlink:href="#DejaVuSans-8722"/>
       <use x="83.789062" xlink:href="#DejaVuSans-50"/>
      </g>
     </g>
    </g>
    <g id="ytick_2">
     <g id="line2d_19">
      <path clip-path="url(#p56a8f8f5d6)" d="M 117.7625 134.168325 
L 508.3625 134.168325 
" style="fill:none;stroke:#b0b0b0;stroke-linecap:square;stroke-width:0.8;"/>
     </g>
     <g id="line2d_20">
      <g>
       <use style="stroke:#000000;stroke-width:0.8;" x="117.7625" xlink:href="#md99d6ce20c" y="134.168325"/>
      </g>
     </g>
     <g id="text_11">
      <!-- −1 -->
      <g transform="translate(96.020313 137.967544)scale(0.1 -0.1)">
       <use xlink:href="#DejaVuSans-8722"/>
       <use x="83.789062" xlink:href="#DejaVuSans-49"/>
      </g>
     </g>
    </g>
    <g id="ytick_3">
     <g id="line2d_21">
      <path clip-path="url(#p56a8f8f5d6)" d="M 117.7625 96.884925 
L 508.3625 96.884925 
" style="fill:none;stroke:#b0b0b0;stroke-linecap:square;stroke-width:0.8;"/>
     </g>
     <g id="line2d_22">
      <g>
       <use style="stroke:#000000;stroke-width:0.8;" x="117.7625" xlink:href="#md99d6ce20c" y="96.884925"/>
      </g>
     </g>
     <g id="text_12">
      <!-- 0 -->
      <g transform="translate(104.4 100.684144)scale(0.1 -0.1)">
       <use xlink:href="#DejaVuSans-48"/>
      </g>
     </g>
    </g>
    <g id="ytick_4">
     <g id="line2d_23">
      <path clip-path="url(#p56a8f8f5d6)" d="M 117.7625 59.601525 
L 508.3625 59.601525 
" style="fill:none;stroke:#b0b0b0;stroke-linecap:square;stroke-width:0.8;"/>
     </g>
     <g id="line2d_24">
      <g>
       <use style="stroke:#000000;stroke-width:0.8;" x="117.7625" xlink:href="#md99d6ce20c" y="59.601525"/>
      </g>
     </g>
     <g id="text_13">
      <!-- 1 -->
      <g transform="translate(104.4 63.400744)scale(0.1 -0.1)">
       <use xlink:href="#DejaVuSans-49"/>
      </g>
     </g>
    </g>
    <g id="ytick_5">
     <g id="line2d_25">
      <path clip-path="url(#p56a8f8f5d6)" d="M 117.7625 22.318125 
L 508.3625 22.318125 
" style="fill:none;stroke:#b0b0b0;stroke-linecap:square;stroke-width:0.8;"/>
     </g>
     <g id="line2d_26">
      <g>
       <use style="stroke:#000000;stroke-width:0.8;" x="117.7625" xlink:href="#md99d6ce20c" y="22.318125"/>
      </g>
     </g>
     <g id="text_14">
      <!-- 2 -->
      <g transform="translate(104.4 26.117344)scale(0.1 -0.1)">
       <use xlink:href="#DejaVuSans-50"/>
      </g>
     </g>
    </g>
    <g id="text_15">
     <!-- beatport_key/1.0 -->
     <defs>
      <path d="M 48.6875 27.296875 
Q 48.6875 37.203125 44.609375 42.84375 
Q 40.53125 48.484375 33.40625 48.484375 
Q 26.265625 48.484375 22.1875 42.84375 
Q 18.109375 37.203125 18.109375 27.296875 
Q 18.109375 17.390625 22.1875 11.75 
Q 26.265625 6.109375 33.40625 6.109375 
Q 40.53125 6.109375 44.609375 11.75 
Q 48.6875 17.390625 48.6875 27.296875 
z
M 18.109375 46.390625 
Q 20.953125 51.265625 25.265625 53.625 
Q 29.59375 56 35.59375 56 
Q 45.5625 56 51.78125 48.09375 
Q 58.015625 40.1875 58.015625 27.296875 
Q 58.015625 14.40625 51.78125 6.484375 
Q 45.5625 -1.421875 35.59375 -1.421875 
Q 29.59375 -1.421875 25.265625 0.953125 
Q 20.953125 3.328125 18.109375 8.203125 
L 18.109375 0 
L 9.078125 0 
L 9.078125 75.984375 
L 18.109375 75.984375 
z
" id="DejaVuSans-98"/>
      <path d="M 34.28125 27.484375 
Q 23.390625 27.484375 19.1875 25 
Q 14.984375 22.515625 14.984375 16.5 
Q 14.984375 11.71875 18.140625 8.90625 
Q 21.296875 6.109375 26.703125 6.109375 
Q 34.1875 6.109375 38.703125 11.40625 
Q 43.21875 16.703125 43.21875 25.484375 
L 43.21875 27.484375 
z
M 52.203125 31.203125 
L 52.203125 0 
L 43.21875 0 
L 43.21875 8.296875 
Q 40.140625 3.328125 35.546875 0.953125 
Q 30.953125 -1.421875 24.3125 -1.421875 
Q 15.921875 -1.421875 10.953125 3.296875 
Q 6 8.015625 6 15.921875 
Q 6 25.140625 12.171875 29.828125 
Q 18.359375 34.515625 30.609375 34.515625 
L 43.21875 34.515625 
L 43.21875 35.40625 
Q 43.21875 41.609375 39.140625 45 
Q 35.0625 48.390625 27.6875 48.390625 
Q 23 48.390625 18.546875 47.265625 
Q 14.109375 46.140625 10.015625 43.890625 
L 10.015625 52.203125 
Q 14.9375 54.109375 19.578125 55.046875 
Q 24.21875 56 28.609375 56 
Q 40.484375 56 46.34375 49.84375 
Q 52.203125 43.703125 52.203125 31.203125 
z
" id="DejaVuSans-97"/>
      <path d="M 18.3125 70.21875 
L 18.3125 54.6875 
L 36.8125 54.6875 
L 36.8125 47.703125 
L 18.3125 47.703125 
L 18.3125 18.015625 
Q 18.3125 11.328125 20.140625 9.421875 
Q 21.96875 7.515625 27.59375 7.515625 
L 36.8125 7.515625 
L 36.8125 0 
L 27.59375 0 
Q 17.1875 0 13.234375 3.875 
Q 9.28125 7.765625 9.28125 18.015625 
L 9.28125 47.703125 
L 2.6875 47.703125 
L 2.6875 54.6875 
L 9.28125 54.6875 
L 9.28125 70.21875 
z
" id="DejaVuSans-116"/>
      <path d="M 41.109375 46.296875 
Q 39.59375 47.171875 37.8125 47.578125 
Q 36.03125 48 33.890625 48 
Q 26.265625 48 22.1875 43.046875 
Q 18.109375 38.09375 18.109375 28.8125 
L 18.109375 0 
L 9.078125 0 
L 9.078125 54.6875 
L 18.109375 54.6875 
L 18.109375 46.1875 
Q 20.953125 51.171875 25.484375 53.578125 
Q 30.03125 56 36.53125 56 
Q 37.453125 56 38.578125 55.875 
Q 39.703125 55.765625 41.0625 55.515625 
z
" id="DejaVuSans-114"/>
      <path d="M 50.984375 -16.609375 
L 50.984375 -23.578125 
L -0.984375 -23.578125 
L -0.984375 -16.609375 
z
" id="DejaVuSans-95"/>
      <path d="M 9.078125 75.984375 
L 18.109375 75.984375 
L 18.109375 31.109375 
L 44.921875 54.6875 
L 56.390625 54.6875 
L 27.390625 29.109375 
L 57.625 0 
L 45.90625 0 
L 18.109375 26.703125 
L 18.109375 0 
L 9.078125 0 
z
" id="DejaVuSans-107"/>
      <path d="M 32.171875 -5.078125 
Q 28.375 -14.84375 24.75 -17.8125 
Q 21.140625 -20.796875 15.09375 -20.796875 
L 7.90625 -20.796875 
L 7.90625 -13.28125 
L 13.1875 -13.28125 
Q 16.890625 -13.28125 18.9375 -11.515625 
Q 21 -9.765625 23.484375 -3.21875 
L 25.09375 0.875 
L 2.984375 54.6875 
L 12.5 54.6875 
L 29.59375 11.921875 
L 46.6875 54.6875 
L 56.203125 54.6875 
z
" id="DejaVuSans-121"/>
      <path d="M 25.390625 72.90625 
L 33.6875 72.90625 
L 8.296875 -9.28125 
L 0 -9.28125 
z
" id="DejaVuSans-47"/>
      <path d="M 10.6875 12.40625 
L 21 12.40625 
L 21 0 
L 10.6875 0 
z
" id="DejaVuSans-46"/>
     </defs>
     <g transform="translate(7.2 94.527113)scale(0.1 -0.1)">
      <use xlink:href="#DejaVuSans-98"/>
      <use x="63.476562" xlink:href="#DejaVuSans-101"/>
      <use x="125" xlink:href="#DejaVuSans-97"/>
      <use x="186.279297" xlink:href="#DejaVuSans-116"/>
      <use x="225.488281" xlink:href="#DejaVuSans-112"/>
      <use x="288.964844" xlink:href="#DejaVuSans-111"/>
      <use x="350.146484" xlink:href="#DejaVuSans-114"/>
      <use x="391.259766" xlink:href="#DejaVuSans-116"/>
      <use x="430.46875" xlink:href="#DejaVuSans-95"/>
      <use x="480.46875" xlink:href="#DejaVuSans-107"/>
      <use x="534.753906" xlink:href="#DejaVuSans-101"/>
      <use x="596.277344" xlink:href="#DejaVuSans-121"/>
      <use x="655.457031" xlink:href="#DejaVuSans-47"/>
      <use x="689.148438" xlink:href="#DejaVuSans-49"/>
      <use x="752.771484" xlink:href="#DejaVuSans-46"/>
      <use x="784.558594" xlink:href="#DejaVuSans-48"/>
     </g>
    </g>
   </g>
   <g id="line2d_27">
    <path clip-path="url(#p56a8f8f5d6)" d="M 135.517045 58.743197 
L 139.103822 54.610646 
L 142.690599 59.575749 
L 146.277376 70.139254 
L 149.864153 82.801911 
L 153.45093 94.064468 
L 157.037707 100.432853 
L 160.624483 99.926763 
L 164.21126 94.17481 
L 167.798037 85.331935 
L 171.384814 75.553079 
L 174.971591 66.993181 
L 178.558368 61.783889 
L 182.145145 60.837878 
L 185.731921 63.274585 
L 189.318698 68.069902 
L 192.905475 74.199724 
L 196.492252 80.639944 
L 200.079029 86.393068 
L 203.665806 90.996784 
L 207.252583 94.484424 
L 210.83936 96.908012 
L 214.426136 98.319571 
L 218.012913 98.771124 
L 221.59969 98.327732 
L 225.186467 97.186323 
L 228.773244 95.62039 
L 232.360021 93.90437 
L 235.946798 92.312702 
L 239.533574 91.119821 
L 243.120351 90.551176 
L 246.707128 90.552527 
L 250.293905 90.970538 
L 253.880682 91.651755 
L 257.467459 92.442725 
L 261.054236 93.190001 
L 264.641012 93.779601 
L 268.227789 94.229933 
L 271.814566 94.587144 
L 275.401343 94.897378 
L 278.98812 95.20678 
L 282.574897 95.561289 
L 286.161674 95.97788 
L 289.74845 96.414944 
L 293.335227 96.823807 
L 296.922004 97.155795 
L 300.508781 97.362235 
L 304.095558 97.396125 
L 307.682335 97.271227 
L 311.269112 97.077834 
L 314.855888 96.911117 
L 318.442665 96.866247 
L 322.029442 97.038395 
L 325.616219 97.513284 
L 329.202996 98.228441 
L 332.789773 99.00373 
L 336.37655 99.655775 
L 339.963326 100.001197 
L 343.550103 99.856621 
L 347.13688 99.088446 
L 350.723657 97.975694 
L 354.310434 97.001412 
L 357.897211 96.650095 
L 361.483988 97.406239 
L 365.070764 99.75434 
L 368.657541 103.975803 
L 372.244318 109.382543 
L 375.831095 114.997507 
L 379.417872 119.843593 
L 383.004649 122.943697 
L 386.591426 123.321338 
L 390.178202 120.53016 
L 393.764979 115.619993 
L 397.351756 109.902739 
L 400.938533 104.690301 
L 404.52531 101.29458 
L 408.112087 101.014891 
L 411.698864 104.128388 
L 415.28564 109.151865 
L 418.872417 114.428058 
L 422.459194 118.299707 
L 426.045971 119.10955 
L 429.632748 115.266557 
L 433.219525 106.935981 
L 436.806302 96.17945 
L 440.393079 85.152897 
L 443.979855 76.012251 
L 447.566632 70.913445 
L 451.153409 71.832725 
L 454.740186 78.501568 
L 458.326963 89.125551 
L 461.91374 101.881092 
L 465.500517 114.94461 
L 469.087293 126.492523 
L 472.67407 134.905889 
L 476.260847 139.968949 
L 479.847624 142.054508 
L 483.434401 141.537386 
L 487.021178 138.792403 
L 490.607955 134.194378 
" style="fill:none;stroke:#ff0000;stroke-linecap:square;stroke-width:1.5;"/>
   </g>
   <g id="patch_3">
    <path d="M 117.7625 171.451725 
L 117.7625 22.318125 
" style="fill:none;stroke:#000000;stroke-linecap:square;stroke-linejoin:miter;stroke-width:0.8;"/>
   </g>
   <g id="patch_4">
    <path d="M 508.3625 171.451725 
L 508.3625 22.318125 
" style="fill:none;stroke:#000000;stroke-linecap:square;stroke-linejoin:miter;stroke-width:0.8;"/>
   </g>
   <g id="patch_5">
    <path d="M 117.7625 171.451725 
L 508.3625 171.451725 
" style="fill:none;stroke:#000000;stroke-linecap:square;stroke-linejoin:miter;stroke-width:0.8;"/>
   </g>
   <g id="patch_6">
    <path d="M 117.7625 22.318125 
L 508.3625 22.318125 
" style="fill:none;stroke:#000000;stroke-linecap:square;stroke-linejoin:miter;stroke-width:0.8;"/>
   </g>
  </g>
  <g id="axes_2">
   <g id="matplotlib.axis_3"/>
   <g id="matplotlib.axis_4"/>
   <g id="text_16">
    <!-- OE1 for Tempo in BPM -->
    <defs>
     <path d="M 39.40625 66.21875 
Q 28.65625 66.21875 22.328125 58.203125 
Q 16.015625 50.203125 16.015625 36.375 
Q 16.015625 22.609375 22.328125 14.59375 
Q 28.65625 6.59375 39.40625 6.59375 
Q 50.140625 6.59375 56.421875 14.59375 
Q 62.703125 22.609375 62.703125 36.375 
Q 62.703125 50.203125 56.421875 58.203125 
Q 50.140625 66.21875 39.40625 66.21875 
z
M 39.40625 74.21875 
Q 54.734375 74.21875 63.90625 63.9375 
Q 73.09375 53.65625 73.09375 36.375 
Q 73.09375 19.140625 63.90625 8.859375 
Q 54.734375 -1.421875 39.40625 -1.421875 
Q 24.03125 -1.421875 14.8125 8.828125 
Q 5.609375 19.09375 5.609375 36.375 
Q 5.609375 53.65625 14.8125 63.9375 
Q 24.03125 74.21875 39.40625 74.21875 
z
" id="DejaVuSans-79"/>
     <path d="M 9.8125 72.90625 
L 55.90625 72.90625 
L 55.90625 64.59375 
L 19.671875 64.59375 
L 19.671875 43.015625 
L 54.390625 43.015625 
L 54.390625 34.71875 
L 19.671875 34.71875 
L 19.671875 8.296875 
L 56.78125 8.296875 
L 56.78125 0 
L 9.8125 0 
z
" id="DejaVuSans-69"/>
     <path d="M 37.109375 75.984375 
L 37.109375 68.5 
L 28.515625 68.5 
Q 23.6875 68.5 21.796875 66.546875 
Q 19.921875 64.59375 19.921875 59.515625 
L 19.921875 54.6875 
L 34.71875 54.6875 
L 34.71875 47.703125 
L 19.921875 47.703125 
L 19.921875 0 
L 10.890625 0 
L 10.890625 47.703125 
L 2.296875 47.703125 
L 2.296875 54.6875 
L 10.890625 54.6875 
L 10.890625 58.5 
Q 10.890625 67.625 15.140625 71.796875 
Q 19.390625 75.984375 28.609375 75.984375 
z
" id="DejaVuSans-102"/>
     <path d="M 9.421875 54.6875 
L 18.40625 54.6875 
L 18.40625 0 
L 9.421875 0 
z
M 9.421875 75.984375 
L 18.40625 75.984375 
L 18.40625 64.59375 
L 9.421875 64.59375 
z
" id="DejaVuSans-105"/>
     <path d="M 54.890625 33.015625 
L 54.890625 0 
L 45.90625 0 
L 45.90625 32.71875 
Q 45.90625 40.484375 42.875 44.328125 
Q 39.84375 48.1875 33.796875 48.1875 
Q 26.515625 48.1875 22.3125 43.546875 
Q 18.109375 38.921875 18.109375 30.90625 
L 18.109375 0 
L 9.078125 0 
L 9.078125 54.6875 
L 18.109375 54.6875 
L 18.109375 46.1875 
Q 21.34375 51.125 25.703125 53.5625 
Q 30.078125 56 35.796875 56 
Q 45.21875 56 50.046875 50.171875 
Q 54.890625 44.34375 54.890625 33.015625 
z
" id="DejaVuSans-110"/>
    </defs>
    <g transform="translate(246.81125 16.318125)scale(0.12 -0.12)">
     <use xlink:href="#DejaVuSans-79"/>
     <use x="78.710938" xlink:href="#DejaVuSans-69"/>
     <use x="141.894531" xlink:href="#DejaVuSans-49"/>
     <use x="205.517578" xlink:href="#DejaVuSans-32"/>
     <use x="237.304688" xlink:href="#DejaVuSans-102"/>
     <use x="272.509766" xlink:href="#DejaVuSans-111"/>
     <use x="333.691406" xlink:href="#DejaVuSans-114"/>
     <use x="374.804688" xlink:href="#DejaVuSans-32"/>
     <use x="406.591797" xlink:href="#DejaVuSans-84"/>
     <use x="450.675781" xlink:href="#DejaVuSans-101"/>
     <use x="512.199219" xlink:href="#DejaVuSans-109"/>
     <use x="609.611328" xlink:href="#DejaVuSans-112"/>
     <use x="673.087891" xlink:href="#DejaVuSans-111"/>
     <use x="734.269531" xlink:href="#DejaVuSans-32"/>
     <use x="766.056641" xlink:href="#DejaVuSans-105"/>
     <use x="793.839844" xlink:href="#DejaVuSans-110"/>
     <use x="857.21875" xlink:href="#DejaVuSans-32"/>
     <use x="889.005859" xlink:href="#DejaVuSans-66"/>
     <use x="957.609375" xlink:href="#DejaVuSans-80"/>
     <use x="1017.912109" xlink:href="#DejaVuSans-77"/>
    </g>
   </g>
  </g>
  <g id="text_17">
   <!-- OE1 (TO) -->
   <g transform="translate(546.602813 118.673556)rotate(-90)scale(0.1 -0.1)">
    <use xlink:href="#DejaVuSans-79"/>
    <use x="78.710938" xlink:href="#DejaVuSans-69"/>
    <use x="141.894531" xlink:href="#DejaVuSans-49"/>
    <use x="205.517578" xlink:href="#DejaVuSans-32"/>
    <use x="237.304688" xlink:href="#DejaVuSans-40"/>
    <use x="276.318359" xlink:href="#DejaVuSans-84"/>
    <use x="337.402344" xlink:href="#DejaVuSans-79"/>
    <use x="416.113281" xlink:href="#DejaVuSans-41"/>
   </g>
  </g>
 </g>
 <defs>
  <clipPath id="p56a8f8f5d6">
   <rect height="149.1336" width="390.6" x="117.7625" y="22.318125"/>
  </clipPath>
 </defs>
</svg>
