<?xml version='1.0' encoding='utf-8'?>
<svg xmlns:xlink="http://www.w3.org/1999/xlink" xmlns="http://www.w3.org/2000/svg" id="chart-39518de2-ee3a-45cd-9294-b1ba71f114d6" class="pygal-chart" viewBox="0 0 800 600"><!--Generated with pygal 2.4.0 (lxml) ©Kozea 2012-2016 on 2021-03-08--><!--http://pygal.org--><!--http://github.com/Kozea/pygal--><defs><style type="text/css">#chart-39518de2-ee3a-45cd-9294-b1ba71f114d6{-webkit-user-select:none;-webkit-font-smoothing:antialiased;font-family:Helvetica,Arial,sans-serif}#chart-39518de2-ee3a-45cd-9294-b1ba71f114d6 .title{font-family:Helvetica,Arial,sans-serif;font-size:18px}#chart-39518de2-ee3a-45cd-9294-b1ba71f114d6 .legends .legend text{font-family:Helvetica,Arial,sans-serif;font-size:15px}#chart-39518de2-ee3a-45cd-9294-b1ba71f114d6 .axis text{font-family:Helvetica,Arial,sans-serif;font-size:15px}#chart-39518de2-ee3a-45cd-9294-b1ba71f114d6 .axis text.major{font-family:Helvetica,Arial,sans-serif;font-size:15px}#chart-39518de2-ee3a-45cd-9294-b1ba71f114d6 .text-overlay text.value{font-family:Helvetica,Arial,sans-serif;font-size:15px}#chart-39518de2-ee3a-45cd-9294-b1ba71f114d6 .text-overlay text.label{font-family:Helvetica,Arial,sans-serif;font-size:15px}#chart-39518de2-ee3a-45cd-9294-b1ba71f114d6 .tooltip{font-family:Helvetica,Arial,sans-serif;font-size:14px}#chart-39518de2-ee3a-45cd-9294-b1ba71f114d6 text.no_data{font-family:Helvetica,Arial,sans-serif;font-size:64px}
#chart-39518de2-ee3a-45cd-9294-b1ba71f114d6{background-color:transparent}#chart-39518de2-ee3a-45cd-9294-b1ba71f114d6 path,#chart-39518de2-ee3a-45cd-9294-b1ba71f114d6 line,#chart-39518de2-ee3a-45cd-9294-b1ba71f114d6 rect,#chart-39518de2-ee3a-45cd-9294-b1ba71f114d6 circle{-webkit-transition:150ms;-moz-transition:150ms;transition:150ms}#chart-39518de2-ee3a-45cd-9294-b1ba71f114d6 .graph &gt; .background{fill:transparent}#chart-39518de2-ee3a-45cd-9294-b1ba71f114d6 .plot &gt; .background{fill:white}#chart-39518de2-ee3a-45cd-9294-b1ba71f114d6 .graph{fill:rgba(0,0,0,.87)}#chart-39518de2-ee3a-45cd-9294-b1ba71f114d6 text.no_data{fill:rgba(0,0,0,1)}#chart-39518de2-ee3a-45cd-9294-b1ba71f114d6 .title{fill:rgba(0,0,0,1)}#chart-39518de2-ee3a-45cd-9294-b1ba71f114d6 .legends .legend text{fill:rgba(0,0,0,.87)}#chart-39518de2-ee3a-45cd-9294-b1ba71f114d6 .legends .legend:hover text{fill:rgba(0,0,0,1)}#chart-39518de2-ee3a-45cd-9294-b1ba71f114d6 .axis .line{stroke:rgba(0,0,0,1)}#chart-39518de2-ee3a-45cd-9294-b1ba71f114d6 .axis .guide.line{stroke:rgba(0,0,0,.54)}#chart-39518de2-ee3a-45cd-9294-b1ba71f114d6 .axis .major.line{stroke:rgba(0,0,0,.87)}#chart-39518de2-ee3a-45cd-9294-b1ba71f114d6 .axis text.major{fill:rgba(0,0,0,1)}#chart-39518de2-ee3a-45cd-9294-b1ba71f114d6 .axis.y .guides:hover .guide.line,#chart-39518de2-ee3a-45cd-9294-b1ba71f114d6 .line-graph .axis.x .guides:hover .guide.line,#chart-39518de2-ee3a-45cd-9294-b1ba71f114d6 .stackedline-graph .axis.x .guides:hover .guide.line,#chart-39518de2-ee3a-45cd-9294-b1ba71f114d6 .xy-graph .axis.x .guides:hover .guide.line{stroke:rgba(0,0,0,1)}#chart-39518de2-ee3a-45cd-9294-b1ba71f114d6 .axis .guides:hover text{fill:rgba(0,0,0,1)}#chart-39518de2-ee3a-45cd-9294-b1ba71f114d6 .reactive{fill-opacity:.7;stroke-opacity:.8}#chart-39518de2-ee3a-45cd-9294-b1ba71f114d6 .ci{stroke:rgba(0,0,0,.87)}#chart-39518de2-ee3a-45cd-9294-b1ba71f114d6 .reactive.active,#chart-39518de2-ee3a-45cd-9294-b1ba71f114d6 .active .reactive{fill-opacity:.8;stroke-opacity:.9;stroke-width:4}#chart-39518de2-ee3a-45cd-9294-b1ba71f114d6 .ci .reactive.active{stroke-width:1.5}#chart-39518de2-ee3a-45cd-9294-b1ba71f114d6 .series text{fill:rgba(0,0,0,1)}#chart-39518de2-ee3a-45cd-9294-b1ba71f114d6 .tooltip rect{fill:white;stroke:rgba(0,0,0,1);-webkit-transition:opacity 150ms;-moz-transition:opacity 150ms;transition:opacity 150ms}#chart-39518de2-ee3a-45cd-9294-b1ba71f114d6 .tooltip .label{fill:rgba(0,0,0,.87)}#chart-39518de2-ee3a-45cd-9294-b1ba71f114d6 .tooltip .label{fill:rgba(0,0,0,.87)}#chart-39518de2-ee3a-45cd-9294-b1ba71f114d6 .tooltip .legend{font-size:.8em;fill:rgba(0,0,0,.54)}#chart-39518de2-ee3a-45cd-9294-b1ba71f114d6 .tooltip .x_label{font-size:.6em;fill:rgba(0,0,0,1)}#chart-39518de2-ee3a-45cd-9294-b1ba71f114d6 .tooltip .xlink{font-size:.5em;text-decoration:underline}#chart-39518de2-ee3a-45cd-9294-b1ba71f114d6 .tooltip .value{font-size:1.5em}#chart-39518de2-ee3a-45cd-9294-b1ba71f114d6 .bound{font-size:.5em}#chart-39518de2-ee3a-45cd-9294-b1ba71f114d6 .max-value{font-size:.75em;fill:rgba(0,0,0,.54)}#chart-39518de2-ee3a-45cd-9294-b1ba71f114d6 .map-element{fill:white;stroke:rgba(0,0,0,.54) !important}#chart-39518de2-ee3a-45cd-9294-b1ba71f114d6 .map-element .reactive{fill-opacity:inherit;stroke-opacity:inherit}#chart-39518de2-ee3a-45cd-9294-b1ba71f114d6 .color-0,#chart-39518de2-ee3a-45cd-9294-b1ba71f114d6 .color-0 a:visited{stroke:#F44336;fill:#F44336}#chart-39518de2-ee3a-45cd-9294-b1ba71f114d6 .text-overlay .color-0 text{fill:black}
#chart-39518de2-ee3a-45cd-9294-b1ba71f114d6 text.no_data{text-anchor:middle}#chart-39518de2-ee3a-45cd-9294-b1ba71f114d6 .guide.line{fill:none}#chart-39518de2-ee3a-45cd-9294-b1ba71f114d6 .centered{text-anchor:middle}#chart-39518de2-ee3a-45cd-9294-b1ba71f114d6 .title{text-anchor:middle}#chart-39518de2-ee3a-45cd-9294-b1ba71f114d6 .legends .legend text{fill-opacity:1}#chart-39518de2-ee3a-45cd-9294-b1ba71f114d6 .axis.x text{text-anchor:middle}#chart-39518de2-ee3a-45cd-9294-b1ba71f114d6 .axis.x:not(.web) text[transform]{text-anchor:start}#chart-39518de2-ee3a-45cd-9294-b1ba71f114d6 .axis.x:not(.web) text[transform].backwards{text-anchor:end}#chart-39518de2-ee3a-45cd-9294-b1ba71f114d6 .axis.y text{text-anchor:end}#chart-39518de2-ee3a-45cd-9294-b1ba71f114d6 .axis.y text[transform].backwards{text-anchor:start}#chart-39518de2-ee3a-45cd-9294-b1ba71f114d6 .axis.y2 text{text-anchor:start}#chart-39518de2-ee3a-45cd-9294-b1ba71f114d6 .axis.y2 text[transform].backwards{text-anchor:end}#chart-39518de2-ee3a-45cd-9294-b1ba71f114d6 .axis .guide.line{stroke-dasharray:1}#chart-39518de2-ee3a-45cd-9294-b1ba71f114d6 .axis .major.guide.line{stroke-dasharray:1}#chart-39518de2-ee3a-45cd-9294-b1ba71f114d6 .horizontal .axis.y .guide.line,#chart-39518de2-ee3a-45cd-9294-b1ba71f114d6 .horizontal .axis.y2 .guide.line,#chart-39518de2-ee3a-45cd-9294-b1ba71f114d6 .vertical .axis.x .guide.line{opacity:0}#chart-39518de2-ee3a-45cd-9294-b1ba71f114d6 .horizontal .axis.always_show .guide.line,#chart-39518de2-ee3a-45cd-9294-b1ba71f114d6 .vertical .axis.always_show .guide.line{opacity:1 !important}#chart-39518de2-ee3a-45cd-9294-b1ba71f114d6 .axis.y .guides:hover .guide.line,#chart-39518de2-ee3a-45cd-9294-b1ba71f114d6 .axis.y2 .guides:hover .guide.line,#chart-39518de2-ee3a-45cd-9294-b1ba71f114d6 .axis.x .guides:hover .guide.line{opacity:1}#chart-39518de2-ee3a-45cd-9294-b1ba71f114d6 .axis .guides:hover text{opacity:1}#chart-39518de2-ee3a-45cd-9294-b1ba71f114d6 .nofill{fill:none}#chart-39518de2-ee3a-45cd-9294-b1ba71f114d6 .subtle-fill{fill-opacity:.2}#chart-39518de2-ee3a-45cd-9294-b1ba71f114d6 .dot{stroke-width:1px;fill-opacity:1}#chart-39518de2-ee3a-45cd-9294-b1ba71f114d6 .dot.active{stroke-width:5px}#chart-39518de2-ee3a-45cd-9294-b1ba71f114d6 .dot.negative{fill:transparent}#chart-39518de2-ee3a-45cd-9294-b1ba71f114d6 text,#chart-39518de2-ee3a-45cd-9294-b1ba71f114d6 tspan{stroke:none !important}#chart-39518de2-ee3a-45cd-9294-b1ba71f114d6 .series text.active{opacity:1}#chart-39518de2-ee3a-45cd-9294-b1ba71f114d6 .tooltip rect{fill-opacity:.95;stroke-width:.5}#chart-39518de2-ee3a-45cd-9294-b1ba71f114d6 .tooltip text{fill-opacity:1}#chart-39518de2-ee3a-45cd-9294-b1ba71f114d6 .showable{visibility:hidden}#chart-39518de2-ee3a-45cd-9294-b1ba71f114d6 .showable.shown{visibility:visible}#chart-39518de2-ee3a-45cd-9294-b1ba71f114d6 .gauge-background{fill:rgba(229,229,229,1);stroke:none}#chart-39518de2-ee3a-45cd-9294-b1ba71f114d6 .bg-lines{stroke:transparent;stroke-width:2px}</style><script type="text/javascript">window.pygal = window.pygal || {};window.pygal.config = window.pygal.config || {};window.pygal.config['39518de2-ee3a-45cd-9294-b1ba71f114d6'] = {"allow_interruptions": false, "box_mode": "extremes", "classes": ["pygal-chart"], "css": ["file://style.css", "file://graph.css"], "defs": [], "disable_xml_declaration": false, "dots_size": 2.5, "dynamic_print_values": false, "explicit_size": false, "fill": false, "force_uri_protocol": "https", "formatter": null, "half_pie": false, "height": 600, "include_x_axis": false, "inner_radius": 0, "interpolate": null, "interpolation_parameters": {}, "interpolation_precision": 250, "inverse_y_axis": false, "js": ["//kozea.github.io/pygal.js/2.0.x/pygal-tooltips.min.js"], "legend_at_bottom": true, "legend_at_bottom_columns": 2, "legend_box_size": 12, "logarithmic": false, "margin": 20, "margin_bottom": 50, "margin_left": null, "margin_right": null, "margin_top": null, "max_scale": 16, "min_scale": 4, "missing_value_fill_truncation": "x", "no_data_text": "No data", "no_prefix": false, "order_min": null, "pretty_print": false, "print_labels": false, "print_values": false, "print_values_position": "center", "print_zeroes": true, "range": [-0.1, 0.02], "rounded_bars": null, "secondary_range": null, "show_dots": true, "show_legend": true, "show_minor_x_labels": false, "show_minor_y_labels": true, "show_only_major_dots": true, "show_x_guides": true, "show_x_labels": true, "show_y_guides": true, "show_y_labels": true, "spacing": 10, "stack_from_top": false, "strict": false, "stroke": true, "stroke_style": null, "style": {"background": "transparent", "ci_colors": [], "colors": ["#F44336", "#3F51B5", "#009688", "#FFC107", "#FF5722", "#9C27B0", "#03A9F4", "#8BC34A", "#FF9800", "#E91E63", "#2196F3", "#4CAF50", "#FFEB3B", "#673AB7", "#00BCD4", "#CDDC39", "#9E9E9E", "#607D8B"], "font_family": "Helvetica, Arial, sans-serif", "foreground": "rgba(0, 0, 0, .87)", "foreground_strong": "rgba(0, 0, 0, 1)", "foreground_subtle": "rgba(0, 0, 0, .54)", "guide_stroke_dasharray": 1, "label_font_family": "Helvetica, Arial, sans-serif", "label_font_size": 15, "legend_font_family": "Helvetica, Arial, sans-serif", "legend_font_size": 15, "major_guide_stroke_dasharray": 1, "major_label_font_family": "Helvetica, Arial, sans-serif", "major_label_font_size": 15, "no_data_font_family": "Helvetica, Arial, sans-serif", "no_data_font_size": 64, "opacity": ".7", "opacity_hover": ".8", "plot_background": "white", "stroke_opacity": ".8", "stroke_opacity_hover": ".9", "title_font_family": "Helvetica, Arial, sans-serif", "title_font_size": 18, "tooltip_font_family": "Helvetica, Arial, sans-serif", "tooltip_font_size": 14, "transition": "150ms", "value_background": "rgba(229, 229, 229, 1)", "value_colors": [], "value_font_family": "Helvetica, Arial, sans-serif", "value_font_size": 15, "value_label_font_family": "Helvetica, Arial, sans-serif", "value_label_font_size": 15}, "title": "Mean OE2 for Tempo T \u00b110.0 BPM", "tooltip_border_radius": 0, "tooltip_fancy_mode": true, "truncate_label": null, "truncate_legend": -1, "width": 800, "x_label_rotation": 90, "x_labels": ["0.0", "1.0", "2.0", "3.0", "4.0", "5.0", "6.0", "7.0", "8.0", "9.0", "10.0", "11.0", "12.0", "13.0", "14.0", "15.0", "16.0", "17.0", "18.0", "19.0", "20.0", "21.0", "22.0", "23.0", "24.0", "25.0", "26.0", "27.0", "28.0", "29.0", "30.0", "31.0", "32.0", "33.0", "34.0", "35.0", "36.0", "37.0", "38.0", "39.0", "40.0", "41.0", "42.0", "43.0", "44.0", "45.0", "46.0", "47.0", "48.0", "49.0", "50.0", "51.0", "52.0", "53.0", "54.0", "55.0", "56.0", "57.0", "58.0", "59.0", "60.0", "61.0", "62.0", "63.0", "64.0", "65.0", "66.0", "67.0", "68.0", "69.0", "70.0", "71.0", "72.0", "73.0", "74.0", "75.0", "76.0", "77.0", "78.0", "79.0", "80.0", "81.0", "82.0", "83.0", "84.0", "85.0", "86.0", "87.0", "88.0", "89.0", "90.0", "91.0", "92.0", "93.0", "94.0", "95.0", "96.0", "97.0", "98.0", "99.0", "100.0", "101.0", "102.0", "103.0", "104.0", "105.0", "106.0", "107.0", "108.0", "109.0", "110.0", "111.0", "112.0", "113.0", "114.0", "115.0", "116.0", "117.0", "118.0", "119.0", "120.0", "121.0", "122.0", "123.0", "124.0", "125.0", "126.0", "127.0", "128.0", "129.0", "130.0", "131.0", "132.0", "133.0", "134.0", "135.0", "136.0", "137.0", "138.0", "139.0", "140.0", "141.0", "142.0", "143.0", "144.0", "145.0", "146.0", "147.0", "148.0", "149.0", "150.0", "151.0", "152.0", "153.0", "154.0", "155.0", "156.0", "157.0", "158.0", "159.0", "160.0", "161.0", "162.0", "163.0", "164.0", "165.0", "166.0", "167.0", "168.0", "169.0", "170.0", "171.0", "172.0", "173.0", "174.0", "175.0", "176.0", "177.0", "178.0", "179.0", "180.0", "181.0", "182.0", "183.0", "184.0", "185.0", "186.0", "187.0", "188.0", "189.0", "190.0", "191.0", "192.0", "193.0", "194.0", "195.0", "196.0", "197.0", "198.0", "199.0", "200.0", "201.0", "202.0", "203.0", "204.0", "205.0", "206.0", "207.0", "208.0", "209.0", "210.0", "211.0", "212.0", "213.0", "214.0", "215.0", "216.0", "217.0", "218.0", "219.0", "220.0", "221.0", "222.0", "223.0", "224.0", "225.0", "226.0", "227.0", "228.0", "229.0", "230.0", "231.0", "232.0", "233.0", "234.0", "235.0", "236.0", "237.0", "238.0", "239.0", "240.0", "241.0", "242.0", "243.0", "244.0", "245.0", "246.0", "247.0", "248.0", "249.0", "250.0", "251.0", "252.0", "253.0", "254.0", "255.0", "256.0", "257.0", "258.0", "259.0", "260.0", "261.0", "262.0", "263.0", "264.0", "265.0", "266.0", "267.0", "268.0", "269.0", "270.0", "271.0", "272.0", "273.0", "274.0", "275.0", "276.0", "277.0", "278.0", "279.0", "280.0", "281.0", "282.0", "283.0", "284.0", "285.0", "286.0", "287.0", "288.0", "289.0", "290.0", "291.0", "292.0", "293.0", "294.0", "295.0", "296.0", "297.0", "298.0", "299.0", "300.0"], "x_labels_major": null, "x_labels_major_count": 11, "x_labels_major_every": null, "x_title": "T (BPM)", "xrange": null, "y_label_rotation": 0, "y_labels": null, "y_labels_major": null, "y_labels_major_count": null, "y_labels_major_every": null, "y_title": "Mean OE2 (TO)", "zero": 0, "legends": ["beatport_key/1.0"]}</script><script type="text/javascript" xlink:href="https://kozea.github.io/pygal.js/2.0.x/pygal-tooltips.min.js"/></defs><title>Mean OE2 for Tempo T ±10.0 BPM</title><g class="graph line-graph vertical"><rect class="background" height="600" width="800" x="0" y="0"/><g class="plot" transform="translate(121, 48)"><rect class="background" height="416.5" width="659.0" x="0" y="0"/><g class="axis y always_show"><g class="guides"><path class="guide line" d="M0.000000 408.490385 h659.000000"/><text class="" x="-5" y="413.74038461538464">-0.1000</text><title>-0.1000</title></g><g class="guides"><path class="guide line" d="M0.000000 375.116987 h659.000000"/><text class="" x="-5" y="380.3669871794872">-0.0900</text><title>-0.0900</title></g><g class="guides"><path class="guide line" d="M0.000000 341.743590 h659.000000"/><text class="" x="-5" y="346.9935897435897">-0.0800</text><title>-0.0800</title></g><g class="guides"><path class="guide line" d="M0.000000 308.370192 h659.000000"/><text class="" x="-5" y="313.6201923076923">-0.0700</text><title>-0.0700</title></g><g class="guides"><path class="guide line" d="M0.000000 274.996795 h659.000000"/><text class="" x="-5" y="280.2467948717948">-0.0600</text><title>-0.0600</title></g><g class="guides"><path class="guide line" d="M0.000000 241.623397 h659.000000"/><text class="" x="-5" y="246.87339743589746">-0.0500</text><title>-0.0500</title></g><g class="guides"><path class="guide line" d="M0.000000 208.250000 h659.000000"/><text class="" x="-5" y="213.5">-0.0400</text><title>-0.0400</title></g><g class="guides"><path class="guide line" d="M0.000000 174.876603 h659.000000"/><text class="" x="-5" y="180.12660256410257">-0.0300</text><title>-0.0300</title></g><g class="guides"><path class="guide line" d="M0.000000 141.503205 h659.000000"/><text class="" x="-5" y="146.75320512820514">-0.0200</text><title>-0.0200</title></g><g class="guides"><path class="guide line" d="M0.000000 108.129808 h659.000000"/><text class="" x="-5" y="113.37980769230768">-0.0100</text><title>-0.0100</title></g><g class="guides"><path class="major line" d="M0.000000 74.756410 h659.000000"/><text class="major" x="-5" y="80.00641025641028">0.0000</text><title>0.0000</title></g><g class="guides"><path class="guide line" d="M0.000000 41.383013 h659.000000"/><text class="" x="-5" y="46.633012820512874">0.0100</text><title>0.0100</title></g><g class="guides"><path class="guide line" d="M0.000000 8.009615 h659.000000"/><text class="" x="-5" y="13.259615384615358">0.0200</text><title>0.0200</title></g></g><g class="axis x always_show"><g class="guides"><path class="major line" d="M12.673077 0.000000 v416.500000"/><text class="major" x="12.673076923076922" y="434.0" transform="rotate(90 12.673077 434.000000)">0.0</text></g><g class="guides"><path class="major guide line" d="M76.038462 0.000000 v416.500000"/><text class="major" x="76.03846153846155" y="434.0" transform="rotate(90 76.038462 434.000000)">30.0</text></g><g class="guides"><path class="major guide line" d="M139.403846 0.000000 v416.500000"/><text class="major" x="139.40384615384613" y="434.0" transform="rotate(90 139.403846 434.000000)">60.0</text></g><g class="guides"><path class="major guide line" d="M202.769231 0.000000 v416.500000"/><text class="major" x="202.76923076923075" y="434.0" transform="rotate(90 202.769231 434.000000)">90.0</text></g><g class="guides"><path class="major guide line" d="M266.134615 0.000000 v416.500000"/><text class="major" x="266.1346153846154" y="434.0" transform="rotate(90 266.134615 434.000000)">120.0</text></g><g class="guides"><path class="major guide line" d="M329.500000 0.000000 v416.500000"/><text class="major" x="329.5" y="434.0" transform="rotate(90 329.500000 434.000000)">150.0</text></g><g class="guides"><path class="major guide line" d="M392.865385 0.000000 v416.500000"/><text class="major" x="392.8653846153846" y="434.0" transform="rotate(90 392.865385 434.000000)">180.0</text></g><g class="guides"><path class="major guide line" d="M456.230769 0.000000 v416.500000"/><text class="major" x="456.23076923076917" y="434.0" transform="rotate(90 456.230769 434.000000)">210.0</text></g><g class="guides"><path class="major guide line" d="M519.596154 0.000000 v416.500000"/><text class="major" x="519.5961538461538" y="434.0" transform="rotate(90 519.596154 434.000000)">240.0</text></g><g class="guides"><path class="major guide line" d="M582.961538 0.000000 v416.500000"/><text class="major" x="582.9615384615385" y="434.0" transform="rotate(90 582.961538 434.000000)">270.0</text></g><g class="guides"><path class="major guide line" d="M646.326923 0.000000 v416.500000"/><text class="major" x="646.3269230769231" y="434.0" transform="rotate(90 646.326923 434.000000)">300.0</text></g></g><g class="series serie-0 color-0"><path class="line reactive nofill" d="M12.673077 74.756410 L14.785256 74.756410 16.897436 74.756410 19.009615 74.756410 21.121795 74.756410 23.233974 74.756410 25.346154 74.756410 27.458333 74.756410 29.570513 74.756410 31.682692 74.756410 33.794872 74.756410 35.907051 74.756410 38.019231 74.756410 40.131410 74.756410 42.243590 74.756410 44.355769 74.756410 46.467949 74.756410 48.580128 74.756410 50.692308 74.756410 52.804487 74.756410 54.916667 74.756410 57.028846 74.756410 59.141026 74.756410 61.253205 74.756410 63.365385 74.756410 65.477564 74.756410 67.589744 74.756410 69.701923 74.756410 71.814103 74.756410 73.926282 74.756410 76.038462 74.756410 78.150641 74.756410 80.262821 74.756410 82.375000 74.756410 84.487179 74.756410 86.599359 74.756410 88.711538 74.756410 90.823718 74.756410 92.935897 74.756410 95.048077 74.756410 97.160256 74.756410 99.272436 74.756410 101.384615 74.756410 103.496795 74.756410 105.608974 74.756410 107.721154 74.756410 109.833333 74.756410 111.945513 74.756410 114.057692 74.756410 116.169872 74.756410 118.282051 74.756410 120.394231 74.756410 122.506410 74.756410 124.618590 74.756410 126.730769 74.756410 128.842949 74.756410 130.955128 74.756410 133.067308 74.756410 135.179487 98.533455 137.291667 98.533455 139.403846 92.589194 141.516026 92.589194 143.628205 92.589194 145.740385 92.589194 147.852564 86.644933 149.964744 86.644933 152.076923 86.644933 154.189103 84.946572 156.301282 84.946572 158.413462 83.672802 160.525641 81.889524 162.637821 81.889524 164.750000 81.241059 166.862179 81.241059 168.974359 83.970243 171.086538 81.931981 173.198718 76.649119 175.310897 97.216397 177.423077 65.015044 179.535256 62.552118 181.647436 66.312998 183.759615 66.140684 185.871795 68.157308 187.983974 114.862170 190.096154 113.547227 192.208333 111.160100 194.320513 110.608529 196.432692 110.608529 198.544872 109.554055 200.657051 109.049741 202.769231 123.317028 204.881410 123.964440 206.993590 156.354652 209.105769 157.414369 211.217949 154.314696 213.330128 168.192908 215.442308 172.982387 217.554487 196.696481 219.666667 197.867580 221.778846 205.157620 223.891026 214.592897 226.003205 248.016595 228.115385 245.029350 230.227564 260.907501 232.339744 210.265663 234.451923 198.378886 236.564103 288.565166 238.676282 296.108204 240.788462 286.046759 242.900641 328.431691 245.012821 242.662453 247.125000 249.970267 249.237179 232.988691 251.349359 189.915043 253.461538 171.648501 255.573718 151.321770 257.685897 131.685433 259.798077 122.922998 261.910256 109.948130 264.022436 108.186754 266.134615 107.857514 268.246795 107.390204 270.358974 103.959597 272.471154 103.554934 274.583333 102.745065 276.695513 102.210453 278.807692 101.698661 280.919872 89.796882 283.032051 86.672723 285.144231 86.746065 287.256410 80.211402 289.368590 80.803817 291.480769 77.813437 293.592949 77.783672 295.705128 77.856471 297.817308 77.900578 299.929487 78.100662 302.041667 78.537142 304.153846 79.092895 306.266026 74.479206 308.378205 74.898553 310.490385 75.061313 312.602564 75.069553 314.714744 75.228794 316.826923 75.242420 318.939103 75.274821 321.051282 75.117142 323.163462 74.937867 325.275641 75.153806 327.387821 75.194083 329.500000 74.961970 331.612179 75.097453 333.724359 75.105384 335.836538 75.232787 337.948718 75.833770 340.060897 75.959072 342.173077 76.479142 344.285256 76.526996 346.397436 76.631148 348.509615 76.812574 350.621795 76.687958 352.733974 78.297582 354.846154 76.624009 356.958333 76.740734 359.070513 66.797574 361.182692 66.619668 363.294872 66.619668 365.407051 66.191418 367.519231 66.191418 369.631410 63.907420 371.743590 63.907420 373.855769 63.132493 375.967949 63.132493 378.080128 63.132493 380.192308 63.132493 382.304487 61.195173 384.416667 58.465240 386.528846 58.465240 388.641026 50.731057 390.753205 50.731057 392.865385 48.328521 394.977564 37.002283 397.089744 37.002283 399.201923 37.002283 401.314103 37.002283 403.426282 49.184775 405.538462 11.758817 407.650641 11.758817 409.762821 11.758817 411.875000 11.758817 413.987179 11.758817 416.099359 11.758817 418.211538 11.758817 420.323718 11.758817 422.435897 11.758817 424.548077 11.758817 426.660256 11.758817 428.772436 11.758817 430.884615 11.758817 432.996795 50.128410 435.108974 50.128410 437.221154 50.128410 439.333333 50.128410 441.445513 50.128410 443.557692 50.128410 445.669872 50.128410 447.782051 74.756410 449.894231 74.756410 452.006410 74.756410 454.118590 74.756410 456.230769 74.756410 458.342949 74.756410 460.455128 74.756410 462.567308 74.756410 464.679487 74.756410 466.791667 74.756410 468.903846 74.756410 471.016026 74.756410 473.128205 74.756410 475.240385 74.756410 477.352564 74.756410 479.464744 74.756410 481.576923 74.756410 483.689103 74.756410 485.801282 74.756410 487.913462 74.756410 490.025641 74.756410 492.137821 74.756410 494.250000 74.756410 496.362179 74.756410 498.474359 74.756410 500.586538 74.756410 502.698718 74.756410 504.810897 74.756410 506.923077 74.756410 509.035256 74.756410 511.147436 74.756410 513.259615 74.756410 515.371795 74.756410 517.483974 74.756410 519.596154 74.756410 521.708333 74.756410 523.820513 74.756410 525.932692 74.756410 528.044872 74.756410 530.157051 74.756410 532.269231 74.756410 534.381410 74.756410 536.493590 74.756410 538.605769 74.756410 540.717949 74.756410 542.830128 74.756410 544.942308 74.756410 547.054487 74.756410 549.166667 74.756410 551.278846 74.756410 553.391026 74.756410 555.503205 74.756410 557.615385 74.756410 559.727564 74.756410 561.839744 74.756410 563.951923 74.756410 566.064103 74.756410 568.176282 74.756410 570.288462 74.756410 572.400641 74.756410 574.512821 74.756410 576.625000 74.756410 578.737179 74.756410 580.849359 74.756410 582.961538 74.756410 585.073718 74.756410 587.185897 74.756410 589.298077 74.756410 591.410256 74.756410 593.522436 74.756410 595.634615 74.756410 597.746795 74.756410 599.858974 74.756410 601.971154 74.756410 604.083333 74.756410 606.195513 74.756410 608.307692 74.756410 610.419872 74.756410 612.532051 74.756410 614.644231 74.756410 616.756410 74.756410 618.868590 74.756410 620.980769 74.756410 623.092949 74.756410 625.205128 74.756410 627.317308 74.756410 629.429487 74.756410 631.541667 74.756410 633.653846 74.756410 635.766026 74.756410 637.878205 74.756410 639.990385 74.756410 642.102564 74.756410 644.214744 74.756410 646.326923 74.756410"/></g></g><g class="titles"><text class="title plot_title" x="400.0" y="28">Mean OE2 for Tempo T ±10.0 BPM</text><text class="title" x="450.5" y="547.5">T (BPM)</text><text class="title" x="0" y="284.25" transform="rotate(-90 0.000000 256.250000)">Mean OE2 (TO)</text></g><g class="plot overlay" transform="translate(121, 48)"><g class="series serie-0 color-0"><g class="dots"><circle class="dot reactive tooltip-trigger" cx="12.673076923076922" cy="74.75641025641028" r="2.5"/><desc class="value">0.0000</desc><desc class="x ">12.673076923076922</desc><desc class="y ">74.75641025641028</desc><desc class="x_label">0.0</desc></g><g class="dots"><circle class="dot reactive tooltip-trigger" cx="76.03846153846155" cy="74.75641025641028" r="2.5"/><desc class="value">0.0000</desc><desc class="x ">76.03846153846155</desc><desc class="y ">74.75641025641028</desc><desc class="x_label">30.0</desc></g><g class="dots"><circle class="dot reactive tooltip-trigger" cx="139.40384615384613" cy="92.58919382032076" r="2.5"/><desc class="value">-0.0053</desc><desc class="x ">139.40384615384613</desc><desc class="y ">92.58919382032076</desc><desc class="x_label">60.0</desc></g><g class="dots"><circle class="dot reactive tooltip-trigger" cx="202.76923076923075" cy="123.31702836658997" r="2.5"/><desc class="value">-0.0146</desc><desc class="x ">202.76923076923075</desc><desc class="y ">123.31702836658997</desc><desc class="x_label">90.0</desc></g><g class="dots"><circle class="dot reactive tooltip-trigger" cx="266.1346153846154" cy="107.85751391570767" r="2.5"/><desc class="value">-0.0099</desc><desc class="x ">266.1346153846154</desc><desc class="y ">107.85751391570767</desc><desc class="x_label">120.0</desc></g><g class="dots"><circle class="dot reactive tooltip-trigger" cx="329.5" cy="74.96197011860471" r="2.5"/><desc class="value">-0.0001</desc><desc class="x ">329.5</desc><desc class="y ">74.96197011860471</desc><desc class="x_label">150.0</desc></g><g class="dots"><circle class="dot reactive tooltip-trigger" cx="392.8653846153846" cy="48.328521393501944" r="2.5"/><desc class="value">0.0079</desc><desc class="x left">392.8653846153846</desc><desc class="y left">48.328521393501944</desc><desc class="x_label">180.0</desc></g><g class="dots"><circle class="dot reactive tooltip-trigger" cx="456.23076923076917" cy="74.75641025641028" r="2.5"/><desc class="value">0.0000</desc><desc class="x left">456.23076923076917</desc><desc class="y left">74.75641025641028</desc><desc class="x_label">210.0</desc></g><g class="dots"><circle class="dot reactive tooltip-trigger" cx="519.5961538461538" cy="74.75641025641028" r="2.5"/><desc class="value">0.0000</desc><desc class="x left">519.5961538461538</desc><desc class="y left">74.75641025641028</desc><desc class="x_label">240.0</desc></g><g class="dots"><circle class="dot reactive tooltip-trigger" cx="582.9615384615385" cy="74.75641025641028" r="2.5"/><desc class="value">0.0000</desc><desc class="x left">582.9615384615385</desc><desc class="y left">74.75641025641028</desc><desc class="x_label">270.0</desc></g><g class="dots"><circle class="dot reactive tooltip-trigger" cx="646.3269230769231" cy="74.75641025641028" r="2.5"/><desc class="value">0.0000</desc><desc class="x left">646.3269230769231</desc><desc class="y left">74.75641025641028</desc><desc class="x_label">300.0</desc></g></g></g><g class="plot text-overlay" transform="translate(121, 48)"><g class="series serie-0 color-0"/></g><g class="plot tooltip-overlay" transform="translate(121, 48)"><g class="tooltip" style="opacity: 0" transform="translate(0 0)"><rect class="tooltip-box" height="0" rx="0" ry="0" width="0"/><g class="text"/></g></g><g class="legends" transform="translate(131, 567)"><g class="legend reactive activate-serie" id="activate-serie-0"><rect class="color-0 reactive" height="12" width="12" x="0.0" y="1.5"/><text x="17.0" y="12.0">beatport_key/1.0</text></g></g></g></svg>