<?xml version='1.0' encoding='utf-8'?>
<svg xmlns:xlink="http://www.w3.org/1999/xlink" xmlns="http://www.w3.org/2000/svg" id="chart-d8de0973-5d0e-437e-a732-2cb3746c6a6b" class="pygal-chart" viewBox="0 0 800 600"><!--Generated with pygal 2.4.0 (lxml) ©Kozea 2012-2016 on 2021-03-08--><!--http://pygal.org--><!--http://github.com/Kozea/pygal--><defs><style type="text/css">#chart-d8de0973-5d0e-437e-a732-2cb3746c6a6b{-webkit-user-select:none;-webkit-font-smoothing:antialiased;font-family:Helvetica,Arial,sans-serif}#chart-d8de0973-5d0e-437e-a732-2cb3746c6a6b .title{font-family:Helvetica,Arial,sans-serif;font-size:18px}#chart-d8de0973-5d0e-437e-a732-2cb3746c6a6b .legends .legend text{font-family:Helvetica,Arial,sans-serif;font-size:15px}#chart-d8de0973-5d0e-437e-a732-2cb3746c6a6b .axis text{font-family:Helvetica,Arial,sans-serif;font-size:15px}#chart-d8de0973-5d0e-437e-a732-2cb3746c6a6b .axis text.major{font-family:Helvetica,Arial,sans-serif;font-size:15px}#chart-d8de0973-5d0e-437e-a732-2cb3746c6a6b .text-overlay text.value{font-family:Helvetica,Arial,sans-serif;font-size:15px}#chart-d8de0973-5d0e-437e-a732-2cb3746c6a6b .text-overlay text.label{font-family:Helvetica,Arial,sans-serif;font-size:15px}#chart-d8de0973-5d0e-437e-a732-2cb3746c6a6b .tooltip{font-family:Helvetica,Arial,sans-serif;font-size:14px}#chart-d8de0973-5d0e-437e-a732-2cb3746c6a6b text.no_data{font-family:Helvetica,Arial,sans-serif;font-size:64px}
#chart-d8de0973-5d0e-437e-a732-2cb3746c6a6b{background-color:transparent}#chart-d8de0973-5d0e-437e-a732-2cb3746c6a6b path,#chart-d8de0973-5d0e-437e-a732-2cb3746c6a6b line,#chart-d8de0973-5d0e-437e-a732-2cb3746c6a6b rect,#chart-d8de0973-5d0e-437e-a732-2cb3746c6a6b circle{-webkit-transition:150ms;-moz-transition:150ms;transition:150ms}#chart-d8de0973-5d0e-437e-a732-2cb3746c6a6b .graph &gt; .background{fill:transparent}#chart-d8de0973-5d0e-437e-a732-2cb3746c6a6b .plot &gt; .background{fill:white}#chart-d8de0973-5d0e-437e-a732-2cb3746c6a6b .graph{fill:rgba(0,0,0,.87)}#chart-d8de0973-5d0e-437e-a732-2cb3746c6a6b text.no_data{fill:rgba(0,0,0,1)}#chart-d8de0973-5d0e-437e-a732-2cb3746c6a6b .title{fill:rgba(0,0,0,1)}#chart-d8de0973-5d0e-437e-a732-2cb3746c6a6b .legends .legend text{fill:rgba(0,0,0,.87)}#chart-d8de0973-5d0e-437e-a732-2cb3746c6a6b .legends .legend:hover text{fill:rgba(0,0,0,1)}#chart-d8de0973-5d0e-437e-a732-2cb3746c6a6b .axis .line{stroke:rgba(0,0,0,1)}#chart-d8de0973-5d0e-437e-a732-2cb3746c6a6b .axis .guide.line{stroke:rgba(0,0,0,.54)}#chart-d8de0973-5d0e-437e-a732-2cb3746c6a6b .axis .major.line{stroke:rgba(0,0,0,.87)}#chart-d8de0973-5d0e-437e-a732-2cb3746c6a6b .axis text.major{fill:rgba(0,0,0,1)}#chart-d8de0973-5d0e-437e-a732-2cb3746c6a6b .axis.y .guides:hover .guide.line,#chart-d8de0973-5d0e-437e-a732-2cb3746c6a6b .line-graph .axis.x .guides:hover .guide.line,#chart-d8de0973-5d0e-437e-a732-2cb3746c6a6b .stackedline-graph .axis.x .guides:hover .guide.line,#chart-d8de0973-5d0e-437e-a732-2cb3746c6a6b .xy-graph .axis.x .guides:hover .guide.line{stroke:rgba(0,0,0,1)}#chart-d8de0973-5d0e-437e-a732-2cb3746c6a6b .axis .guides:hover text{fill:rgba(0,0,0,1)}#chart-d8de0973-5d0e-437e-a732-2cb3746c6a6b .reactive{fill-opacity:.7;stroke-opacity:.8}#chart-d8de0973-5d0e-437e-a732-2cb3746c6a6b .ci{stroke:rgba(0,0,0,.87)}#chart-d8de0973-5d0e-437e-a732-2cb3746c6a6b .reactive.active,#chart-d8de0973-5d0e-437e-a732-2cb3746c6a6b .active .reactive{fill-opacity:.8;stroke-opacity:.9;stroke-width:4}#chart-d8de0973-5d0e-437e-a732-2cb3746c6a6b .ci .reactive.active{stroke-width:1.5}#chart-d8de0973-5d0e-437e-a732-2cb3746c6a6b .series text{fill:rgba(0,0,0,1)}#chart-d8de0973-5d0e-437e-a732-2cb3746c6a6b .tooltip rect{fill:white;stroke:rgba(0,0,0,1);-webkit-transition:opacity 150ms;-moz-transition:opacity 150ms;transition:opacity 150ms}#chart-d8de0973-5d0e-437e-a732-2cb3746c6a6b .tooltip .label{fill:rgba(0,0,0,.87)}#chart-d8de0973-5d0e-437e-a732-2cb3746c6a6b .tooltip .label{fill:rgba(0,0,0,.87)}#chart-d8de0973-5d0e-437e-a732-2cb3746c6a6b .tooltip .legend{font-size:.8em;fill:rgba(0,0,0,.54)}#chart-d8de0973-5d0e-437e-a732-2cb3746c6a6b .tooltip .x_label{font-size:.6em;fill:rgba(0,0,0,1)}#chart-d8de0973-5d0e-437e-a732-2cb3746c6a6b .tooltip .xlink{font-size:.5em;text-decoration:underline}#chart-d8de0973-5d0e-437e-a732-2cb3746c6a6b .tooltip .value{font-size:1.5em}#chart-d8de0973-5d0e-437e-a732-2cb3746c6a6b .bound{font-size:.5em}#chart-d8de0973-5d0e-437e-a732-2cb3746c6a6b .max-value{font-size:.75em;fill:rgba(0,0,0,.54)}#chart-d8de0973-5d0e-437e-a732-2cb3746c6a6b .map-element{fill:white;stroke:rgba(0,0,0,.54) !important}#chart-d8de0973-5d0e-437e-a732-2cb3746c6a6b .map-element .reactive{fill-opacity:inherit;stroke-opacity:inherit}#chart-d8de0973-5d0e-437e-a732-2cb3746c6a6b .color-0,#chart-d8de0973-5d0e-437e-a732-2cb3746c6a6b .color-0 a:visited{stroke:#F44336;fill:#F44336}#chart-d8de0973-5d0e-437e-a732-2cb3746c6a6b .text-overlay .color-0 text{fill:black}
#chart-d8de0973-5d0e-437e-a732-2cb3746c6a6b text.no_data{text-anchor:middle}#chart-d8de0973-5d0e-437e-a732-2cb3746c6a6b .guide.line{fill:none}#chart-d8de0973-5d0e-437e-a732-2cb3746c6a6b .centered{text-anchor:middle}#chart-d8de0973-5d0e-437e-a732-2cb3746c6a6b .title{text-anchor:middle}#chart-d8de0973-5d0e-437e-a732-2cb3746c6a6b .legends .legend text{fill-opacity:1}#chart-d8de0973-5d0e-437e-a732-2cb3746c6a6b .axis.x text{text-anchor:middle}#chart-d8de0973-5d0e-437e-a732-2cb3746c6a6b .axis.x:not(.web) text[transform]{text-anchor:start}#chart-d8de0973-5d0e-437e-a732-2cb3746c6a6b .axis.x:not(.web) text[transform].backwards{text-anchor:end}#chart-d8de0973-5d0e-437e-a732-2cb3746c6a6b .axis.y text{text-anchor:end}#chart-d8de0973-5d0e-437e-a732-2cb3746c6a6b .axis.y text[transform].backwards{text-anchor:start}#chart-d8de0973-5d0e-437e-a732-2cb3746c6a6b .axis.y2 text{text-anchor:start}#chart-d8de0973-5d0e-437e-a732-2cb3746c6a6b .axis.y2 text[transform].backwards{text-anchor:end}#chart-d8de0973-5d0e-437e-a732-2cb3746c6a6b .axis .guide.line{stroke-dasharray:1}#chart-d8de0973-5d0e-437e-a732-2cb3746c6a6b .axis .major.guide.line{stroke-dasharray:1}#chart-d8de0973-5d0e-437e-a732-2cb3746c6a6b .horizontal .axis.y .guide.line,#chart-d8de0973-5d0e-437e-a732-2cb3746c6a6b .horizontal .axis.y2 .guide.line,#chart-d8de0973-5d0e-437e-a732-2cb3746c6a6b .vertical .axis.x .guide.line{opacity:0}#chart-d8de0973-5d0e-437e-a732-2cb3746c6a6b .horizontal .axis.always_show .guide.line,#chart-d8de0973-5d0e-437e-a732-2cb3746c6a6b .vertical .axis.always_show .guide.line{opacity:1 !important}#chart-d8de0973-5d0e-437e-a732-2cb3746c6a6b .axis.y .guides:hover .guide.line,#chart-d8de0973-5d0e-437e-a732-2cb3746c6a6b .axis.y2 .guides:hover .guide.line,#chart-d8de0973-5d0e-437e-a732-2cb3746c6a6b .axis.x .guides:hover .guide.line{opacity:1}#chart-d8de0973-5d0e-437e-a732-2cb3746c6a6b .axis .guides:hover text{opacity:1}#chart-d8de0973-5d0e-437e-a732-2cb3746c6a6b .nofill{fill:none}#chart-d8de0973-5d0e-437e-a732-2cb3746c6a6b .subtle-fill{fill-opacity:.2}#chart-d8de0973-5d0e-437e-a732-2cb3746c6a6b .dot{stroke-width:1px;fill-opacity:1}#chart-d8de0973-5d0e-437e-a732-2cb3746c6a6b .dot.active{stroke-width:5px}#chart-d8de0973-5d0e-437e-a732-2cb3746c6a6b .dot.negative{fill:transparent}#chart-d8de0973-5d0e-437e-a732-2cb3746c6a6b text,#chart-d8de0973-5d0e-437e-a732-2cb3746c6a6b tspan{stroke:none !important}#chart-d8de0973-5d0e-437e-a732-2cb3746c6a6b .series text.active{opacity:1}#chart-d8de0973-5d0e-437e-a732-2cb3746c6a6b .tooltip rect{fill-opacity:.95;stroke-width:.5}#chart-d8de0973-5d0e-437e-a732-2cb3746c6a6b .tooltip text{fill-opacity:1}#chart-d8de0973-5d0e-437e-a732-2cb3746c6a6b .showable{visibility:hidden}#chart-d8de0973-5d0e-437e-a732-2cb3746c6a6b .showable.shown{visibility:visible}#chart-d8de0973-5d0e-437e-a732-2cb3746c6a6b .gauge-background{fill:rgba(229,229,229,1);stroke:none}#chart-d8de0973-5d0e-437e-a732-2cb3746c6a6b .bg-lines{stroke:transparent;stroke-width:2px}</style><script type="text/javascript">window.pygal = window.pygal || {};window.pygal.config = window.pygal.config || {};window.pygal.config['d8de0973-5d0e-437e-a732-2cb3746c6a6b'] = {"allow_interruptions": false, "box_mode": "extremes", "classes": ["pygal-chart"], "css": ["file://style.css", "file://graph.css"], "defs": [], "disable_xml_declaration": false, "dots_size": 2.5, "dynamic_print_values": false, "explicit_size": false, "fill": false, "force_uri_protocol": "https", "formatter": null, "half_pie": false, "height": 600, "include_x_axis": false, "inner_radius": 0, "interpolate": null, "interpolation_parameters": {}, "interpolation_precision": 250, "inverse_y_axis": false, "js": ["//kozea.github.io/pygal.js/2.0.x/pygal-tooltips.min.js"], "legend_at_bottom": true, "legend_at_bottom_columns": 2, "legend_box_size": 12, "logarithmic": false, "margin": 20, "margin_bottom": 50, "margin_left": null, "margin_right": null, "margin_top": null, "max_scale": 16, "min_scale": 4, "missing_value_fill_truncation": "x", "no_data_text": "No data", "no_prefix": false, "order_min": null, "pretty_print": false, "print_labels": false, "print_values": false, "print_values_position": "center", "print_zeroes": true, "range": [0.0, 100.0], "rounded_bars": null, "secondary_range": null, "show_dots": true, "show_legend": true, "show_minor_x_labels": false, "show_minor_y_labels": true, "show_only_major_dots": true, "show_x_guides": true, "show_x_labels": true, "show_y_guides": true, "show_y_labels": true, "spacing": 10, "stack_from_top": false, "strict": false, "stroke": true, "stroke_style": null, "style": {"background": "transparent", "ci_colors": [], "colors": ["#F44336", "#3F51B5", "#009688", "#FFC107", "#FF5722", "#9C27B0", "#03A9F4", "#8BC34A", "#FF9800", "#E91E63", "#2196F3", "#4CAF50", "#FFEB3B", "#673AB7", "#00BCD4", "#CDDC39", "#9E9E9E", "#607D8B"], "font_family": "Helvetica, Arial, sans-serif", "foreground": "rgba(0, 0, 0, .87)", "foreground_strong": "rgba(0, 0, 0, 1)", "foreground_subtle": "rgba(0, 0, 0, .54)", "guide_stroke_dasharray": 1, "label_font_family": "Helvetica, Arial, sans-serif", "label_font_size": 15, "legend_font_family": "Helvetica, Arial, sans-serif", "legend_font_size": 15, "major_guide_stroke_dasharray": 1, "major_label_font_family": "Helvetica, Arial, sans-serif", "major_label_font_size": 15, "no_data_font_family": "Helvetica, Arial, sans-serif", "no_data_font_size": 64, "opacity": ".7", "opacity_hover": ".8", "plot_background": "white", "stroke_opacity": ".8", "stroke_opacity_hover": ".9", "title_font_family": "Helvetica, Arial, sans-serif", "title_font_size": 18, "tooltip_font_family": "Helvetica, Arial, sans-serif", "tooltip_font_size": 14, "transition": "150ms", "value_background": "rgba(229, 229, 229, 1)", "value_colors": [], "value_font_family": "Helvetica, Arial, sans-serif", "value_font_size": 15, "value_label_font_family": "Helvetica, Arial, sans-serif", "value_label_font_size": 15}, "title": "Mean Accuracy2 for Tempo T \u00b110.0 BPM", "tooltip_border_radius": 0, "tooltip_fancy_mode": true, "truncate_label": null, "truncate_legend": -1, "width": 800, "x_label_rotation": 90, "x_labels": ["0.0", "1.0", "2.0", "3.0", "4.0", "5.0", "6.0", "7.0", "8.0", "9.0", "10.0", "11.0", "12.0", "13.0", "14.0", "15.0", "16.0", "17.0", "18.0", "19.0", "20.0", "21.0", "22.0", "23.0", "24.0", "25.0", "26.0", "27.0", "28.0", "29.0", "30.0", "31.0", "32.0", "33.0", "34.0", "35.0", "36.0", "37.0", "38.0", "39.0", "40.0", "41.0", "42.0", "43.0", "44.0", "45.0", "46.0", "47.0", "48.0", "49.0", "50.0", "51.0", "52.0", "53.0", "54.0", "55.0", "56.0", "57.0", "58.0", "59.0", "60.0", "61.0", "62.0", "63.0", "64.0", "65.0", "66.0", "67.0", "68.0", "69.0", "70.0", "71.0", "72.0", "73.0", "74.0", "75.0", "76.0", "77.0", "78.0", "79.0", "80.0", "81.0", "82.0", "83.0", "84.0", "85.0", "86.0", "87.0", "88.0", "89.0", "90.0", "91.0", "92.0", "93.0", "94.0", "95.0", "96.0", "97.0", "98.0", "99.0", "100.0", "101.0", "102.0", "103.0", "104.0", "105.0", "106.0", "107.0", "108.0", "109.0", "110.0", "111.0", "112.0", "113.0", "114.0", "115.0", "116.0", "117.0", "118.0", "119.0", "120.0", "121.0", "122.0", "123.0", "124.0", "125.0", "126.0", "127.0", "128.0", "129.0", "130.0", "131.0", "132.0", "133.0", "134.0", "135.0", "136.0", "137.0", "138.0", "139.0", "140.0", "141.0", "142.0", "143.0", "144.0", "145.0", "146.0", "147.0", "148.0", "149.0", "150.0", "151.0", "152.0", "153.0", "154.0", "155.0", "156.0", "157.0", "158.0", "159.0", "160.0", "161.0", "162.0", "163.0", "164.0", "165.0", "166.0", "167.0", "168.0", "169.0", "170.0", "171.0", "172.0", "173.0", "174.0", "175.0", "176.0", "177.0", "178.0", "179.0", "180.0", "181.0", "182.0", "183.0", "184.0", "185.0", "186.0", "187.0", "188.0", "189.0", "190.0", "191.0", "192.0", "193.0", "194.0", "195.0", "196.0", "197.0", "198.0", "199.0", "200.0", "201.0", "202.0", "203.0", "204.0", "205.0", "206.0", "207.0", "208.0", "209.0", "210.0", "211.0", "212.0", "213.0", "214.0", "215.0", "216.0", "217.0", "218.0", "219.0", "220.0", "221.0", "222.0", "223.0", "224.0", "225.0", "226.0", "227.0", "228.0", "229.0", "230.0", "231.0", "232.0", "233.0", "234.0", "235.0", "236.0", "237.0", "238.0", "239.0", "240.0", "241.0", "242.0", "243.0", "244.0", "245.0", "246.0", "247.0", "248.0", "249.0", "250.0", "251.0", "252.0", "253.0", "254.0", "255.0", "256.0", "257.0", "258.0", "259.0", "260.0", "261.0", "262.0", "263.0", "264.0", "265.0", "266.0", "267.0", "268.0", "269.0", "270.0", "271.0", "272.0", "273.0", "274.0", "275.0", "276.0", "277.0", "278.0", "279.0", "280.0", "281.0", "282.0", "283.0", "284.0", "285.0", "286.0", "287.0", "288.0", "289.0", "290.0", "291.0", "292.0", "293.0", "294.0", "295.0", "296.0", "297.0", "298.0", "299.0", "300.0"], "x_labels_major": null, "x_labels_major_count": 11, "x_labels_major_every": null, "x_title": "T (BPM)", "xrange": null, "y_label_rotation": 0, "y_labels": null, "y_labels_major": null, "y_labels_major_count": null, "y_labels_major_every": null, "y_title": "Mean Accuracy2 (%)", "zero": 0, "legends": ["beatport_key/1.0"]}</script><script type="text/javascript" xlink:href="https://kozea.github.io/pygal.js/2.0.x/pygal-tooltips.min.js"/></defs><title>Mean Accuracy2 for Tempo T ±10.0 BPM</title><g class="graph line-graph vertical"><rect class="background" height="600" width="800" x="0" y="0"/><g class="plot" transform="translate(103, 48)"><rect class="background" height="416.5" width="677.0" x="0" y="0"/><g class="axis y always_show"><g class="guides"><path class="major line" d="M0.000000 408.490385 h677.000000"/><text class="major" x="-5" y="413.74038461538464">0.0</text><title>0.0</title></g><g class="guides"><path class="guide line" d="M0.000000 368.442308 h677.000000"/><text class="" x="-5" y="373.6923076923077">10.0</text><title>10.0</title></g><g class="guides"><path class="guide line" d="M0.000000 328.394231 h677.000000"/><text class="" x="-5" y="333.6442307692308">20.0</text><title>20.0</title></g><g class="guides"><path class="guide line" d="M0.000000 288.346154 h677.000000"/><text class="" x="-5" y="293.5961538461538">30.0</text><title>30.0</title></g><g class="guides"><path class="guide line" d="M0.000000 248.298077 h677.000000"/><text class="" x="-5" y="253.54807692307693">40.0</text><title>40.0</title></g><g class="guides"><path class="major guide line" d="M0.000000 208.250000 h677.000000"/><text class="major" x="-5" y="213.5">50.0</text><title>50.0</title></g><g class="guides"><path class="guide line" d="M0.000000 168.201923 h677.000000"/><text class="" x="-5" y="173.45192307692307">60.0</text><title>60.0</title></g><g class="guides"><path class="guide line" d="M0.000000 128.153846 h677.000000"/><text class="" x="-5" y="133.40384615384613">70.0</text><title>70.0</title></g><g class="guides"><path class="guide line" d="M0.000000 88.105769 h677.000000"/><text class="" x="-5" y="93.35576923076923">80.0</text><title>80.0</title></g><g class="guides"><path class="guide line" d="M0.000000 48.057692 h677.000000"/><text class="" x="-5" y="53.30769230769232">90.0</text><title>90.0</title></g><g class="guides"><path class="major guide line" d="M0.000000 8.009615 h677.000000"/><text class="major" x="-5" y="13.259615384615358">100.0</text><title>100.0</title></g></g><g class="axis x always_show"><g class="guides"><path class="major line" d="M13.019231 0.000000 v416.500000"/><text class="major" x="13.01923076923077" y="434.0" transform="rotate(90 13.019231 434.000000)">0.0</text></g><g class="guides"><path class="major guide line" d="M78.115385 0.000000 v416.500000"/><text class="major" x="78.11538461538463" y="434.0" transform="rotate(90 78.115385 434.000000)">30.0</text></g><g class="guides"><path class="major guide line" d="M143.211538 0.000000 v416.500000"/><text class="major" x="143.21153846153845" y="434.0" transform="rotate(90 143.211538 434.000000)">60.0</text></g><g class="guides"><path class="major guide line" d="M208.307692 0.000000 v416.500000"/><text class="major" x="208.30769230769232" y="434.0" transform="rotate(90 208.307692 434.000000)">90.0</text></g><g class="guides"><path class="major guide line" d="M273.403846 0.000000 v416.500000"/><text class="major" x="273.4038461538462" y="434.0" transform="rotate(90 273.403846 434.000000)">120.0</text></g><g class="guides"><path class="major guide line" d="M338.500000 0.000000 v416.500000"/><text class="major" x="338.5" y="434.0" transform="rotate(90 338.500000 434.000000)">150.0</text></g><g class="guides"><path class="major guide line" d="M403.596154 0.000000 v416.500000"/><text class="major" x="403.59615384615387" y="434.0" transform="rotate(90 403.596154 434.000000)">180.0</text></g><g class="guides"><path class="major guide line" d="M468.692308 0.000000 v416.500000"/><text class="major" x="468.6923076923077" y="434.0" transform="rotate(90 468.692308 434.000000)">210.0</text></g><g class="guides"><path class="major guide line" d="M533.788462 0.000000 v416.500000"/><text class="major" x="533.7884615384615" y="434.0" transform="rotate(90 533.788462 434.000000)">240.0</text></g><g class="guides"><path class="major guide line" d="M598.884615 0.000000 v416.500000"/><text class="major" x="598.8846153846154" y="434.0" transform="rotate(90 598.884615 434.000000)">270.0</text></g><g class="guides"><path class="major guide line" d="M663.980769 0.000000 v416.500000"/><text class="major" x="663.9807692307692" y="434.0" transform="rotate(90 663.980769 434.000000)">300.0</text></g></g><g class="series serie-0 color-0"><path class="line reactive nofill" d="M13.019231 8.009615 L15.189103 8.009615 17.358974 8.009615 19.528846 8.009615 21.698718 8.009615 23.868590 8.009615 26.038462 8.009615 28.208333 8.009615 30.378205 8.009615 32.548077 8.009615 34.717949 8.009615 36.887821 8.009615 39.057692 8.009615 41.227564 8.009615 43.397436 8.009615 45.567308 8.009615 47.737179 8.009615 49.907051 8.009615 52.076923 8.009615 54.246795 8.009615 56.416667 8.009615 58.586538 8.009615 60.756410 8.009615 62.926282 8.009615 65.096154 8.009615 67.266026 8.009615 69.435897 8.009615 71.605769 8.009615 73.775641 8.009615 75.945513 8.009615 78.115385 8.009615 80.285256 8.009615 82.455128 8.009615 84.625000 8.009615 86.794872 8.009615 88.964744 8.009615 91.134615 8.009615 93.304487 8.009615 95.474359 8.009615 97.644231 8.009615 99.814103 8.009615 101.983974 8.009615 104.153846 8.009615 106.323718 8.009615 108.493590 8.009615 110.663462 8.009615 112.833333 8.009615 115.003205 8.009615 117.173077 8.009615 119.342949 8.009615 121.512821 8.009615 123.682692 8.009615 125.852564 8.009615 128.022436 8.009615 130.192308 8.009615 132.362179 8.009615 134.532051 8.009615 136.701923 8.009615 138.871795 8.009615 141.041667 8.009615 143.211538 8.009615 145.381410 8.009615 147.551282 8.009615 149.721154 8.009615 151.891026 8.009615 154.060897 8.009615 156.230769 8.009615 158.400641 8.009615 160.570513 8.009615 162.740385 8.009615 164.910256 8.009615 167.080128 8.009615 169.250000 8.009615 171.419872 8.009615 173.589744 8.009615 175.759615 8.009615 177.929487 8.009615 180.099359 20.928350 182.269231 30.258547 184.439103 28.547091 186.608974 24.028846 188.778846 24.355769 190.948718 22.312500 193.118590 35.160854 195.288462 34.270649 197.458333 32.654586 199.628205 32.281177 201.798077 32.281177 203.967949 31.567308 206.137821 31.225892 208.307692 35.069127 210.477564 35.069127 212.647436 43.950197 214.817308 44.416958 216.987179 43.051683 219.157051 47.080910 221.326923 49.084566 223.496795 56.067308 225.666667 54.442168 227.836538 57.299556 230.006410 60.531683 232.176282 71.243421 234.346154 70.153183 236.516026 76.015784 238.685897 61.920488 240.855769 57.191464 243.025641 82.675522 245.195513 84.291667 247.365385 80.824301 249.535256 92.960082 251.705128 64.643260 253.875000 66.413061 256.044872 60.903302 258.214744 47.401166 260.384615 41.152851 262.554487 34.127926 264.724359 27.764272 266.894231 24.823693 269.064103 20.013126 271.233974 19.511674 273.403846 17.567629 275.573718 17.432692 277.743590 16.450662 279.913462 16.333696 282.083333 16.127469 284.253205 15.896545 286.423077 15.727660 288.592949 12.325141 290.762821 11.389200 292.932692 11.389200 295.102564 9.523720 297.272436 9.621208 299.442308 8.784240 301.612179 8.793335 303.782051 8.812182 305.951923 8.823601 308.121795 8.897599 310.291667 8.988786 312.461538 9.080420 314.631410 8.009615 316.801282 8.009615 318.971154 8.009615 321.141026 8.009615 323.310897 8.009615 325.480769 8.009615 327.650641 8.009615 329.820513 8.009615 331.990385 8.009615 334.160256 8.009615 336.330128 8.009615 338.500000 8.009615 340.669872 8.009615 342.839744 8.009615 345.009615 8.009615 347.179487 8.009615 349.349359 8.009615 351.519231 8.009615 353.689103 8.009615 355.858974 8.009615 358.028846 8.009615 360.198718 8.009615 362.368590 8.009615 364.538462 8.009615 366.708333 8.009615 368.878205 8.009615 371.048077 8.009615 373.217949 8.009615 375.387821 8.009615 377.557692 8.009615 379.727564 8.009615 381.897436 8.009615 384.067308 8.009615 386.237179 8.009615 388.407051 8.009615 390.576923 8.009615 392.746795 8.009615 394.916667 8.009615 397.086538 8.009615 399.256410 8.009615 401.426282 8.009615 403.596154 8.009615 405.766026 8.009615 407.935897 8.009615 410.105769 8.009615 412.275641 8.009615 414.445513 8.009615 416.615385 8.009615 418.785256 8.009615 420.955128 8.009615 423.125000 8.009615 425.294872 8.009615 427.464744 8.009615 429.634615 8.009615 431.804487 8.009615 433.974359 8.009615 436.144231 8.009615 438.314103 8.009615 440.483974 8.009615 442.653846 8.009615 444.823718 8.009615 446.993590 8.009615 449.163462 8.009615 451.333333 8.009615 453.503205 8.009615 455.673077 8.009615 457.842949 8.009615 460.012821 8.009615 462.182692 8.009615 464.352564 8.009615 466.522436 8.009615 468.692308 8.009615 470.862179 8.009615 473.032051 8.009615 475.201923 8.009615 477.371795 8.009615 479.541667 8.009615 481.711538 8.009615 483.881410 8.009615 486.051282 8.009615 488.221154 8.009615 490.391026 8.009615 492.560897 8.009615 494.730769 8.009615 496.900641 8.009615 499.070513 8.009615 501.240385 8.009615 503.410256 8.009615 505.580128 8.009615 507.750000 8.009615 509.919872 8.009615 512.089744 8.009615 514.259615 8.009615 516.429487 8.009615 518.599359 8.009615 520.769231 8.009615 522.939103 8.009615 525.108974 8.009615 527.278846 8.009615 529.448718 8.009615 531.618590 8.009615 533.788462 8.009615 535.958333 8.009615 538.128205 8.009615 540.298077 8.009615 542.467949 8.009615 544.637821 8.009615 546.807692 8.009615 548.977564 8.009615 551.147436 8.009615 553.317308 8.009615 555.487179 8.009615 557.657051 8.009615 559.826923 8.009615 561.996795 8.009615 564.166667 8.009615 566.336538 8.009615 568.506410 8.009615 570.676282 8.009615 572.846154 8.009615 575.016026 8.009615 577.185897 8.009615 579.355769 8.009615 581.525641 8.009615 583.695513 8.009615 585.865385 8.009615 588.035256 8.009615 590.205128 8.009615 592.375000 8.009615 594.544872 8.009615 596.714744 8.009615 598.884615 8.009615 601.054487 8.009615 603.224359 8.009615 605.394231 8.009615 607.564103 8.009615 609.733974 8.009615 611.903846 8.009615 614.073718 8.009615 616.243590 8.009615 618.413462 8.009615 620.583333 8.009615 622.753205 8.009615 624.923077 8.009615 627.092949 8.009615 629.262821 8.009615 631.432692 8.009615 633.602564 8.009615 635.772436 8.009615 637.942308 8.009615 640.112179 8.009615 642.282051 8.009615 644.451923 8.009615 646.621795 8.009615 648.791667 8.009615 650.961538 8.009615 653.131410 8.009615 655.301282 8.009615 657.471154 8.009615 659.641026 8.009615 661.810897 8.009615 663.980769 8.009615"/></g></g><g class="titles"><text class="title plot_title" x="400.0" y="28">Mean Accuracy2 for Tempo T ±10.0 BPM</text><text class="title" x="441.5" y="547.5">T (BPM)</text><text class="title" x="0" y="284.25" transform="rotate(-90 0.000000 256.250000)">Mean Accuracy2 (%)</text></g><g class="plot overlay" transform="translate(103, 48)"><g class="series serie-0 color-0"><g class="dots"><circle class="dot reactive tooltip-trigger" cx="13.01923076923077" cy="8.009615384615358" r="2.5"/><desc class="value">100.0</desc><desc class="x ">13.01923076923077</desc><desc class="y ">8.009615384615358</desc><desc class="x_label">0.0</desc></g><g class="dots"><circle class="dot reactive tooltip-trigger" cx="78.11538461538463" cy="8.009615384615358" r="2.5"/><desc class="value">100.0</desc><desc class="x ">78.11538461538463</desc><desc class="y ">8.009615384615358</desc><desc class="x_label">30.0</desc></g><g class="dots"><circle class="dot reactive tooltip-trigger" cx="143.21153846153845" cy="8.009615384615358" r="2.5"/><desc class="value">100.0</desc><desc class="x ">143.21153846153845</desc><desc class="y ">8.009615384615358</desc><desc class="x_label">60.0</desc></g><g class="dots"><circle class="dot reactive tooltip-trigger" cx="208.30769230769232" cy="35.06912681912678" r="2.5"/><desc class="value">93.2</desc><desc class="x ">208.30769230769232</desc><desc class="y ">35.06912681912678</desc><desc class="x_label">90.0</desc></g><g class="dots"><circle class="dot reactive tooltip-trigger" cx="273.4038461538462" cy="17.567628970075305" r="2.5"/><desc class="value">97.6</desc><desc class="x ">273.4038461538462</desc><desc class="y ">17.567628970075305</desc><desc class="x_label">120.0</desc></g><g class="dots"><circle class="dot reactive tooltip-trigger" cx="338.5" cy="8.009615384615358" r="2.5"/><desc class="value">100.0</desc><desc class="x ">338.5</desc><desc class="y ">8.009615384615358</desc><desc class="x_label">150.0</desc></g><g class="dots"><circle class="dot reactive tooltip-trigger" cx="403.59615384615387" cy="8.009615384615358" r="2.5"/><desc class="value">100.0</desc><desc class="x left">403.59615384615387</desc><desc class="y left">8.009615384615358</desc><desc class="x_label">180.0</desc></g><g class="dots"><circle class="dot reactive tooltip-trigger" cx="468.6923076923077" cy="8.009615384615358" r="2.5"/><desc class="value">100.0</desc><desc class="x left">468.6923076923077</desc><desc class="y left">8.009615384615358</desc><desc class="x_label">210.0</desc></g><g class="dots"><circle class="dot reactive tooltip-trigger" cx="533.7884615384615" cy="8.009615384615358" r="2.5"/><desc class="value">100.0</desc><desc class="x left">533.7884615384615</desc><desc class="y left">8.009615384615358</desc><desc class="x_label">240.0</desc></g><g class="dots"><circle class="dot reactive tooltip-trigger" cx="598.8846153846154" cy="8.009615384615358" r="2.5"/><desc class="value">100.0</desc><desc class="x left">598.8846153846154</desc><desc class="y left">8.009615384615358</desc><desc class="x_label">270.0</desc></g><g class="dots"><circle class="dot reactive tooltip-trigger" cx="663.9807692307692" cy="8.009615384615358" r="2.5"/><desc class="value">100.0</desc><desc class="x left">663.9807692307692</desc><desc class="y left">8.009615384615358</desc><desc class="x_label">300.0</desc></g></g></g><g class="plot text-overlay" transform="translate(103, 48)"><g class="series serie-0 color-0"/></g><g class="plot tooltip-overlay" transform="translate(103, 48)"><g class="tooltip" style="opacity: 0" transform="translate(0 0)"><rect class="tooltip-box" height="0" rx="0" ry="0" width="0"/><g class="text"/></g></g><g class="legends" transform="translate(113, 567)"><g class="legend reactive activate-serie" id="activate-serie-0"><rect class="color-0 reactive" height="12" width="12" x="0.0" y="1.5"/><text x="17.0" y="12.0">beatport_key/1.0</text></g></g></g></svg>