<?xml version='1.0' encoding='utf-8'?>
<svg xmlns:xlink="http://www.w3.org/1999/xlink" xmlns="http://www.w3.org/2000/svg" id="chart-e79ec344-56fc-4a47-80e1-e18b1e6fc8b1" class="pygal-chart" viewBox="0 0 800 600"><!--Generated with pygal 2.4.0 (lxml) ©Kozea 2012-2016 on 2021-03-08--><!--http://pygal.org--><!--http://github.com/Kozea/pygal--><defs><style type="text/css">#chart-e79ec344-56fc-4a47-80e1-e18b1e6fc8b1{-webkit-user-select:none;-webkit-font-smoothing:antialiased;font-family:Helvetica,Arial,sans-serif}#chart-e79ec344-56fc-4a47-80e1-e18b1e6fc8b1 .title{font-family:Helvetica,Arial,sans-serif;font-size:18px}#chart-e79ec344-56fc-4a47-80e1-e18b1e6fc8b1 .legends .legend text{font-family:Helvetica,Arial,sans-serif;font-size:15px}#chart-e79ec344-56fc-4a47-80e1-e18b1e6fc8b1 .axis text{font-family:Helvetica,Arial,sans-serif;font-size:15px}#chart-e79ec344-56fc-4a47-80e1-e18b1e6fc8b1 .axis text.major{font-family:Helvetica,Arial,sans-serif;font-size:15px}#chart-e79ec344-56fc-4a47-80e1-e18b1e6fc8b1 .text-overlay text.value{font-family:Helvetica,Arial,sans-serif;font-size:15px}#chart-e79ec344-56fc-4a47-80e1-e18b1e6fc8b1 .text-overlay text.label{font-family:Helvetica,Arial,sans-serif;font-size:15px}#chart-e79ec344-56fc-4a47-80e1-e18b1e6fc8b1 .tooltip{font-family:Helvetica,Arial,sans-serif;font-size:14px}#chart-e79ec344-56fc-4a47-80e1-e18b1e6fc8b1 text.no_data{font-family:Helvetica,Arial,sans-serif;font-size:64px}
#chart-e79ec344-56fc-4a47-80e1-e18b1e6fc8b1{background-color:transparent}#chart-e79ec344-56fc-4a47-80e1-e18b1e6fc8b1 path,#chart-e79ec344-56fc-4a47-80e1-e18b1e6fc8b1 line,#chart-e79ec344-56fc-4a47-80e1-e18b1e6fc8b1 rect,#chart-e79ec344-56fc-4a47-80e1-e18b1e6fc8b1 circle{-webkit-transition:150ms;-moz-transition:150ms;transition:150ms}#chart-e79ec344-56fc-4a47-80e1-e18b1e6fc8b1 .graph &gt; .background{fill:transparent}#chart-e79ec344-56fc-4a47-80e1-e18b1e6fc8b1 .plot &gt; .background{fill:white}#chart-e79ec344-56fc-4a47-80e1-e18b1e6fc8b1 .graph{fill:rgba(0,0,0,.87)}#chart-e79ec344-56fc-4a47-80e1-e18b1e6fc8b1 text.no_data{fill:rgba(0,0,0,1)}#chart-e79ec344-56fc-4a47-80e1-e18b1e6fc8b1 .title{fill:rgba(0,0,0,1)}#chart-e79ec344-56fc-4a47-80e1-e18b1e6fc8b1 .legends .legend text{fill:rgba(0,0,0,.87)}#chart-e79ec344-56fc-4a47-80e1-e18b1e6fc8b1 .legends .legend:hover text{fill:rgba(0,0,0,1)}#chart-e79ec344-56fc-4a47-80e1-e18b1e6fc8b1 .axis .line{stroke:rgba(0,0,0,1)}#chart-e79ec344-56fc-4a47-80e1-e18b1e6fc8b1 .axis .guide.line{stroke:rgba(0,0,0,.54)}#chart-e79ec344-56fc-4a47-80e1-e18b1e6fc8b1 .axis .major.line{stroke:rgba(0,0,0,.87)}#chart-e79ec344-56fc-4a47-80e1-e18b1e6fc8b1 .axis text.major{fill:rgba(0,0,0,1)}#chart-e79ec344-56fc-4a47-80e1-e18b1e6fc8b1 .axis.y .guides:hover .guide.line,#chart-e79ec344-56fc-4a47-80e1-e18b1e6fc8b1 .line-graph .axis.x .guides:hover .guide.line,#chart-e79ec344-56fc-4a47-80e1-e18b1e6fc8b1 .stackedline-graph .axis.x .guides:hover .guide.line,#chart-e79ec344-56fc-4a47-80e1-e18b1e6fc8b1 .xy-graph .axis.x .guides:hover .guide.line{stroke:rgba(0,0,0,1)}#chart-e79ec344-56fc-4a47-80e1-e18b1e6fc8b1 .axis .guides:hover text{fill:rgba(0,0,0,1)}#chart-e79ec344-56fc-4a47-80e1-e18b1e6fc8b1 .reactive{fill-opacity:.7;stroke-opacity:.8}#chart-e79ec344-56fc-4a47-80e1-e18b1e6fc8b1 .ci{stroke:rgba(0,0,0,.87)}#chart-e79ec344-56fc-4a47-80e1-e18b1e6fc8b1 .reactive.active,#chart-e79ec344-56fc-4a47-80e1-e18b1e6fc8b1 .active .reactive{fill-opacity:.8;stroke-opacity:.9;stroke-width:4}#chart-e79ec344-56fc-4a47-80e1-e18b1e6fc8b1 .ci .reactive.active{stroke-width:1.5}#chart-e79ec344-56fc-4a47-80e1-e18b1e6fc8b1 .series text{fill:rgba(0,0,0,1)}#chart-e79ec344-56fc-4a47-80e1-e18b1e6fc8b1 .tooltip rect{fill:white;stroke:rgba(0,0,0,1);-webkit-transition:opacity 150ms;-moz-transition:opacity 150ms;transition:opacity 150ms}#chart-e79ec344-56fc-4a47-80e1-e18b1e6fc8b1 .tooltip .label{fill:rgba(0,0,0,.87)}#chart-e79ec344-56fc-4a47-80e1-e18b1e6fc8b1 .tooltip .label{fill:rgba(0,0,0,.87)}#chart-e79ec344-56fc-4a47-80e1-e18b1e6fc8b1 .tooltip .legend{font-size:.8em;fill:rgba(0,0,0,.54)}#chart-e79ec344-56fc-4a47-80e1-e18b1e6fc8b1 .tooltip .x_label{font-size:.6em;fill:rgba(0,0,0,1)}#chart-e79ec344-56fc-4a47-80e1-e18b1e6fc8b1 .tooltip .xlink{font-size:.5em;text-decoration:underline}#chart-e79ec344-56fc-4a47-80e1-e18b1e6fc8b1 .tooltip .value{font-size:1.5em}#chart-e79ec344-56fc-4a47-80e1-e18b1e6fc8b1 .bound{font-size:.5em}#chart-e79ec344-56fc-4a47-80e1-e18b1e6fc8b1 .max-value{font-size:.75em;fill:rgba(0,0,0,.54)}#chart-e79ec344-56fc-4a47-80e1-e18b1e6fc8b1 .map-element{fill:white;stroke:rgba(0,0,0,.54) !important}#chart-e79ec344-56fc-4a47-80e1-e18b1e6fc8b1 .map-element .reactive{fill-opacity:inherit;stroke-opacity:inherit}#chart-e79ec344-56fc-4a47-80e1-e18b1e6fc8b1 .color-0,#chart-e79ec344-56fc-4a47-80e1-e18b1e6fc8b1 .color-0 a:visited{stroke:#F44336;fill:#F44336}#chart-e79ec344-56fc-4a47-80e1-e18b1e6fc8b1 .text-overlay .color-0 text{fill:black}
#chart-e79ec344-56fc-4a47-80e1-e18b1e6fc8b1 text.no_data{text-anchor:middle}#chart-e79ec344-56fc-4a47-80e1-e18b1e6fc8b1 .guide.line{fill:none}#chart-e79ec344-56fc-4a47-80e1-e18b1e6fc8b1 .centered{text-anchor:middle}#chart-e79ec344-56fc-4a47-80e1-e18b1e6fc8b1 .title{text-anchor:middle}#chart-e79ec344-56fc-4a47-80e1-e18b1e6fc8b1 .legends .legend text{fill-opacity:1}#chart-e79ec344-56fc-4a47-80e1-e18b1e6fc8b1 .axis.x text{text-anchor:middle}#chart-e79ec344-56fc-4a47-80e1-e18b1e6fc8b1 .axis.x:not(.web) text[transform]{text-anchor:start}#chart-e79ec344-56fc-4a47-80e1-e18b1e6fc8b1 .axis.x:not(.web) text[transform].backwards{text-anchor:end}#chart-e79ec344-56fc-4a47-80e1-e18b1e6fc8b1 .axis.y text{text-anchor:end}#chart-e79ec344-56fc-4a47-80e1-e18b1e6fc8b1 .axis.y text[transform].backwards{text-anchor:start}#chart-e79ec344-56fc-4a47-80e1-e18b1e6fc8b1 .axis.y2 text{text-anchor:start}#chart-e79ec344-56fc-4a47-80e1-e18b1e6fc8b1 .axis.y2 text[transform].backwards{text-anchor:end}#chart-e79ec344-56fc-4a47-80e1-e18b1e6fc8b1 .axis .guide.line{stroke-dasharray:1}#chart-e79ec344-56fc-4a47-80e1-e18b1e6fc8b1 .axis .major.guide.line{stroke-dasharray:1}#chart-e79ec344-56fc-4a47-80e1-e18b1e6fc8b1 .horizontal .axis.y .guide.line,#chart-e79ec344-56fc-4a47-80e1-e18b1e6fc8b1 .horizontal .axis.y2 .guide.line,#chart-e79ec344-56fc-4a47-80e1-e18b1e6fc8b1 .vertical .axis.x .guide.line{opacity:0}#chart-e79ec344-56fc-4a47-80e1-e18b1e6fc8b1 .horizontal .axis.always_show .guide.line,#chart-e79ec344-56fc-4a47-80e1-e18b1e6fc8b1 .vertical .axis.always_show .guide.line{opacity:1 !important}#chart-e79ec344-56fc-4a47-80e1-e18b1e6fc8b1 .axis.y .guides:hover .guide.line,#chart-e79ec344-56fc-4a47-80e1-e18b1e6fc8b1 .axis.y2 .guides:hover .guide.line,#chart-e79ec344-56fc-4a47-80e1-e18b1e6fc8b1 .axis.x .guides:hover .guide.line{opacity:1}#chart-e79ec344-56fc-4a47-80e1-e18b1e6fc8b1 .axis .guides:hover text{opacity:1}#chart-e79ec344-56fc-4a47-80e1-e18b1e6fc8b1 .nofill{fill:none}#chart-e79ec344-56fc-4a47-80e1-e18b1e6fc8b1 .subtle-fill{fill-opacity:.2}#chart-e79ec344-56fc-4a47-80e1-e18b1e6fc8b1 .dot{stroke-width:1px;fill-opacity:1}#chart-e79ec344-56fc-4a47-80e1-e18b1e6fc8b1 .dot.active{stroke-width:5px}#chart-e79ec344-56fc-4a47-80e1-e18b1e6fc8b1 .dot.negative{fill:transparent}#chart-e79ec344-56fc-4a47-80e1-e18b1e6fc8b1 text,#chart-e79ec344-56fc-4a47-80e1-e18b1e6fc8b1 tspan{stroke:none !important}#chart-e79ec344-56fc-4a47-80e1-e18b1e6fc8b1 .series text.active{opacity:1}#chart-e79ec344-56fc-4a47-80e1-e18b1e6fc8b1 .tooltip rect{fill-opacity:.95;stroke-width:.5}#chart-e79ec344-56fc-4a47-80e1-e18b1e6fc8b1 .tooltip text{fill-opacity:1}#chart-e79ec344-56fc-4a47-80e1-e18b1e6fc8b1 .showable{visibility:hidden}#chart-e79ec344-56fc-4a47-80e1-e18b1e6fc8b1 .showable.shown{visibility:visible}#chart-e79ec344-56fc-4a47-80e1-e18b1e6fc8b1 .gauge-background{fill:rgba(229,229,229,1);stroke:none}#chart-e79ec344-56fc-4a47-80e1-e18b1e6fc8b1 .bg-lines{stroke:transparent;stroke-width:2px}</style><script type="text/javascript">window.pygal = window.pygal || {};window.pygal.config = window.pygal.config || {};window.pygal.config['e79ec344-56fc-4a47-80e1-e18b1e6fc8b1'] = {"allow_interruptions": false, "box_mode": "extremes", "classes": ["pygal-chart"], "css": ["file://style.css", "file://graph.css"], "defs": [], "disable_xml_declaration": false, "dots_size": 2.5, "dynamic_print_values": false, "explicit_size": false, "fill": false, "force_uri_protocol": "https", "formatter": null, "half_pie": false, "height": 600, "include_x_axis": false, "inner_radius": 0, "interpolate": null, "interpolation_parameters": {}, "interpolation_precision": 250, "inverse_y_axis": false, "js": ["//kozea.github.io/pygal.js/2.0.x/pygal-tooltips.min.js"], "legend_at_bottom": true, "legend_at_bottom_columns": 2, "legend_box_size": 12, "logarithmic": false, "margin": 20, "margin_bottom": 50, "margin_left": null, "margin_right": null, "margin_top": null, "max_scale": 16, "min_scale": 4, "missing_value_fill_truncation": "x", "no_data_text": "No data", "no_prefix": false, "order_min": null, "pretty_print": false, "print_labels": false, "print_values": false, "print_values_position": "center", "print_zeroes": true, "range": [0.0, 0.1], "rounded_bars": null, "secondary_range": null, "show_dots": true, "show_legend": true, "show_minor_x_labels": false, "show_minor_y_labels": true, "show_only_major_dots": true, "show_x_guides": true, "show_x_labels": true, "show_y_guides": true, "show_y_labels": true, "spacing": 10, "stack_from_top": false, "strict": false, "stroke": true, "stroke_style": null, "style": {"background": "transparent", "ci_colors": [], "colors": ["#F44336", "#3F51B5", "#009688", "#FFC107", "#FF5722", "#9C27B0", "#03A9F4", "#8BC34A", "#FF9800", "#E91E63", "#2196F3", "#4CAF50", "#FFEB3B", "#673AB7", "#00BCD4", "#CDDC39", "#9E9E9E", "#607D8B"], "font_family": "Helvetica, Arial, sans-serif", "foreground": "rgba(0, 0, 0, .87)", "foreground_strong": "rgba(0, 0, 0, 1)", "foreground_subtle": "rgba(0, 0, 0, .54)", "guide_stroke_dasharray": 1, "label_font_family": "Helvetica, Arial, sans-serif", "label_font_size": 15, "legend_font_family": "Helvetica, Arial, sans-serif", "legend_font_size": 15, "major_guide_stroke_dasharray": 1, "major_label_font_family": "Helvetica, Arial, sans-serif", "major_label_font_size": 15, "no_data_font_family": "Helvetica, Arial, sans-serif", "no_data_font_size": 64, "opacity": ".7", "opacity_hover": ".8", "plot_background": "white", "stroke_opacity": ".8", "stroke_opacity_hover": ".9", "title_font_family": "Helvetica, Arial, sans-serif", "title_font_size": 18, "tooltip_font_family": "Helvetica, Arial, sans-serif", "tooltip_font_size": 14, "transition": "150ms", "value_background": "rgba(229, 229, 229, 1)", "value_colors": [], "value_font_family": "Helvetica, Arial, sans-serif", "value_font_size": 15, "value_label_font_family": "Helvetica, Arial, sans-serif", "value_label_font_size": 15}, "title": "Mean AOE2 for Tempo T \u00b110.0 BPM", "tooltip_border_radius": 0, "tooltip_fancy_mode": true, "truncate_label": null, "truncate_legend": -1, "width": 800, "x_label_rotation": 90, "x_labels": ["0.0", "1.0", "2.0", "3.0", "4.0", "5.0", "6.0", "7.0", "8.0", "9.0", "10.0", "11.0", "12.0", "13.0", "14.0", "15.0", "16.0", "17.0", "18.0", "19.0", "20.0", "21.0", "22.0", "23.0", "24.0", "25.0", "26.0", "27.0", "28.0", "29.0", "30.0", "31.0", "32.0", "33.0", "34.0", "35.0", "36.0", "37.0", "38.0", "39.0", "40.0", "41.0", "42.0", "43.0", "44.0", "45.0", "46.0", "47.0", "48.0", "49.0", "50.0", "51.0", "52.0", "53.0", "54.0", "55.0", "56.0", "57.0", "58.0", "59.0", "60.0", "61.0", "62.0", "63.0", "64.0", "65.0", "66.0", "67.0", "68.0", "69.0", "70.0", "71.0", "72.0", "73.0", "74.0", "75.0", "76.0", "77.0", "78.0", "79.0", "80.0", "81.0", "82.0", "83.0", "84.0", "85.0", "86.0", "87.0", "88.0", "89.0", "90.0", "91.0", "92.0", "93.0", "94.0", "95.0", "96.0", "97.0", "98.0", "99.0", "100.0", "101.0", "102.0", "103.0", "104.0", "105.0", "106.0", "107.0", "108.0", "109.0", "110.0", "111.0", "112.0", "113.0", "114.0", "115.0", "116.0", "117.0", "118.0", "119.0", "120.0", "121.0", "122.0", "123.0", "124.0", "125.0", "126.0", "127.0", "128.0", "129.0", "130.0", "131.0", "132.0", "133.0", "134.0", "135.0", "136.0", "137.0", "138.0", "139.0", "140.0", "141.0", "142.0", "143.0", "144.0", "145.0", "146.0", "147.0", "148.0", "149.0", "150.0", "151.0", "152.0", "153.0", "154.0", "155.0", "156.0", "157.0", "158.0", "159.0", "160.0", "161.0", "162.0", "163.0", "164.0", "165.0", "166.0", "167.0", "168.0", "169.0", "170.0", "171.0", "172.0", "173.0", "174.0", "175.0", "176.0", "177.0", "178.0", "179.0", "180.0", "181.0", "182.0", "183.0", "184.0", "185.0", "186.0", "187.0", "188.0", "189.0", "190.0", "191.0", "192.0", "193.0", "194.0", "195.0", "196.0", "197.0", "198.0", "199.0", "200.0", "201.0", "202.0", "203.0", "204.0", "205.0", "206.0", "207.0", "208.0", "209.0", "210.0", "211.0", "212.0", "213.0", "214.0", "215.0", "216.0", "217.0", "218.0", "219.0", "220.0", "221.0", "222.0", "223.0", "224.0", "225.0", "226.0", "227.0", "228.0", "229.0", "230.0", "231.0", "232.0", "233.0", "234.0", "235.0", "236.0", "237.0", "238.0", "239.0", "240.0", "241.0", "242.0", "243.0", "244.0", "245.0", "246.0", "247.0", "248.0", "249.0", "250.0", "251.0", "252.0", "253.0", "254.0", "255.0", "256.0", "257.0", "258.0", "259.0", "260.0", "261.0", "262.0", "263.0", "264.0", "265.0", "266.0", "267.0", "268.0", "269.0", "270.0", "271.0", "272.0", "273.0", "274.0", "275.0", "276.0", "277.0", "278.0", "279.0", "280.0", "281.0", "282.0", "283.0", "284.0", "285.0", "286.0", "287.0", "288.0", "289.0", "290.0", "291.0", "292.0", "293.0", "294.0", "295.0", "296.0", "297.0", "298.0", "299.0", "300.0"], "x_labels_major": null, "x_labels_major_count": 11, "x_labels_major_every": null, "x_title": "T (BPM)", "xrange": null, "y_label_rotation": 0, "y_labels": null, "y_labels_major": null, "y_labels_major_count": null, "y_labels_major_every": null, "y_title": "Mean AOE2 (TO)", "zero": 0, "legends": ["beatport_key/1.0"]}</script><script type="text/javascript" xlink:href="https://kozea.github.io/pygal.js/2.0.x/pygal-tooltips.min.js"/></defs><title>Mean AOE2 for Tempo T ±10.0 BPM</title><g class="graph line-graph vertical"><rect class="background" height="600" width="800" x="0" y="0"/><g class="plot" transform="translate(112, 48)"><rect class="background" height="416.5" width="668.0" x="0" y="0"/><g class="axis y always_show"><g class="guides"><path class="major line" d="M0.000000 408.490385 h668.000000"/><text class="major" x="-5" y="413.74038461538464">0.0000</text><title>0.0000</title></g><g class="guides"><path class="guide line" d="M0.000000 368.442308 h668.000000"/><text class="" x="-5" y="373.6923076923077">0.0100</text><title>0.0100</title></g><g class="guides"><path class="guide line" d="M0.000000 328.394231 h668.000000"/><text class="" x="-5" y="333.6442307692308">0.0200</text><title>0.0200</title></g><g class="guides"><path class="guide line" d="M0.000000 288.346154 h668.000000"/><text class="" x="-5" y="293.59615384615387">0.0300</text><title>0.0300</title></g><g class="guides"><path class="guide line" d="M0.000000 248.298077 h668.000000"/><text class="" x="-5" y="253.5480769230769">0.0400</text><title>0.0400</title></g><g class="guides"><path class="major guide line" d="M0.000000 208.250000 h668.000000"/><text class="major" x="-5" y="213.5">0.0500</text><title>0.0500</title></g><g class="guides"><path class="guide line" d="M0.000000 168.201923 h668.000000"/><text class="" x="-5" y="173.4519230769231">0.0600</text><title>0.0600</title></g><g class="guides"><path class="guide line" d="M0.000000 128.153846 h668.000000"/><text class="" x="-5" y="133.40384615384613">0.0700</text><title>0.0700</title></g><g class="guides"><path class="guide line" d="M0.000000 88.105769 h668.000000"/><text class="" x="-5" y="93.35576923076928">0.0800</text><title>0.0800</title></g><g class="guides"><path class="guide line" d="M0.000000 48.057692 h668.000000"/><text class="" x="-5" y="53.30769230769238">0.0900</text><title>0.0900</title></g><g class="guides"><path class="major guide line" d="M0.000000 8.009615 h668.000000"/><text class="major" x="-5" y="13.259615384615358">0.1000</text><title>0.1000</title></g></g><g class="axis x always_show"><g class="guides"><path class="major line" d="M12.846154 0.000000 v416.500000"/><text class="major" x="12.846153846153845" y="434.0" transform="rotate(90 12.846154 434.000000)">0.0</text></g><g class="guides"><path class="major guide line" d="M77.076923 0.000000 v416.500000"/><text class="major" x="77.07692307692308" y="434.0" transform="rotate(90 77.076923 434.000000)">30.0</text></g><g class="guides"><path class="major guide line" d="M141.307692 0.000000 v416.500000"/><text class="major" x="141.30769230769232" y="434.0" transform="rotate(90 141.307692 434.000000)">60.0</text></g><g class="guides"><path class="major guide line" d="M205.538462 0.000000 v416.500000"/><text class="major" x="205.53846153846152" y="434.0" transform="rotate(90 205.538462 434.000000)">90.0</text></g><g class="guides"><path class="major guide line" d="M269.769231 0.000000 v416.500000"/><text class="major" x="269.7692307692308" y="434.0" transform="rotate(90 269.769231 434.000000)">120.0</text></g><g class="guides"><path class="major guide line" d="M334.000000 0.000000 v416.500000"/><text class="major" x="334.0" y="434.0" transform="rotate(90 334.000000 434.000000)">150.0</text></g><g class="guides"><path class="major guide line" d="M398.230769 0.000000 v416.500000"/><text class="major" x="398.2307692307692" y="434.0" transform="rotate(90 398.230769 434.000000)">180.0</text></g><g class="guides"><path class="major guide line" d="M462.461538 0.000000 v416.500000"/><text class="major" x="462.46153846153845" y="434.0" transform="rotate(90 462.461538 434.000000)">210.0</text></g><g class="guides"><path class="major guide line" d="M526.692308 0.000000 v416.500000"/><text class="major" x="526.6923076923076" y="434.0" transform="rotate(90 526.692308 434.000000)">240.0</text></g><g class="guides"><path class="major guide line" d="M590.923077 0.000000 v416.500000"/><text class="major" x="590.9230769230769" y="434.0" transform="rotate(90 590.923077 434.000000)">270.0</text></g><g class="guides"><path class="major guide line" d="M655.153846 0.000000 v416.500000"/><text class="major" x="655.1538461538462" y="434.0" transform="rotate(90 655.153846 434.000000)">300.0</text></g></g><g class="series serie-0 color-0"><path class="line reactive nofill" d="M12.846154 408.490385 L14.987179 408.490385 17.128205 408.490385 19.269231 408.490385 21.410256 408.490385 23.551282 408.490385 25.692308 408.490385 27.833333 408.490385 29.974359 408.490385 32.115385 408.490385 34.256410 408.490385 36.397436 408.490385 38.538462 408.490385 40.679487 408.490385 42.820513 408.490385 44.961538 408.490385 47.102564 408.490385 49.243590 408.490385 51.384615 408.490385 53.525641 408.490385 55.666667 408.490385 57.807692 408.490385 59.948718 408.490385 62.089744 408.490385 64.230769 408.490385 66.371795 408.490385 68.512821 408.490385 70.653846 408.490385 72.794872 408.490385 74.935897 408.490385 77.076923 408.490385 79.217949 408.490385 81.358974 408.490385 83.500000 408.490385 85.641026 408.490385 87.782051 408.490385 89.923077 408.490385 92.064103 408.490385 94.205128 408.490385 96.346154 408.490385 98.487179 408.490385 100.628205 408.490385 102.769231 408.490385 104.910256 408.490385 107.051282 408.490385 109.192308 408.490385 111.333333 408.490385 113.474359 408.490385 115.615385 408.490385 117.756410 408.490385 119.897436 408.490385 122.038462 408.490385 124.179487 408.490385 126.320513 408.490385 128.461538 408.490385 130.602564 408.490385 132.743590 408.490385 134.884615 408.490385 137.025641 379.957931 139.166667 379.957931 141.307692 387.091044 143.448718 387.091044 145.589744 387.091044 147.730769 387.091044 149.871795 394.224158 152.012821 394.224158 154.153846 394.224158 156.294872 396.262190 158.435897 396.262190 160.576923 397.790714 162.717949 399.930649 164.858974 399.930649 167.000000 400.708806 169.141026 400.708806 171.282051 397.433785 173.423077 396.114479 175.564103 395.021692 177.705128 372.869413 179.846154 341.089502 181.987179 346.809079 184.128205 359.087843 186.269231 358.079628 188.410256 363.253382 190.551282 309.910391 192.692308 313.142522 194.833333 319.010083 196.974359 320.365845 199.115385 320.365845 201.256410 322.957743 203.397436 324.197347 205.538462 309.991538 207.679487 309.214643 209.820513 270.963923 211.961538 269.177865 214.102564 274.402084 216.243590 257.354397 218.384615 250.475294 220.525641 223.092153 222.666667 218.289431 224.807692 207.254489 226.948718 195.119946 229.089744 151.813849 231.230769 156.239306 233.371795 132.664435 235.512821 188.561300 237.653846 207.853325 239.794872 101.402335 241.935897 93.997126 244.076923 108.292274 246.217949 57.430355 248.358974 172.997391 250.500000 163.165335 252.641026 186.851568 254.782051 243.629274 256.923077 269.779657 259.064103 298.928085 261.205128 325.665923 263.346154 337.648834 265.487179 356.949937 267.628205 358.753592 269.769231 366.078588 271.910256 366.677343 274.051282 370.806496 276.192308 371.328674 278.333333 372.365018 280.474359 373.518535 282.615385 374.176090 284.756410 388.264279 286.897436 392.266687 289.038462 392.178677 291.179487 400.220323 293.320513 399.977270 295.461538 403.614321 297.602564 403.478276 299.743590 403.357744 301.884615 403.284719 304.025641 402.914376 306.166667 402.453450 308.307692 402.130826 310.448718 407.204077 312.589744 407.696457 314.730769 407.402722 316.871795 407.373326 319.012821 407.154525 321.153846 407.115991 323.294872 407.024365 325.435897 407.148303 327.576923 407.269186 329.717949 407.519485 331.858974 407.421083 334.000000 407.692165 336.141026 407.166066 338.282051 407.135267 340.423077 406.640542 342.564103 407.197553 344.705128 405.729802 346.846154 404.536037 348.987179 404.426194 351.128205 404.187124 353.269231 403.770679 355.410256 404.056722 357.551282 400.362003 359.692308 402.142115 361.833333 401.745348 363.974359 390.889892 366.115385 391.883888 368.256410 391.883888 370.397436 391.009862 372.538462 391.009862 374.679487 386.348390 376.820513 386.348390 378.961538 384.766819 381.102564 384.766819 383.243590 384.766819 385.384615 384.766819 387.525641 380.812891 389.666667 382.280770 391.807692 382.280770 393.948718 373.605224 396.089744 373.605224 398.230769 370.116708 400.371795 353.670847 402.512821 353.670847 404.653846 353.670847 406.794872 353.670847 408.935897 377.804423 411.076923 332.893273 413.217949 332.893273 415.358974 332.893273 417.500000 332.893273 419.641026 332.893273 421.782051 332.893273 423.923077 332.893273 426.064103 332.893273 428.205128 332.893273 430.346154 332.893273 432.487179 332.893273 434.628205 332.893273 436.769231 332.893273 438.910256 378.936785 441.051282 378.936785 443.192308 378.936785 445.333333 378.936785 447.474359 378.936785 449.615385 378.936785 451.756410 378.936785 453.897436 408.490385 456.038462 408.490385 458.179487 408.490385 460.320513 408.490385 462.461538 408.490385 464.602564 408.490385 466.743590 408.490385 468.884615 408.490385 471.025641 408.490385 473.166667 408.490385 475.307692 408.490385 477.448718 408.490385 479.589744 408.490385 481.730769 408.490385 483.871795 408.490385 486.012821 408.490385 488.153846 408.490385 490.294872 408.490385 492.435897 408.490385 494.576923 408.490385 496.717949 408.490385 498.858974 408.490385 501.000000 408.490385 503.141026 408.490385 505.282051 408.490385 507.423077 408.490385 509.564103 408.490385 511.705128 408.490385 513.846154 408.490385 515.987179 408.490385 518.128205 408.490385 520.269231 408.490385 522.410256 408.490385 524.551282 408.490385 526.692308 408.490385 528.833333 408.490385 530.974359 408.490385 533.115385 408.490385 535.256410 408.490385 537.397436 408.490385 539.538462 408.490385 541.679487 408.490385 543.820513 408.490385 545.961538 408.490385 548.102564 408.490385 550.243590 408.490385 552.384615 408.490385 554.525641 408.490385 556.666667 408.490385 558.807692 408.490385 560.948718 408.490385 563.089744 408.490385 565.230769 408.490385 567.371795 408.490385 569.512821 408.490385 571.653846 408.490385 573.794872 408.490385 575.935897 408.490385 578.076923 408.490385 580.217949 408.490385 582.358974 408.490385 584.500000 408.490385 586.641026 408.490385 588.782051 408.490385 590.923077 408.490385 593.064103 408.490385 595.205128 408.490385 597.346154 408.490385 599.487179 408.490385 601.628205 408.490385 603.769231 408.490385 605.910256 408.490385 608.051282 408.490385 610.192308 408.490385 612.333333 408.490385 614.474359 408.490385 616.615385 408.490385 618.756410 408.490385 620.897436 408.490385 623.038462 408.490385 625.179487 408.490385 627.320513 408.490385 629.461538 408.490385 631.602564 408.490385 633.743590 408.490385 635.884615 408.490385 638.025641 408.490385 640.166667 408.490385 642.307692 408.490385 644.448718 408.490385 646.589744 408.490385 648.730769 408.490385 650.871795 408.490385 653.012821 408.490385 655.153846 408.490385"/></g></g><g class="titles"><text class="title plot_title" x="400.0" y="28">Mean AOE2 for Tempo T ±10.0 BPM</text><text class="title" x="446.0" y="547.5">T (BPM)</text><text class="title" x="0" y="284.25" transform="rotate(-90 0.000000 256.250000)">Mean AOE2 (TO)</text></g><g class="plot overlay" transform="translate(112, 48)"><g class="series serie-0 color-0"><g class="dots"><circle class="dot reactive tooltip-trigger" cx="12.846153846153845" cy="408.49038461538464" r="2.5"/><desc class="value">0.0000</desc><desc class="x top">12.846153846153845</desc><desc class="y top">408.49038461538464</desc><desc class="x_label">0.0</desc></g><g class="dots"><circle class="dot reactive tooltip-trigger" cx="77.07692307692308" cy="408.49038461538464" r="2.5"/><desc class="value">0.0000</desc><desc class="x top">77.07692307692308</desc><desc class="y top">408.49038461538464</desc><desc class="x_label">30.0</desc></g><g class="dots"><circle class="dot reactive tooltip-trigger" cx="141.30769230769232" cy="387.09104433869203" r="2.5"/><desc class="value">0.0053</desc><desc class="x top">141.30769230769232</desc><desc class="y top">387.09104433869203</desc><desc class="x_label">60.0</desc></g><g class="dots"><circle class="dot reactive tooltip-trigger" cx="205.53846153846152" cy="309.9915376422277" r="2.5"/><desc class="value">0.0246</desc><desc class="x top">205.53846153846152</desc><desc class="y top">309.9915376422277</desc><desc class="x_label">90.0</desc></g><g class="dots"><circle class="dot reactive tooltip-trigger" cx="269.7692307692308" cy="366.0785883940976" r="2.5"/><desc class="value">0.0106</desc><desc class="x top">269.7692307692308</desc><desc class="y top">366.0785883940976</desc><desc class="x_label">120.0</desc></g><g class="dots"><circle class="dot reactive tooltip-trigger" cx="334.0" cy="407.6921649234641" r="2.5"/><desc class="value">0.0002</desc><desc class="x top">334.0</desc><desc class="y top">407.6921649234641</desc><desc class="x_label">150.0</desc></g><g class="dots"><circle class="dot reactive tooltip-trigger" cx="398.2307692307692" cy="370.11670796008775" r="2.5"/><desc class="value">0.0096</desc><desc class="x left top">398.2307692307692</desc><desc class="y left top">370.11670796008775</desc><desc class="x_label">180.0</desc></g><g class="dots"><circle class="dot reactive tooltip-trigger" cx="462.46153846153845" cy="408.49038461538464" r="2.5"/><desc class="value">0.0000</desc><desc class="x left top">462.46153846153845</desc><desc class="y left top">408.49038461538464</desc><desc class="x_label">210.0</desc></g><g class="dots"><circle class="dot reactive tooltip-trigger" cx="526.6923076923076" cy="408.49038461538464" r="2.5"/><desc class="value">0.0000</desc><desc class="x left top">526.6923076923076</desc><desc class="y left top">408.49038461538464</desc><desc class="x_label">240.0</desc></g><g class="dots"><circle class="dot reactive tooltip-trigger" cx="590.9230769230769" cy="408.49038461538464" r="2.5"/><desc class="value">0.0000</desc><desc class="x left top">590.9230769230769</desc><desc class="y left top">408.49038461538464</desc><desc class="x_label">270.0</desc></g><g class="dots"><circle class="dot reactive tooltip-trigger" cx="655.1538461538462" cy="408.49038461538464" r="2.5"/><desc class="value">0.0000</desc><desc class="x left top">655.1538461538462</desc><desc class="y left top">408.49038461538464</desc><desc class="x_label">300.0</desc></g></g></g><g class="plot text-overlay" transform="translate(112, 48)"><g class="series serie-0 color-0"/></g><g class="plot tooltip-overlay" transform="translate(112, 48)"><g class="tooltip" style="opacity: 0" transform="translate(0 0)"><rect class="tooltip-box" height="0" rx="0" ry="0" width="0"/><g class="text"/></g></g><g class="legends" transform="translate(122, 567)"><g class="legend reactive activate-serie" id="activate-serie-0"><rect class="color-0 reactive" height="12" width="12" x="0.0" y="1.5"/><text x="17.0" y="12.0">beatport_key/1.0</text></g></g></g></svg>