<?xml version="1.0" encoding="utf-8" standalone="no"?>
<!DOCTYPE svg PUBLIC "-//W3C//DTD SVG 1.1//EN"
  "http://www.w3.org/Graphics/SVG/1.1/DTD/svg11.dtd">
<!-- Created with matplotlib (https://matplotlib.org/) -->
<svg height="209.007975pt" version="1.1" viewBox="0 0 568.6075 209.007975" width="568.6075pt" xmlns="http://www.w3.org/2000/svg" xmlns:xlink="http://www.w3.org/1999/xlink">
 <defs>
  <style type="text/css">
*{stroke-linecap:butt;stroke-linejoin:round;}
  </style>
 </defs>
 <g id="figure_1">
  <g id="patch_1">
   <path d="M 0 209.007975 
L 568.6075 209.007975 
L 568.6075 0 
L 0 0 
z
" style="fill:#ffffff;"/>
  </g>
  <g id="axes_1">
   <g id="patch_2">
    <path d="M 130.4875 171.451725 
L 521.0875 171.451725 
L 521.0875 22.318125 
L 130.4875 22.318125 
z
" style="fill:#ffffff;"/>
   </g>
   <g id="PolyCollection_1">
    <defs>
     <path d="M 148.242045 -106.58264 
L 148.242045 -63.316306 
L 151.828822 -70.245597 
L 155.415599 -75.888458 
L 159.002376 -85.383586 
L 162.589153 -97.353874 
L 166.17593 -108.175354 
L 169.762707 -115.460364 
L 173.349483 -118.989309 
L 176.93626 -119.701449 
L 180.523037 -118.067749 
L 184.109814 -114.399236 
L 187.696591 -109.592032 
L 191.283368 -105.569267 
L 194.870145 -103.77172 
L 198.456921 -104.006421 
L 202.043698 -105.579858 
L 205.630475 -107.612732 
L 209.217252 -109.851438 
L 212.804029 -113.016869 
L 216.390806 -117.147435 
L 219.977583 -121.302571 
L 223.56436 -124.607983 
L 227.151136 -126.80449 
L 230.737913 -127.957712 
L 234.32469 -128.070818 
L 237.911467 -127.166015 
L 241.498244 -125.219767 
L 245.085021 -122.306981 
L 248.671798 -119.071478 
L 252.258574 -116.607431 
L 255.845351 -115.81086 
L 259.432128 -116.448608 
L 263.018905 -117.806293 
L 266.605682 -119.247116 
L 270.192459 -120.53795 
L 273.779236 -121.817011 
L 277.366012 -123.249706 
L 280.952789 -124.807538 
L 284.539566 -126.309605 
L 288.126343 -127.518771 
L 291.71312 -128.361576 
L 295.299897 -129.175244 
L 298.886674 -130.338794 
L 302.47345 -131.783657 
L 306.060227 -133.255318 
L 309.647004 -134.460035 
L 313.233781 -135.266583 
L 316.820558 -135.787445 
L 320.407335 -136.027132 
L 323.994112 -135.772966 
L 327.580888 -134.980085 
L 331.167665 -133.852904 
L 334.754442 -132.625124 
L 338.341219 -131.469461 
L 341.927996 -130.444067 
L 345.514773 -129.512509 
L 349.10155 -128.690223 
L 352.688326 -128.274637 
L 356.275103 -128.754198 
L 359.86188 -130.391565 
L 363.448657 -132.40697 
L 367.035434 -133.771292 
L 370.622211 -133.824267 
L 374.208988 -132.011565 
L 377.795764 -127.644073 
L 381.382541 -119.991958 
L 384.969318 -109.588842 
L 388.556095 -98.051751 
L 392.142872 -87.604814 
L 395.729649 -80.506475 
L 399.316426 -78.829741 
L 402.903202 -83.254368 
L 406.489979 -91.217281 
L 410.076756 -100.026245 
L 413.663533 -107.995651 
L 417.25031 -113.976721 
L 420.837087 -116.662181 
L 424.423864 -115.158576 
L 428.01064 -109.8332 
L 431.597417 -101.989065 
L 435.184194 -94.555482 
L 438.770971 -90.958826 
L 442.357748 -93.85078 
L 445.944525 -100.991828 
L 449.531302 -106.163727 
L 453.118079 -109.028034 
L 456.704855 -110.609884 
L 460.291632 -110.705011 
L 463.878409 -108.634691 
L 467.465186 -104.168844 
L 471.051963 -97.429197 
L 474.63874 -88.578362 
L 478.225517 -78.315464 
L 481.812293 -68.473671 
L 485.39907 -61.616798 
L 488.985847 -58.583855 
L 492.572624 -58.749861 
L 496.159401 -60.663719 
L 499.746178 -62.274625 
L 503.332955 -62.268423 
L 503.332955 -111.658149 
L 503.332955 -111.658149 
L 499.746178 -102.897974 
L 496.159401 -99.319953 
L 492.572624 -100.189699 
L 488.985847 -104.036177 
L 485.39907 -109.988056 
L 481.812293 -117.996648 
L 478.225517 -128.460262 
L 474.63874 -141.077469 
L 471.051963 -154.462589 
L 467.465186 -166.0959 
L 463.878409 -172.921168 
L 460.291632 -171.895115 
L 456.704855 -162.440301 
L 453.118079 -147.6757 
L 449.531302 -131.526544 
L 445.944525 -119.147464 
L 442.357748 -114.329512 
L 438.770971 -114.782746 
L 435.184194 -118.149961 
L 431.597417 -123.218055 
L 428.01064 -129.407312 
L 424.423864 -135.640954 
L 420.837087 -139.215902 
L 417.25031 -136.968061 
L 413.663533 -129.273739 
L 410.076756 -118.883203 
L 406.489979 -108.73956 
L 402.903202 -101.24908 
L 399.316426 -97.811412 
L 395.729649 -99.099827 
L 392.142872 -104.146148 
L 388.556095 -111.644863 
L 384.969318 -120.473866 
L 381.382541 -129.476739 
L 377.795764 -136.890129 
L 374.208988 -140.870471 
L 370.622211 -141.676443 
L 367.035434 -140.312499 
L 363.448657 -137.917877 
L 359.86188 -135.525877 
L 356.275103 -133.796198 
L 352.688326 -132.96994 
L 349.10155 -132.979737 
L 345.514773 -133.82105 
L 341.927996 -135.298322 
L 338.341219 -136.934001 
L 334.754442 -138.20422 
L 331.167665 -138.881297 
L 327.580888 -139.106021 
L 323.994112 -139.096361 
L 320.407335 -139.040993 
L 316.820558 -138.879322 
L 313.233781 -138.389328 
L 309.647004 -137.666473 
L 306.060227 -136.993817 
L 302.47345 -136.412908 
L 298.886674 -135.802776 
L 295.299897 -135.081677 
L 291.71312 -134.326557 
L 288.126343 -133.835991 
L 284.539566 -133.75504 
L 280.952789 -133.817282 
L 277.366012 -133.592621 
L 273.779236 -132.707196 
L 270.192459 -131.045834 
L 266.605682 -129.194632 
L 263.018905 -127.863722 
L 259.432128 -127.391923 
L 255.845351 -127.714378 
L 252.258574 -128.688195 
L 248.671798 -130.265306 
L 245.085021 -132.436274 
L 241.498244 -135.198791 
L 237.911467 -138.100199 
L 234.32469 -140.118923 
L 230.737913 -140.143668 
L 227.151136 -137.816773 
L 223.56436 -133.980677 
L 219.977583 -129.660813 
L 216.390806 -125.55781 
L 212.804029 -121.757185 
L 209.217252 -118.26582 
L 205.630475 -115.741725 
L 202.043698 -115.171391 
L 198.456921 -116.54921 
L 194.870145 -119.243874 
L 191.283368 -122.809869 
L 187.696591 -127.186198 
L 184.109814 -132.496192 
L 180.523037 -138.360275 
L 176.93626 -143.353034 
L 173.349483 -145.463963 
L 169.762707 -142.842493 
L 166.17593 -134.776691 
L 162.589153 -123.992152 
L 159.002376 -112.97437 
L 155.415599 -102.979127 
L 151.828822 -97.509068 
L 148.242045 -106.58264 
z
" id="mc082975b4c" style="stroke:#d3d3d3;"/>
    </defs>
    <g clip-path="url(#pf39d25cd74)">
     <use style="fill:#d3d3d3;stroke:#d3d3d3;" x="0" xlink:href="#mc082975b4c" y="209.007975"/>
    </g>
   </g>
   <g id="matplotlib.axis_1">
    <g id="xtick_1">
     <g id="line2d_1">
      <path clip-path="url(#pf39d25cd74)" d="M 131.726189 171.451725 
L 131.726189 22.318125 
" style="fill:none;stroke:#b0b0b0;stroke-linecap:square;stroke-width:0.8;"/>
     </g>
     <g id="line2d_2">
      <defs>
       <path d="M 0 0 
L 0 3.5 
" id="m1049fe5cf8" style="stroke:#000000;stroke-width:0.8;"/>
      </defs>
      <g>
       <use style="stroke:#000000;stroke-width:0.8;" x="131.726189" xlink:href="#m1049fe5cf8" y="171.451725"/>
      </g>
     </g>
     <g id="text_1">
      <!-- 60 -->
      <defs>
       <path d="M 33.015625 40.375 
Q 26.375 40.375 22.484375 35.828125 
Q 18.609375 31.296875 18.609375 23.390625 
Q 18.609375 15.53125 22.484375 10.953125 
Q 26.375 6.390625 33.015625 6.390625 
Q 39.65625 6.390625 43.53125 10.953125 
Q 47.40625 15.53125 47.40625 23.390625 
Q 47.40625 31.296875 43.53125 35.828125 
Q 39.65625 40.375 33.015625 40.375 
z
M 52.59375 71.296875 
L 52.59375 62.3125 
Q 48.875 64.0625 45.09375 64.984375 
Q 41.3125 65.921875 37.59375 65.921875 
Q 27.828125 65.921875 22.671875 59.328125 
Q 17.53125 52.734375 16.796875 39.40625 
Q 19.671875 43.65625 24.015625 45.921875 
Q 28.375 48.1875 33.59375 48.1875 
Q 44.578125 48.1875 50.953125 41.515625 
Q 57.328125 34.859375 57.328125 23.390625 
Q 57.328125 12.15625 50.6875 5.359375 
Q 44.046875 -1.421875 33.015625 -1.421875 
Q 20.359375 -1.421875 13.671875 8.265625 
Q 6.984375 17.96875 6.984375 36.375 
Q 6.984375 53.65625 15.1875 63.9375 
Q 23.390625 74.21875 37.203125 74.21875 
Q 40.921875 74.21875 44.703125 73.484375 
Q 48.484375 72.75 52.59375 71.296875 
z
" id="DejaVuSans-54"/>
       <path d="M 31.78125 66.40625 
Q 24.171875 66.40625 20.328125 58.90625 
Q 16.5 51.421875 16.5 36.375 
Q 16.5 21.390625 20.328125 13.890625 
Q 24.171875 6.390625 31.78125 6.390625 
Q 39.453125 6.390625 43.28125 13.890625 
Q 47.125 21.390625 47.125 36.375 
Q 47.125 51.421875 43.28125 58.90625 
Q 39.453125 66.40625 31.78125 66.40625 
z
M 31.78125 74.21875 
Q 44.046875 74.21875 50.515625 64.515625 
Q 56.984375 54.828125 56.984375 36.375 
Q 56.984375 17.96875 50.515625 8.265625 
Q 44.046875 -1.421875 31.78125 -1.421875 
Q 19.53125 -1.421875 13.0625 8.265625 
Q 6.59375 17.96875 6.59375 36.375 
Q 6.59375 54.828125 13.0625 64.515625 
Q 19.53125 74.21875 31.78125 74.21875 
z
" id="DejaVuSans-48"/>
      </defs>
      <g transform="translate(125.363689 186.050162)scale(0.1 -0.1)">
       <use xlink:href="#DejaVuSans-54"/>
       <use x="63.623047" xlink:href="#DejaVuSans-48"/>
      </g>
     </g>
    </g>
    <g id="xtick_2">
     <g id="line2d_3">
      <path clip-path="url(#pf39d25cd74)" d="M 186.779043 171.451725 
L 186.779043 22.318125 
" style="fill:none;stroke:#b0b0b0;stroke-linecap:square;stroke-width:0.8;"/>
     </g>
     <g id="line2d_4">
      <g>
       <use style="stroke:#000000;stroke-width:0.8;" x="186.779043" xlink:href="#m1049fe5cf8" y="171.451725"/>
      </g>
     </g>
     <g id="text_2">
      <!-- 80 -->
      <defs>
       <path d="M 31.78125 34.625 
Q 24.75 34.625 20.71875 30.859375 
Q 16.703125 27.09375 16.703125 20.515625 
Q 16.703125 13.921875 20.71875 10.15625 
Q 24.75 6.390625 31.78125 6.390625 
Q 38.8125 6.390625 42.859375 10.171875 
Q 46.921875 13.96875 46.921875 20.515625 
Q 46.921875 27.09375 42.890625 30.859375 
Q 38.875 34.625 31.78125 34.625 
z
M 21.921875 38.8125 
Q 15.578125 40.375 12.03125 44.71875 
Q 8.5 49.078125 8.5 55.328125 
Q 8.5 64.0625 14.71875 69.140625 
Q 20.953125 74.21875 31.78125 74.21875 
Q 42.671875 74.21875 48.875 69.140625 
Q 55.078125 64.0625 55.078125 55.328125 
Q 55.078125 49.078125 51.53125 44.71875 
Q 48 40.375 41.703125 38.8125 
Q 48.828125 37.15625 52.796875 32.3125 
Q 56.78125 27.484375 56.78125 20.515625 
Q 56.78125 9.90625 50.3125 4.234375 
Q 43.84375 -1.421875 31.78125 -1.421875 
Q 19.734375 -1.421875 13.25 4.234375 
Q 6.78125 9.90625 6.78125 20.515625 
Q 6.78125 27.484375 10.78125 32.3125 
Q 14.796875 37.15625 21.921875 38.8125 
z
M 18.3125 54.390625 
Q 18.3125 48.734375 21.84375 45.5625 
Q 25.390625 42.390625 31.78125 42.390625 
Q 38.140625 42.390625 41.71875 45.5625 
Q 45.3125 48.734375 45.3125 54.390625 
Q 45.3125 60.0625 41.71875 63.234375 
Q 38.140625 66.40625 31.78125 66.40625 
Q 25.390625 66.40625 21.84375 63.234375 
Q 18.3125 60.0625 18.3125 54.390625 
z
" id="DejaVuSans-56"/>
      </defs>
      <g transform="translate(180.416543 186.050162)scale(0.1 -0.1)">
       <use xlink:href="#DejaVuSans-56"/>
       <use x="63.623047" xlink:href="#DejaVuSans-48"/>
      </g>
     </g>
    </g>
    <g id="xtick_3">
     <g id="line2d_5">
      <path clip-path="url(#pf39d25cd74)" d="M 241.831897 171.451725 
L 241.831897 22.318125 
" style="fill:none;stroke:#b0b0b0;stroke-linecap:square;stroke-width:0.8;"/>
     </g>
     <g id="line2d_6">
      <g>
       <use style="stroke:#000000;stroke-width:0.8;" x="241.831897" xlink:href="#m1049fe5cf8" y="171.451725"/>
      </g>
     </g>
     <g id="text_3">
      <!-- 100 -->
      <defs>
       <path d="M 12.40625 8.296875 
L 28.515625 8.296875 
L 28.515625 63.921875 
L 10.984375 60.40625 
L 10.984375 69.390625 
L 28.421875 72.90625 
L 38.28125 72.90625 
L 38.28125 8.296875 
L 54.390625 8.296875 
L 54.390625 0 
L 12.40625 0 
z
" id="DejaVuSans-49"/>
      </defs>
      <g transform="translate(232.288147 186.050162)scale(0.1 -0.1)">
       <use xlink:href="#DejaVuSans-49"/>
       <use x="63.623047" xlink:href="#DejaVuSans-48"/>
       <use x="127.246094" xlink:href="#DejaVuSans-48"/>
      </g>
     </g>
    </g>
    <g id="xtick_4">
     <g id="line2d_7">
      <path clip-path="url(#pf39d25cd74)" d="M 296.884752 171.451725 
L 296.884752 22.318125 
" style="fill:none;stroke:#b0b0b0;stroke-linecap:square;stroke-width:0.8;"/>
     </g>
     <g id="line2d_8">
      <g>
       <use style="stroke:#000000;stroke-width:0.8;" x="296.884752" xlink:href="#m1049fe5cf8" y="171.451725"/>
      </g>
     </g>
     <g id="text_4">
      <!-- 120 -->
      <defs>
       <path d="M 19.1875 8.296875 
L 53.609375 8.296875 
L 53.609375 0 
L 7.328125 0 
L 7.328125 8.296875 
Q 12.9375 14.109375 22.625 23.890625 
Q 32.328125 33.6875 34.8125 36.53125 
Q 39.546875 41.84375 41.421875 45.53125 
Q 43.3125 49.21875 43.3125 52.78125 
Q 43.3125 58.59375 39.234375 62.25 
Q 35.15625 65.921875 28.609375 65.921875 
Q 23.96875 65.921875 18.8125 64.3125 
Q 13.671875 62.703125 7.8125 59.421875 
L 7.8125 69.390625 
Q 13.765625 71.78125 18.9375 73 
Q 24.125 74.21875 28.421875 74.21875 
Q 39.75 74.21875 46.484375 68.546875 
Q 53.21875 62.890625 53.21875 53.421875 
Q 53.21875 48.921875 51.53125 44.890625 
Q 49.859375 40.875 45.40625 35.40625 
Q 44.1875 33.984375 37.640625 27.21875 
Q 31.109375 20.453125 19.1875 8.296875 
z
" id="DejaVuSans-50"/>
      </defs>
      <g transform="translate(287.341002 186.050162)scale(0.1 -0.1)">
       <use xlink:href="#DejaVuSans-49"/>
       <use x="63.623047" xlink:href="#DejaVuSans-50"/>
       <use x="127.246094" xlink:href="#DejaVuSans-48"/>
      </g>
     </g>
    </g>
    <g id="xtick_5">
     <g id="line2d_9">
      <path clip-path="url(#pf39d25cd74)" d="M 351.937606 171.451725 
L 351.937606 22.318125 
" style="fill:none;stroke:#b0b0b0;stroke-linecap:square;stroke-width:0.8;"/>
     </g>
     <g id="line2d_10">
      <g>
       <use style="stroke:#000000;stroke-width:0.8;" x="351.937606" xlink:href="#m1049fe5cf8" y="171.451725"/>
      </g>
     </g>
     <g id="text_5">
      <!-- 140 -->
      <defs>
       <path d="M 37.796875 64.3125 
L 12.890625 25.390625 
L 37.796875 25.390625 
z
M 35.203125 72.90625 
L 47.609375 72.90625 
L 47.609375 25.390625 
L 58.015625 25.390625 
L 58.015625 17.1875 
L 47.609375 17.1875 
L 47.609375 0 
L 37.796875 0 
L 37.796875 17.1875 
L 4.890625 17.1875 
L 4.890625 26.703125 
z
" id="DejaVuSans-52"/>
      </defs>
      <g transform="translate(342.393856 186.050162)scale(0.1 -0.1)">
       <use xlink:href="#DejaVuSans-49"/>
       <use x="63.623047" xlink:href="#DejaVuSans-52"/>
       <use x="127.246094" xlink:href="#DejaVuSans-48"/>
      </g>
     </g>
    </g>
    <g id="xtick_6">
     <g id="line2d_11">
      <path clip-path="url(#pf39d25cd74)" d="M 406.99046 171.451725 
L 406.99046 22.318125 
" style="fill:none;stroke:#b0b0b0;stroke-linecap:square;stroke-width:0.8;"/>
     </g>
     <g id="line2d_12">
      <g>
       <use style="stroke:#000000;stroke-width:0.8;" x="406.99046" xlink:href="#m1049fe5cf8" y="171.451725"/>
      </g>
     </g>
     <g id="text_6">
      <!-- 160 -->
      <g transform="translate(397.44671 186.050162)scale(0.1 -0.1)">
       <use xlink:href="#DejaVuSans-49"/>
       <use x="63.623047" xlink:href="#DejaVuSans-54"/>
       <use x="127.246094" xlink:href="#DejaVuSans-48"/>
      </g>
     </g>
    </g>
    <g id="xtick_7">
     <g id="line2d_13">
      <path clip-path="url(#pf39d25cd74)" d="M 462.043314 171.451725 
L 462.043314 22.318125 
" style="fill:none;stroke:#b0b0b0;stroke-linecap:square;stroke-width:0.8;"/>
     </g>
     <g id="line2d_14">
      <g>
       <use style="stroke:#000000;stroke-width:0.8;" x="462.043314" xlink:href="#m1049fe5cf8" y="171.451725"/>
      </g>
     </g>
     <g id="text_7">
      <!-- 180 -->
      <g transform="translate(452.499564 186.050162)scale(0.1 -0.1)">
       <use xlink:href="#DejaVuSans-49"/>
       <use x="63.623047" xlink:href="#DejaVuSans-56"/>
       <use x="127.246094" xlink:href="#DejaVuSans-48"/>
      </g>
     </g>
    </g>
    <g id="xtick_8">
     <g id="line2d_15">
      <path clip-path="url(#pf39d25cd74)" d="M 517.096168 171.451725 
L 517.096168 22.318125 
" style="fill:none;stroke:#b0b0b0;stroke-linecap:square;stroke-width:0.8;"/>
     </g>
     <g id="line2d_16">
      <g>
       <use style="stroke:#000000;stroke-width:0.8;" x="517.096168" xlink:href="#m1049fe5cf8" y="171.451725"/>
      </g>
     </g>
     <g id="text_8">
      <!-- 200 -->
      <g transform="translate(507.552418 186.050162)scale(0.1 -0.1)">
       <use xlink:href="#DejaVuSans-50"/>
       <use x="63.623047" xlink:href="#DejaVuSans-48"/>
       <use x="127.246094" xlink:href="#DejaVuSans-48"/>
      </g>
     </g>
    </g>
    <g id="text_9">
     <!-- Tempo (BPM) -->
     <defs>
      <path d="M -0.296875 72.90625 
L 61.375 72.90625 
L 61.375 64.59375 
L 35.5 64.59375 
L 35.5 0 
L 25.59375 0 
L 25.59375 64.59375 
L -0.296875 64.59375 
z
" id="DejaVuSans-84"/>
      <path d="M 56.203125 29.59375 
L 56.203125 25.203125 
L 14.890625 25.203125 
Q 15.484375 15.921875 20.484375 11.0625 
Q 25.484375 6.203125 34.421875 6.203125 
Q 39.59375 6.203125 44.453125 7.46875 
Q 49.3125 8.734375 54.109375 11.28125 
L 54.109375 2.78125 
Q 49.265625 0.734375 44.1875 -0.34375 
Q 39.109375 -1.421875 33.890625 -1.421875 
Q 20.796875 -1.421875 13.15625 6.1875 
Q 5.515625 13.8125 5.515625 26.8125 
Q 5.515625 40.234375 12.765625 48.109375 
Q 20.015625 56 32.328125 56 
Q 43.359375 56 49.78125 48.890625 
Q 56.203125 41.796875 56.203125 29.59375 
z
M 47.21875 32.234375 
Q 47.125 39.59375 43.09375 43.984375 
Q 39.0625 48.390625 32.421875 48.390625 
Q 24.90625 48.390625 20.390625 44.140625 
Q 15.875 39.890625 15.1875 32.171875 
z
" id="DejaVuSans-101"/>
      <path d="M 52 44.1875 
Q 55.375 50.25 60.0625 53.125 
Q 64.75 56 71.09375 56 
Q 79.640625 56 84.28125 50.015625 
Q 88.921875 44.046875 88.921875 33.015625 
L 88.921875 0 
L 79.890625 0 
L 79.890625 32.71875 
Q 79.890625 40.578125 77.09375 44.375 
Q 74.3125 48.1875 68.609375 48.1875 
Q 61.625 48.1875 57.5625 43.546875 
Q 53.515625 38.921875 53.515625 30.90625 
L 53.515625 0 
L 44.484375 0 
L 44.484375 32.71875 
Q 44.484375 40.625 41.703125 44.40625 
Q 38.921875 48.1875 33.109375 48.1875 
Q 26.21875 48.1875 22.15625 43.53125 
Q 18.109375 38.875 18.109375 30.90625 
L 18.109375 0 
L 9.078125 0 
L 9.078125 54.6875 
L 18.109375 54.6875 
L 18.109375 46.1875 
Q 21.1875 51.21875 25.484375 53.609375 
Q 29.78125 56 35.6875 56 
Q 41.65625 56 45.828125 52.96875 
Q 50 49.953125 52 44.1875 
z
" id="DejaVuSans-109"/>
      <path d="M 18.109375 8.203125 
L 18.109375 -20.796875 
L 9.078125 -20.796875 
L 9.078125 54.6875 
L 18.109375 54.6875 
L 18.109375 46.390625 
Q 20.953125 51.265625 25.265625 53.625 
Q 29.59375 56 35.59375 56 
Q 45.5625 56 51.78125 48.09375 
Q 58.015625 40.1875 58.015625 27.296875 
Q 58.015625 14.40625 51.78125 6.484375 
Q 45.5625 -1.421875 35.59375 -1.421875 
Q 29.59375 -1.421875 25.265625 0.953125 
Q 20.953125 3.328125 18.109375 8.203125 
z
M 48.6875 27.296875 
Q 48.6875 37.203125 44.609375 42.84375 
Q 40.53125 48.484375 33.40625 48.484375 
Q 26.265625 48.484375 22.1875 42.84375 
Q 18.109375 37.203125 18.109375 27.296875 
Q 18.109375 17.390625 22.1875 11.75 
Q 26.265625 6.109375 33.40625 6.109375 
Q 40.53125 6.109375 44.609375 11.75 
Q 48.6875 17.390625 48.6875 27.296875 
z
" id="DejaVuSans-112"/>
      <path d="M 30.609375 48.390625 
Q 23.390625 48.390625 19.1875 42.75 
Q 14.984375 37.109375 14.984375 27.296875 
Q 14.984375 17.484375 19.15625 11.84375 
Q 23.34375 6.203125 30.609375 6.203125 
Q 37.796875 6.203125 41.984375 11.859375 
Q 46.1875 17.53125 46.1875 27.296875 
Q 46.1875 37.015625 41.984375 42.703125 
Q 37.796875 48.390625 30.609375 48.390625 
z
M 30.609375 56 
Q 42.328125 56 49.015625 48.375 
Q 55.71875 40.765625 55.71875 27.296875 
Q 55.71875 13.875 49.015625 6.21875 
Q 42.328125 -1.421875 30.609375 -1.421875 
Q 18.84375 -1.421875 12.171875 6.21875 
Q 5.515625 13.875 5.515625 27.296875 
Q 5.515625 40.765625 12.171875 48.375 
Q 18.84375 56 30.609375 56 
z
" id="DejaVuSans-111"/>
      <path id="DejaVuSans-32"/>
      <path d="M 31 75.875 
Q 24.46875 64.65625 21.28125 53.65625 
Q 18.109375 42.671875 18.109375 31.390625 
Q 18.109375 20.125 21.3125 9.0625 
Q 24.515625 -2 31 -13.1875 
L 23.1875 -13.1875 
Q 15.875 -1.703125 12.234375 9.375 
Q 8.59375 20.453125 8.59375 31.390625 
Q 8.59375 42.28125 12.203125 53.3125 
Q 15.828125 64.359375 23.1875 75.875 
z
" id="DejaVuSans-40"/>
      <path d="M 19.671875 34.8125 
L 19.671875 8.109375 
L 35.5 8.109375 
Q 43.453125 8.109375 47.28125 11.40625 
Q 51.125 14.703125 51.125 21.484375 
Q 51.125 28.328125 47.28125 31.5625 
Q 43.453125 34.8125 35.5 34.8125 
z
M 19.671875 64.796875 
L 19.671875 42.828125 
L 34.28125 42.828125 
Q 41.5 42.828125 45.03125 45.53125 
Q 48.578125 48.25 48.578125 53.8125 
Q 48.578125 59.328125 45.03125 62.0625 
Q 41.5 64.796875 34.28125 64.796875 
z
M 9.8125 72.90625 
L 35.015625 72.90625 
Q 46.296875 72.90625 52.390625 68.21875 
Q 58.5 63.53125 58.5 54.890625 
Q 58.5 48.1875 55.375 44.234375 
Q 52.25 40.28125 46.1875 39.3125 
Q 53.46875 37.75 57.5 32.78125 
Q 61.53125 27.828125 61.53125 20.40625 
Q 61.53125 10.640625 54.890625 5.3125 
Q 48.25 0 35.984375 0 
L 9.8125 0 
z
" id="DejaVuSans-66"/>
      <path d="M 19.671875 64.796875 
L 19.671875 37.40625 
L 32.078125 37.40625 
Q 38.96875 37.40625 42.71875 40.96875 
Q 46.484375 44.53125 46.484375 51.125 
Q 46.484375 57.671875 42.71875 61.234375 
Q 38.96875 64.796875 32.078125 64.796875 
z
M 9.8125 72.90625 
L 32.078125 72.90625 
Q 44.34375 72.90625 50.609375 67.359375 
Q 56.890625 61.8125 56.890625 51.125 
Q 56.890625 40.328125 50.609375 34.8125 
Q 44.34375 29.296875 32.078125 29.296875 
L 19.671875 29.296875 
L 19.671875 0 
L 9.8125 0 
z
" id="DejaVuSans-80"/>
      <path d="M 9.8125 72.90625 
L 24.515625 72.90625 
L 43.109375 23.296875 
L 61.8125 72.90625 
L 76.515625 72.90625 
L 76.515625 0 
L 66.890625 0 
L 66.890625 64.015625 
L 48.09375 14.015625 
L 38.1875 14.015625 
L 19.390625 64.015625 
L 19.390625 0 
L 9.8125 0 
z
" id="DejaVuSans-77"/>
      <path d="M 8.015625 75.875 
L 15.828125 75.875 
Q 23.140625 64.359375 26.78125 53.3125 
Q 30.421875 42.28125 30.421875 31.390625 
Q 30.421875 20.453125 26.78125 9.375 
Q 23.140625 -1.703125 15.828125 -13.1875 
L 8.015625 -13.1875 
Q 14.5 -2 17.703125 9.0625 
Q 20.90625 20.125 20.90625 31.390625 
Q 20.90625 42.671875 17.703125 53.65625 
Q 14.5 64.65625 8.015625 75.875 
z
" id="DejaVuSans-41"/>
     </defs>
     <g transform="translate(293.153125 199.728288)scale(0.1 -0.1)">
      <use xlink:href="#DejaVuSans-84"/>
      <use x="44.083984" xlink:href="#DejaVuSans-101"/>
      <use x="105.607422" xlink:href="#DejaVuSans-109"/>
      <use x="203.019531" xlink:href="#DejaVuSans-112"/>
      <use x="266.496094" xlink:href="#DejaVuSans-111"/>
      <use x="327.677734" xlink:href="#DejaVuSans-32"/>
      <use x="359.464844" xlink:href="#DejaVuSans-40"/>
      <use x="398.478516" xlink:href="#DejaVuSans-66"/>
      <use x="467.082031" xlink:href="#DejaVuSans-80"/>
      <use x="527.384766" xlink:href="#DejaVuSans-77"/>
      <use x="613.664062" xlink:href="#DejaVuSans-41"/>
     </g>
    </g>
   </g>
   <g id="matplotlib.axis_2">
    <g id="ytick_1">
     <g id="line2d_17">
      <path clip-path="url(#pf39d25cd74)" d="M 130.4875 171.451725 
L 521.0875 171.451725 
" style="fill:none;stroke:#b0b0b0;stroke-linecap:square;stroke-width:0.8;"/>
     </g>
     <g id="line2d_18">
      <defs>
       <path d="M 0 0 
L -3.5 0 
" id="mb0da8336b8" style="stroke:#000000;stroke-width:0.8;"/>
      </defs>
      <g>
       <use style="stroke:#000000;stroke-width:0.8;" x="130.4875" xlink:href="#mb0da8336b8" y="171.451725"/>
      </g>
     </g>
     <g id="text_10">
      <!-- −100 -->
      <defs>
       <path d="M 10.59375 35.5 
L 73.1875 35.5 
L 73.1875 27.203125 
L 10.59375 27.203125 
z
" id="DejaVuSans-8722"/>
      </defs>
      <g transform="translate(96.020312 175.250944)scale(0.1 -0.1)">
       <use xlink:href="#DejaVuSans-8722"/>
       <use x="83.789062" xlink:href="#DejaVuSans-49"/>
       <use x="147.412109" xlink:href="#DejaVuSans-48"/>
       <use x="211.035156" xlink:href="#DejaVuSans-48"/>
      </g>
     </g>
    </g>
    <g id="ytick_2">
     <g id="line2d_19">
      <path clip-path="url(#pf39d25cd74)" d="M 130.4875 146.596125 
L 521.0875 146.596125 
" style="fill:none;stroke:#b0b0b0;stroke-linecap:square;stroke-width:0.8;"/>
     </g>
     <g id="line2d_20">
      <g>
       <use style="stroke:#000000;stroke-width:0.8;" x="130.4875" xlink:href="#mb0da8336b8" y="146.596125"/>
      </g>
     </g>
     <g id="text_11">
      <!-- −50 -->
      <defs>
       <path d="M 10.796875 72.90625 
L 49.515625 72.90625 
L 49.515625 64.59375 
L 19.828125 64.59375 
L 19.828125 46.734375 
Q 21.96875 47.46875 24.109375 47.828125 
Q 26.265625 48.1875 28.421875 48.1875 
Q 40.625 48.1875 47.75 41.5 
Q 54.890625 34.8125 54.890625 23.390625 
Q 54.890625 11.625 47.5625 5.09375 
Q 40.234375 -1.421875 26.90625 -1.421875 
Q 22.3125 -1.421875 17.546875 -0.640625 
Q 12.796875 0.140625 7.71875 1.703125 
L 7.71875 11.625 
Q 12.109375 9.234375 16.796875 8.0625 
Q 21.484375 6.890625 26.703125 6.890625 
Q 35.15625 6.890625 40.078125 11.328125 
Q 45.015625 15.765625 45.015625 23.390625 
Q 45.015625 31 40.078125 35.4375 
Q 35.15625 39.890625 26.703125 39.890625 
Q 22.75 39.890625 18.8125 39.015625 
Q 14.890625 38.140625 10.796875 36.28125 
z
" id="DejaVuSans-53"/>
      </defs>
      <g transform="translate(102.382812 150.395344)scale(0.1 -0.1)">
       <use xlink:href="#DejaVuSans-8722"/>
       <use x="83.789062" xlink:href="#DejaVuSans-53"/>
       <use x="147.412109" xlink:href="#DejaVuSans-48"/>
      </g>
     </g>
    </g>
    <g id="ytick_3">
     <g id="line2d_21">
      <path clip-path="url(#pf39d25cd74)" d="M 130.4875 121.740525 
L 521.0875 121.740525 
" style="fill:none;stroke:#b0b0b0;stroke-linecap:square;stroke-width:0.8;"/>
     </g>
     <g id="line2d_22">
      <g>
       <use style="stroke:#000000;stroke-width:0.8;" x="130.4875" xlink:href="#mb0da8336b8" y="121.740525"/>
      </g>
     </g>
     <g id="text_12">
      <!-- 0 -->
      <g transform="translate(117.125 125.539744)scale(0.1 -0.1)">
       <use xlink:href="#DejaVuSans-48"/>
      </g>
     </g>
    </g>
    <g id="ytick_4">
     <g id="line2d_23">
      <path clip-path="url(#pf39d25cd74)" d="M 130.4875 96.884925 
L 521.0875 96.884925 
" style="fill:none;stroke:#b0b0b0;stroke-linecap:square;stroke-width:0.8;"/>
     </g>
     <g id="line2d_24">
      <g>
       <use style="stroke:#000000;stroke-width:0.8;" x="130.4875" xlink:href="#mb0da8336b8" y="96.884925"/>
      </g>
     </g>
     <g id="text_13">
      <!-- 50 -->
      <g transform="translate(110.7625 100.684144)scale(0.1 -0.1)">
       <use xlink:href="#DejaVuSans-53"/>
       <use x="63.623047" xlink:href="#DejaVuSans-48"/>
      </g>
     </g>
    </g>
    <g id="ytick_5">
     <g id="line2d_25">
      <path clip-path="url(#pf39d25cd74)" d="M 130.4875 72.029325 
L 521.0875 72.029325 
" style="fill:none;stroke:#b0b0b0;stroke-linecap:square;stroke-width:0.8;"/>
     </g>
     <g id="line2d_26">
      <g>
       <use style="stroke:#000000;stroke-width:0.8;" x="130.4875" xlink:href="#mb0da8336b8" y="72.029325"/>
      </g>
     </g>
     <g id="text_14">
      <!-- 100 -->
      <g transform="translate(104.4 75.828544)scale(0.1 -0.1)">
       <use xlink:href="#DejaVuSans-49"/>
       <use x="63.623047" xlink:href="#DejaVuSans-48"/>
       <use x="127.246094" xlink:href="#DejaVuSans-48"/>
      </g>
     </g>
    </g>
    <g id="ytick_6">
     <g id="line2d_27">
      <path clip-path="url(#pf39d25cd74)" d="M 130.4875 47.173725 
L 521.0875 47.173725 
" style="fill:none;stroke:#b0b0b0;stroke-linecap:square;stroke-width:0.8;"/>
     </g>
     <g id="line2d_28">
      <g>
       <use style="stroke:#000000;stroke-width:0.8;" x="130.4875" xlink:href="#mb0da8336b8" y="47.173725"/>
      </g>
     </g>
     <g id="text_15">
      <!-- 150 -->
      <g transform="translate(104.4 50.972944)scale(0.1 -0.1)">
       <use xlink:href="#DejaVuSans-49"/>
       <use x="63.623047" xlink:href="#DejaVuSans-53"/>
       <use x="127.246094" xlink:href="#DejaVuSans-48"/>
      </g>
     </g>
    </g>
    <g id="ytick_7">
     <g id="line2d_29">
      <path clip-path="url(#pf39d25cd74)" d="M 130.4875 22.318125 
L 521.0875 22.318125 
" style="fill:none;stroke:#b0b0b0;stroke-linecap:square;stroke-width:0.8;"/>
     </g>
     <g id="line2d_30">
      <g>
       <use style="stroke:#000000;stroke-width:0.8;" x="130.4875" xlink:href="#mb0da8336b8" y="22.318125"/>
      </g>
     </g>
     <g id="text_16">
      <!-- 200 -->
      <g transform="translate(104.4 26.117344)scale(0.1 -0.1)">
       <use xlink:href="#DejaVuSans-50"/>
       <use x="63.623047" xlink:href="#DejaVuSans-48"/>
       <use x="127.246094" xlink:href="#DejaVuSans-48"/>
      </g>
     </g>
    </g>
    <g id="text_17">
     <!-- beatport_key/1.0 -->
     <defs>
      <path d="M 48.6875 27.296875 
Q 48.6875 37.203125 44.609375 42.84375 
Q 40.53125 48.484375 33.40625 48.484375 
Q 26.265625 48.484375 22.1875 42.84375 
Q 18.109375 37.203125 18.109375 27.296875 
Q 18.109375 17.390625 22.1875 11.75 
Q 26.265625 6.109375 33.40625 6.109375 
Q 40.53125 6.109375 44.609375 11.75 
Q 48.6875 17.390625 48.6875 27.296875 
z
M 18.109375 46.390625 
Q 20.953125 51.265625 25.265625 53.625 
Q 29.59375 56 35.59375 56 
Q 45.5625 56 51.78125 48.09375 
Q 58.015625 40.1875 58.015625 27.296875 
Q 58.015625 14.40625 51.78125 6.484375 
Q 45.5625 -1.421875 35.59375 -1.421875 
Q 29.59375 -1.421875 25.265625 0.953125 
Q 20.953125 3.328125 18.109375 8.203125 
L 18.109375 0 
L 9.078125 0 
L 9.078125 75.984375 
L 18.109375 75.984375 
z
" id="DejaVuSans-98"/>
      <path d="M 34.28125 27.484375 
Q 23.390625 27.484375 19.1875 25 
Q 14.984375 22.515625 14.984375 16.5 
Q 14.984375 11.71875 18.140625 8.90625 
Q 21.296875 6.109375 26.703125 6.109375 
Q 34.1875 6.109375 38.703125 11.40625 
Q 43.21875 16.703125 43.21875 25.484375 
L 43.21875 27.484375 
z
M 52.203125 31.203125 
L 52.203125 0 
L 43.21875 0 
L 43.21875 8.296875 
Q 40.140625 3.328125 35.546875 0.953125 
Q 30.953125 -1.421875 24.3125 -1.421875 
Q 15.921875 -1.421875 10.953125 3.296875 
Q 6 8.015625 6 15.921875 
Q 6 25.140625 12.171875 29.828125 
Q 18.359375 34.515625 30.609375 34.515625 
L 43.21875 34.515625 
L 43.21875 35.40625 
Q 43.21875 41.609375 39.140625 45 
Q 35.0625 48.390625 27.6875 48.390625 
Q 23 48.390625 18.546875 47.265625 
Q 14.109375 46.140625 10.015625 43.890625 
L 10.015625 52.203125 
Q 14.9375 54.109375 19.578125 55.046875 
Q 24.21875 56 28.609375 56 
Q 40.484375 56 46.34375 49.84375 
Q 52.203125 43.703125 52.203125 31.203125 
z
" id="DejaVuSans-97"/>
      <path d="M 18.3125 70.21875 
L 18.3125 54.6875 
L 36.8125 54.6875 
L 36.8125 47.703125 
L 18.3125 47.703125 
L 18.3125 18.015625 
Q 18.3125 11.328125 20.140625 9.421875 
Q 21.96875 7.515625 27.59375 7.515625 
L 36.8125 7.515625 
L 36.8125 0 
L 27.59375 0 
Q 17.1875 0 13.234375 3.875 
Q 9.28125 7.765625 9.28125 18.015625 
L 9.28125 47.703125 
L 2.6875 47.703125 
L 2.6875 54.6875 
L 9.28125 54.6875 
L 9.28125 70.21875 
z
" id="DejaVuSans-116"/>
      <path d="M 41.109375 46.296875 
Q 39.59375 47.171875 37.8125 47.578125 
Q 36.03125 48 33.890625 48 
Q 26.265625 48 22.1875 43.046875 
Q 18.109375 38.09375 18.109375 28.8125 
L 18.109375 0 
L 9.078125 0 
L 9.078125 54.6875 
L 18.109375 54.6875 
L 18.109375 46.1875 
Q 20.953125 51.171875 25.484375 53.578125 
Q 30.03125 56 36.53125 56 
Q 37.453125 56 38.578125 55.875 
Q 39.703125 55.765625 41.0625 55.515625 
z
" id="DejaVuSans-114"/>
      <path d="M 50.984375 -16.609375 
L 50.984375 -23.578125 
L -0.984375 -23.578125 
L -0.984375 -16.609375 
z
" id="DejaVuSans-95"/>
      <path d="M 9.078125 75.984375 
L 18.109375 75.984375 
L 18.109375 31.109375 
L 44.921875 54.6875 
L 56.390625 54.6875 
L 27.390625 29.109375 
L 57.625 0 
L 45.90625 0 
L 18.109375 26.703125 
L 18.109375 0 
L 9.078125 0 
z
" id="DejaVuSans-107"/>
      <path d="M 32.171875 -5.078125 
Q 28.375 -14.84375 24.75 -17.8125 
Q 21.140625 -20.796875 15.09375 -20.796875 
L 7.90625 -20.796875 
L 7.90625 -13.28125 
L 13.1875 -13.28125 
Q 16.890625 -13.28125 18.9375 -11.515625 
Q 21 -9.765625 23.484375 -3.21875 
L 25.09375 0.875 
L 2.984375 54.6875 
L 12.5 54.6875 
L 29.59375 11.921875 
L 46.6875 54.6875 
L 56.203125 54.6875 
z
" id="DejaVuSans-121"/>
      <path d="M 25.390625 72.90625 
L 33.6875 72.90625 
L 8.296875 -9.28125 
L 0 -9.28125 
z
" id="DejaVuSans-47"/>
      <path d="M 10.6875 12.40625 
L 21 12.40625 
L 21 0 
L 10.6875 0 
z
" id="DejaVuSans-46"/>
     </defs>
     <g transform="translate(7.2 94.527113)scale(0.1 -0.1)">
      <use xlink:href="#DejaVuSans-98"/>
      <use x="63.476562" xlink:href="#DejaVuSans-101"/>
      <use x="125" xlink:href="#DejaVuSans-97"/>
      <use x="186.279297" xlink:href="#DejaVuSans-116"/>
      <use x="225.488281" xlink:href="#DejaVuSans-112"/>
      <use x="288.964844" xlink:href="#DejaVuSans-111"/>
      <use x="350.146484" xlink:href="#DejaVuSans-114"/>
      <use x="391.259766" xlink:href="#DejaVuSans-116"/>
      <use x="430.46875" xlink:href="#DejaVuSans-95"/>
      <use x="480.46875" xlink:href="#DejaVuSans-107"/>
      <use x="534.753906" xlink:href="#DejaVuSans-101"/>
      <use x="596.277344" xlink:href="#DejaVuSans-121"/>
      <use x="655.457031" xlink:href="#DejaVuSans-47"/>
      <use x="689.148438" xlink:href="#DejaVuSans-49"/>
      <use x="752.771484" xlink:href="#DejaVuSans-46"/>
      <use x="784.558594" xlink:href="#DejaVuSans-48"/>
     </g>
    </g>
   </g>
   <g id="line2d_31">
    <path clip-path="url(#pf39d25cd74)" d="M 148.242045 124.058502 
L 151.828822 125.130643 
L 155.415599 119.574182 
L 159.002376 109.828997 
L 162.589153 98.334962 
L 166.17593 87.531953 
L 169.762707 79.856547 
L 173.349483 76.781339 
L 176.93626 77.480733 
L 180.523037 80.793963 
L 184.109814 85.560261 
L 187.696591 90.61886 
L 191.283368 94.818407 
L 194.870145 97.500178 
L 198.456921 98.73016 
L 202.043698 98.63235 
L 205.630475 97.330746 
L 209.217252 94.949346 
L 212.804029 91.620948 
L 216.390806 87.655353 
L 219.977583 83.526283 
L 223.56436 79.713645 
L 227.151136 76.697344 
L 230.737913 74.957285 
L 234.32469 74.913105 
L 237.911467 76.374868 
L 241.498244 78.798696 
L 245.085021 81.636348 
L 248.671798 84.339583 
L 252.258574 86.360162 
L 255.845351 87.245356 
L 259.432128 87.087709 
L 263.018905 86.172967 
L 266.605682 84.787101 
L 270.192459 83.216083 
L 273.779236 81.745871 
L 277.366012 80.586811 
L 280.952789 79.695565 
L 284.539566 78.975653 
L 288.126343 78.330594 
L 291.71312 77.663909 
L 295.299897 76.879515 
L 298.886674 75.93719 
L 302.47345 74.909692 
L 306.060227 73.883407 
L 309.647004 72.944721 
L 313.233781 72.180019 
L 316.820558 71.674592 
L 320.407335 71.473912 
L 323.994112 71.573312 
L 327.580888 71.964922 
L 331.167665 72.640875 
L 334.754442 73.593303 
L 338.341219 74.806244 
L 341.927996 76.136781 
L 345.514773 77.341195 
L 349.10155 78.172995 
L 352.688326 78.385687 
L 356.275103 77.732777 
L 359.86188 76.049254 
L 363.448657 73.845552 
L 367.035434 71.966079 
L 370.622211 71.25762 
L 374.208988 72.566957 
L 377.795764 76.740874 
L 381.382541 84.273627 
L 384.969318 93.976621 
L 388.556095 104.159668 
L 392.142872 113.132494 
L 395.729649 119.204824 
L 399.316426 120.687399 
L 402.903202 116.756251 
L 406.489979 109.029555 
L 410.076756 99.553251 
L 413.663533 90.37328 
L 417.25031 83.535584 
L 420.837087 81.068934 
L 424.423864 83.60821 
L 428.01064 89.387719 
L 431.597417 96.404415 
L 435.184194 102.655254 
L 438.770971 106.137189 
L 442.357748 104.917829 
L 445.944525 98.938329 
L 449.531302 90.162839 
L 453.118079 80.656108 
L 456.704855 72.482882 
L 460.291632 67.707912 
L 463.878409 68.230046 
L 467.465186 73.875603 
L 471.051963 83.062082 
L 474.63874 94.180059 
L 478.225517 105.620112 
L 481.812293 115.772816 
L 485.39907 123.205548 
L 488.985847 127.697959 
L 492.572624 129.538195 
L 496.159401 129.016139 
L 499.746178 126.421676 
L 503.332955 122.044689 
" style="fill:none;stroke:#ff0000;stroke-linecap:square;stroke-width:1.5;"/>
   </g>
   <g id="patch_3">
    <path d="M 130.4875 171.451725 
L 130.4875 22.318125 
" style="fill:none;stroke:#000000;stroke-linecap:square;stroke-linejoin:miter;stroke-width:0.8;"/>
   </g>
   <g id="patch_4">
    <path d="M 521.0875 171.451725 
L 521.0875 22.318125 
" style="fill:none;stroke:#000000;stroke-linecap:square;stroke-linejoin:miter;stroke-width:0.8;"/>
   </g>
   <g id="patch_5">
    <path d="M 130.4875 171.451725 
L 521.0875 171.451725 
" style="fill:none;stroke:#000000;stroke-linecap:square;stroke-linejoin:miter;stroke-width:0.8;"/>
   </g>
   <g id="patch_6">
    <path d="M 130.4875 22.318125 
L 521.0875 22.318125 
" style="fill:none;stroke:#000000;stroke-linecap:square;stroke-linejoin:miter;stroke-width:0.8;"/>
   </g>
  </g>
  <g id="axes_2">
   <g id="matplotlib.axis_3"/>
   <g id="matplotlib.axis_4"/>
   <g id="text_18">
    <!-- Accuracy1 for Tempo in BPM -->
    <defs>
     <path d="M 34.1875 63.1875 
L 20.796875 26.90625 
L 47.609375 26.90625 
z
M 28.609375 72.90625 
L 39.796875 72.90625 
L 67.578125 0 
L 57.328125 0 
L 50.6875 18.703125 
L 17.828125 18.703125 
L 11.1875 0 
L 0.78125 0 
z
" id="DejaVuSans-65"/>
     <path d="M 48.78125 52.59375 
L 48.78125 44.1875 
Q 44.96875 46.296875 41.140625 47.34375 
Q 37.3125 48.390625 33.40625 48.390625 
Q 24.65625 48.390625 19.8125 42.84375 
Q 14.984375 37.3125 14.984375 27.296875 
Q 14.984375 17.28125 19.8125 11.734375 
Q 24.65625 6.203125 33.40625 6.203125 
Q 37.3125 6.203125 41.140625 7.25 
Q 44.96875 8.296875 48.78125 10.40625 
L 48.78125 2.09375 
Q 45.015625 0.34375 40.984375 -0.53125 
Q 36.96875 -1.421875 32.421875 -1.421875 
Q 20.0625 -1.421875 12.78125 6.34375 
Q 5.515625 14.109375 5.515625 27.296875 
Q 5.515625 40.671875 12.859375 48.328125 
Q 20.21875 56 33.015625 56 
Q 37.15625 56 41.109375 55.140625 
Q 45.0625 54.296875 48.78125 52.59375 
z
" id="DejaVuSans-99"/>
     <path d="M 8.5 21.578125 
L 8.5 54.6875 
L 17.484375 54.6875 
L 17.484375 21.921875 
Q 17.484375 14.15625 20.5 10.265625 
Q 23.53125 6.390625 29.59375 6.390625 
Q 36.859375 6.390625 41.078125 11.03125 
Q 45.3125 15.671875 45.3125 23.6875 
L 45.3125 54.6875 
L 54.296875 54.6875 
L 54.296875 0 
L 45.3125 0 
L 45.3125 8.40625 
Q 42.046875 3.421875 37.71875 1 
Q 33.40625 -1.421875 27.6875 -1.421875 
Q 18.265625 -1.421875 13.375 4.4375 
Q 8.5 10.296875 8.5 21.578125 
z
M 31.109375 56 
z
" id="DejaVuSans-117"/>
     <path d="M 37.109375 75.984375 
L 37.109375 68.5 
L 28.515625 68.5 
Q 23.6875 68.5 21.796875 66.546875 
Q 19.921875 64.59375 19.921875 59.515625 
L 19.921875 54.6875 
L 34.71875 54.6875 
L 34.71875 47.703125 
L 19.921875 47.703125 
L 19.921875 0 
L 10.890625 0 
L 10.890625 47.703125 
L 2.296875 47.703125 
L 2.296875 54.6875 
L 10.890625 54.6875 
L 10.890625 58.5 
Q 10.890625 67.625 15.140625 71.796875 
Q 19.390625 75.984375 28.609375 75.984375 
z
" id="DejaVuSans-102"/>
     <path d="M 9.421875 54.6875 
L 18.40625 54.6875 
L 18.40625 0 
L 9.421875 0 
z
M 9.421875 75.984375 
L 18.40625 75.984375 
L 18.40625 64.59375 
L 9.421875 64.59375 
z
" id="DejaVuSans-105"/>
     <path d="M 54.890625 33.015625 
L 54.890625 0 
L 45.90625 0 
L 45.90625 32.71875 
Q 45.90625 40.484375 42.875 44.328125 
Q 39.84375 48.1875 33.796875 48.1875 
Q 26.515625 48.1875 22.3125 43.546875 
Q 18.109375 38.921875 18.109375 30.90625 
L 18.109375 0 
L 9.078125 0 
L 9.078125 54.6875 
L 18.109375 54.6875 
L 18.109375 46.1875 
Q 21.34375 51.125 25.703125 53.5625 
Q 30.078125 56 35.796875 56 
Q 45.21875 56 50.046875 50.171875 
Q 54.890625 44.34375 54.890625 33.015625 
z
" id="DejaVuSans-110"/>
    </defs>
    <g transform="translate(240.656875 16.318125)scale(0.12 -0.12)">
     <use xlink:href="#DejaVuSans-65"/>
     <use x="66.658203" xlink:href="#DejaVuSans-99"/>
     <use x="121.638672" xlink:href="#DejaVuSans-99"/>
     <use x="176.619141" xlink:href="#DejaVuSans-117"/>
     <use x="239.998047" xlink:href="#DejaVuSans-114"/>
     <use x="281.111328" xlink:href="#DejaVuSans-97"/>
     <use x="342.390625" xlink:href="#DejaVuSans-99"/>
     <use x="397.371094" xlink:href="#DejaVuSans-121"/>
     <use x="456.550781" xlink:href="#DejaVuSans-49"/>
     <use x="520.173828" xlink:href="#DejaVuSans-32"/>
     <use x="551.960938" xlink:href="#DejaVuSans-102"/>
     <use x="587.166016" xlink:href="#DejaVuSans-111"/>
     <use x="648.347656" xlink:href="#DejaVuSans-114"/>
     <use x="689.460938" xlink:href="#DejaVuSans-32"/>
     <use x="721.248047" xlink:href="#DejaVuSans-84"/>
     <use x="765.332031" xlink:href="#DejaVuSans-101"/>
     <use x="826.855469" xlink:href="#DejaVuSans-109"/>
     <use x="924.267578" xlink:href="#DejaVuSans-112"/>
     <use x="987.744141" xlink:href="#DejaVuSans-111"/>
     <use x="1048.925781" xlink:href="#DejaVuSans-32"/>
     <use x="1080.712891" xlink:href="#DejaVuSans-105"/>
     <use x="1108.496094" xlink:href="#DejaVuSans-110"/>
     <use x="1171.875" xlink:href="#DejaVuSans-32"/>
     <use x="1203.662109" xlink:href="#DejaVuSans-66"/>
     <use x="1272.265625" xlink:href="#DejaVuSans-80"/>
     <use x="1332.568359" xlink:href="#DejaVuSans-77"/>
    </g>
   </g>
  </g>
  <g id="text_19">
   <!-- Accuracy1 (%) -->
   <defs>
    <path d="M 72.703125 32.078125 
Q 68.453125 32.078125 66.03125 28.46875 
Q 63.625 24.859375 63.625 18.40625 
Q 63.625 12.0625 66.03125 8.421875 
Q 68.453125 4.78125 72.703125 4.78125 
Q 76.859375 4.78125 79.265625 8.421875 
Q 81.6875 12.0625 81.6875 18.40625 
Q 81.6875 24.8125 79.265625 28.4375 
Q 76.859375 32.078125 72.703125 32.078125 
z
M 72.703125 38.28125 
Q 80.421875 38.28125 84.953125 32.90625 
Q 89.5 27.546875 89.5 18.40625 
Q 89.5 9.28125 84.9375 3.921875 
Q 80.375 -1.421875 72.703125 -1.421875 
Q 64.890625 -1.421875 60.34375 3.921875 
Q 55.8125 9.28125 55.8125 18.40625 
Q 55.8125 27.59375 60.375 32.9375 
Q 64.9375 38.28125 72.703125 38.28125 
z
M 22.3125 68.015625 
Q 18.109375 68.015625 15.6875 64.375 
Q 13.28125 60.75 13.28125 54.390625 
Q 13.28125 47.953125 15.671875 44.328125 
Q 18.0625 40.71875 22.3125 40.71875 
Q 26.5625 40.71875 28.96875 44.328125 
Q 31.390625 47.953125 31.390625 54.390625 
Q 31.390625 60.6875 28.953125 64.34375 
Q 26.515625 68.015625 22.3125 68.015625 
z
M 66.40625 74.21875 
L 74.21875 74.21875 
L 28.609375 -1.421875 
L 20.796875 -1.421875 
z
M 22.3125 74.21875 
Q 30.03125 74.21875 34.609375 68.875 
Q 39.203125 63.53125 39.203125 54.390625 
Q 39.203125 45.171875 34.640625 39.84375 
Q 30.078125 34.515625 22.3125 34.515625 
Q 14.546875 34.515625 10.03125 39.859375 
Q 5.515625 45.21875 5.515625 54.390625 
Q 5.515625 63.484375 10.046875 68.84375 
Q 14.59375 74.21875 22.3125 74.21875 
z
" id="DejaVuSans-37"/>
   </defs>
   <g transform="translate(559.327812 132.167306)rotate(-90)scale(0.1 -0.1)">
    <use xlink:href="#DejaVuSans-65"/>
    <use x="66.658203" xlink:href="#DejaVuSans-99"/>
    <use x="121.638672" xlink:href="#DejaVuSans-99"/>
    <use x="176.619141" xlink:href="#DejaVuSans-117"/>
    <use x="239.998047" xlink:href="#DejaVuSans-114"/>
    <use x="281.111328" xlink:href="#DejaVuSans-97"/>
    <use x="342.390625" xlink:href="#DejaVuSans-99"/>
    <use x="397.371094" xlink:href="#DejaVuSans-121"/>
    <use x="456.550781" xlink:href="#DejaVuSans-49"/>
    <use x="520.173828" xlink:href="#DejaVuSans-32"/>
    <use x="551.960938" xlink:href="#DejaVuSans-40"/>
    <use x="590.974609" xlink:href="#DejaVuSans-37"/>
    <use x="685.994141" xlink:href="#DejaVuSans-41"/>
   </g>
  </g>
 </g>
 <defs>
  <clipPath id="pf39d25cd74">
   <rect height="149.1336" width="390.6" x="130.4875" y="22.318125"/>
  </clipPath>
 </defs>
</svg>
