<?xml version='1.0' encoding='utf-8'?>
<svg xmlns:xlink="http://www.w3.org/1999/xlink" xmlns="http://www.w3.org/2000/svg" id="chart-1dd218b5-cd36-47c6-9802-4f1668e28db4" class="pygal-chart" viewBox="0 0 800 600"><!--Generated with pygal 2.4.0 (lxml) ©Kozea 2012-2016 on 2021-03-14--><!--http://pygal.org--><!--http://github.com/Kozea/pygal--><defs><style type="text/css">#chart-1dd218b5-cd36-47c6-9802-4f1668e28db4{-webkit-user-select:none;-webkit-font-smoothing:antialiased;font-family:Helvetica,Arial,sans-serif}#chart-1dd218b5-cd36-47c6-9802-4f1668e28db4 .title{font-family:Helvetica,Arial,sans-serif;font-size:18px}#chart-1dd218b5-cd36-47c6-9802-4f1668e28db4 .legends .legend text{font-family:Helvetica,Arial,sans-serif;font-size:15px}#chart-1dd218b5-cd36-47c6-9802-4f1668e28db4 .axis text{font-family:Helvetica,Arial,sans-serif;font-size:15px}#chart-1dd218b5-cd36-47c6-9802-4f1668e28db4 .axis text.major{font-family:Helvetica,Arial,sans-serif;font-size:15px}#chart-1dd218b5-cd36-47c6-9802-4f1668e28db4 .text-overlay text.value{font-family:Helvetica,Arial,sans-serif;font-size:15px}#chart-1dd218b5-cd36-47c6-9802-4f1668e28db4 .text-overlay text.label{font-family:Helvetica,Arial,sans-serif;font-size:15px}#chart-1dd218b5-cd36-47c6-9802-4f1668e28db4 .tooltip{font-family:Helvetica,Arial,sans-serif;font-size:14px}#chart-1dd218b5-cd36-47c6-9802-4f1668e28db4 text.no_data{font-family:Helvetica,Arial,sans-serif;font-size:64px}
#chart-1dd218b5-cd36-47c6-9802-4f1668e28db4{background-color:transparent}#chart-1dd218b5-cd36-47c6-9802-4f1668e28db4 path,#chart-1dd218b5-cd36-47c6-9802-4f1668e28db4 line,#chart-1dd218b5-cd36-47c6-9802-4f1668e28db4 rect,#chart-1dd218b5-cd36-47c6-9802-4f1668e28db4 circle{-webkit-transition:150ms;-moz-transition:150ms;transition:150ms}#chart-1dd218b5-cd36-47c6-9802-4f1668e28db4 .graph &gt; .background{fill:transparent}#chart-1dd218b5-cd36-47c6-9802-4f1668e28db4 .plot &gt; .background{fill:white}#chart-1dd218b5-cd36-47c6-9802-4f1668e28db4 .graph{fill:rgba(0,0,0,.87)}#chart-1dd218b5-cd36-47c6-9802-4f1668e28db4 text.no_data{fill:rgba(0,0,0,1)}#chart-1dd218b5-cd36-47c6-9802-4f1668e28db4 .title{fill:rgba(0,0,0,1)}#chart-1dd218b5-cd36-47c6-9802-4f1668e28db4 .legends .legend text{fill:rgba(0,0,0,.87)}#chart-1dd218b5-cd36-47c6-9802-4f1668e28db4 .legends .legend:hover text{fill:rgba(0,0,0,1)}#chart-1dd218b5-cd36-47c6-9802-4f1668e28db4 .axis .line{stroke:rgba(0,0,0,1)}#chart-1dd218b5-cd36-47c6-9802-4f1668e28db4 .axis .guide.line{stroke:rgba(0,0,0,.54)}#chart-1dd218b5-cd36-47c6-9802-4f1668e28db4 .axis .major.line{stroke:rgba(0,0,0,.87)}#chart-1dd218b5-cd36-47c6-9802-4f1668e28db4 .axis text.major{fill:rgba(0,0,0,1)}#chart-1dd218b5-cd36-47c6-9802-4f1668e28db4 .axis.y .guides:hover .guide.line,#chart-1dd218b5-cd36-47c6-9802-4f1668e28db4 .line-graph .axis.x .guides:hover .guide.line,#chart-1dd218b5-cd36-47c6-9802-4f1668e28db4 .stackedline-graph .axis.x .guides:hover .guide.line,#chart-1dd218b5-cd36-47c6-9802-4f1668e28db4 .xy-graph .axis.x .guides:hover .guide.line{stroke:rgba(0,0,0,1)}#chart-1dd218b5-cd36-47c6-9802-4f1668e28db4 .axis .guides:hover text{fill:rgba(0,0,0,1)}#chart-1dd218b5-cd36-47c6-9802-4f1668e28db4 .reactive{fill-opacity:.7;stroke-opacity:.8}#chart-1dd218b5-cd36-47c6-9802-4f1668e28db4 .ci{stroke:rgba(0,0,0,.87)}#chart-1dd218b5-cd36-47c6-9802-4f1668e28db4 .reactive.active,#chart-1dd218b5-cd36-47c6-9802-4f1668e28db4 .active .reactive{fill-opacity:.8;stroke-opacity:.9;stroke-width:4}#chart-1dd218b5-cd36-47c6-9802-4f1668e28db4 .ci .reactive.active{stroke-width:1.5}#chart-1dd218b5-cd36-47c6-9802-4f1668e28db4 .series text{fill:rgba(0,0,0,1)}#chart-1dd218b5-cd36-47c6-9802-4f1668e28db4 .tooltip rect{fill:white;stroke:rgba(0,0,0,1);-webkit-transition:opacity 150ms;-moz-transition:opacity 150ms;transition:opacity 150ms}#chart-1dd218b5-cd36-47c6-9802-4f1668e28db4 .tooltip .label{fill:rgba(0,0,0,.87)}#chart-1dd218b5-cd36-47c6-9802-4f1668e28db4 .tooltip .label{fill:rgba(0,0,0,.87)}#chart-1dd218b5-cd36-47c6-9802-4f1668e28db4 .tooltip .legend{font-size:.8em;fill:rgba(0,0,0,.54)}#chart-1dd218b5-cd36-47c6-9802-4f1668e28db4 .tooltip .x_label{font-size:.6em;fill:rgba(0,0,0,1)}#chart-1dd218b5-cd36-47c6-9802-4f1668e28db4 .tooltip .xlink{font-size:.5em;text-decoration:underline}#chart-1dd218b5-cd36-47c6-9802-4f1668e28db4 .tooltip .value{font-size:1.5em}#chart-1dd218b5-cd36-47c6-9802-4f1668e28db4 .bound{font-size:.5em}#chart-1dd218b5-cd36-47c6-9802-4f1668e28db4 .max-value{font-size:.75em;fill:rgba(0,0,0,.54)}#chart-1dd218b5-cd36-47c6-9802-4f1668e28db4 .map-element{fill:white;stroke:rgba(0,0,0,.54) !important}#chart-1dd218b5-cd36-47c6-9802-4f1668e28db4 .map-element .reactive{fill-opacity:inherit;stroke-opacity:inherit}#chart-1dd218b5-cd36-47c6-9802-4f1668e28db4 .color-0,#chart-1dd218b5-cd36-47c6-9802-4f1668e28db4 .color-0 a:visited{stroke:#F44336;fill:#F44336}#chart-1dd218b5-cd36-47c6-9802-4f1668e28db4 .text-overlay .color-0 text{fill:black}
#chart-1dd218b5-cd36-47c6-9802-4f1668e28db4 text.no_data{text-anchor:middle}#chart-1dd218b5-cd36-47c6-9802-4f1668e28db4 .guide.line{fill:none}#chart-1dd218b5-cd36-47c6-9802-4f1668e28db4 .centered{text-anchor:middle}#chart-1dd218b5-cd36-47c6-9802-4f1668e28db4 .title{text-anchor:middle}#chart-1dd218b5-cd36-47c6-9802-4f1668e28db4 .legends .legend text{fill-opacity:1}#chart-1dd218b5-cd36-47c6-9802-4f1668e28db4 .axis.x text{text-anchor:middle}#chart-1dd218b5-cd36-47c6-9802-4f1668e28db4 .axis.x:not(.web) text[transform]{text-anchor:start}#chart-1dd218b5-cd36-47c6-9802-4f1668e28db4 .axis.x:not(.web) text[transform].backwards{text-anchor:end}#chart-1dd218b5-cd36-47c6-9802-4f1668e28db4 .axis.y text{text-anchor:end}#chart-1dd218b5-cd36-47c6-9802-4f1668e28db4 .axis.y text[transform].backwards{text-anchor:start}#chart-1dd218b5-cd36-47c6-9802-4f1668e28db4 .axis.y2 text{text-anchor:start}#chart-1dd218b5-cd36-47c6-9802-4f1668e28db4 .axis.y2 text[transform].backwards{text-anchor:end}#chart-1dd218b5-cd36-47c6-9802-4f1668e28db4 .axis .guide.line{stroke-dasharray:1}#chart-1dd218b5-cd36-47c6-9802-4f1668e28db4 .axis .major.guide.line{stroke-dasharray:1}#chart-1dd218b5-cd36-47c6-9802-4f1668e28db4 .horizontal .axis.y .guide.line,#chart-1dd218b5-cd36-47c6-9802-4f1668e28db4 .horizontal .axis.y2 .guide.line,#chart-1dd218b5-cd36-47c6-9802-4f1668e28db4 .vertical .axis.x .guide.line{opacity:0}#chart-1dd218b5-cd36-47c6-9802-4f1668e28db4 .horizontal .axis.always_show .guide.line,#chart-1dd218b5-cd36-47c6-9802-4f1668e28db4 .vertical .axis.always_show .guide.line{opacity:1 !important}#chart-1dd218b5-cd36-47c6-9802-4f1668e28db4 .axis.y .guides:hover .guide.line,#chart-1dd218b5-cd36-47c6-9802-4f1668e28db4 .axis.y2 .guides:hover .guide.line,#chart-1dd218b5-cd36-47c6-9802-4f1668e28db4 .axis.x .guides:hover .guide.line{opacity:1}#chart-1dd218b5-cd36-47c6-9802-4f1668e28db4 .axis .guides:hover text{opacity:1}#chart-1dd218b5-cd36-47c6-9802-4f1668e28db4 .nofill{fill:none}#chart-1dd218b5-cd36-47c6-9802-4f1668e28db4 .subtle-fill{fill-opacity:.2}#chart-1dd218b5-cd36-47c6-9802-4f1668e28db4 .dot{stroke-width:1px;fill-opacity:1}#chart-1dd218b5-cd36-47c6-9802-4f1668e28db4 .dot.active{stroke-width:5px}#chart-1dd218b5-cd36-47c6-9802-4f1668e28db4 .dot.negative{fill:transparent}#chart-1dd218b5-cd36-47c6-9802-4f1668e28db4 text,#chart-1dd218b5-cd36-47c6-9802-4f1668e28db4 tspan{stroke:none !important}#chart-1dd218b5-cd36-47c6-9802-4f1668e28db4 .series text.active{opacity:1}#chart-1dd218b5-cd36-47c6-9802-4f1668e28db4 .tooltip rect{fill-opacity:.95;stroke-width:.5}#chart-1dd218b5-cd36-47c6-9802-4f1668e28db4 .tooltip text{fill-opacity:1}#chart-1dd218b5-cd36-47c6-9802-4f1668e28db4 .showable{visibility:hidden}#chart-1dd218b5-cd36-47c6-9802-4f1668e28db4 .showable.shown{visibility:visible}#chart-1dd218b5-cd36-47c6-9802-4f1668e28db4 .gauge-background{fill:rgba(229,229,229,1);stroke:none}#chart-1dd218b5-cd36-47c6-9802-4f1668e28db4 .bg-lines{stroke:transparent;stroke-width:2px}</style><script type="text/javascript">window.pygal = window.pygal || {};window.pygal.config = window.pygal.config || {};window.pygal.config['1dd218b5-cd36-47c6-9802-4f1668e28db4'] = {"allow_interruptions": false, "box_mode": "extremes", "classes": ["pygal-chart"], "css": ["file://style.css", "file://graph.css"], "defs": [], "disable_xml_declaration": false, "dots_size": 2.5, "dynamic_print_values": false, "explicit_size": false, "fill": false, "force_uri_protocol": "https", "formatter": null, "half_pie": false, "height": 600, "include_x_axis": false, "inner_radius": 0, "interpolate": null, "interpolation_parameters": {}, "interpolation_precision": 250, "inverse_y_axis": false, "js": ["//kozea.github.io/pygal.js/2.0.x/pygal-tooltips.min.js"], "legend_at_bottom": true, "legend_at_bottom_columns": 2, "legend_box_size": 12, "logarithmic": false, "margin": 20, "margin_bottom": 50, "margin_left": null, "margin_right": null, "margin_top": null, "max_scale": 16, "min_scale": 4, "missing_value_fill_truncation": "x", "no_data_text": "No data", "no_prefix": false, "order_min": null, "pretty_print": false, "print_labels": false, "print_values": false, "print_values_position": "center", "print_zeroes": true, "range": [-0.1, 0.0003], "rounded_bars": null, "secondary_range": null, "show_dots": true, "show_legend": true, "show_minor_x_labels": false, "show_minor_y_labels": true, "show_only_major_dots": true, "show_x_guides": true, "show_x_labels": true, "show_y_guides": true, "show_y_labels": true, "spacing": 10, "stack_from_top": false, "strict": false, "stroke": true, "stroke_style": null, "style": {"background": "transparent", "ci_colors": [], "colors": ["#F44336", "#3F51B5", "#009688", "#FFC107", "#FF5722", "#9C27B0", "#03A9F4", "#8BC34A", "#FF9800", "#E91E63", "#2196F3", "#4CAF50", "#FFEB3B", "#673AB7", "#00BCD4", "#CDDC39", "#9E9E9E", "#607D8B"], "font_family": "Helvetica, Arial, sans-serif", "foreground": "rgba(0, 0, 0, .87)", "foreground_strong": "rgba(0, 0, 0, 1)", "foreground_subtle": "rgba(0, 0, 0, .54)", "guide_stroke_dasharray": 1, "label_font_family": "Helvetica, Arial, sans-serif", "label_font_size": 15, "legend_font_family": "Helvetica, Arial, sans-serif", "legend_font_size": 15, "major_guide_stroke_dasharray": 1, "major_label_font_family": "Helvetica, Arial, sans-serif", "major_label_font_size": 15, "no_data_font_family": "Helvetica, Arial, sans-serif", "no_data_font_size": 64, "opacity": ".7", "opacity_hover": ".8", "plot_background": "white", "stroke_opacity": ".8", "stroke_opacity_hover": ".9", "title_font_family": "Helvetica, Arial, sans-serif", "title_font_size": 18, "tooltip_font_family": "Helvetica, Arial, sans-serif", "tooltip_font_size": 14, "transition": "150ms", "value_background": "rgba(229, 229, 229, 1)", "value_colors": [], "value_font_family": "Helvetica, Arial, sans-serif", "value_font_size": 15, "value_label_font_family": "Helvetica, Arial, sans-serif", "value_label_font_size": 15}, "title": "Mean OE2 for Tempo T \u00b110.0 BPM", "tooltip_border_radius": 0, "tooltip_fancy_mode": true, "truncate_label": null, "truncate_legend": -1, "width": 800, "x_label_rotation": 90, "x_labels": ["0.0", "1.0", "2.0", "3.0", "4.0", "5.0", "6.0", "7.0", "8.0", "9.0", "10.0", "11.0", "12.0", "13.0", "14.0", "15.0", "16.0", "17.0", "18.0", "19.0", "20.0", "21.0", "22.0", "23.0", "24.0", "25.0", "26.0", "27.0", "28.0", "29.0", "30.0", "31.0", "32.0", "33.0", "34.0", "35.0", "36.0", "37.0", "38.0", "39.0", "40.0", "41.0", "42.0", "43.0", "44.0", "45.0", "46.0", "47.0", "48.0", "49.0", "50.0", "51.0", "52.0", "53.0", "54.0", "55.0", "56.0", "57.0", "58.0", "59.0", "60.0", "61.0", "62.0", "63.0", "64.0", "65.0", "66.0", "67.0", "68.0", "69.0", "70.0", "71.0", "72.0", "73.0", "74.0", "75.0", "76.0", "77.0", "78.0", "79.0", "80.0", "81.0", "82.0", "83.0", "84.0", "85.0", "86.0", "87.0", "88.0", "89.0", "90.0", "91.0", "92.0", "93.0", "94.0", "95.0", "96.0", "97.0", "98.0", "99.0", "100.0", "101.0", "102.0", "103.0", "104.0", "105.0", "106.0", "107.0", "108.0", "109.0", "110.0", "111.0", "112.0", "113.0", "114.0", "115.0", "116.0", "117.0", "118.0", "119.0", "120.0", "121.0", "122.0", "123.0", "124.0", "125.0", "126.0", "127.0", "128.0", "129.0", "130.0", "131.0", "132.0", "133.0", "134.0", "135.0", "136.0", "137.0", "138.0", "139.0", "140.0", "141.0", "142.0", "143.0", "144.0", "145.0", "146.0", "147.0", "148.0", "149.0", "150.0", "151.0", "152.0", "153.0", "154.0", "155.0", "156.0", "157.0", "158.0", "159.0", "160.0", "161.0", "162.0", "163.0", "164.0", "165.0", "166.0", "167.0", "168.0", "169.0", "170.0", "171.0", "172.0", "173.0", "174.0", "175.0", "176.0", "177.0", "178.0", "179.0", "180.0", "181.0", "182.0", "183.0", "184.0", "185.0", "186.0", "187.0", "188.0", "189.0", "190.0", "191.0", "192.0", "193.0", "194.0", "195.0", "196.0", "197.0", "198.0", "199.0", "200.0", "201.0", "202.0", "203.0", "204.0", "205.0", "206.0", "207.0", "208.0", "209.0", "210.0", "211.0", "212.0", "213.0", "214.0", "215.0", "216.0", "217.0", "218.0", "219.0", "220.0", "221.0", "222.0", "223.0", "224.0", "225.0", "226.0", "227.0", "228.0", "229.0", "230.0", "231.0", "232.0", "233.0", "234.0", "235.0", "236.0", "237.0", "238.0", "239.0", "240.0", "241.0", "242.0", "243.0", "244.0", "245.0", "246.0", "247.0", "248.0", "249.0", "250.0", "251.0", "252.0", "253.0", "254.0", "255.0", "256.0", "257.0", "258.0", "259.0", "260.0", "261.0", "262.0", "263.0", "264.0", "265.0", "266.0", "267.0", "268.0", "269.0", "270.0", "271.0", "272.0", "273.0", "274.0", "275.0", "276.0", "277.0", "278.0", "279.0", "280.0", "281.0", "282.0", "283.0", "284.0", "285.0", "286.0", "287.0", "288.0", "289.0", "290.0", "291.0", "292.0", "293.0", "294.0", "295.0", "296.0", "297.0", "298.0", "299.0", "300.0"], "x_labels_major": null, "x_labels_major_count": 11, "x_labels_major_every": null, "x_title": "T (BPM)", "xrange": null, "y_label_rotation": 0, "y_labels": null, "y_labels_major": null, "y_labels_major_count": null, "y_labels_major_every": null, "y_title": "Mean OE2 (TO)", "zero": 0, "legends": ["beatport_key/1.0"]}</script><script type="text/javascript" xlink:href="https://kozea.github.io/pygal.js/2.0.x/pygal-tooltips.min.js"/></defs><title>Mean OE2 for Tempo T ±10.0 BPM</title><g class="graph line-graph vertical"><rect class="background" height="600" width="800" x="0" y="0"/><g class="plot" transform="translate(121, 48)"><rect class="background" height="416.5" width="659.0" x="0" y="0"/><g class="axis y always_show"><g class="guides"><path class="major guide line" d="M0.000000 408.490385 h659.000000"/><text class="major" x="-5" y="413.74038461538464">-0.1000</text><title>-0.1000</title></g><g class="guides"><path class="guide line" d="M0.000000 368.562093 h659.000000"/><text class="" x="-5" y="373.8120925684485">-0.0900</text><title>-0.0900</title></g><g class="guides"><path class="guide line" d="M0.000000 328.633801 h659.000000"/><text class="" x="-5" y="333.8838005215124">-0.0800</text><title>-0.0800</title></g><g class="guides"><path class="guide line" d="M0.000000 288.705508 h659.000000"/><text class="" x="-5" y="293.9555084745763">-0.0700</text><title>-0.0700</title></g><g class="guides"><path class="guide line" d="M0.000000 248.777216 h659.000000"/><text class="" x="-5" y="254.02721642764013">-0.0600</text><title>-0.0600</title></g><g class="guides"><path class="major guide line" d="M0.000000 208.848924 h659.000000"/><text class="major" x="-5" y="214.09892438070406">-0.0500</text><title>-0.0500</title></g><g class="guides"><path class="guide line" d="M0.000000 168.920632 h659.000000"/><text class="" x="-5" y="174.1706323337679">-0.0400</text><title>-0.0400</title></g><g class="guides"><path class="guide line" d="M0.000000 128.992340 h659.000000"/><text class="" x="-5" y="134.24234028683185">-0.0300</text><title>-0.0300</title></g><g class="guides"><path class="guide line" d="M0.000000 89.064048 h659.000000"/><text class="" x="-5" y="94.31404823989573">-0.0200</text><title>-0.0200</title></g><g class="guides"><path class="guide line" d="M0.000000 49.135756 h659.000000"/><text class="" x="-5" y="54.38575619295955">-0.0100</text><title>-0.0100</title></g><g class="guides"><path class="major line" d="M0.000000 9.207464 h659.000000"/><text class="major" x="-5" y="14.457464146023483">0.0000</text><title>0.0000</title></g></g><g class="axis x always_show"><g class="guides"><path class="major line" d="M12.673077 0.000000 v416.500000"/><text class="major" x="12.673076923076922" y="434.0" transform="rotate(90 12.673077 434.000000)">0.0</text></g><g class="guides"><path class="major guide line" d="M76.038462 0.000000 v416.500000"/><text class="major" x="76.03846153846155" y="434.0" transform="rotate(90 76.038462 434.000000)">30.0</text></g><g class="guides"><path class="major guide line" d="M139.403846 0.000000 v416.500000"/><text class="major" x="139.40384615384613" y="434.0" transform="rotate(90 139.403846 434.000000)">60.0</text></g><g class="guides"><path class="major guide line" d="M202.769231 0.000000 v416.500000"/><text class="major" x="202.76923076923075" y="434.0" transform="rotate(90 202.769231 434.000000)">90.0</text></g><g class="guides"><path class="major guide line" d="M266.134615 0.000000 v416.500000"/><text class="major" x="266.1346153846154" y="434.0" transform="rotate(90 266.134615 434.000000)">120.0</text></g><g class="guides"><path class="major guide line" d="M329.500000 0.000000 v416.500000"/><text class="major" x="329.5" y="434.0" transform="rotate(90 329.500000 434.000000)">150.0</text></g><g class="guides"><path class="major guide line" d="M392.865385 0.000000 v416.500000"/><text class="major" x="392.8653846153846" y="434.0" transform="rotate(90 392.865385 434.000000)">180.0</text></g><g class="guides"><path class="major guide line" d="M456.230769 0.000000 v416.500000"/><text class="major" x="456.23076923076917" y="434.0" transform="rotate(90 456.230769 434.000000)">210.0</text></g><g class="guides"><path class="major guide line" d="M519.596154 0.000000 v416.500000"/><text class="major" x="519.5961538461538" y="434.0" transform="rotate(90 519.596154 434.000000)">240.0</text></g><g class="guides"><path class="major guide line" d="M582.961538 0.000000 v416.500000"/><text class="major" x="582.9615384615385" y="434.0" transform="rotate(90 582.961538 434.000000)">270.0</text></g><g class="guides"><path class="major guide line" d="M646.326923 0.000000 v416.500000"/><text class="major" x="646.3269230769231" y="434.0" transform="rotate(90 646.326923 434.000000)">300.0</text></g></g><g class="series serie-0 color-0"><path class="line reactive nofill" d="M12.673077 9.207464 L14.785256 9.207464 16.897436 9.207464 19.009615 9.207464 21.121795 9.207464 23.233974 9.207464 25.346154 9.207464 27.458333 9.207464 29.570513 9.207464 31.682692 9.207464 33.794872 9.207464 35.907051 9.207464 38.019231 9.207464 40.131410 9.207464 42.243590 9.207464 44.355769 9.207464 46.467949 9.207464 48.580128 9.207464 50.692308 9.207464 52.804487 9.207464 54.916667 9.207464 57.028846 9.207464 59.141026 9.207464 61.253205 9.207464 63.365385 9.207464 65.477564 9.207464 67.589744 9.207464 69.701923 9.207464 71.814103 9.207464 73.926282 9.207464 76.038462 9.207464 78.150641 9.207464 80.262821 9.207464 82.375000 9.207464 84.487179 9.207464 86.599359 9.207464 88.711538 9.207464 90.823718 9.207464 92.935897 9.207464 95.048077 9.207464 97.160256 9.207464 99.272436 9.207464 101.384615 9.207464 103.496795 9.207464 105.608974 9.207464 107.721154 9.207464 109.833333 9.207464 111.945513 9.207464 114.057692 9.207464 116.169872 9.207464 118.282051 9.207464 120.394231 9.207464 122.506410 9.207464 124.618590 9.207464 126.730769 9.207464 128.842949 9.207464 130.955128 9.207464 133.067308 9.207464 135.179487 37.654577 137.291667 37.654577 139.403846 30.542798 141.516026 30.542798 143.628205 30.542798 145.740385 30.542798 147.852564 23.431020 149.964744 23.431020 152.076923 23.431020 154.189103 21.399084 156.301282 21.399084 158.413462 19.875131 160.525641 17.741598 162.637821 17.741598 164.750000 16.965768 166.862179 16.965768 168.974359 20.230993 171.086538 21.568632 173.198718 17.086927 175.310897 14.242817 177.423077 16.283944 179.535256 11.905687 181.647436 12.599339 183.759615 12.668561 185.871795 12.235924 187.983974 67.558682 190.096154 65.645527 192.208333 62.172415 194.320513 61.369916 196.432692 61.369916 198.544872 60.704578 200.657051 59.958243 202.769231 31.456960 204.881410 32.231531 206.993590 72.580206 209.105769 73.403228 211.217949 91.710560 213.330128 108.177875 215.442308 112.379285 217.554487 139.286705 219.666667 151.076367 221.778846 138.676269 223.891026 148.218179 226.003205 186.221306 228.115385 183.169344 230.227564 200.546959 232.339744 141.281793 234.451923 129.696326 236.564103 237.962727 238.676282 250.003802 240.788462 238.321975 242.900641 289.117262 245.012821 195.813996 247.125000 238.732112 249.237179 216.538106 251.349359 162.795621 253.461538 138.433361 255.573718 102.288171 257.685897 78.906562 259.798077 68.186619 261.910256 46.504687 264.022436 44.598152 266.134615 44.599966 268.246795 44.100307 270.358974 40.015332 272.471154 39.488781 274.583333 38.623243 276.695513 37.786471 278.807692 37.356567 280.919872 23.162295 283.032051 19.337069 285.144231 19.439625 287.256410 11.926696 289.368590 12.101777 291.480769 8.691981 293.592949 8.607371 295.705128 8.592940 297.817308 8.503728 299.929487 8.337160 302.041667 8.246902 304.153846 8.294895 306.266026 8.263682 308.378205 8.904391 310.490385 9.024412 312.602564 9.019465 314.714744 9.188948 316.826923 9.395864 318.939103 9.408424 321.051282 9.423968 323.163462 8.927963 325.275641 9.183269 327.387821 9.180816 329.500000 9.180451 331.612179 9.162647 333.724359 9.161605 335.836538 9.144863 337.948718 10.418156 340.060897 11.880689 342.173077 14.106698 344.285256 14.242788 346.397436 14.538984 348.509615 16.306258 350.621795 16.905876 352.733974 21.180581 354.846154 19.633385 356.958333 20.285005 359.070513 17.411415 361.182692 19.481940 363.294872 19.481940 365.407051 20.022702 367.519231 20.022702 369.631410 22.906766 371.743590 22.906766 373.855769 23.885287 375.967949 23.885287 378.080128 23.885287 380.192308 23.885287 382.304487 23.395581 384.416667 19.208196 386.528846 19.208196 388.641026 18.299039 390.753205 18.299039 392.865385 19.208196 394.977564 18.639229 397.089744 18.639229 399.201923 18.639229 401.314103 18.639229 403.426282 25.147307 405.538462 24.015813 407.650641 24.015813 409.762821 24.015813 411.875000 24.015813 413.987179 24.015813 416.099359 24.015813 418.211538 24.015813 420.323718 24.015813 422.435897 24.015813 424.548077 24.015813 426.660256 24.015813 428.772436 24.015813 430.884615 24.015813 432.996795 38.824161 435.108974 38.824161 437.221154 38.824161 439.333333 38.824161 441.445513 38.824161 443.557692 38.824161 445.669872 38.824161 447.782051 9.207464 449.894231 9.207464 452.006410 9.207464 454.118590 9.207464 456.230769 9.207464 458.342949 9.207464 460.455128 9.207464 462.567308 9.207464 464.679487 9.207464 466.791667 9.207464 468.903846 9.207464 471.016026 9.207464 473.128205 9.207464 475.240385 9.207464 477.352564 9.207464 479.464744 9.207464 481.576923 9.207464 483.689103 9.207464 485.801282 9.207464 487.913462 9.207464 490.025641 9.207464 492.137821 9.207464 494.250000 9.207464 496.362179 9.207464 498.474359 9.207464 500.586538 9.207464 502.698718 9.207464 504.810897 9.207464 506.923077 9.207464 509.035256 9.207464 511.147436 9.207464 513.259615 9.207464 515.371795 9.207464 517.483974 9.207464 519.596154 9.207464 521.708333 9.207464 523.820513 9.207464 525.932692 9.207464 528.044872 9.207464 530.157051 9.207464 532.269231 9.207464 534.381410 9.207464 536.493590 9.207464 538.605769 9.207464 540.717949 9.207464 542.830128 9.207464 544.942308 9.207464 547.054487 9.207464 549.166667 9.207464 551.278846 9.207464 553.391026 9.207464 555.503205 9.207464 557.615385 9.207464 559.727564 9.207464 561.839744 9.207464 563.951923 9.207464 566.064103 9.207464 568.176282 9.207464 570.288462 9.207464 572.400641 9.207464 574.512821 9.207464 576.625000 9.207464 578.737179 9.207464 580.849359 9.207464 582.961538 9.207464 585.073718 9.207464 587.185897 9.207464 589.298077 9.207464 591.410256 9.207464 593.522436 9.207464 595.634615 9.207464 597.746795 9.207464 599.858974 9.207464 601.971154 9.207464 604.083333 9.207464 606.195513 9.207464 608.307692 9.207464 610.419872 9.207464 612.532051 9.207464 614.644231 9.207464 616.756410 9.207464 618.868590 9.207464 620.980769 9.207464 623.092949 9.207464 625.205128 9.207464 627.317308 9.207464 629.429487 9.207464 631.541667 9.207464 633.653846 9.207464 635.766026 9.207464 637.878205 9.207464 639.990385 9.207464 642.102564 9.207464 644.214744 9.207464 646.326923 9.207464"/></g></g><g class="titles"><text class="title plot_title" x="400.0" y="28">Mean OE2 for Tempo T ±10.0 BPM</text><text class="title" x="450.5" y="547.5">T (BPM)</text><text class="title" x="0" y="284.25" transform="rotate(-90 0.000000 256.250000)">Mean OE2 (TO)</text></g><g class="plot overlay" transform="translate(121, 48)"><g class="series serie-0 color-0"><g class="dots"><circle class="dot reactive tooltip-trigger" cx="12.673076923076922" cy="9.207464146023483" r="2.5"/><desc class="value">0.0000</desc><desc class="x ">12.673076923076922</desc><desc class="y ">9.207464146023483</desc><desc class="x_label">0.0</desc></g><g class="dots"><circle class="dot reactive tooltip-trigger" cx="76.03846153846155" cy="9.207464146023483" r="2.5"/><desc class="value">0.0000</desc><desc class="x ">76.03846153846155</desc><desc class="y ">9.207464146023483</desc><desc class="x_label">30.0</desc></g><g class="dots"><circle class="dot reactive tooltip-trigger" cx="139.40384615384613" cy="30.54279841989444" r="2.5"/><desc class="value">-0.0053</desc><desc class="x ">139.40384615384613</desc><desc class="y ">30.54279841989444</desc><desc class="x_label">60.0</desc></g><g class="dots"><circle class="dot reactive tooltip-trigger" cx="202.76923076923075" cy="31.456960100137167" r="2.5"/><desc class="value">-0.0056</desc><desc class="x ">202.76923076923075</desc><desc class="y ">31.456960100137167</desc><desc class="x_label">90.0</desc></g><g class="dots"><circle class="dot reactive tooltip-trigger" cx="266.1346153846154" cy="44.59996578929173" r="2.5"/><desc class="value">-0.0089</desc><desc class="x ">266.1346153846154</desc><desc class="y ">44.59996578929173</desc><desc class="x_label">120.0</desc></g><g class="dots"><circle class="dot reactive tooltip-trigger" cx="329.5" cy="9.180451282203023" r="2.5"/><desc class="value">0.0000</desc><desc class="x ">329.5</desc><desc class="y ">9.180451282203023</desc><desc class="x_label">150.0</desc></g><g class="dots"><circle class="dot reactive tooltip-trigger" cx="392.8653846153846" cy="19.20819637641131" r="2.5"/><desc class="value">-0.0025</desc><desc class="x left">392.8653846153846</desc><desc class="y left">19.20819637641131</desc><desc class="x_label">180.0</desc></g><g class="dots"><circle class="dot reactive tooltip-trigger" cx="456.23076923076917" cy="9.207464146023483" r="2.5"/><desc class="value">0.0000</desc><desc class="x left">456.23076923076917</desc><desc class="y left">9.207464146023483</desc><desc class="x_label">210.0</desc></g><g class="dots"><circle class="dot reactive tooltip-trigger" cx="519.5961538461538" cy="9.207464146023483" r="2.5"/><desc class="value">0.0000</desc><desc class="x left">519.5961538461538</desc><desc class="y left">9.207464146023483</desc><desc class="x_label">240.0</desc></g><g class="dots"><circle class="dot reactive tooltip-trigger" cx="582.9615384615385" cy="9.207464146023483" r="2.5"/><desc class="value">0.0000</desc><desc class="x left">582.9615384615385</desc><desc class="y left">9.207464146023483</desc><desc class="x_label">270.0</desc></g><g class="dots"><circle class="dot reactive tooltip-trigger" cx="646.3269230769231" cy="9.207464146023483" r="2.5"/><desc class="value">0.0000</desc><desc class="x left">646.3269230769231</desc><desc class="y left">9.207464146023483</desc><desc class="x_label">300.0</desc></g></g></g><g class="plot text-overlay" transform="translate(121, 48)"><g class="series serie-0 color-0"/></g><g class="plot tooltip-overlay" transform="translate(121, 48)"><g class="tooltip" style="opacity: 0" transform="translate(0 0)"><rect class="tooltip-box" height="0" rx="0" ry="0" width="0"/><g class="text"/></g></g><g class="legends" transform="translate(131, 567)"><g class="legend reactive activate-serie" id="activate-serie-0"><rect class="color-0 reactive" height="12" width="12" x="0.0" y="1.5"/><text x="17.0" y="12.0">beatport_key/1.0</text></g></g></g></svg>